<?xml version="1.0" encoding="UTF-8"?>
<!DOCTYPE svg PUBLIC "-//W3C//DTD SVG 1.1//EN"
    "http://www.w3.org/Graphics/SVG/1.1/DTD/svg11.dtd">
<svg xmlns="http://www.w3.org/2000/svg" height="436.20257323068523" stroke-opacity="1" viewBox="0 0 500 436" font-size="1" width="500.0" xmlns:xlink="http://www.w3.org/1999/xlink" stroke="rgb(0,0,0)" version="1.1">
  <defs>
  </defs>
  <defs>
  </defs>
  <g stroke-linejoin="miter" stroke-opacity="1.0" fill-opacity="1.0" stroke="rgb(0,0,0)" stroke-width="1.8680526185965647" fill="rgb(144,238,144)" stroke-linecap="butt" stroke-miterlimit="10.0">
    <path d="M 428.57142857142856,424.2978113259233 l 59.52380952380956,-103.09826235529032 l -59.52380952380948,-103.09826235529034 l -119.04761904761907,-5.947623346206196e-14 l -59.523809523809575,103.0982623552903 l 59.523809523809454,103.09826235529037 Z"/>
  </g>
  <defs>
  </defs>
  <g stroke-linejoin="miter" stroke-opacity="1.0" fill-opacity="1.0" stroke="rgb(0,0,0)" stroke-width="0.0" fill="rgb(255,0,0)" stroke-linecap="butt" stroke-miterlimit="10.0">
    <path d="M 259.5238095238095,218.10128661534262 c 0.0,-5.259854760293271 -4.263954763516252,-9.523809523809524 -9.523809523809522 -9.523809523809524c -5.259854760293271,-3.2207321480865616e-16 -9.523809523809524,4.263954763516251 -9.523809523809524 9.52380952380952c -6.441464296173123e-16,5.259854760293271 4.263954763516251,9.523809523809524 9.523809523809518 9.523809523809524c 5.259854760293271,9.662196444259684e-16 9.523809523809524,-4.26395476351625 9.523809523809526 -9.52380952380952Z"/>
  </g>
  <defs>
  </defs>
  <g stroke-linejoin="miter" stroke-opacity="1.0" fill-opacity="1.0" stroke="rgb(0,0,0)" stroke-width="1.8680526185965647" fill="rgb(144,238,144)" stroke-linecap="butt" stroke-miterlimit="10.0">
    <path d="M 428.57142857142856,218.10128661534262 l 59.52380952380956,-103.09826235529032 l -59.52380952380948,-103.09826235529034 l -119.04761904761907,-5.947623346206196e-14 l -59.523809523809575,103.0982623552903 l 59.523809523809454,103.09826235529037 Z"/>
  </g>
  <defs>
  </defs>
  <g stroke-linejoin="miter" stroke-opacity="1.0" fill-opacity="1.0" stroke="rgb(0,0,0)" stroke-width="0.0" fill="rgb(255,0,0)" stroke-linecap="butt" stroke-miterlimit="10.0">
    <path d="M 259.5238095238095,218.10128661534262 c 0.0,-5.259854760293271 -4.263954763516252,-9.523809523809524 -9.523809523809522 -9.523809523809524c -5.259854760293271,-3.2207321480865616e-16 -9.523809523809524,4.263954763516251 -9.523809523809524 9.52380952380952c -6.441464296173123e-16,5.259854760293271 4.263954763516251,9.523809523809524 9.523809523809518 9.523809523809524c 5.259854760293271,9.662196444259684e-16 9.523809523809524,-4.26395476351625 9.523809523809526 -9.52380952380952Z"/>
  </g>
  <defs>
  </defs>
  <g stroke-linejoin="miter" stroke-opacity="1.0" fill-opacity="1.0" stroke="rgb(0,0,0)" stroke-width="1.8680526185965647" fill="rgb(144,238,144)" stroke-linecap="butt" stroke-miterlimit="10.0">
    <path d="M 190.47619047619045,321.199548970633 l 59.52380952380956,-103.09826235529032 l -59.52380952380948,-103.09826235529034 l -119.04761904761907,-5.947623346206196e-14 l -59.523809523809575,103.0982623552903 l 59.523809523809454,103.09826235529037 Z"/>
  </g>
  <defs>
  </defs>
  <g stroke-linejoin="miter" stroke-opacity="1.0" fill-opacity="1.0" stroke="rgb(0,0,0)" stroke-width="0.0" fill="rgb(255,0,0)" stroke-linecap="butt" stroke-miterlimit="10.0">
    <path d="M 259.5238095238095,218.10128661534262 c 0.0,-5.259854760293271 -4.263954763516252,-9.523809523809524 -9.523809523809522 -9.523809523809524c -5.259854760293271,-3.2207321480865616e-16 -9.523809523809524,4.263954763516251 -9.523809523809524 9.52380952380952c -6.441464296173123e-16,5.259854760293271 4.263954763516251,9.523809523809524 9.523809523809518 9.523809523809524c 5.259854760293271,9.662196444259684e-16 9.523809523809524,-4.26395476351625 9.523809523809526 -9.52380952380952Z"/>
  </g>
</svg>