<?xml version="1.0" encoding="UTF-8"?>
<!DOCTYPE svg PUBLIC "-//W3C//DTD SVG 1.1//EN"
    "http://www.w3.org/Graphics/SVG/1.1/DTD/svg11.dtd">
<svg xmlns="http://www.w3.org/2000/svg" height="370.63028787285583" stroke-opacity="1" viewBox="0 0 750 371" font-size="1" width="750.0" xmlns:xlink="http://www.w3.org/1999/xlink" stroke="rgb(0,0,0)" version="1.1">
  <defs>
  </defs>
  <defs>
  </defs>
  <g stroke-linejoin="miter" stroke-opacity="1.0" fill-opacity="1.0" stroke="rgb(0,0,0)" stroke-width="2.108924715222018" fill="rgb(144,238,144)" stroke-linecap="butt" stroke-miterlimit="10.0">
    <path d="M 644.8598130841121,321.0369405786585 l 87.61682242990659,-151.75678804633853 l -87.61682242990648,-151.75678804633858 l -175.2336448598131,-8.754679224555849e-14 l -87.6168224299066,151.7567880463385 l 87.61682242990643,151.75678804633864 Z"/>
  </g>
  <defs>
  </defs>
  <g stroke-linejoin="miter" stroke-opacity="1.0" fill-opacity="1.0" stroke="rgb(0,0,0)" stroke-width="0.0" fill="rgb(255,0,0)" stroke-linecap="butt" stroke-miterlimit="10.0">
    <path d="M 396.0280373831776,321.0369405786585 c 0.0,-7.742309577067198 -6.276382011717847,-14.018691588785046 -14.018691588785043 -14.018691588785046c -7.742309577067198,-4.740797320781621e-16 -14.018691588785046,6.276382011717845 -14.018691588785046 14.01869158878504c -9.481594641563242e-16,7.742309577067198 6.276382011717845,14.018691588785046 14.018691588785039 14.018691588785046c 7.742309577067198,1.4222391962344862e-15 14.018691588785046,-6.276382011717844 14.01869158878505 -14.01869158878504Z"/>
  </g>
  <defs>
  </defs>
  <g stroke-linejoin="miter" stroke-opacity="1.0" fill-opacity="1.0" stroke="rgb(0,0,0)" stroke-width="2.108924715222018" fill="rgb(144,238,144)" stroke-linecap="butt" stroke-miterlimit="10.0">
    <path d="M 280.373831775701,353.10692338687454 l 87.61682242990659,-151.75678804633853 l -87.61682242990648,-151.75678804633858 l -175.2336448598131,-8.754679224555849e-14 l -87.6168224299066,151.7567880463385 l 87.61682242990643,151.75678804633864 Z"/>
  </g>
  <defs>
  </defs>
  <g stroke-linejoin="miter" stroke-opacity="1.0" fill-opacity="1.0" stroke="rgb(0,0,0)" stroke-width="0.0" fill="rgb(255,0,0)" stroke-linecap="butt" stroke-miterlimit="10.0">
    <path d="M 87.08889569645687,321.0369405786585 c 0.0,-7.742309577067198 -6.276382011717847,-14.018691588785046 -14.018691588785043 -14.018691588785046c -7.742309577067198,-4.740797320781621e-16 -14.018691588785046,6.276382011717845 -14.018691588785046 14.01869158878504c -9.481594641563242e-16,7.742309577067198 6.276382011717845,14.018691588785046 14.018691588785039 14.018691588785046c 7.742309577067198,1.4222391962344862e-15 14.018691588785046,-6.276382011717844 14.01869158878505 -14.01869158878504Z"/>
  </g>
</svg>