<?xml version="1.0" encoding="UTF-8"?>
<!DOCTYPE svg PUBLIC "-//W3C//DTD SVG 1.1//EN"
    "http://www.w3.org/Graphics/SVG/1.1/DTD/svg11.dtd">
<svg xmlns="http://www.w3.org/2000/svg" height="284.4799390634904" stroke-opacity="1" viewBox="0 0 500 284" font-size="1" width="500.0" xmlns:xlink="http://www.w3.org/1999/xlink" stroke="rgb(0,0,0)" version="1.1">
  <defs>
  </defs>
  <defs>
  </defs>
  <g stroke-linejoin="miter" stroke-opacity="1.0" fill-opacity="1.0" stroke="rgb(0,0,0)" stroke-width="1.508588582917133" fill="rgb(144,238,144)" stroke-linecap="butt" stroke-miterlimit="10.0">
    <path d="M 453.41614906832297,276.7159639082109 l 38.81987577639754,-67.23799718823281 l -38.819875776397495,-67.23799718823284 l -77.63975155279505,-3.8788847910040414e-14 l -38.81987577639755,67.23799718823281 l 38.819875776397474,67.23799718823285 Z"/>
  </g>
  <defs>
  </defs>
  <g stroke-linejoin="miter" stroke-opacity="1.0" fill-opacity="1.0" stroke="rgb(0,0,0)" stroke-width="0.0" fill="rgb(255,0,0)" stroke-linecap="butt" stroke-miterlimit="10.0">
    <path d="M 343.16770186335407,142.2399695317452 c 0.0,-3.4303400610608294 -2.780840063162773,-6.211180124223603 -6.211180124223602 -6.211180124223603c -3.4303400610608294,-2.1004774878825403e-16 -6.211180124223603,2.7808400631627723 -6.211180124223603 6.211180124223601c -4.2009549757650805e-16,3.4303400610608294 2.7808400631627723,6.211180124223603 6.2111801242236 6.211180124223603c 3.4303400610608294,6.30143246364762e-16 6.211180124223603,-2.780840063162772 6.211180124223605 -6.211180124223601Z"/>
  </g>
  <defs>
  </defs>
  <g stroke-linejoin="miter" stroke-opacity="1.0" fill-opacity="1.0" stroke="rgb(0,0,0)" stroke-width="1.508588582917133" fill="rgb(144,238,144)" stroke-linecap="butt" stroke-miterlimit="10.0">
    <path d="M 291.9254658385093,142.2399695317452 l 38.81987577639754,-67.23799718823281 l -38.819875776397495,-67.23799718823284 l -77.63975155279505,-3.8788847910040414e-14 l -38.81987577639755,67.23799718823281 l 38.819875776397474,67.23799718823285 Z"/>
  </g>
  <defs>
  </defs>
  <g stroke-linejoin="miter" stroke-opacity="1.0" fill-opacity="1.0" stroke="rgb(0,0,0)" stroke-width="0.0" fill="rgb(255,0,0)" stroke-linecap="butt" stroke-miterlimit="10.0">
    <path d="M 181.67701863354037,142.2399695317452 c 0.0,-3.4303400610608294 -2.780840063162773,-6.211180124223603 -6.211180124223602 -6.211180124223603c -3.4303400610608294,-2.1004774878825403e-16 -6.211180124223603,2.7808400631627723 -6.211180124223603 6.211180124223601c -4.2009549757650805e-16,3.4303400610608294 2.7808400631627723,6.211180124223603 6.2111801242236 6.211180124223603c 3.4303400610608294,6.30143246364762e-16 6.211180124223603,-2.780840063162772 6.211180124223605 -6.211180124223601Z"/>
  </g>
  <defs>
  </defs>
  <g stroke-linejoin="miter" stroke-opacity="1.0" fill-opacity="1.0" stroke="rgb(0,0,0)" stroke-width="1.508588582917133" fill="rgb(144,238,144)" stroke-linecap="butt" stroke-miterlimit="10.0">
    <path d="M 124.22360248447202,209.47796671997804 l 38.81987577639754,-67.23799718823281 l -38.819875776397495,-67.23799718823284 l -77.63975155279505,-3.8788847910040414e-14 l -38.81987577639755,67.23799718823281 l 38.819875776397474,67.23799718823285 Z"/>
  </g>
  <defs>
  </defs>
  <g stroke-linejoin="miter" stroke-opacity="1.0" fill-opacity="1.0" stroke="rgb(0,0,0)" stroke-width="0.0" fill="rgb(255,0,0)" stroke-linecap="butt" stroke-miterlimit="10.0">
    <path d="M 169.25465838509317,142.2399695317452 c 0.0,-3.4303400610608294 -2.780840063162773,-6.211180124223603 -6.211180124223602 -6.211180124223603c -3.4303400610608294,-2.1004774878825403e-16 -6.211180124223603,2.7808400631627723 -6.211180124223603 6.211180124223601c -4.2009549757650805e-16,3.4303400610608294 2.7808400631627723,6.211180124223603 6.2111801242236 6.211180124223603c 3.4303400610608294,6.30143246364762e-16 6.211180124223603,-2.780840063162772 6.211180124223605 -6.211180124223601Z"/>
  </g>
</svg>