<?xml version="1.0" encoding="UTF-8"?>
<!DOCTYPE svg PUBLIC "-//W3C//DTD SVG 1.1//EN"
    "http://www.w3.org/Graphics/SVG/1.1/DTD/svg11.dtd">
<svg xmlns="http://www.w3.org/2000/svg" height="375.0" stroke-opacity="1" viewBox="0 0 500 375" font-size="1" width="500.0" xmlns:xlink="http://www.w3.org/1999/xlink" stroke="rgb(0,0,0)" version="1.1">
  <defs>
  </defs>
  <defs>
  </defs>
  <g stroke-linejoin="miter" stroke-opacity="1.0" fill-opacity="0.0" stroke="rgb(0,0,0)" stroke-width="8.660254037844386" fill="rgb(0,0,0)" stroke-linecap="butt" stroke-miterlimit="10.0">
    <path d="M 125.00000014496102,185.04809520930291 c 1.5407509138131104e-7,-69.0355937288492 55.96440655012845,-124.9999998750975 125.00000027897764 -124.99999972102239c 69.0355937288492,1.540750871541001e-7 124.9999998750975,55.964406550128444 124.99999972102239 125.00000027897761"/>
  </g>
  <defs>
  </defs>
  <g stroke-linejoin="miter" stroke-opacity="1.0" fill-opacity="1.0" stroke="rgb(0,0,0)" stroke-width="0.0" fill="rgb(255,0,0)" stroke-linecap="butt" stroke-miterlimit="10.0">
    <path d="M 124.99999999999999,250.0000004931358 c 9.47536569820725e-8,-42.45576029559311 -30.020755843689862,-72.47651636803853 -30.020755843689862 -72.47651636803853l 30.020755985820347,8.792875924648866 l -1.4213048547310875e-7,63.68364044338966 c 9.47536569820725e-8,-42.45576029559311 30.02075616719908,-72.47651623403662 30.02075616719908 -72.47651623403662l -30.020756025068597,8.792875790646958 Z"/>
  </g>
  <defs>
  </defs>
  <g stroke-linejoin="miter" stroke-opacity="1.0" fill-opacity="1.0" stroke="rgb(0,0,0)" stroke-width="0.0" fill="rgb(0,0,0)" stroke-linecap="butt" stroke-miterlimit="10.0">
    <path d="M 125.00000014213047,186.31636004974612 l 2.8305400920179437e-9,-1.268264840443221 l -4.330127018922193,-9.664068371008448e-9 l 4.3301270160916525,1.2682648501072895 l 2.8305400920179437e-9,-1.268264840443221 l 4.330127018922193,9.664068371008448e-9 Z"/>
  </g>
  <defs>
  </defs>
  <g stroke-linejoin="miter" stroke-opacity="1.0" fill-opacity="1.0" stroke="rgb(0,0,0)" stroke-width="0.0" fill="rgb(0,0,255)" stroke-linecap="butt" stroke-miterlimit="10.0">
    <path d="M 375.0,250.000001051091 c 9.475366120981393e-8,-42.45576029559311 30.02075616719909,-72.47651623403662 30.02075616719909 -72.47651623403662l -30.020756025068597,8.792875790646955 l -1.421304918147209e-7,63.68364044338966 c 9.475366120981393e-8,-42.45576029559311 -30.020755843689855,-72.47651636803853 -30.020755843689855 -72.47651636803853l 30.020755985820347,8.79287592464887 Z"/>
  </g>
  <defs>
  </defs>
  <g stroke-linejoin="miter" stroke-opacity="1.0" fill-opacity="1.0" stroke="rgb(0,0,0)" stroke-width="0.0" fill="rgb(0,0,0)" stroke-linecap="butt" stroke-miterlimit="10.0">
    <path d="M 375.0000001421305,186.31636060770134 l 2.8305402183116613e-9,-1.268264840443221 l 4.330127018922193,9.664068802202172e-9 l -4.330127021752733,1.2682648307791522 l 2.8305402183116613e-9,-1.268264840443221 l -4.330127018922193,-9.664068802202172e-9 Z"/>
  </g>
</svg>