<?xml version="1.0" encoding="UTF-8"?>
<!DOCTYPE svg PUBLIC "-//W3C//DTD SVG 1.1//EN"
    "http://www.w3.org/Graphics/SVG/1.1/DTD/svg11.dtd">
<svg xmlns="http://www.w3.org/2000/svg" height="261.9047619047619" stroke-opacity="1" viewBox="0 0 500 262" font-size="1" width="500.0" xmlns:xlink="http://www.w3.org/1999/xlink" stroke="rgb(0,0,0)" version="1.1">
  <defs>
  </defs>
  <defs>
  </defs>
  <g stroke-linejoin="miter" stroke-opacity="1.0" fill-opacity="0.0" stroke="rgb(0,0,0)" stroke-width="1.4474937289114918" fill="rgb(0,0,0)" stroke-linecap="butt" stroke-miterlimit="10.0">
    <path d="M 488.0952380952381,250.0 l -2.64338815386942e-14,-238.09523809523807 h -238.09523809523807 l -2.64338815386942e-14,238.09523809523807 Z"/>
  </g>
  <defs>
  </defs>
  <g stroke-linejoin="miter" stroke-opacity="1.0" fill-opacity="1.0" stroke="rgb(0,0,0)" stroke-width="0.0" fill="rgb(255,0,0)" stroke-linecap="butt" stroke-miterlimit="10.0">
    <path d="M 373.8095238095238,130.95238095238096 c 0.0,-2.6299273801466354 -2.1319773817581256,-4.761904761904762 -4.761904761904761 -4.761904761904762c -2.6299273801466354,-1.6103660740432805e-16 -4.761904761904762,2.131977381758125 -4.761904761904762 4.76190476190476c -3.220732148086561e-16,2.6299273801466354 2.131977381758125,4.761904761904762 4.761904761904759 4.761904761904762c 2.6299273801466354,4.831098222129842e-16 4.761904761904762,-2.131977381758125 4.761904761904763 -4.76190476190476Z"/>
  </g>
  <defs>
  </defs>
  <g stroke-linejoin="miter" stroke-opacity="1.0" fill-opacity="0.0" stroke="rgb(0,0,0)" stroke-width="1.4474937289114918" fill="rgb(0,0,0)" stroke-linecap="butt" stroke-miterlimit="10.0">
    <path d="M 250.0,130.95238095238096 c 0.0,-65.74818450366588 -53.29943454395314,-119.04761904761904 -119.04761904761901 -119.04761904761904c -65.74818450366588,-4.0259151851082016e-15 -119.04761904761904,53.29943454395313 -119.04761904761904 119.047619047619c -8.051830370216403e-15,65.74818450366588 53.299434543953126,119.04761904761904 119.04761904761898 119.04761904761904c 65.74818450366588,1.2077745555324604e-14 119.04761904761904,-53.299434543953126 119.04761904761907 -119.047619047619Z"/>
  </g>
  <defs>
  </defs>
  <g stroke-linejoin="miter" stroke-opacity="1.0" fill-opacity="1.0" stroke="rgb(0,0,0)" stroke-width="0.0" fill="rgb(255,0,0)" stroke-linecap="butt" stroke-miterlimit="10.0">
    <path d="M 135.71428571428572,130.95238095238096 c 0.0,-2.629927380146635 -2.131977381758125,-4.761904761904761 -4.76190476190476 -4.761904761904761c -2.629927380146635,-1.6103660740432805e-16 -4.761904761904761,2.131977381758125 -4.761904761904761 4.761904761904759c -3.220732148086561e-16,2.629927380146635 2.131977381758125,4.761904761904761 4.761904761904758 4.761904761904761c 2.629927380146635,4.831098222129841e-16 4.761904761904761,-2.1319773817581247 4.761904761904764 -4.761904761904759Z"/>
  </g>
  <defs>
  </defs>
  <g stroke-linejoin="miter" stroke-opacity="1.0" fill-opacity="1.0" stroke="rgb(0,0,0)" stroke-width="1.4474937289114918" fill="rgb(0,0,0)" stroke-linecap="butt" stroke-miterlimit="10.0">
    <path d="M 338.38250053158,148.2056590752243 l 29.883554305881244,-17.253278122843344 l -29.883554305881244,-17.253278122843337 Z"/>
  </g>
  <defs>
  </defs>
  <g stroke-linejoin="miter" stroke-opacity="1.0" fill-opacity="0.0" stroke="rgb(0,0,0)" stroke-width="2.714050741709047" fill="rgb(0,0,0)" stroke-linecap="butt" stroke-miterlimit="10.0">
    <path d="M 130.95238095238096,130.95238095238096 h 207.0393374741201 "/>
  </g>
</svg>