<?xml version="1.0" encoding="UTF-8"?>
<!DOCTYPE svg PUBLIC "-//W3C//DTD SVG 1.1//EN"
    "http://www.w3.org/Graphics/SVG/1.1/DTD/svg11.dtd">
<svg xmlns="http://www.w3.org/2000/svg" height="264.00121817722413" stroke-opacity="1" viewBox="0 0 500 264" font-size="1" width="500.0" xmlns:xlink="http://www.w3.org/1999/xlink" stroke="rgb(0,0,0)" version="1.1">
  <defs>
  </defs>
  <defs>
  </defs>
  <g stroke-linejoin="miter" stroke-opacity="1.0" fill-opacity="1.0" stroke="rgb(0,0,0)" stroke-width="0.0" fill="rgb(211,211,211)" stroke-linecap="butt" stroke-miterlimit="10.0">
    <path d="M 497.0059880239521,238.55211638081695 c 0.0,-12.401603663865123 -10.053486156494158,-22.455089820359284 -22.455089820359277 -22.455089820359284c -12.401603663865123,-7.593792115623255e-16 -22.455089820359284,10.053486156494156 -22.455089820359284 22.455089820359277c -1.518758423124651e-15,12.401603663865123 10.053486156494154,22.455089820359284 22.455089820359273 22.455089820359284c 12.401603663865123,2.2781376346869765e-15 22.455089820359284,-10.053486156494152 22.455089820359287 -22.455089820359277Z"/>
  </g>
  <defs>
  </defs>
  <g stroke-linejoin="miter" stroke-opacity="1.0" fill-opacity="1.0" stroke="rgb(0,0,0)" stroke-width="0.0" fill="rgb(255,0,0)" stroke-linecap="butt" stroke-miterlimit="10.0">
    <path d="M 475.4491017964072,238.55211638081695 c 0.0,-0.49606414655460485 -0.4021394462597662,-0.8982035928143712 -0.898203592814371 -0.8982035928143712c -0.49606414655460485,-3.037516846249302e-17 -0.8982035928143712,0.4021394462597662 -0.8982035928143712 0.8982035928143709c -6.075033692498604e-17,0.49606414655460485 0.40213944625976616,0.8982035928143712 0.8982035928143708 0.8982035928143712c 0.49606414655460485,9.112550538747906e-17 0.8982035928143712,-0.4021394462597661 0.8982035928143715 -0.8982035928143709Z"/>
  </g>
  <defs>
  </defs>
  <g stroke-linejoin="miter" stroke-opacity="1.0" fill-opacity="1.0" stroke="rgb(0,0,0)" stroke-width="0.0" fill="rgb(211,211,211)" stroke-linecap="butt" stroke-miterlimit="10.0">
    <path d="M 272.45508982035926,238.55211638081695 c 0.0,-12.401603663865123 -10.053486156494158,-22.455089820359284 -22.455089820359277 -22.455089820359284c -12.401603663865123,-7.593792115623255e-16 -22.455089820359284,10.053486156494156 -22.455089820359284 22.455089820359277c -1.518758423124651e-15,12.401603663865123 10.053486156494154,22.455089820359284 22.455089820359273 22.455089820359284c 12.401603663865123,2.2781376346869765e-15 22.455089820359284,-10.053486156494152 22.455089820359287 -22.455089820359277Z"/>
  </g>
  <defs>
  </defs>
  <g stroke-linejoin="miter" stroke-opacity="1.0" fill-opacity="1.0" stroke="rgb(0,0,0)" stroke-width="0.0" fill="rgb(255,0,0)" stroke-linecap="butt" stroke-miterlimit="10.0">
    <path d="M 250.89820359281438,238.55211638081695 c 0.0,-0.49606414655460485 -0.4021394462597662,-0.8982035928143712 -0.898203592814371 -0.8982035928143712c -0.49606414655460485,-3.037516846249302e-17 -0.8982035928143712,0.4021394462597662 -0.8982035928143712 0.8982035928143709c -6.075033692498604e-17,0.49606414655460485 0.40213944625976616,0.8982035928143712 0.8982035928143708 0.8982035928143712c 0.49606414655460485,9.112550538747906e-17 0.8982035928143712,-0.4021394462597661 0.8982035928143715 -0.8982035928143709Z"/>
  </g>
  <defs>
  </defs>
  <g stroke-linejoin="miter" stroke-opacity="1.0" fill-opacity="1.0" stroke="rgb(0,0,0)" stroke-width="0.0" fill="rgb(211,211,211)" stroke-linecap="butt" stroke-miterlimit="10.0">
    <path d="M 47.90419161676646,238.55211638081695 c 0.0,-12.401603663865123 -10.053486156494158,-22.455089820359284 -22.455089820359277 -22.455089820359284c -12.401603663865123,-7.593792115623255e-16 -22.455089820359284,10.053486156494156 -22.455089820359284 22.455089820359277c -1.518758423124651e-15,12.401603663865123 10.053486156494154,22.455089820359284 22.455089820359273 22.455089820359284c 12.401603663865123,2.2781376346869765e-15 22.455089820359284,-10.053486156494152 22.455089820359287 -22.455089820359277Z"/>
  </g>
  <defs>
  </defs>
  <g stroke-linejoin="miter" stroke-opacity="1.0" fill-opacity="1.0" stroke="rgb(0,0,0)" stroke-width="0.0" fill="rgb(255,0,0)" stroke-linecap="butt" stroke-miterlimit="10.0">
    <path d="M 26.34730538922155,238.55211638081695 c 0.0,-0.49606414655460485 -0.4021394462597662,-0.8982035928143712 -0.898203592814371 -0.8982035928143712c -0.49606414655460485,-3.037516846249302e-17 -0.8982035928143712,0.4021394462597662 -0.8982035928143712 0.8982035928143709c -6.075033692498604e-17,0.49606414655460485 0.40213944625976616,0.8982035928143712 0.8982035928143708 0.8982035928143712c 0.49606414655460485,9.112550538747906e-17 0.8982035928143712,-0.4021394462597661 0.8982035928143715 -0.8982035928143709Z"/>
  </g>
  <defs>
  </defs>
  <g stroke-linejoin="miter" stroke-opacity="1.0" fill-opacity="1.0" stroke="rgb(0,0,0)" stroke-width="0.0" fill="rgb(211,211,211)" stroke-linecap="butt" stroke-miterlimit="10.0">
    <path d="M 497.0059880239521,133.7616972191403 c 0.0,-12.401603663865123 -10.053486156494158,-22.455089820359284 -22.455089820359277 -22.455089820359284c -12.401603663865123,-7.593792115623255e-16 -22.455089820359284,10.053486156494156 -22.455089820359284 22.455089820359277c -1.518758423124651e-15,12.401603663865123 10.053486156494154,22.455089820359284 22.455089820359273 22.455089820359284c 12.401603663865123,2.2781376346869765e-15 22.455089820359284,-10.053486156494152 22.455089820359287 -22.455089820359277Z"/>
  </g>
  <defs>
  </defs>
  <g stroke-linejoin="miter" stroke-opacity="1.0" fill-opacity="1.0" stroke="rgb(0,0,0)" stroke-width="0.0" fill="rgb(255,0,0)" stroke-linecap="butt" stroke-miterlimit="10.0">
    <path d="M 475.4491017964072,133.7616972191403 c 0.0,-0.49606414655460485 -0.4021394462597662,-0.8982035928143712 -0.898203592814371 -0.8982035928143712c -0.49606414655460485,-3.037516846249302e-17 -0.8982035928143712,0.4021394462597662 -0.8982035928143712 0.8982035928143709c -6.075033692498604e-17,0.49606414655460485 0.40213944625976616,0.8982035928143712 0.8982035928143708 0.8982035928143712c 0.49606414655460485,9.112550538747906e-17 0.8982035928143712,-0.4021394462597661 0.8982035928143715 -0.8982035928143709Z"/>
  </g>
  <defs>
  </defs>
  <g stroke-linejoin="miter" stroke-opacity="1.0" fill-opacity="1.0" stroke="rgb(0,0,0)" stroke-width="0.0" fill="rgb(211,211,211)" stroke-linecap="butt" stroke-miterlimit="10.0">
    <path d="M 272.45508982035926,133.7616972191403 c 0.0,-12.401603663865123 -10.053486156494158,-22.455089820359284 -22.455089820359277 -22.455089820359284c -12.401603663865123,-7.593792115623255e-16 -22.455089820359284,10.053486156494156 -22.455089820359284 22.455089820359277c -1.518758423124651e-15,12.401603663865123 10.053486156494154,22.455089820359284 22.455089820359273 22.455089820359284c 12.401603663865123,2.2781376346869765e-15 22.455089820359284,-10.053486156494152 22.455089820359287 -22.455089820359277Z"/>
  </g>
  <defs>
  </defs>
  <g stroke-linejoin="miter" stroke-opacity="1.0" fill-opacity="1.0" stroke="rgb(0,0,0)" stroke-width="0.0" fill="rgb(255,0,0)" stroke-linecap="butt" stroke-miterlimit="10.0">
    <path d="M 250.89820359281438,133.7616972191403 c 0.0,-0.49606414655460485 -0.4021394462597662,-0.8982035928143712 -0.898203592814371 -0.8982035928143712c -0.49606414655460485,-3.037516846249302e-17 -0.8982035928143712,0.4021394462597662 -0.8982035928143712 0.8982035928143709c -6.075033692498604e-17,0.49606414655460485 0.40213944625976616,0.8982035928143712 0.8982035928143708 0.8982035928143712c 0.49606414655460485,9.112550538747906e-17 0.8982035928143712,-0.4021394462597661 0.8982035928143715 -0.8982035928143709Z"/>
  </g>
  <defs>
  </defs>
  <g stroke-linejoin="miter" stroke-opacity="1.0" fill-opacity="1.0" stroke="rgb(0,0,0)" stroke-width="0.0" fill="rgb(211,211,211)" stroke-linecap="butt" stroke-miterlimit="10.0">
    <path d="M 47.90419161676646,133.7616972191403 c 0.0,-12.401603663865123 -10.053486156494158,-22.455089820359284 -22.455089820359277 -22.455089820359284c -12.401603663865123,-7.593792115623255e-16 -22.455089820359284,10.053486156494156 -22.455089820359284 22.455089820359277c -1.518758423124651e-15,12.401603663865123 10.053486156494154,22.455089820359284 22.455089820359273 22.455089820359284c 12.401603663865123,2.2781376346869765e-15 22.455089820359284,-10.053486156494152 22.455089820359287 -22.455089820359277Z"/>
  </g>
  <defs>
  </defs>
  <g stroke-linejoin="miter" stroke-opacity="1.0" fill-opacity="1.0" stroke="rgb(0,0,0)" stroke-width="0.0" fill="rgb(255,0,0)" stroke-linecap="butt" stroke-miterlimit="10.0">
    <path d="M 26.34730538922155,133.7616972191403 c 0.0,-0.49606414655460485 -0.4021394462597662,-0.8982035928143712 -0.898203592814371 -0.8982035928143712c -0.49606414655460485,-3.037516846249302e-17 -0.8982035928143712,0.4021394462597662 -0.8982035928143712 0.8982035928143709c -6.075033692498604e-17,0.49606414655460485 0.40213944625976616,0.8982035928143712 0.8982035928143708 0.8982035928143712c 0.49606414655460485,9.112550538747906e-17 0.8982035928143712,-0.4021394462597661 0.8982035928143715 -0.8982035928143709Z"/>
  </g>
  <defs>
  </defs>
  <g stroke-linejoin="miter" stroke-opacity="1.0" fill-opacity="1.0" stroke="rgb(0,0,0)" stroke-width="0.0" fill="rgb(211,211,211)" stroke-linecap="butt" stroke-miterlimit="10.0">
    <path d="M 497.0059880239521,28.97127805746365 c 0.0,-12.401603663865123 -10.053486156494158,-22.455089820359284 -22.455089820359277 -22.455089820359284c -12.401603663865123,-7.593792115623255e-16 -22.455089820359284,10.053486156494156 -22.455089820359284 22.455089820359277c -1.518758423124651e-15,12.401603663865123 10.053486156494154,22.455089820359284 22.455089820359273 22.455089820359284c 12.401603663865123,2.2781376346869765e-15 22.455089820359284,-10.053486156494152 22.455089820359287 -22.455089820359277Z"/>
  </g>
  <defs>
  </defs>
  <g stroke-linejoin="miter" stroke-opacity="1.0" fill-opacity="1.0" stroke="rgb(0,0,0)" stroke-width="0.0" fill="rgb(255,0,0)" stroke-linecap="butt" stroke-miterlimit="10.0">
    <path d="M 475.4491017964072,28.97127805746365 c 0.0,-0.49606414655460485 -0.4021394462597662,-0.8982035928143712 -0.898203592814371 -0.8982035928143712c -0.49606414655460485,-3.037516846249302e-17 -0.8982035928143712,0.4021394462597662 -0.8982035928143712 0.8982035928143709c -6.075033692498604e-17,0.49606414655460485 0.40213944625976616,0.8982035928143712 0.8982035928143708 0.8982035928143712c 0.49606414655460485,9.112550538747906e-17 0.8982035928143712,-0.4021394462597661 0.8982035928143715 -0.8982035928143709Z"/>
  </g>
  <defs>
  </defs>
  <g stroke-linejoin="miter" stroke-opacity="1.0" fill-opacity="1.0" stroke="rgb(0,0,0)" stroke-width="0.0" fill="rgb(211,211,211)" stroke-linecap="butt" stroke-miterlimit="10.0">
    <path d="M 272.45508982035926,28.97127805746365 c 0.0,-12.401603663865123 -10.053486156494158,-22.455089820359284 -22.455089820359277 -22.455089820359284c -12.401603663865123,-7.593792115623255e-16 -22.455089820359284,10.053486156494156 -22.455089820359284 22.455089820359277c -1.518758423124651e-15,12.401603663865123 10.053486156494154,22.455089820359284 22.455089820359273 22.455089820359284c 12.401603663865123,2.2781376346869765e-15 22.455089820359284,-10.053486156494152 22.455089820359287 -22.455089820359277Z"/>
  </g>
  <defs>
  </defs>
  <g stroke-linejoin="miter" stroke-opacity="1.0" fill-opacity="1.0" stroke="rgb(0,0,0)" stroke-width="0.0" fill="rgb(255,0,0)" stroke-linecap="butt" stroke-miterlimit="10.0">
    <path d="M 250.89820359281438,28.97127805746365 c 0.0,-0.49606414655460485 -0.4021394462597662,-0.8982035928143712 -0.898203592814371 -0.8982035928143712c -0.49606414655460485,-3.037516846249302e-17 -0.8982035928143712,0.4021394462597662 -0.8982035928143712 0.8982035928143709c -6.075033692498604e-17,0.49606414655460485 0.40213944625976616,0.8982035928143712 0.8982035928143708 0.8982035928143712c 0.49606414655460485,9.112550538747906e-17 0.8982035928143712,-0.4021394462597661 0.8982035928143715 -0.8982035928143709Z"/>
  </g>
  <defs>
  </defs>
  <g stroke-linejoin="miter" stroke-opacity="1.0" fill-opacity="1.0" stroke="rgb(0,0,0)" stroke-width="0.0" fill="rgb(211,211,211)" stroke-linecap="butt" stroke-miterlimit="10.0">
    <path d="M 47.90419161676646,28.97127805746365 c 0.0,-12.401603663865123 -10.053486156494158,-22.455089820359284 -22.455089820359277 -22.455089820359284c -12.401603663865123,-7.593792115623255e-16 -22.455089820359284,10.053486156494156 -22.455089820359284 22.455089820359277c -1.518758423124651e-15,12.401603663865123 10.053486156494154,22.455089820359284 22.455089820359273 22.455089820359284c 12.401603663865123,2.2781376346869765e-15 22.455089820359284,-10.053486156494152 22.455089820359287 -22.455089820359277Z"/>
  </g>
  <defs>
  </defs>
  <g stroke-linejoin="miter" stroke-opacity="1.0" fill-opacity="1.0" stroke="rgb(0,0,0)" stroke-width="0.0" fill="rgb(255,0,0)" stroke-linecap="butt" stroke-miterlimit="10.0">
    <path d="M 26.34730538922155,28.97127805746365 c 0.0,-0.49606414655460485 -0.4021394462597662,-0.8982035928143712 -0.898203592814371 -0.8982035928143712c -0.49606414655460485,-3.037516846249302e-17 -0.8982035928143712,0.4021394462597662 -0.8982035928143712 0.8982035928143709c -6.075033692498604e-17,0.49606414655460485 0.40213944625976616,0.8982035928143712 0.8982035928143708 0.8982035928143712c 0.49606414655460485,9.112550538747906e-17 0.8982035928143712,-0.4021394462597661 0.8982035928143715 -0.8982035928143709Z"/>
  </g>
  <defs>
  </defs>
  <g stroke-linejoin="miter" stroke-opacity="1.0" fill-opacity="0.0" stroke="rgb(0,0,0)" stroke-width="2.7248916054100993" fill="rgb(0,0,0)" stroke-dashoffset="0.0" stroke-linecap="butt" stroke-miterlimit="10.0" stroke-dasharray="3.633188807213466,7.266377614426932,10.899566421640397,3.633188807213466">
    <path d="M 214.82874935439358,238.55211638081695 l -148.7586137015598,-1.821767601152128e-14 "/>
  </g>
  <defs>
  </defs>
  <g stroke-linejoin="miter" stroke-opacity="1.0" fill-opacity="1.0" opacity="0.5" stroke="rgb(0,0,0)" stroke-width="0.0" fill="rgb(0,0,0)" stroke-linecap="butt" stroke-miterlimit="10.0">
    <path d="M 227.5449101796407,238.55211638081695 l -12.716160825247131,7.341678875515004 l 1.7981927070534385e-15,-14.683357751030012 Z"/>
  </g>
  <defs>
  </defs>
  <g stroke-linejoin="miter" stroke-opacity="1.0" fill-opacity="1.0" stroke="rgb(0,0,0)" stroke-width="0.0" fill="rgb(0,0,0)" stroke-linecap="butt" stroke-miterlimit="10.0">
  </g>
  <defs>
  </defs>
  <g stroke-linejoin="miter" stroke-opacity="1.0" fill-opacity="1.0" opacity="0.5" stroke="rgb(0,0,0)" stroke-width="0.0" fill="rgb(0,0,0)" stroke-linecap="butt" stroke-miterlimit="10.0">
    <path d="M 47.904191616766454,238.55211638081693 l 18.16594403606733,10.488112679307154 l 2.568846724362055e-15,-20.976225358614304 Z"/>
  </g>
  <defs>
  </defs>
  <g stroke-linejoin="miter" stroke-opacity="1.0" fill-opacity="1.0" stroke="rgb(0,0,0)" stroke-width="0.0" fill="rgb(0,0,0)" stroke-linecap="butt" stroke-miterlimit="10.0">
  </g>
  <defs>
  </defs>
  <g stroke-linejoin="miter" stroke-opacity="1.0" fill-opacity="0.0" stroke="rgb(0,0,0)" stroke-width="2.7248916054100993" fill="rgb(0,0,0)" stroke-dashoffset="0.0" stroke-linecap="butt" stroke-miterlimit="10.0" stroke-dasharray="3.633188807213466,7.266377614426932,10.899566421640397,3.633188807213466">
    <path d="M 285.1712506456064,238.55211638081695 h 148.7586137015598 "/>
  </g>
  <defs>
  </defs>
  <g stroke-linejoin="miter" stroke-opacity="1.0" fill-opacity="1.0" opacity="0.5" stroke="rgb(0,0,0)" stroke-width="0.0" fill="rgb(0,0,0)" stroke-linecap="butt" stroke-miterlimit="10.0">
    <path d="M 272.45508982035926,238.55211638081695 l 12.71616082524713,-7.341678875515006 v 14.683357751030012 Z"/>
  </g>
  <defs>
  </defs>
  <g stroke-linejoin="miter" stroke-opacity="1.0" fill-opacity="1.0" stroke="rgb(0,0,0)" stroke-width="0.0" fill="rgb(0,0,0)" stroke-linecap="butt" stroke-miterlimit="10.0">
  </g>
  <defs>
  </defs>
  <g stroke-linejoin="miter" stroke-opacity="1.0" fill-opacity="1.0" opacity="0.5" stroke="rgb(0,0,0)" stroke-width="0.0" fill="rgb(0,0,0)" stroke-linecap="butt" stroke-miterlimit="10.0">
    <path d="M 452.09580838323353,238.55211638081695 l -18.16594403606733,-10.488112679307152 v 20.976225358614304 Z"/>
  </g>
  <defs>
  </defs>
  <g stroke-linejoin="miter" stroke-opacity="1.0" fill-opacity="1.0" stroke="rgb(0,0,0)" stroke-width="0.0" fill="rgb(0,0,0)" stroke-linecap="butt" stroke-miterlimit="10.0">
  </g>
  <defs>
  </defs>
  <g stroke-linejoin="miter" stroke-opacity="1.0" fill-opacity="0.0" stroke="rgb(0,0,128)" stroke-width="3.633188807213466" fill="rgb(0,0,0)" stroke-linecap="butt" stroke-miterlimit="10.0">
    <path d="M 482.71242589469296,222.3227914266195 c 30.729716950135586,-61.106520863502375 6.104451871603757,-135.55450118511862 -55.002068991898604 -166.2842181352542c -61.10652086350236,-30.729716950135593 -135.5545011851186,-6.1044518716037635 -166.28421813525418 55.00206899189858"/>
  </g>
  <defs>
  </defs>
  <g stroke-linejoin="miter" stroke-opacity="1.0" fill-opacity="1.0" stroke="rgb(0,0,0)" stroke-width="0.0" fill="rgb(255,140,0)" stroke-linecap="butt" stroke-miterlimit="10.0">
    <path d="M 474.5508982035929,238.55211638081695 l 1.7247373074592707,-23.501839967254213 c 2.211912448437485,6.687132662704703 9.426013886912386,10.315015450355094 16.113146549617085 8.103103001917608l -17.837883857076363,15.398736965336607 Z"/>
  </g>
  <defs>
  </defs>
  <g stroke-linejoin="miter" stroke-opacity="1.0" fill-opacity="1.0" stroke="rgb(0,0,0)" stroke-width="0.0" fill="rgb(0,0,128)" stroke-linecap="butt" stroke-miterlimit="10.0">
    <path d="M 484.33535839011273,223.1389441957295 c -1.154310124480296,-0.3864090669508743 -2.247354037512491,-0.9360873923881521 -3.245864990839492 -1.6323055382200196Z"/>
  </g>
  <defs>
  </defs>
  <g stroke-linejoin="miter" stroke-opacity="1.0" fill-opacity="1.0" stroke="rgb(0,0,0)" stroke-width="0.0" fill="rgb(255,140,0)" stroke-linecap="butt" stroke-miterlimit="10.0">
    <path d="M 250.0000000000001,133.76169721914033 l 25.061786678506472,-21.63484548031758 c -9.395256389512483,3.107682412243208 -19.530890906296342,-1.9894033882482343 -22.63857331853955 -11.384659777760715l -2.4232133599669208,33.01950525807829 Z"/>
  </g>
  <defs>
  </defs>
  <g stroke-linejoin="miter" stroke-opacity="1.0" fill-opacity="1.0" stroke="rgb(0,0,0)" stroke-width="0.0" fill="rgb(0,0,128)" stroke-linecap="butt" stroke-miterlimit="10.0">
    <path d="M 259.80320627212046,110.22448951415387 c 1.0238550581513297,0.6526719563254386 2.111399293276414,1.1995845614596414 3.2458649908394936 1.632305538220019Z"/>
  </g>
  <defs>
  </defs>
  <g stroke-linejoin="miter" stroke-opacity="1.0" fill-opacity="0.0" stroke="rgb(0,128,128)" stroke-width="2.7248916054100993" fill="rgb(0,0,0)" stroke-linecap="butt" stroke-miterlimit="10.0">
    <path d="M 61.214389342998714,152.87608956321228 c 33.216151223888694,20.724940740560243 66.43230244777739,41.449881481120485 72.41992407626994 40.57558534193119c 5.9876216284925325,-0.87429613918931 -15.253286338411089,-23.34782915812817 -6.36886774686776 -22.599101883640238c 8.884418591543339,0.7487272744879432 47.89416374153363,24.719714842402677 86.90390889152393 48.690702410317414"/>
  </g>
  <defs>
  </defs>
  <g stroke-linejoin="miter" stroke-opacity="1.0" fill-opacity="1.0" stroke="rgb(0,0,0)" stroke-width="0.0" fill="rgb(0,128,128)" stroke-linecap="butt" stroke-miterlimit="10.0">
    <path d="M 45.802373263037516,143.25989057023446 l 21.47377594333053,5.338792401729597 l -6.66945308989803,3.898241466927938 l -0.5697366206659553,7.70410872430413 Z"/>
  </g>
  <defs>
  </defs>
  <g stroke-linejoin="miter" stroke-opacity="1.0" fill-opacity="1.0" stroke="rgb(0,0,0)" stroke-width="0.0" fill="rgb(0,128,128)" stroke-linecap="butt" stroke-miterlimit="10.0">
    <path d="M 60.60669611647002,152.496924438892 l 0.607693226528697,0.3791651243202835 l 0.7212149244733362,-1.15590120599709 l -1.3289081510020333,0.7767360816768064 l 0.607693226528697,0.3791651243202835 l -0.7212149244733362,1.15590120599709 Z"/>
  </g>
  <defs>
  </defs>
  <g stroke-linejoin="miter" stroke-opacity="1.0" fill-opacity="1.0" stroke="rgb(0,0,0)" stroke-width="0.0" fill="rgb(0,128,128)" stroke-linecap="butt" stroke-miterlimit="10.0">
    <path d="M 229.64672853336964,229.0539230297228 l -14.350030812473907,-16.843466782529546 l -0.5170728797479353,7.707822435023789 l -6.642656477122704,3.9437299577641793 Z"/>
  </g>
  <defs>
  </defs>
  <g stroke-linejoin="miter" stroke-opacity="1.0" fill-opacity="1.0" stroke="rgb(0,0,0)" stroke-width="0.0" fill="rgb(0,128,128)" stroke-linecap="butt" stroke-miterlimit="10.0">
    <path d="M 214.7796248411478,219.91827868221702 l -0.6102702772229964,-0.3750032503963683 l 0.7132985698426594,-1.1608030477083628 l -0.10302829261966295,1.5358062981047311 l -0.6102702772229964,-0.3750032503963683 l -0.7132985698426594,1.1608030477083628 Z"/>
  </g>
  <defs>
  </defs>
  <g stroke-linejoin="miter" stroke-opacity="1.0" fill-opacity="0.0" stroke="rgb(0,0,0)" stroke-width="1.4532755228853864" fill="rgb(0,0,0)" stroke-linecap="butt" stroke-miterlimit="10.0">
    <path d="M 31.858979703336566,39.95372820994822 c 84.67779975341442,145.08384220682302 270.9364118933142,194.05261495864238 416.02025410013727 109.37481520522802"/>
  </g>
  <defs>
  </defs>
  <g stroke-linejoin="miter" stroke-opacity="1.0" fill-opacity="1.0" stroke="rgb(0,0,0)" stroke-width="0.0" fill="rgb(0,0,0)" stroke-linecap="butt" stroke-miterlimit="10.0">
  </g>
  <defs>
  </defs>
  <g stroke-linejoin="miter" stroke-opacity="1.0" fill-opacity="1.0" stroke="rgb(0,0,0)" stroke-width="0.0" fill="rgb(0,0,0)" stroke-linecap="butt" stroke-miterlimit="10.0">
  </g>
  <defs>
  </defs>
  <g stroke-linejoin="miter" stroke-opacity="1.0" fill-opacity="1.0" stroke="rgb(0,0,0)" stroke-width="0.0" fill="rgb(0,0,0)" stroke-linecap="butt" stroke-miterlimit="10.0">
    <path d="M 463.56844830702323,140.17157497670567 c -10.336935948056945,6.033125253366583 -21.91231723202232,2.9898715262078412 -21.91231723202232 2.9898715262078412l 6.406913309936904,6.0598163538420335 l 15.505403922085414,-9.049687880049873 c -10.336935948056945,6.033125253366583 -13.380189675215684,17.608506537331962 -13.380189675215684 17.608506537331962l -2.125214246869733,-8.558818657282085 Z"/>
  </g>
  <defs>
  </defs>
  <g stroke-linejoin="miter" stroke-opacity="1.0" fill-opacity="1.0" stroke="rgb(0,0,0)" stroke-width="0.0" fill="rgb(0,0,0)" stroke-linecap="butt" stroke-miterlimit="10.0">
    <path d="M 448.0630443849378,149.22126285675554 l -0.18381058146397142,0.10728055842067336 l -0.3662787375388219,-0.6275685801419755 l 0.5500893190027933,0.5202880217213022 l -0.18381058146397142,0.10728055842067336 l 0.3662787375388219,0.6275685801419755 Z"/>
  </g>
  <defs>
  </defs>
  <g stroke-linejoin="miter" stroke-opacity="1.0" fill-opacity="0.0" stroke="rgb(0,0,0)" stroke-width="0.7266377614426932" fill="rgb(0,0,0)" stroke-linecap="butt" stroke-miterlimit="10.0">
    <path d="M 39.92220203479282,122.78304100760093 c 49.47634964696141,-37.53057910393459 98.95269929392282,-75.06115820786918 117.76336810526453 -66.86549161462081c 18.810668811341717,8.195666593248358 6.955656787063775,62.117578883679656 33.432745807310404 58.88168405263226c 26.47708902024665,-3.2358948310473803 91.28627908501791,-63.62959678357343 117.76336810526453 -66.86549161462081c 26.47708902024663,-3.235894831047368 14.622076995968698,50.686017459383905 33.432745807310404 58.88168405263227c 18.81066881134172,8.195666593248372 68.28701845830314,-29.33491251068621 117.7633681052646 -66.86549161462082"/>
  </g>
  <defs>
  </defs>
  <g stroke-linejoin="miter" stroke-opacity="1.0" fill-opacity="1.0" stroke="rgb(0,0,0)" stroke-width="0.0" fill="rgb(0,0,0)" stroke-linecap="butt" stroke-miterlimit="10.0">
    <path d="M 25.449101796407184,133.7616972191403 l 13.014366121627226,-18.712916938564344 l 1.3065549350756454,7.849697149818295 l 7.207098910573266,3.373804445347956 Z"/>
  </g>
  <defs>
  </defs>
  <g stroke-linejoin="miter" stroke-opacity="1.0" fill-opacity="1.0" stroke="rgb(0,0,0)" stroke-width="0.0" fill="rgb(0,0,0)" stroke-linecap="butt" stroke-miterlimit="10.0">
    <path d="M 39.770022853110056,122.89847743039425 l 0.15217918168276334,-0.11543642279332439 l -0.21957312423078743,-0.2894620047677126 l 6.73939425480241e-2,0.404898427561037 l 0.15217918168276334,-0.11543642279332439 l 0.21957312423078743,0.2894620047677126 Z"/>
  </g>
  <defs>
  </defs>
  <g stroke-linejoin="miter" stroke-opacity="1.0" fill-opacity="1.0" stroke="rgb(0,0,0)" stroke-width="0.0" fill="rgb(0,0,0)" stroke-linecap="butt" stroke-miterlimit="10.0">
    <path d="M 474.55089820359296,28.97127805746363 l -21.52801996727614,7.489415343398083 l 7.207098910573264,3.3738044453479588 l 1.3065549350756418,7.8496971498182955 Z"/>
  </g>
  <defs>
  </defs>
  <g stroke-linejoin="miter" stroke-opacity="1.0" fill-opacity="1.0" stroke="rgb(0,0,0)" stroke-width="0.0" fill="rgb(0,0,0)" stroke-linecap="butt" stroke-miterlimit="10.0">
    <path d="M 460.22997714689006,39.83449784620967 l -0.15217918168276337,0.11543642279332433 l -0.2195731242307873,-0.2894620047677127 l 0.3717523059135507,0.17402558197438836 l -0.15217918168276337,0.11543642279332433 l 0.2195731242307873,0.2894620047677127 Z"/>
  </g>
  <defs>
  </defs>
  <g stroke-linejoin="miter" stroke-opacity="1.0" fill-opacity="0.0" stroke="rgb(0,0,0)" stroke-width="2.7248916054100993" fill="rgb(0,0,0)" stroke-linecap="butt" stroke-miterlimit="10.0">
    <path d="M 41.13366746702773,38.13620699584182 c 37.92774010379951,22.162235802022405 37.92774010379951,22.162235802022405 60.08997590582191 -15.765504301777101l 7.8827521508885505,30.044987952910954 c 22.162235802022405,-37.92774010379951 22.162235802022405,-37.92774010379951 60.08997590582191 -15.765504301777101l 7.8827521508885505,30.044987952910954 c 37.92774010379951,22.162235802022405 37.92774010379951,22.162235802022405 60.08997590582191 -15.765504301777101"/>
  </g>
  <defs>
  </defs>
  <g stroke-linejoin="miter" stroke-opacity="1.0" fill-opacity="1.0" stroke="rgb(0,0,0)" stroke-width="0.0" fill="rgb(255,0,0)" stroke-linecap="butt" stroke-miterlimit="10.0">
    <path d="M 41.13366746702773,38.13620699584182 l -2.8174405758163164,-11.952089515496422 l -16.33808924022974,-9.546800977477258 l 3.4709641454255067,12.333961554595511 l -12.449314259237509,3.031299095077097 l 16.33808924022974,9.546800977477258 l 11.795790689628317,-3.4131711341761877 Z"/>
  </g>
  <defs>
  </defs>
  <g stroke-linejoin="miter" stroke-opacity="1.0" fill-opacity="1.0" stroke="rgb(0,0,0)" stroke-width="0.0" fill="rgb(0,0,0)" stroke-linecap="butt" stroke-miterlimit="10.0">
    <path d="M 41.13366746702773,38.13620699584182 l 0.6873696703783625,-1.176342425296541 l -1.11876812897272,-0.6537274041169933 l 0.43139845859435744,1.8300698294135345 l -1.8061377993510823,0.522615021179548 l 1.11876812897272,0.6537274041169933 l 0.6873696703783625,-1.176342425296541 Z"/>
  </g>
  <defs>
  </defs>
  <g stroke-linejoin="miter" stroke-opacity="1.0" fill-opacity="1.0" stroke="rgb(0,0,0)" stroke-width="0.0" fill="rgb(0,0,255)" stroke-linecap="butt" stroke-miterlimit="10.0">
    <path d="M 249.99999999999997,28.97127805746365 l -23.40059921563861,20.849953914366317 l 10.931070323154154,0.48999821301838437 l 5.793341870318004,9.282542035031296 Z"/>
  </g>
  <defs>
  </defs>
  <g stroke-linejoin="miter" stroke-opacity="1.0" fill-opacity="1.0" stroke="rgb(0,0,0)" stroke-width="0.0" fill="rgb(0,0,0)" stroke-linecap="butt" stroke-miterlimit="10.0">
    <path d="M 237.53047110751552,50.311230184848355 l -0.3613716212449783,0.6184398114840686 l -1.176342425296541,-0.6873696703783624 l 1.5377140465415193,6.892985889429387e-2 l -0.3613716212449783,0.6184398114840686 l 1.176342425296541,0.6873696703783624 Z"/>
  </g>
</svg>