<?xml version="1.0" encoding="UTF-8"?>
<!DOCTYPE svg PUBLIC "-//W3C//DTD SVG 1.1//EN"
    "http://www.w3.org/Graphics/SVG/1.1/DTD/svg11.dtd">
<svg xmlns="http://www.w3.org/2000/svg" height="500.00000000000006" stroke-opacity="1" viewBox="0 0 500 500" font-size="1" width="500.00000000000006" xmlns:xlink="http://www.w3.org/1999/xlink" stroke="rgb(0,0,0)" version="1.1">
  <defs>
  </defs>
  <defs>
  </defs>
  <g stroke-linejoin="miter" stroke-opacity="1.0" fill-opacity="1.0" stroke="rgb(0,0,0)" stroke-width="2.0000000000000004" fill="rgb(255,165,0)" stroke-linecap="butt" stroke-miterlimit="10.0">
    <path d="M 481.88839013540576,199.22770851053733 c 0.0,-100.02765923100394 -81.08843941493905,-181.116098645943 -181.11609864594297 -181.116098645943c -100.02765923100394,-6.124927635172558e-15 -181.116098645943,81.08843941493903 -181.116098645943 181.11609864594294c -1.2249855270345116e-14,100.02765923100394 81.08843941493902,181.116098645943 181.1160986459429 181.116098645943c 100.02765923100394,1.8374782905517674e-14 181.116098645943,-81.088439414939 181.11609864594308 -181.11609864594294Z"/>
  </g>
  <defs>
  </defs>
  <g stroke-linejoin="miter" stroke-opacity="1.0" fill-opacity="1.0" stroke="rgb(0,0,0)" stroke-width="2.0000000000000004" fill="rgb(70,130,180)" stroke-linecap="butt" stroke-miterlimit="10.0">
    <path d="M 199.22770851053727,391.3303408124343 c 0.0,-50.01382961550197 -40.54421970746952,-90.5580493229715 -90.55804932297148 -90.5580493229715c -50.01382961550197,-3.062463817586279e-15 -90.5580493229715,40.544219707469516 -90.5580493229715 90.55804932297147c -6.124927635172558e-15,50.01382961550197 40.54421970746951,90.5580493229715 90.55804932297146 90.5580493229715c 50.01382961550197,9.187391452758837e-15 90.5580493229715,-40.5442197074695 90.55804932297154 -90.55804932297147Z"/>
  </g>
  <defs>
  </defs>
  <g stroke-linejoin="miter" stroke-opacity="1.0" fill-opacity="1.0" stroke="rgb(0,0,0)" stroke-width="0.0" fill="rgb(255,0,0)" stroke-linecap="butt" stroke-miterlimit="10.0">
    <path d="M 117.945194792982,391.3303408124343 c 0.0,-5.12273686138392 -4.152798744032309,-9.27553560541623 -9.275535605416227 -9.27553560541623c -5.12273686138392,-3.136771650083988e-16 -9.27553560541623,4.152798744032309 -9.27553560541623 9.275535605416227c -6.273543300167976e-16,5.12273686138392 4.152798744032308,9.27553560541623 9.275535605416227 9.27553560541623c 5.12273686138392,9.410314950251964e-16 9.27553560541623,-4.1527987440323075 9.27553560541623 -9.275535605416227Z"/>
  </g>
</svg>