<?xml version="1.0" encoding="UTF-8"?>
<!DOCTYPE svg PUBLIC "-//W3C//DTD SVG 1.1//EN"
    "http://www.w3.org/Graphics/SVG/1.1/DTD/svg11.dtd">
<svg xmlns="http://www.w3.org/2000/svg" height="499.9999999999999" stroke-opacity="1" viewBox="0 0 500 500" font-size="1" width="500.0" xmlns:xlink="http://www.w3.org/1999/xlink" stroke="rgb(0,0,0)" version="1.1">
  <g>
    <defs>
    </defs>
    <g stroke-linejoin="miter" stroke-opacity="1.0" fill-opacity="1.0" stroke="rgb(0,0,0)" stroke-width="1.9999999999999998" fill="rgb(255,165,0)" stroke-linecap="butt" stroke-miterlimit="10.0">
      <path d="M 477.27272727272725,250.0 c 0.0,-125.51926132518032 -101.75346594754691,-227.27272727272725 -227.2727272727272 -227.27272727272725c -125.51926132518032,-7.685838080661113e-15 -227.27272727272725,101.7534659475469 -227.27272727272725 227.27272727272717c -1.5371676161322225e-14,125.51926132518032 101.75346594754689,227.27272727272725 227.27272727272714 227.27272727272725c 125.51926132518032,2.3057514241983336e-14 227.27272727272725,-101.75346594754687 227.2727272727273 -227.27272727272717Z"/>
    </g>
    <defs>
    </defs>
    <g stroke-linejoin="miter" stroke-opacity="1.0" fill-opacity="1.0" stroke="rgb(0,0,0)" stroke-width="1.9999999999999998" fill="rgb(70,130,180)" stroke-linecap="butt" stroke-miterlimit="10.0">
      <path d="M 363.6363636363636,250.0 c 0.0,-62.75963066259016 -50.87673297377346,-113.63636363636363 -113.6363636363636 -113.63636363636363c -62.75963066259016,-3.842919040330556e-15 -113.63636363636363,50.87673297377345 -113.63636363636363 113.63636363636358c -7.685838080661113e-15,62.75963066259016 50.87673297377344,113.63636363636363 113.63636363636357 113.63636363636363c 62.75963066259016,1.1528757120991668e-14 113.63636363636363,-50.876732973773436 113.63636363636365 -113.63636363636358Z"/>
    </g>
    <defs>
    </defs>
    <g stroke-linejoin="miter" stroke-opacity="1.0" fill-opacity="1.0" stroke="rgb(0,0,0)" stroke-width="0.0" fill="rgb(255,0,0)" stroke-linecap="butt" stroke-miterlimit="10.0">
      <path d="M 259.09090909090907,250.0 c 0.0,-5.020770453007212 -4.070138637901875,-9.090909090909088 -9.090909090909086 -9.090909090909088c -5.020770453007212,-3.0743352322644446e-16 -9.090909090909088,4.0701386379018745 -9.090909090909088 9.090909090909086c -6.148670464528889e-16,5.020770453007212 4.0701386379018745,9.090909090909088 9.090909090909085 9.090909090909088c 5.020770453007212,9.223005696793333e-16 9.090909090909088,-4.0701386379018745 9.090909090909088 -9.090909090909086Z"/>
    </g>
  </g>
</svg>