<?xml version="1.0" encoding="UTF-8"?>
<!DOCTYPE svg PUBLIC "-//W3C//DTD SVG 1.1//EN"
    "http://www.w3.org/Graphics/SVG/1.1/DTD/svg11.dtd">
<svg xmlns="http://www.w3.org/2000/svg" height="343.74999999999994" stroke-opacity="1" viewBox="0 0 500 344" font-size="1" width="500.0" xmlns:xlink="http://www.w3.org/1999/xlink" stroke="rgb(0,0,0)" version="1.1">
  <g>
    <defs>
    </defs>
    <g stroke-linejoin="miter" stroke-opacity="1.0" fill-opacity="1.0" stroke="rgb(0,0,0)" stroke-width="1.6583123951776997" fill="rgb(255,165,0)" stroke-linecap="butt" stroke-miterlimit="10.0">
      <path d="M 484.375,171.875 c 0.0,-86.29449216106148 -69.9555078389385,-156.25 -156.24999999999997 -156.25c -86.29449216106148,-5.284013680454515e-15 -156.25,69.9555078389385 -156.25 156.24999999999994c -1.056802736090903e-14,86.29449216106148 69.95550783893849,156.25 156.24999999999994 156.25c 86.29449216106148,1.5852041041363545e-14 156.25,-69.95550783893847 156.25000000000006 -156.24999999999994Z"/>
    </g>
    <defs>
    </defs>
    <g stroke-linejoin="miter" stroke-opacity="1.0" fill-opacity="1.0" stroke="rgb(0,0,0)" stroke-width="1.6583123951776997" fill="rgb(70,130,180)" stroke-linecap="butt" stroke-miterlimit="10.0">
      <path d="M 171.875,171.875 c 0.0,-43.14724608053074 -34.97775391946925,-78.125 -78.12499999999999 -78.125c -43.14724608053074,-2.6420068402272573e-15 -78.125,34.97775391946925 -78.125 78.12499999999997c -5.284013680454515e-15,43.14724608053074 34.977753919469244,78.125 78.12499999999997 78.125c 43.14724608053074,7.926020520681772e-15 78.125,-34.97775391946924 78.12500000000003 -78.12499999999997Z"/>
    </g>
  </g>
</svg>