<?xml version="1.0" encoding="UTF-8"?>
<!DOCTYPE svg PUBLIC "-//W3C//DTD SVG 1.1//EN"
    "http://www.w3.org/Graphics/SVG/1.1/DTD/svg11.dtd">
<svg xmlns="http://www.w3.org/2000/svg" height="499.9999999999999" stroke-opacity="1" viewBox="0 0 500 500" font-size="1" width="500.0" xmlns:xlink="http://www.w3.org/1999/xlink" stroke="rgb(0,0,0)" version="1.1">
  <g>
    <defs>
    </defs>
    <g stroke-linejoin="miter" stroke-opacity="1.0" fill-opacity="1.0" stroke="rgb(0,0,0)" stroke-width="1.9999999999999998" fill="rgb(70,130,180)" stroke-linecap="butt" stroke-miterlimit="10.0">
      <path d="M 171.875,406.24999999999994 c 0.0,-43.14724608053074 -34.97775391946925,-78.125 -78.12499999999999 -78.125c -43.14724608053074,-2.6420068402272573e-15 -78.125,34.97775391946925 -78.125 78.12499999999997c -5.284013680454515e-15,43.14724608053074 34.977753919469244,78.125 78.12499999999997 78.125c 43.14724608053074,7.926020520681772e-15 78.125,-34.97775391946924 78.12500000000003 -78.12499999999997Z"/>
    </g>
    <defs>
    </defs>
    <g stroke-linejoin="miter" stroke-opacity="1.0" fill-opacity="1.0" stroke="rgb(0,0,0)" stroke-width="0.0" fill="rgb(255,0,0)" stroke-linecap="butt" stroke-miterlimit="10.0">
      <path d="M 96.875,406.24999999999994 c 0.0,-1.7258898432212293 -1.3991101567787698,-3.1249999999999996 -3.124999999999999 -3.1249999999999996c -1.7258898432212293,-1.0568027360909029e-16 -3.1249999999999996,1.3991101567787696 -3.1249999999999996 3.1249999999999982c -2.1136054721818057e-16,1.7258898432212293 1.3991101567787696,3.1249999999999996 3.124999999999998 3.1249999999999996c 1.7258898432212293,3.1704082082727086e-16 3.1249999999999996,-1.3991101567787694 3.1250000000000004 -3.1249999999999982Z"/>
    </g>
    <defs>
    </defs>
    <g stroke-linejoin="miter" stroke-opacity="1.0" fill-opacity="1.0" stroke="rgb(0,0,0)" stroke-width="1.9999999999999998" fill="rgb(255,165,0)" stroke-linecap="butt" stroke-miterlimit="10.0">
      <path d="M 484.375,171.875 c 0.0,-86.29449216106148 -69.9555078389385,-156.25 -156.24999999999997 -156.25c -86.29449216106148,-5.284013680454515e-15 -156.25,69.9555078389385 -156.25 156.24999999999994c -1.056802736090903e-14,86.29449216106148 69.95550783893849,156.25 156.24999999999994 156.25c 86.29449216106148,1.5852041041363545e-14 156.25,-69.95550783893847 156.25000000000006 -156.24999999999994Z"/>
    </g>
    <defs>
    </defs>
    <g stroke-linejoin="miter" stroke-opacity="1.0" fill-opacity="0.0" stroke="rgb(0,0,0)" stroke-width="0.0" fill="rgb(0,0,0)" stroke-linecap="butt" stroke-miterlimit="10.0">
      <path d="M 171.875,171.875 c 0.0,-43.14724608053074 -34.97775391946925,-78.125 -78.12499999999999 -78.125c -43.14724608053074,-2.6420068402272573e-15 -78.125,34.97775391946925 -78.125 78.12499999999997c -5.284013680454515e-15,43.14724608053074 34.977753919469244,78.125 78.12499999999997 78.125c 43.14724608053074,7.926020520681772e-15 78.125,-34.97775391946924 78.12500000000003 -78.12499999999997Z"/>
    </g>
    <defs>
    </defs>
    <g stroke-linejoin="miter" stroke-opacity="1.0" fill-opacity="1.0" stroke="rgb(0,0,0)" stroke-width="0.0" fill="rgb(255,0,0)" stroke-linecap="butt" stroke-miterlimit="10.0">
      <path d="M 96.875,171.875 c 0.0,-1.7258898432212293 -1.3991101567787698,-3.1249999999999996 -3.124999999999999 -3.1249999999999996c -1.7258898432212293,-1.0568027360909029e-16 -3.1249999999999996,1.3991101567787696 -3.1249999999999996 3.1249999999999982c -2.1136054721818057e-16,1.7258898432212293 1.3991101567787696,3.1249999999999996 3.124999999999998 3.1249999999999996c 1.7258898432212293,3.1704082082727086e-16 3.1249999999999996,-1.3991101567787694 3.1250000000000004 -3.1249999999999982Z"/>
    </g>
  </g>
</svg>