<?xml version="1.0" encoding="UTF-8"?>
<!DOCTYPE svg PUBLIC "-//W3C//DTD SVG 1.1//EN"
    "http://www.w3.org/Graphics/SVG/1.1/DTD/svg11.dtd">
<svg xmlns="http://www.w3.org/2000/svg" height="187.4489715200569" stroke-opacity="1" viewBox="0 0 500 187" font-size="1" width="500.0" xmlns:xlink="http://www.w3.org/1999/xlink" stroke="rgb(0,0,0)" version="1.1">
  <defs>
  </defs>
  <defs>
  </defs>
  <g stroke-linejoin="miter" stroke-opacity="1.0" fill-opacity="0.0" stroke="rgb(0,0,0)" stroke-width="1.2245782017333378" fill="rgb(0,0,0)" stroke-linecap="butt" stroke-miterlimit="10.0">
    <path d="M 449.19221253386786,167.6959986037847 l -1.3791108058328138e-14,-124.2192582250257 h -124.2192582250257 l -1.3791108058328138e-14,124.2192582250257 Z"/>
  </g>
  <defs>
  </defs>
  <g stroke-linejoin="miter" stroke-opacity="1.0" fill-opacity="0.0" stroke="rgb(255,0,0)" stroke-width="1.2245782017333378" fill="rgb(0,0,0)" stroke-linecap="butt" stroke-miterlimit="10.0">
    <path d="M 449.19221253386786,43.476740378759004 c -0.36133917208835487,-0.3649806349610998 -0.10312773806472,-0.7236540712117848 -1.891775395468718e-2 -1.08379739820285c 8.420998411004661e-2,-0.3601433269910653 -5.581481693508785e-3,-0.7217565447225106 -5.6730213494833384e-2 -1.0824769580193319c -5.11487318013246e-2,-0.360720413296821 -6.365472960044598e-2,-0.7205480221590167 -9.44735560085425e-2 -1.0798376864052581c -3.0818826408096522e-2,-0.35928966424624126 -7.99504814251613e-2,-0.7180413838765276 -0.13210179704673214 -1.0758827989065447c -5.215131562156395e-2,-0.35784141503001793 -0.10732229184762018,-0.7147725254597662 -0.16956909239393342 -1.0706171139444038c -6.224680054632013e-2,-0.3558445884846385 -0.13156942541290417,-0.7106026550241691 -0.20682979392223724 -1.0640470469448455c -7.526036850932619e-2,-0.35344439192067834 -0.15645848066140142,-0.7055751092225027 -0.2438385052062682 -1.0561806025224696c -8.73800245448599e-2,-0.35060549329996515 -0.18094196148251826,-0.6996857625980728 -0.2805501368321477 -1.0470273647280703c -9.960817534963633e-2,-0.3473416021299975 -0.20526258911125062,-0.6929445370918849 -0.3169199613317869 -1.036598485371949c -0.11165737222052939,-0.3436539482800641 -0.229317702899967,-0.6853589098783033 -0.35290366767629217 -1.0249066704371559c -0.1235859647763183,-0.33954776055885433 -0.25309756364951036,-0.6769383200783204 -0.3884574152623676 -1.011966164599211c -0.1353598516128503,-0.33502784452089246 -0.27656795596535194,-0.6676929740432062 -0.4235378873252143 -0.9977927338711394c -0.14696993135986236,-0.3300997598279332 -0.29970168972708544,-0.6576341499614807 -0.45810234371341224 -0.9824036463950251c -0.1584006539863268,-0.3247694964335461 -0.32247020359174355,-0.6467740991670873 -0.4921086729610133 -0.9658176514034675c -0.16963846936926283,-0.31904355223638026 -0.3448458585023579,-0.6351260539755995 -0.5255154435941248 -0.9480549563764837c -0.18066958509176695,-0.31292890240088245 -0.36680136614220576,-0.6227042054634281 -0.5582819546087376 -0.9291372024218052c -0.19148058846653876,-0.30643299695837706 -0.38830998434917746,-0.6095236878125787 -0.5903682850583092 -0.9090874379086187c -0.20205830070913175,-0.2995637500960399 -0.40934550624474964,-0.5956005594339147 -0.6217353426918651 -0.8879300903865085c -0.21238983644711554,-0.2923295309525972 -0.42988230380570114,-0.5809517835199135 -0.6523449115813214 -0.8656909368244055c -0.22246260777562707,-0.28473915330449207 -0.4498953559682818,-0.5655952073461668 -0.6821596986820233 -0.8423970722052605c -0.23226434271374843,-0.2768018648590903 -0.46936027994859747,-0.5495495405355996 -0.7111433792685724 -0.8180768765149393c -0.24178309931996805,-0.2685273359793397 -0.4882533607250551,-0.5328343322615064 -0.7392606411906706 -0.7927599801656842c -0.25100728046561555,-0.25992564790417777 -0.5065515799917457,-0.5154699474303734 -0.7664772278958959 -0.7664772278958959c -0.2599256479041502,-0.25100728046551896 -0.5242326441863203,-0.4974775418703647 -0.7927599801656704 -0.7392606411906913c -0.2685273359793501,-0.24178309932032316 -0.5412750116558731,-0.4788790365561238 -0.81807687651496 -0.7111433792685586c -0.27680186485907304,-0.23226434271243138 -0.5576579189007029,-0.4596970909015073 -0.8423970722052433 -0.6821596986820371c -0.2847391533045403,-0.22246260778052981 -0.5733614058720117,-0.43995507515252386 -0.8656909368244193 -0.652344911581311c -0.2923295309524076,-0.21238983642878717 -0.5883663402897514,-0.41967704191436744 -0.8879300903864809 -0.6217353426918686c -0.2995637500967226,-0.20205830077749773 -0.6026544409528171,-0.3988876968469129 -0.9090874379086152 -0.5903682850583196c -0.30643299695581194,-0.1914805882114067 -0.6162083000113482,-0.3776123685648015 -0.9291372024218137 -0.5582819546087031c -0.3129289024104862,-0.18066958604390504 -0.6290114041759017,-0.3558769777783134 -0.9480549563764664 -0.5255154435941352c -0.3190435522005716,-0.1696384658158218 -0.6410481548362856,-0.333708005713057 -0.9658176514034762 -0.49210867296100635c -0.32476949656719745,-0.15840066724794596 -0.6523038870658922,-0.3111324618466096 -0.9824036463950441 -0.45810234371339154c -0.3300997593291519,-0.14696988186678542 -0.6627648874887679,-0.28817785100169263 -0.9977927338711101 -0.4235378873252419c -0.33502784638233524,-0.13536003632354238 -0.6724184109874034,-0.264872139835713 -1.011966164599211 -0.3884574152623676c -0.3395477536118078,-0.12358527542665113 -0.6812526962303412,-0.2412437227677793 -1.024906670437149 -0.3529036676762887c -0.34365397420680766,-0.11165994490850945 -0.6892569800018757,-0.21732138738439674 -1.0365984853719454 -0.31691996133178c -0.3473415053700767,-9.959857394738672e-2 -0.6964215103151551,-0.19313427936627978 -1.0470273647280643 -0.2805501368321753c -0.35060585441290915,-8.741585746589892e-2 -0.7027375582936422,-0.16871186697880716 -1.0561806025224645 -0.24383850520627165c -0.35344304422882916,-7.512663822746452e-2 -0.7081974288057545,-0.1440839051694853 -1.0640470469448302 -0.20682979392221312c -0.3558496181390894,-6.274588875272781e-2 -0.712794469840336,-0.1192803993161592 -1.0706171139443978 -0.169569092393961c -0.3578226441040687,-5.028869307780181e-2 -0.7165230806109734,-9.433156866997748e-2 -1.0758827989065494 -0.13210179704672181c -0.359359718295576,-3.7770228376744326e-2 -0.7193787183798096,-6.926780953805729e-2 -1.0798376864052568 -9.447355600852526e-2c -0.36045896802544714,-2.5205746470471413e-2 -0.721357903992094,-4.4119658250101265e-2 -1.0824769580193225 -5.673021349485752e-2c -0.3611190540272285,-1.261055524476315e-2 -0.7224582261150386,-1.8917753954663042e-2 -1.0837973982028486 -1.891775395466994e-2c -0.3613391720878135,3.4477770145820346e-15 -0.7226783441756167,6.307198709896446e-3 -1.0837973982028453 1.8917753954659597e-2c -0.3611190540272285,1.2610555244766597e-2 -0.7220179899938857,3.152446702438955e-2 -1.0824769580193327 5.673021349485407e-2c -0.36045896802544714,2.5205746470467964e-2 -0.7204779681096807,5.67033276317706e-2 -1.07983768640525 9.447355600851147e-2c -0.3593597182955691,3.777022837673743e-2 -0.7180601548024739,8.181310396892e-2 -1.0758827989065425 0.13210179704672181c -0.3578226441040687,5.028869307780181e-2 -0.7147674958053015,0.10682320364122976 -1.070617113944391 0.16956909239394377c -0.3558496181390825,6.274588875272781e-2 -0.7106040027160216,0.1317031556947486 -1.0640470469448542 0.20682979392221312c -0.3534430442288326,7.512663822746796e-2 -0.7055747481095656,0.15642264774037618 -1.0561806025224714 0.24383850520627165c -0.3506058544129057,8.741585746589547e-2 -0.699685859357991,0.1809515628847782 -1.0470273647280608 0.28055013683216146c -0.34734150537007324,9.959857394738328e-2 -0.6929445111651344,0.2052600164232671 -1.036598485371942 0.31691996133177314c -0.3436539742068042,0.11165994490850255 -0.6853589168253515,0.22931839224963071 -1.0249066704371559 0.3529036676762784c -0.3395477536118078,0.12358527542664768 -0.676938318216869,0.25309737893881834 -1.011966164599218 0.38845741526236416c -0.335027846382349,0.13536003632354238 -0.6676929745419823,0.2765680054584461 -0.9977927338711376 0.4235378873252281c -0.33009975932915536,0.14696988186678542 -0.6576341498278294,0.2997016764654456 -0.9824036463950234 0.4581023437133881c -0.324769496567194,0.1584006672479494 -0.646774099202908,0.3224702071451846 -0.9658176514034762 0.49210867296100635c -0.3190435522005682,0.16963846581581832 -0.6351260539659871,0.34484585755021635 -0.9480549563764664 0.525515443594118c -0.3129289024104793,0.18066958604390504 -0.6227042054660173,0.3668013663973102 -0.9291372024218258 0.5582819546087169c -0.3064329969558068,0.19148058821140326 -0.6095236878118857,0.3883099842808046 -0.9090874379086066 0.590368285058292c -0.2995637500967226,0.20205830077749082 -0.5956005594340888,0.40934550626306765 -0.8879300903865033 0.6217353426918548c -0.29232953095241276,0.21238983642878717 -0.5809517835198721,0.4298823038007846 -0.8656909368244176 0.6523449115813179c -0.2847391533045472,0.22246260778052981 -0.5655952073461789,0.4498953559696057 -0.8423970722052605 0.6821596986820405c -0.2768018648590782,0.23226434271243138 -0.5495495405355978,0.469360279948232 -0.8180768765149393 0.7111433792685448c -0.2685273359793432,0.2417830993203128 -0.5328343322615064,0.48825336072513437 -0.7927599801656807 0.7392606411906775c -0.25992564790417777,0.25100728046553966 -0.5154699474303683,0.5065515799918009 -0.7664772278958925 0.7664772278958821c -0.2510072804655242,0.25992564790408124 -0.49747754187037674,0.5242326441859928 -0.7392606411906982 0.7927599801656807c -0.24178309932032144,0.26852733597969486 -0.47887903655611086,0.5412750116571764 -0.7111433792685603 0.8180768765149324c -0.2322643427124486,0.2768018648577594 -0.45969709090155814,0.5576579188958002 -0.6821596986820432 0.8423970722052467c -0.222462607780485,0.2847391533094465 -0.439955075152348,0.573361405890309 -0.6523449115813205 0.8656909368243986c -0.21238983642897247,0.29232953093409303 -0.4196770419150527,0.5883663402214199 -0.6217353426918635 0.887930090386505c -0.2020583007768099,0.29956375016508513 -0.39888769684434944,0.602654441207925 -0.5903682850583282 0.9090874379085979c -0.19148058821397876,0.306432996700673 -0.37761236857439845,0.6162082990591825 -0.5582819546087092 0.9291372024218034c -0.1806695860343116,0.31292890336262086 -0.35587697774251514,0.6290114077293617 -0.5255154435941537 0.9480549563764906c -0.16963846585163814,0.31904354864712886 -0.3337080058467109,0.641048141574651 -0.4921086729610141 0.9658176514034675c -0.15840066711430323,0.3247695098288183 -0.31113246134783695,0.6523039365589346 -0.45810234371339803 0.9824036463950079c -0.14696988236556152,0.3300997098360698 -0.28817785286315173,0.6627647027780983 -0.4235378873252376 0.9977927338711308c -0.13536003446208583,0.3350280310930325 -0.26487213288866857,0.6724191003370689 -0.3884574152623708 1.0119661645991973c -0.12358528237370223,0.339547064262132 -0.24124374869452436,0.6812501235423595 -0.35290366767629305 1.0249066704371559c -0.11165991898176868,0.34365654689479463 -0.21732129062448324,0.6892665814041546 -0.3169199613317938 1.0365984853719747c -9.959867070731078e-2,0.3473319039678185 -0.19313464047921733,0.6963856773940954 -0.2805501368321746 1.0470273647280282c -8.74154963529573e-2,0.35064168733393264 -0.16871051928696512,0.7028712885755202 -0.24383850520628234 1.0561806025224971c -7.51279859193171e-2,0.3533093139469787 -0.1440889348239436,0.7076983405993477 -0.20682979392222334 1.0640470469448309c -6.274085909827973e-2,0.35634870634548244 -0.11926162839021286,0.7146570923840783 -0.16956909239396176 1.0706171139443883c -5.030746400374897e-2,0.35596002156031087 -9.440162271931377e-2,0.7095716786423364 -0.1321017970467379 1.0758827989065507c -3.7700174327424146e-2,0.36631112026421475 -6.900636426670766e-2,0.7453217037106192 -9.447355600853019e-2 1.0798376864052417c -2.5467191741822503e-2,0.3345159826946222 -4.5095385286184e-2,0.6245373646374622 -5.67302134948646e-2 1.0824769580193203c -1.1634828208680606e-2,0.4579395933818584 -1.5276291081680306e-2,1.0837973982027358 -1.8917753954674005e-2 1.0837973982028641c -3.641462872993699e-3,1.285015224809846e-13 -7.282925745981389e-3,-0.6258578048204918 -1.8917753954653536e-2 -1.0837973982022644c -1.1634828208672147e-2,-0.45793959338177276 -3.126302175302873e-2,-0.7479609753246982 -5.673021349484514e-2 -1.082476958019349c -2.546719174181639e-2,-0.3345159826946508 -5.6773381681092576e-2,-0.7135265661410268 -9.447355600850946e-2 -1.0798376864052293c -3.770017432741696e-2,-0.36631112026420226 -8.17943330429746e-2,-0.7199227773462308 -0.13210179704671782 -1.075882798906553c -5.030746400374326e-2,-0.35596002156032125 -0.10682823329567223,-0.7142684075989361 -0.16956909239394657 -1.0706171139444314c -6.274085909827434e-2,-0.3563487063454945 -0.13170180800289416,-0.7107377329978695 -0.20682979392220277 -1.0640470469448344c -7.51279859193086e-2,-0.353309313946964 -0.15642300885330607,-0.7055389151885171 -0.24383850520625722 -1.0561806025224523c -8.741549635295126e-2,-0.3506416873339344 -0.18095146612485608,-0.699695460760251 -0.28055013683216123 -1.04702736472808c -9.959867070730517e-2,-0.3473319039678288 -0.20526004235001155,-0.6929419384771733 -0.3169199613317705 -1.036598485371949c -0.11165991898175898,-0.34365654689477737 -0.2293183853025712,-0.6853596061749877 -0.35290366767626785 -1.0249066704371266c -0.12358528237369663,-0.3395470642621389 -0.2530973808002781,-0.6769381335062028 -0.38845741526235916 -1.0119661645992473c -0.13536003446208109,-0.3350280310930428 -0.2765680049596627,-0.6676930240350644 -0.42353788732521863 -0.9977927338711376c -0.14696988236555592,-0.3300997098360715 -0.2997016765990862,-0.6576341365661947 -0.4581023437133842 -0.9824036463950216c -0.15840066711429807,-0.32476950982882524 -0.3224702071093648,-0.6467741027563525 -0.49210867296099386 -0.9658176514034796c -0.16963846585162953,-0.3190435486471254 -0.3448458575598223,-0.6351260530138473 -0.5255154435941287 -0.9480549563764734c -0.18066958603430472,-0.31292890336262436 -0.36680136639472266,-0.6227042057211511 -0.5582819546086962 -0.929137202421831c -0.19148058821397357,-0.3064329967006833 -0.38830998428150365,-0.6095236877435163 -0.5903682850583084 -0.9090874379085945c -0.20205830077680473,-0.29956375016508513 -0.40934550626288496,-0.595600559452419 -0.6217353426918523 -0.8879300903865188c -0.2123898364289673,-0.2923295309340999 -0.42988230380082343,-0.5809517835149693 -0.6523449115813033 -0.8656909368244228c -0.22246260778047894,-0.2847391533094534 -0.4498953559695833,-0.5655952073474907 -0.6821596986820233 -0.8423970722052467c -0.23226434271244,-0.27680186485775254 -0.4693602799482182,-0.5495495405352203 -0.7111433792685371 -0.8180768765149254c -0.24178309932031972,-0.2685273359797086 -0.4882533607251792,-0.5328343322616478 -0.7392606411906999 -0.792759980165729c -0.25100728046551896,-0.2599256479040881 -0.5065515799916974,-0.5154699474303183 -0.7664772278958684 -0.7664772278958615c -0.2599256479041709,-0.25100728046553966 -0.5242326441863359,-0.4974775418703923 -0.7927599801656722 -0.7392606411907189c -0.26852733597933626,-0.24178309932032316 -0.5412750116558456,-0.47887903655612035 -0.8180768765149238 -0.7111433792685552c -0.2768018648590765,-0.23226434271243826 -0.5576579189007201,-0.459697090901528 -0.8423970722052605 -0.6821596986820578c -0.2847391533045403,-0.22246260778053326 -0.5733614058719738,-0.43995507515250315 -0.8656909368243797 -0.6523449115813007c -0.2923295309524059,-0.21238983642879405 -0.5883663402897824,-0.4196770419144019 -0.8879300903865067 -0.6217353426919066c -0.29956375009672775,-0.20205830077750805 -0.6026544409528015,-0.39888769684691633 -0.9090874379086066 -0.5903682850583231c -0.30643299695580334,-0.1914805882114067 -0.6162083000113344,-0.3776123685648222 -0.9291372024218121 -0.5582819546087342c -0.3129289024104776,-0.1806695860439154 -0.6290114041758965,-0.3558769777783272 -0.9480549563764648 -0.525515443594149c -0.31904355220056474,-0.16963846581582867 -0.6410481548362787,-0.3337080057130742 -0.9658176514034728 -0.4921086729610236c -0.324769496567194,-0.1584006672479563 -0.6523038870658646,-0.31113246184661647 -0.98240364639502 -0.45810234371340536c -0.3300997593291519,-0.14696988186678542 -0.6627648874887851,-0.2881778510016995 -0.9977927338711204 -0.4235378873252419c -0.33502784638233524,-0.13536003632354238 -0.6724184109873759,-0.2648721398357027 -1.0119661645991802 -0.3884574152623572c -0.3395477536118043,-0.12358527542665113 -0.681252696230362,-0.24124372276779654 -1.024906670437173 -0.35290366767631287c -0.34365397420680766,-0.11165994490851634 -0.6892569800018757,-0.21732138738441398 -1.036598485371949 -0.3169199613318076c -0.3473415053700698,-9.959857394739018e-2 -0.6964215103151482,-0.19313427936628325 -1.047027364728054 -0.2805501368321787c -0.3506058544129057,-8.741585746589892e-2 -0.7027375582936422,-0.16871186697880716 -1.0561806025224747 -0.243838505206282c -0.3534430442288326,-7.51266382274783e-2 -0.7081974288057649,-0.14408390516951633 -1.0640470469448473 -0.20682979392223724c -0.35584961813907906,-6.274588875273127e-2 -0.712794469840298,-0.11928039931614197 -1.0706171139443668 -0.16956909239394377c -0.3578226441040687,-5.028869307780526e-2 -0.7165230806109838,-9.433156866999128e-2 -1.0758827989065598 -0.13210179704674593c -0.3593597182955795,-3.7770228376754665e-2 -0.7193787183798234,-6.926780953807798e-2 -1.0798376864052601 -9.44735560085563e-2c -0.3604589680254437,-2.520574647047486e-2 -0.7213579039920802,-4.411965825009437e-2 -1.0824769580193088 -5.6730213494860966e-2c -0.3611190540272285,-1.2610555244770045e-2 -0.7224582261150524,-1.891775395468028e-2 -1.083797398202866 -1.891775395468718e-2c -0.3613391720878101,-6.895554029164069e-15 -0.7226783441756064,6.3071987098929985e-3 -1.0837973982028417 1.891775395464925e-2c -0.3611190540272216,1.2610555244759701e-2 -0.7220179899938822,3.152446702437921e-2 -1.0824769580193294 5.6730213494833384e-2c -0.36045896802544714,2.5205746470454173e-2 -0.7204779681096807,5.6703327631756804e-2 -1.0798376864052361 9.447355600850113e-2c -0.35935971829556224,3.7770228376751216e-2 -0.7180601548024531,8.181310396895103e-2 -1.0758827989065287 0.1321017970467425c -0.3578226441040756,5.028869307779836e-2 -0.7147674958053428,0.10682320364119527 -1.0706171139444323 0.1695690923939093c -0.3558496181390894,6.274588875271057e-2 -0.710604002716001,0.1317031556947417 -1.064047046944823 0.20682979392221312c -0.3534430442288223,7.51266382274714e-2 -0.7055747481095552,0.15642264774038653 -1.0561806025224645 0.2438385052062682c -0.35060585441291603,8.741585746588858e-2 -0.6996858593580083,0.18095156288476094 -1.0470273647280919 0.2805501368321304c -0.34734150537008357,9.959857394737294e-2 -0.6929445111651448,0.20526001642324643 -1.0365984853719523 0.31691996133175243c -0.34365397420680766,0.11165994490850945 -0.6853589168253481,0.22931839224964107 -1.0249066704371628 0.3529036676762887c -0.33954775361181466,0.12358527542664423 -0.6769383182168829,0.2530973789388011 -1.011966164599232 0.38845741526233313c -0.335027846382349,0.13536003632352858 -0.6676929745419857,0.2765680054584289 -0.9977927338711308 0.42353788732521086c -0.3300997593291519,0.14696988186678198 -0.6576341498278121,0.2997016764654387 -0.9824036463950027 0.45810234371338465c -0.32476949656719056,0.1584006672479494 -0.6467740992028908,0.32247020714518804 -0.9658176514034831 0.49210867296100635c -0.31904355220058545,0.16963846581581832 -0.6351260539660354,0.344845857550206 -0.9480549563765216 0.5255154435940973c -0.31292890241049315,0.18066958604389124 -0.6227042054660018,0.36680136639727573 -0.9291372024218 0.5582819546086893c -0.3064329969557981,0.19148058821141362 -0.6095236878118719,0.38830998428084257 -0.9090874379086084 0.5903682850583368c -0.2995637500967295,0.20205830077749426 -0.5956005594341146,0.409345506263047 -0.8879300903865429 0.6217353426918238c -0.2923295309524283,0.21238983642877338 -0.5809517835198721,0.42988230380075704 -0.8656909368244124 0.6523449115812903c -0.2847391533045472,0.22246260778053326 -0.565595207346184,0.44989535596960917 -0.8423970722052639 0.682159698682044c -0.27680186485907304,0.23226434271243138 -0.5495495405355892,0.46936027994822854 -0.8180768765149324 0.7111433792685413c -0.2685273359793501,0.2417830993203128 -0.5328343322615479,0.4882533607251378 -0.7927599801657049 0.7392606411906603c -0.25992564790415706,0.25100728046551896 -0.5154699474302873,0.5065515799917251 -0.7664772278959097 0.7664772278959028c -0.25100728046562243,0.25992564790417777 -0.49747754187073706,0.5242326441863272 -0.739260641190712 0.7927599801656497c -0.24178309931998182,0.2685273359793294 -0.47887903655481706,0.5412750116558387 -0.7111433792685655 0.818076876514922c -0.23226434271376223,0.27680186485908337 -0.4596970909064169,0.5576579189007409 -0.6821596986820508 0.8423970722052294c -0.22246260777563395,0.28473915330449207 -0.4399550751342265,0.5733614058718186 -0.6523449115813351 0.8656909368244124c -0.21238983644709486,0.2923295309525938 -0.4196770419827127,0.5883663402904616 -0.6217353426918514 0.8879300903864912c -0.20205830070913175,0.2995637500960296 -0.39888769659178425,0.602654440950214 -0.5903682850583231 0.909087437908591c -0.19148058846653876,0.3064329969583736 -0.3776123695169776,0.6162083000209331 -0.5582819546087376 0.9291372024218206c -0.18066958509176695,0.31292890240088245 -0.35587697422487585,0.6290114041400879 -0.5255154435941525 0.9480549563764561c -0.1696384693692697,0.31904355223636816 -0.33370801897472097,0.6410481549698991 -0.4921086729610408 0.9658176514034434c -0.1584006539863268,0.3247694964335495 -0.3111324123535154,0.6523038865671109 -0.45810234371337777 0.9824036463950406c -0.14696993135986236,0.3300997598279332 -0.2881780357123778,0.6627648893502366 -0.4235378873252419 0.9977927338711152c -0.135359851612871,0.3350278445208804 -0.2648714504860838,0.672418404040343 -0.38845741526242966 1.0119661645991853c -0.12358596477633897,0.3395477605588457 -0.2412462954557835,0.681252722157078 -0.35290366767629217 1.0249066704371421c -0.11165737222051561,0.34365394828006585 -0.2173117859821092,0.689256883241967 -0.3169199613317593 1.0365984853719628c -9.960817534964322e-2,0.3473416021299975 -0.19317011228732917,0.6964218714280913 -0.28055013683221663 1.047027364728048c -8.738002454488748e-2,0.35060549329995655 -0.1685781366969696,0.7027362106017732 -0.2438385052062958 1.0561806025224523c -7.526036850932619e-2,0.35344439192067917 -0.1445829933759102,0.7082024584602183 -0.20682979392223724 1.0640470469448586c -6.224680054632013e-2,0.35584458848464023 -0.11741777677239706,0.7127756989143815 -0.169569092393961 1.0706171139443892c -5.2151315621577744e-2,0.35784141503000844 -0.10128297063864251,0.7165931346602827 -0.13210179704673905 1.0758827989065314c -3.081882640810342e-2,0.3592896642462495 -4.3324824207231695e-2,0.7191172731084728 -9.447355600851493e-2 1.079837686405273c -5.114873180128322e-2,0.36072041329680005 -0.14094019760474208,0.7223336310281768 -5.673021349492303e-2 1.082476958019316c 8.420998410980526e-2,0.3601433269911392 0.3424214181328678,0.7188167632420411 -1.891775395466649e-2 1.083797398202838c -0.3613391720875412,0.36498063496079663 -1.342228950285693,0.7362684686314881 -2.1486770424498034 1.1216329061121502c -0.8064480921641244,0.38536443748066185 -1.4384544982941938,0.7848054787712943 -2.1082237025438877 1.1959373850090154c -0.66976920424968,0.4111319062377211 -1.3773012066189567,0.8339546774225316 -2.0652018168019777 1.2687847984222465c -0.6879006101830211,0.4348301209997144 -1.3561698281797863,0.8816675918143344 -2.0196638007663874 1.3400863929999465c -0.663493972586601,0.45841880118561207 -1.3222126997630517,0.9284189327422153 -1.9716651354948898 1.4097552987322948c -0.6494524357318655,0.4813363659900778 -1.2896385800191459,0.9740089664136334 -1.921264299967485 1.4777066347892227c -0.631625719948339,0.5036976683755893 -1.2546910155577229,1.0184204047032146 -1.868522699838695 1.543857612934956c -0.6138316842809585,0.5254372082317414 -1.2184297572334777,1.0615888883676008 -1.8135045926240017 1.6081276383923597c -0.5950748353905377,0.5465387500247624 -1.1806264332190803,1.1034645699384278 -1.7562770094121662 1.6704384080354953c -0.5756505761930998,0.5669738380970709 -1.141400130750743,1.1439956943775405 -1.6969096731980402 1.7307140057896713c -0.5555095424472835,0.5867183114121307 -1.100779072784207,1.183133077955926 -1.6354749139360685 1.7888809951238878c -0.5346958411518477,0.6057479171679617 -1.0588179931186332,1.220828984960095 -1.5720475804171092 1.844868508521587c -0.5132295872984484,0.624039523561492 -1.0155666099285872,1.2570375028923495 -1.506704949076676 1.898608333821772c -0.4911383391480888,0.641570830929419 -0.9710779948140724,1.2917145134574064 -1.4395266298459528 1.950034997325427c -0.4684486350318942,0.6583204838680169 -0.9254062494296578,1.3248177690760736 -1.370594469158877 1.9990858435647645c -0.4451882197292055,0.6742680744886909 -0.8786070447898668,1.3563069382580122 -1.2999924502349658 2.045701111639182c -0.4213854054450713,0.6893941733811733 -0.8307373912745801,1.386143656374195 -1.2278065907589073 2.089824008025213c -0.3970691994843134,0.7036803516510147 -0.781855612623459,1.414291571960019 -1.1541248380812001 2.131400775770184c -0.37226922545774105,0.7171092038101681 -0.7320212632340913,1.440716391121493 -1.0790369620675724 2.1703807599870446c -0.3470156988334949,0.7296643688655516 -0.6812950587240931,1.4653859192853333 -1.0026344457285183 2.206716469569283c -0.32133938700442527,0.7413305502839427 -0.6297388011226361,1.4882701004320462 -0.9250103737613683 2.240363635052029c -0.2952715726387183,0.7520935346199826 -0.577415303797944,1.5093410537118441 -0.8462593191407116 2.271281262547067c -0.2688440153427676,0.7619402088352226 -0.5243883148690219,1.5285731074137925 -0.7664772278959373 2.2994316836876463c -0.24208891302690158,0.7708585762738538 -0.4707224395544504,1.5459428302429916 -0.6857613022157742 2.3247806015220047c -0.21503886266132383,0.778837771279013 -0.4164830614564365,1.5614290598678873 -0.6042098820222538 2.3472971322984786c -0.1877268205658173,0.7858680724305912 -0.36173626290233923,1.5750129287028993 -0.5219223251588585 2.366953843092496c -0.1601860622565331,0.7919409143895966 -0.30654874443307734,1.5866778868964817 -0.43899888633825784 2.383726785230098c -0.1324501419051805,0.797048898333623 -0.2509877435390111,1.5964097224939702 -0.3555405949973046 2.3975955234649167c -0.10455285145829354,0.8011858009709533 -0.19512095274106384,1.6041965787524988 -0.27164913220807224 2.4085431608755052c -7.652817946702217e-2,0.8043465821229926 -0.1390164371183376,1.6100289685874531 -0.18742670679566836 2.4165563594523167c -4.841026967734455e-2,0.8065273908648568 -8.274255138075959e-2,1.6138997861301239 -0.10297593081183841 2.4216253563470715c -2.0233379431092616e-2,0.8077255702169616 -2.63678565898628e-2,1.6158043153856247 -1.8399694518598644e-2 2.423743975767959c 7.968162071277946e-3,0.8079396603823409 3.0038963372617813e-2,1.6157402359783595 6.619895896816441e-2 2.4229096365034315c 3.6159995595546605e-2,0.8071694005250858 8.64091854853551e-2,1.6137076259792527 0.15071695922062625 2.419123355067483c 6.430777373525737e-2,0.80541572908823 0.1426741313159498,1.6097089618105371 0.23505133407442774 2.4123897444608176c 9.237720275847792e-2,0.8026807826502804 0.19876525069474132,1.6037491152285066 0.3190993350845232 2.402717008550611c 0.1203340843897681,0.7989678933221042 0.25461420523305467,1.5958353473881 0.40275856270833726 2.3901169320756437c 0.14814435747529633,0.7942815846875297 0.31015295158258865,1.585977299996621 0.48592709106368615 2.374604866288338c 0.17577413948108372,0.7886275662917173 0.36531382433598647,1.5741869835660742 0.5685035921098452 2.35619971025119c 0.20318976777387257,0.7820127266851159 0.4200296184667563,1.5604787627809908 0.6503874591003626 2.334923887811918c 0.23035784063363376,0.7744451250309135 0.47423367120800375,1.5448693389968517 0.7314789291564275 2.3108033202828255c 0.25724525794843756,0.7659339812859599 0.5278599432709288,1.5273777298919278 0.8116792048130093 2.283867394859838c 0.2838192615420667,0.7564896649678826 0.5808430993036536,1.5080252462976662 0.8908905743881441 2.2541489288190077c 0.3100474750844905,0.7461236825213415 0.6331185874918845,1.4868354662342824 0.9690165310295592 2.221684129533513c 0.3358979435376884,0.7348486632992305 0.6846227182056988,1.4638342061847642 1.0459618902935226 2.1865125503603844c 0.3613391720877963,0.7226783441756202 0.7352927415953924,1.4390494896413681 1.121632906112092 2.1486770424510517c 0.3863401645167272,0.709627552809711 0.7850669240425994,1.4125115129633992 1.1959373850089479 2.1082237025438184c 0.41087046096637614,0.695712189580447 0.8338846233732425,1.384252608587639 1.2687847984222866 2.065201816802047c 0.43490017504905776,0.6809492082144077 0.8816863627402656,1.3543072056360173 1.3400863929999378 2.0196638007663874c 0.45840003025964476,0.6653565951303425 0.9284139030877679,1.322711787969432 1.4097552987322852 1.9716651354949173c 0.4813413956445312,0.6489533475254716 0.9740103141054706,1.289504849737298 1.4777066347892012 1.9212642999675127c 0.5036963206837306,0.6317594502302007 1.0184200435902662,1.2547268484787757 1.543857612934932 1.8685226998387088c 0.5254375693446932,0.6137958513599332 1.0615889851275164,1.2184201558312246 1.6081276383923457 1.8135045926239877c 0.5465386532648294,0.5950844367927632 1.1034645440116653,1.180629005907012 1.6704384080354573 1.7562770094121247c 0.5669738640237921,0.5756480035051128 1.1439957013245405,1.1413994414010895 1.7307140057896369 1.6969096731980815c 0.5867183044650962,0.555510231796992 1.1831330760945402,1.1007792574949853 1.788880995123967 1.6354749139361513c 0.6057479190294268,0.5346956564411798 1.2208289854588503,1.0588179436255598 1.8448685085215386 1.5720475804170817c 0.624039523062702,0.5132296367915219 1.2570375027586964,1.0155666231902407 1.898608333821772 1.5067049490766897c 0.6415708310630756,0.49113832588643513 1.2917145134932186,0.9710779912606141 1.950034997325413 1.439526629845939c 0.6583204838321945,0.46844863858532493 1.324817769066413,0.9254062503817958 1.9990858435647023 1.3705944691588632c 0.6742680744982756,0.44518821877706743 1.3563069382606086,0.8786070445347176 2.045701111639213 1.2999924502349383c 0.6893941733786046,0.4213854057002206 1.3861436563734675,0.8307373913430116 2.089824008025192 1.2278065907589764c 0.7036803516517249,0.3970691994159647 1.414291571960312,0.7818556126051582 2.1314007757703077 1.1541248380812277c 0.7171092038099957,0.3722692254760694 1.4407163911213863,0.7320212632390147 2.1703807599869656 1.0790369620676c 0.7296643688655723,0.3470156988285577 1.4653859192853333,0.6812950587227554 2.206716469569283 1.0026344457285046c 0.7413305502839358,0.3213393870057216 1.4882701004320533,0.6297388011230223 2.240363635052022 0.9250103737614096c 0.7520935346199757,0.2952715726383873 1.5093410537118166,0.5774153037978612 2.2712812625470185 0.8462593191406427c 0.7619402088351951,0.268844015342809 1.5285731074137305,0.5243883148689805 2.2994316836876325 0.7664772278959786c 0.7708585762738814,0.24208891302699811 1.5459428302431157,0.47072243955479515 2.3247806015221357 0.6857613022157742c 0.778837771279013,0.21503886266097905 1.5614290598678253,0.41648306145514014 2.347297132298396 0.6042098820222538c 0.7858680724305774,0.18772682056714124 1.575012928702934,0.36173626290726263 2.366953843092503 0.5219223251588861c 0.7919409143895553,0.16018606225162346 1.5866778868963163,0.30654874441477653 2.383726785230098 0.4389988863382992c 0.7970488983337817,0.1324501419234951 1.596409722494584,0.2509877436073874 2.3975955234648407 0.3555405949973046c 0.8011858009702499,0.10455285138994481 1.6041965787499473,0.19512095248594213 2.408543160875519 0.271649132208086c 0.8043465821255715,7.652817972214389e-2 1.6100289685970173,0.1390164380704895 2.416556359452303 0.18742670679568216c 0.8065273908552858,4.8410268725192655e-2 1.613899786094398,8.27425478273151e-2 2.421625356347196 0.102975930811866c 0.807725570252784,2.023338298455089e-2 1.6158043155192467,2.636786985153022e-2 2.423743975767924 1.8399694518612435e-2c 0.807939660248674,-7.968175332917783e-3 1.6157402354795591,-3.0039012865677516e-2 2.422909636503428 -6.619895896813684e-2c 0.8071694010238654,-3.61599461024869e-2 1.613707627840711,-8.640900077470097e-2 2.419123355067483 -0.15071695922061248c 0.8054157272267718,-6.43079584459115e-2 1.6097089548634733,-0.1426748206656032 2.4123897444607727 -0.23505133407440015c 0.8026807895972994,-9.237651340882455e-2 1.6037491411551899,-0.19876267800675437 2.4027170085505865 -0.3190993350845232c 0.7989678673953967,-0.12033665707776883 1.5958352506282998,-0.25462380663529394 2.3901169320757814 -0.40275856270832344c 0.7942816814474816,-0.1481347560730295 1.5859776611095417,-0.31011711866156344 2.3746048662883004 -0.4859270910636586c 0.7886272051787621,-0.17580997240209517 1.5741856358742277,-0.36544755461780676 2.356199710251199 -0.568503592109859c 0.7820140743769729,-0.20305603749202467 1.5604837924354564,-0.4195305302603624 2.3349238878119096 -0.6503874591003487c 0.7744400953764514,-0.23085692884001385 1.544850568070869,-0.4760962937517314 2.3108033202827616 -0.7314789291564137c 0.7659527522118927,-0.25538263540468226 1.5274477839412617,-0.5209085413023293 2.283867394859818 -0.8116792048130369c 0.7564196109185574,-0.29077066351070757 1.507763801026303,-0.6067860846344482 2.2541489288190415 -0.8908905743881304c 0.7463851277927378,-0.28410448975368213 1.4878111932704667,-0.5362980481373334 2.2216841295336343 -0.9690165310295867c 0.7338729362631677,-0.4327184828922534 1.4601927433117738,-1.0459618902930812 2.1865125503603715 -1.0459618902934675c 0.7263198070485982,-3.861510256331879e-13 1.4526396140971887,0.6132434073996971 2.186512550360308 1.045961890291702c 0.7338729362631194,0.43271848289200515 1.4752990017407677,0.6849120412759047 2.2216841295334624 0.9690165310297247c 0.746385127792696,0.2841044897538201 1.4977293179004392,0.6001199108775331 2.254148928818984 0.8908905743882407c 0.7564196109185453,0.29077066351070757 1.5179146426478933,0.5562965694083822 2.283867394859762 0.8116792048131196c 0.7659527522118686,0.25538263540473743 1.5363632249062569,0.5006220003165378 2.3108033202827203 0.7314789291566068c 0.7744400953764617,0.23085692884006903 1.552909813434997,0.44733142160843437 2.334923887811982 0.6503874591005142c 0.7820140743769832,0.20305603749205225 1.567572505072416,0.3926936197078466 2.3561997102511625 0.5685035921099969c 0.7886272051787517,0.1758099724021779 1.5803231848408221,0.3377923349907394 2.3746048662882693 0.4859270910638241c 0.7942816814474472,0.14813475607308468 1.5911490646802708,0.28242190563063735 2.390116932075633 0.4027585627084338c 0.7989678673953657,0.12033665707779642 1.6000362189532735,0.22672282167583657 2.402717008550566 0.3190993350846887c 0.8026807895972959,9.237651340887972e-2 1.6069740172339664,0.17074337562859898 2.412389744460759 0.23505133407456563c 0.8054157272267959,6.430795844596666e-2 1.6119539540437036,0.11455701311820832 2.419123355067593 0.15071695922075037c 0.807169401023886,3.615994610251448e-2 1.6149699762547574,5.823078363535696e-2 2.422909636503428 6.619895896830233e-2c 0.807939660248674,7.968175332945365e-3 1.6160184055151505,1.8336884660212003e-3 2.423743975767914 -1.8399694518474525e-2c 0.8077255702527703,-2.0233382984495726e-2 1.6150979654918203,-5.456566208656301e-2 2.4216253563470853 -0.1029759308117005c 0.8065273908552583,-4.841026872516507e-2 1.6122097773267314,-0.11089852707340035 2.4165563594523167 -0.18742670679551665c 0.8043465821255854,-7.65281797221163e-2 1.6073573599052897,-0.16709628081805847 2.4085431608755394 -0.2716491322079481c 0.8011858009702499,-0.10455285138988965 1.6005466251310385,-0.22309045307369918 2.3975955234648545 -0.35554059499713914c 0.7970488983338092,-0.13245014192346752 1.591785870840653,-0.27881282408656544 2.3837267852302566 -0.4389988863381613c 0.7919409143895897,-0.16018606225159587 1.5810857706619392,-0.33419550459163455 2.366953843092537 -0.5219223251587206c 0.7858680724305982,-0.18772682056708606 1.568459361019438,-0.3891710193611644 2.3472971322984373 -0.6042098820221159c 0.7788377712790061,-0.21503886266095149 1.5539220252481645,-0.443672389188721 2.324780601522046 -0.6857613022156364c 0.7708585762738814,-0.24208891302691538 1.5374914748524857,-0.4976332125529766 2.2994316836876947 -0.7664772278957855c 0.7619402088352157,-0.2688440153427814 1.519187727927029,-0.5509877465022553 2.271281262547053 -0.846259319140615c 0.752093534620017,-0.29527157263835974 1.4990330847682172,-0.6036709867555777 2.2403636350522014 -0.9250103737612717c 0.7413305502839841,-0.32133938700569403 1.4770521007037245,-0.6556187468998641 2.2067164695693244 -1.0026344457283942c 0.7296643688656068,-0.3470156988285301 1.453271556177073,-0.7067677365914202 2.1703807599870553 -1.0790369620674345c 0.7171092038099819,-0.37226922547600044 1.427720424118514,-0.7570556386651388 2.131400775770239 -1.1541248380810483c 0.7036803516517249,-0.3970691994159095 1.4004298346466704,-0.8064211850586316 2.0898240080253028 -1.227806590758811c 0.6893941733786323,-0.421385405700193 1.3714330371409513,-0.8548042314578432 2.0457011116392407 -1.2999924502348554c 0.6742680744982894,-0.44518821877701226 1.3407653597325493,-0.9021458305734004 1.999085843564799 -1.3705944691587115c 0.6583204838322496,-0.46844863858528357 1.308464166262503,-0.9483883039594901 1.95003499732562 -1.4395266298459253c 0.641570831063117,-0.49113832588644896 1.2745688107591113,-0.9934753122850989 1.8986083338218547 -1.5067049490765931c 0.6240395230627297,-0.5132296367914942 1.2391205894921946,-1.0373519239758466 1.8448685085216352 -1.5720475804169713c 0.6057479190294407,-0.5346956564411384 1.202162690658857,-1.0799646821390352 1.7888809951239808 -1.6354749139359581c 0.5867183044651237,-0.555510231796923 1.163740141765955,-1.1212616696928723 1.7307140057897885 -1.6969096731979436c 0.5669738640238334,-0.5756480035050714 1.1238997547706693,-1.1611925726192651 1.6704384080355401 -1.7562770094120284c 0.5465386532648708,-0.595084436792777 1.0826900690478043,-1.1997087412641236 1.6081276383925251 -1.8135045926240292c 0.5254375693447346,-0.6137958513599194 1.040161292251284,-1.2367632496083978 1.5438576129350698 -1.8685226998385571c 0.5036963206837858,-0.6317594502301593 0.9963652391447803,-1.2723109524419995 1.4777066347893115 -1.921264299967416c 0.4813413956445588,-0.6489533475254303 0.9513552684726819,-1.3063085403644505 1.4097552987323818 -1.9716651354947519c 0.45840003025969994,-0.6653565951303012 0.9051862179509766,-1.3387145925519246 1.3400863930000482 -2.019663800766305c 0.43490017504908535,-0.6809492082143801 0.8579143374559518,-1.3694896272215447 1.2687847984223555 -2.0652018168019364c 0.41087046096638996,-0.6957121895803918 0.8095972204923034,-1.3985961497340247 1.1959373850091133 -2.108223702543722c 0.38634016451679615,-0.7096275528096835 0.7602937340244887,-1.4259986982754451 1.1216329061123127 -2.1486770424510793c 0.3613391720878515,-0.7226783441756202 0.7100639467558342,-1.4516638870611265 1.0459618902935777 -2.1865125503603293c 0.33589794353771596,-0.7348486632992167 0.6589690559451239,-1.4755604470121437 0.9690165310296833 -2.2216841295334575c 0.3100474750845319,-0.7461236825213415 0.6070713128462154,-1.4976592638511113 0.8908905743883234 -2.2541489288189664c 0.28381926154210807,-0.756489664967855 0.5544339468646683,-1.517933413573809 0.811679204813161 -2.283867394859755c 0.2572452579484927,-0.7659339812859461 0.501121088522904,-1.5363581952518568 0.7314789291565654 -2.310803320282729c 0.23035784063364756,-0.7744451250308859 0.44719769132654513,-1.5529111611267057 0.6503874591005004 -2.3349238878118355c 0.20318976777392772,-0.7820127266851298 0.3927294526288994,-1.5675721439595556 0.5685035921100383 -2.356199710251287c 0.1757741394811389,-0.788627566291731 0.33778273358847255,-1.580323281600767 0.48592709106381027 -2.374604866288297c 0.14814435747532392,-0.794281584687516 0.28242447831865186,-1.5911490387535256 0.40275856270847515 -2.3901169320756295c 0.12033408438980947,-0.7989678933221042 0.22672213232612803,-1.6000362259003027 0.3190993350846749 -2.402717008550556c 9.23772027585193e-2,-0.8026807826502529 0.1707435603392807,-1.6069740153725323 0.23505133407456563 -2.4123897444607625c 6.430777373527116e-2,-0.80541572908823 0.11455696362512104,-1.6119539545423556 0.15071695922075037 -2.419123355067469c 3.615999559562935e-2,-0.8071694005251134 5.823079689702438e-2,-1.614969976121187 6.61989589683575e-2 -2.422909636503528c 7.96816207131932e-3,-0.8079396603823478 1.833684912590507e-3,-1.6160184055509694 -1.8399694518460734e-2 -2.423743975767924c -2.023337943105124e-2,-0.8077255702169547 -5.4565661134411116e-2,-1.6150979654822355 -0.10297593081172808 -2.4216253563470924c -4.841026967728938e-2,-0.8065273908648706 -0.11089852732852205,-1.6122097773293174 -0.18742670679550286 -2.41655635945231c -7.65281794669808e-2,-0.8043465821230065 -0.16709628074969596,-1.6073573599045865 -0.2716491322079343 -2.4085431608755328c -0.10455285145823838,-0.8011858009709533 -0.2230904530919862,-1.600546625131259 -0.35554059499711155 -2.3975955234648545c -0.13245014190512536,-0.7970488983336024 -0.2788128240816282,-1.5917858708404875 -0.43899888633811995 -2.3837267852301323c -0.1601860622564917,-0.7919409143896449 -0.3341955045929861,-1.5810857706620427 -0.521922325158762 -2.3669538430926753c -0.18772682056576212,-0.785868072430612 -0.3891710193608196,-1.5684593610194448 -0.6042098820220745 -2.347297132298444c -0.21503886266128247,-0.7788377712789991 -0.4436723891887485,-1.5539220252481782 -0.6857613022155812 -2.324780601522046c -0.2420889130268602,-0.7708585762738814 -0.49763321255307313,-1.537491474852465 -0.7664772278957855 -2.299431683687681c -0.26884401534269864,-0.7619402088352226 -0.550987746501883,-1.5191877279270911 -0.8462593191405737 -2.2712812625470735c -0.2952715726386769,-0.7520935346199895 -0.6036709867568465,-1.499033084768093 -0.9250103737612165 -2.240363635052084c -0.3213393870043977,-0.741330550283991 -0.6556187468949821,-1.4770521007038693 -1.0026344457284218 -2.2067164695694554c -0.34701569883345357,-0.7296643688655862 -0.7067677366097349,-1.453271556176887 -1.079036962067407 -2.1703807599870553c -0.37226922545768587,-0.7171092038101681 -0.7570556385967763,-1.4277204241192103 -1.1541248380810483 -2.1314007757702527c -0.3970691994842858,-0.7036803516510457 -0.8064211853137395,-1.400429834644088 -1.2278065907587832 -2.089824008025289c -0.42138540544505754,-0.6893941733812042 -0.8548042305056774,-1.3714330371505568 -1.2999924502348554 -2.0457011116392616c -0.44518821972917794,-0.6742680744887046 -0.9021458341268862,-1.3407653596967648 -1.3705944691587253 -1.9990858435647956c -0.46844863503182527,-0.6583204838680307 -0.9483882906977675,-1.3084641663960423 -1.4395266298458287 -1.95003499732552c -0.4911383391480612,-0.6415708309294776 -0.9934753617782137,-1.2745688102604282 -1.5067049490766484 -1.8986083338219617c -0.5132295872984346,-0.6240395235615368 -1.0373517392651512,-1.2391205913536598 -1.5720475804169438 -1.8448685085216388c -0.5346958411518201,-0.6057479171679824 -1.0799653714887298,-1.2021626837118207 -1.6354749139359996 -1.7888809951239928c -0.5555095424472696,-0.5867183114121703 -1.1212590970048715,-1.1637401676926797 -1.696909673197916 -1.7307140057897765c -0.5756505761930446,-0.5669738380970968 -1.1612021740215595,-1.1238996580107812 -1.7562770094120421 -1.6704384080355694c -0.5950748353904688,-0.5465387500247865 -1.199672908342919,-1.082690430160675 -1.8135045926238635 -1.6081276383924716c -0.6138316842809446,-0.5254372082317983 -1.236896979890356,-1.0401599445595047 -1.868522699838695 -1.5438576129351491c -0.631625719948339,-0.503697668375647 -1.2718118642355642,-0.9963702687992312 -1.9212642999673886 -1.477706634789339c -0.6494524357318242,-0.4813363659901088 -1.3081711629082335,-0.9513364975467405 -1.9716651354947794 -1.409755298732381c -0.663493972586546,-0.4584188011856405 -1.3317631905832286,-0.9052562720002898 -2.0196638007662773 -1.3400863930000715c -0.6879006101830625,-0.4348301209997812 -1.3954326125525047,-0.8576528921846934 -2.0652018168019226 -1.2687847984223757c -0.669769204249418,-0.41113190623768214 -1.3017756103788392,-0.8105729475281337 -2.108223702543736 -1.1959373850091164c -0.8064480921648967,-0.38536443748098304 -1.7873378703652687,-0.7566522711524974 -2.1486770424536914 -1.1216329061135304Z"/>
  </g>
  <defs>
  </defs>
  <g stroke-linejoin="miter" stroke-opacity="1.0" fill-opacity="1.0" stroke="rgb(0,0,0)" stroke-width="0.0" fill="rgb(255,0,0)" stroke-linecap="butt" stroke-miterlimit="10.0">
    <path d="M 391.1024030516007,43.476740378759004 c 0.0,-2.2200850788551563 -1.7997345513905383,-4.019819630245695 -4.019819630245694 -4.019819630245695c -2.2200850788551563,-1.3594100428273832e-16 -4.019819630245695,1.799734551390538 -4.019819630245695 4.019819630245693c -2.7188200856547663e-16,2.2200850788551563 1.7997345513905378,4.019819630245695 4.019819630245693 4.019819630245695c 2.2200850788551563,4.07823012848215e-16 4.019819630245695,-1.7997345513905376 4.019819630245695 -4.019819630245693Z"/>
  </g>
  <defs>
  </defs>
  <g stroke-linejoin="miter" stroke-opacity="1.0" fill-opacity="0.0" stroke="rgb(0,0,0)" stroke-width="1.2245782017333378" fill="rgb(0,0,0)" stroke-linecap="butt" stroke-miterlimit="10.0">
    <path d="M 149.5045092438577,155.8341148725413 l -1.3791108058328138e-14,-124.2192582250257 h -124.2192582250257 l -1.3791108058328138e-14,124.2192582250257 Z"/>
  </g>
  <defs>
  </defs>
  <g stroke-linejoin="miter" stroke-opacity="1.0" fill-opacity="0.0" stroke="rgb(255,0,0)" stroke-width="1.2245782017333378" fill="rgb(0,0,0)" stroke-linecap="butt" stroke-miterlimit="10.0">
    <path d="M 149.5045092438577,93.72448576002844 c -2.689266071373987e-13,-0.36498063496109207 0.619550606110976,-0.7299612699216838 1.0648796442481685 -1.1027151521575138c 0.4453290381371924,-0.37275388223583017 0.716436508300339,-0.7532810117468987 1.0257467445244823 -1.1392071715141867c 0.3093102362241294,-0.3859261597672872 0.6568232385092692,-0.7772513497907947 0.9853641303967487 -1.1743112424137807c 0.3285408918874795,-0.39705989262298647 0.6381096733772987,-0.7998544878454528 0.9437810018598035 -1.2079845959532725c 0.3056713284825048,-0.40813010810781974 0.6074452039576813,-0.8215957291009951 0.9010480215504437 -1.2401862063383589c 0.29360281759276236,-0.4185904772373646 0.5790345773031244,-0.8423058107189194 0.8572172530226342 -1.270876840867063c 0.27818267571949606,-0.4285710301481437 0.54911626744814,-0.8619977569628754 0.8123420973161893 -1.3000191077287386c 0.26322582986803544,-0.43802135076586324 0.5187438978754763,-0.8806373254828588 0.7664772278959097 -1.3275775015602413c 0.24773333002044726,-0.44694017607738423 0.48768192205390104,-0.8982045535151588 0.7196785240401724 -1.3535184467037273c 0.2319966019862714,-0.45531389318857013 0.4560412139253742,-0.9146773021279374 0.6720030027608637 -1.3778103381134412c 0.21596178883548947,-0.4631330359855055 0.423840754567338,-0.9300356990171457 0.6235087493368229 -1.400423579861577c 0.1996679947694987,-0.4703878808444314 0.39112501857661996,-0.9442609795016506 0.5742548465459164 -1.4213306211963657c 0.18312982796929644,-0.47706964169471344 0.3579324601007543,-0.957335826426928 0.5243013026816318 -1.4405059901084218c 0.16636884258086374,-0.4831701636814938 0.3243038956111748,-0.9692443063122737 0.4737089784424698 -1.4579263243644756c 0.14940508283130882,-0.488682018052202 0.29028019546361544,-0.9799719115258331 0.422539512782314 -1.473570399970619c 0.13225931731872617,-0.4935984884447892 0.25590283932384433,-0.9895055718607365 0.3708552478131175 -1.4874191570305204c 0.11495240848927317,-0.4979135851697838 0.22121370346270133,-0.9978336720934006 0.3187191528502646 -1.4994557229669347c 9.750544938759084e-2,-0.5016220508735307 0.18625505318933055,-1.0049460656969824 0.2661947476946364 -1.50966543307837c 7.993969450530584e-2,-0.5047193673813809 0.15106947971419163,-1.0108340873207016 0.21334602524311866 -1.5180358484057268c 6.227654552892703e-2,-0.5072017610850322 0.11569985137790913,-1.0154905633157725 0.16023737352323375 -1.5245567708872942c 4.453752214531083e-2,-0.5090662075715217 8.018926058697798e-2,-1.018909820483835 0.1069334972463531 -1.5292202557834944c 2.674423665936134e-2,-0.5103104352996629 4.458097153644446e-2,-1.021087692986665 5.349933897500671e-2 -1.5320206213563685c 8.918367438562246e-3,-0.5109329283697002 8.918367438603619e-3,-1.0220215274220916 -2.7582216116656277e-14 -1.5329544557917816c -8.9183674386312e-3,-0.5109329283696967 -2.6755102315948767e-2,-1.021710186056692 -5.349933897496533e-2 -1.5320206213563616c -2.6744236659030356e-2,-0.5103104352996629 -6.239597509975971e-2,-1.0201540482119866 -0.10693349724639448 -1.5292202557835048c -4.453752214663477e-2,-0.5090662075715113 -9.796082799918876e-2,-1.0173550098022102 -0.16023737352321996 -1.5245567708872874c -6.22765455240174e-2,-0.507201761085077 -0.13340633071947064,-1.0133164810245252 -0.21334602524309107 -1.51803584840572c -7.993969452362044e-2,-0.5047193673812016 -0.16868929837540808,-1.00804338220415 -0.2661947476946364 -1.5096654330783668c -9.750544931922832e-2,-0.5016220508742237 -0.2037667441058973,-1.0015421377997231 -0.31871915285030594 -1.4994557229669314c -0.11495240874439487,-0.4979135851672083 -0.23859593144652944,-0.9938206685761325 -0.37085524781310375 -1.4874191570305169c -0.1322593163665743,-0.49359848845438437 -0.2731344263975745,-0.9848883819542151 -0.4225395127823278 -1.473570399970612c -0.1494050863847533,-0.48868201801638994 -0.3073401491232321,-0.9747561605493322 -0.4737089784424698 -1.4579263243644756c -0.1663688293192377,-0.4831701638151434 -0.3411714252192481,-0.9634363489124949 -0.524301302681618 -1.4405059901084356c -0.18312987746236994,-0.4770696411959408 -0.3745870364870857,-0.9509427384904572 -0.5742548465459026 -1.421330621196345c -0.19966781005880319,-0.4703878827058741 -0.40754627115169384,-0.9372905508231199 -0.6235087493368505 -1.4004235798615856c -0.21596247818515663,-0.4631330290384589 -0.44000897346256546,-0.9224964189981241 -0.6720030027608637 -1.3778103381134412c -0.23199402929829824,-0.4553139191153102 -0.4719355926174583,-0.9065783673862586 -0.7196785240401586 -1.3535184467037256c -0.24774293142268652,-0.4469400793174669 -0.5032872309488857,-0.8895557896814315 -0.7664772278958959 -1.3275775015602396c -0.26318999694701023,-0.43802171187880806 -0.5340256913148316,-0.8714494252724527 -0.8123420973161893 -1.3000191077287395c -0.27831640600135776,-0.4285696824562937 -0.5641135236362658,-0.8522813339752363 -0.8572172530226204 -1.2708768408670468c -0.2931037293863547,-0.41859550689181724 -0.5935140705241837,-0.8320748691564952 -0.9010480215504437 -1.2401862063383726c -0.30753395102627384,-0.4081113371818774 -0.6221915119409925,-0.8108546492809474 -0.9437810018598173 -1.2079845959532678c -0.3215894899188248,-0.39712994667231344 -0.6501109088417557,-0.7886465279178635 -0.9853641303967349 -1.1743112424137785c -0.33525322155497916,-0.3856647144959151 -0.6772382457419928,-0.7654775622421953 -1.0257467445244683 -1.1392071715141903c -0.3485084987824757,-0.3737296092719882 -0.7035404721603721,-0.7413759800696913 -1.0648796442481823 -1.1027151521575083c -0.3613391720878101,-0.3613391720878032 -0.7289855428855201,-0.7163711454657133 -1.102715152157522 -1.0648796442481891c -0.3737296092719882,-0.3485084987824757 -0.7535424570182684,-0.6904935229694893 -1.1392071715141765 -1.0257467445244546c -0.3856647144959082,-0.33525322155497916 -0.7771812957414513,-0.6637746404779239 -1.1743112424137716 -0.9853641303967487c -0.39712994667231344,-0.3215894899188386 -0.7998732587713904,-0.6362470508335573 -1.207984595953261 -0.9437810018598173c -0.4081113371818774,-0.30753395102626 -0.8215906994465485,-0.6079442921640752 -1.240186206338345 -0.9010480215504437c -0.4185955068918034,-0.2931037293863685 -0.8423071584107668,-0.5789008470212764 -1.2708768408670605 -0.8572172530226481c -0.4285696824562937,-0.27831640600135776 -0.8619973958499245,-0.549152100369179 -1.3000191077287326 -0.8123420973162031c -0.4380217118788012,-0.26318999694701023 -0.8806374222427795,-0.5187342964732093 -1.3275775015602327 -0.7664772278959097c -0.44694007931746,-0.24774293142270032 -0.8982045275884015,-0.4876844947418742 -1.3535184467037118 -0.7196785240401724c -0.4553139191153102,-0.23199402929829824 -0.9146773090749822,-0.45604052457570704 -1.377810338113448 -0.6720030027608637c -0.4631330290384589,-0.21596247818514283 -0.9300356971556908,-0.4238409392780335 -1.4004235798615787 -0.6235087493368643c -0.47038788270588794,-0.19966781005880319 -0.944260980000418,-0.3911249690835465 -1.421330621196352 -0.5742548465459164c -0.4770696411959408,-0.18312987746238374 -0.9573358262932784,-0.35793247336239414 -1.440505990108415 -0.5243013026816457c -0.4831701638151365,-0.16636882931925148 -0.9692443063480857,-0.3243038920577303 -1.4579263243644756 -0.4737089784424698c -0.48868201801638306,-0.1494050863847533 -0.9799719115162208,-0.29028019641575353 -1.4735703999705982 -0.4225395127823416c -0.4935984884543775,-0.13225931636658808 -0.9895055718632948,-0.25590283906872263 -1.48741915703051 -0.37085524781313134c -0.4979135851672152,-0.11495240874440867 -0.9978336720927282,-0.22121370353106384 -1.499455722966952 -0.3187191528502922c -0.5016220508742237,-9.750544931922832e-2 -1.0049460656971514,-0.18625505317101596 -1.509665433078346 -0.2661947476946502c -0.5047193673811947,-7.993969452362044e-2 -1.0108340873206567,-0.15106947971907367 -1.5180358484057268 -0.21334602524309107c -0.507201761085077,-6.227654552400361e-2 -1.0154905633157691,-0.11569985137658517 -1.5245567708872803 -0.16023737352321996c -0.5090662075715044,-4.453752214663477e-2 -1.018909820483828,-8.018926058735033e-2 -1.5292202557835048 -0.10693349724639448c -0.5103104352996629,-2.6744236659044147e-2 -1.0210876929866788,-4.458097153638929e-2 -1.5320206213563754 -5.3499338975020495e-2c -0.5109329283696967,-8.9183674386312e-3 -1.0220215274220779,-8.918367438548454e-3 -1.5329544557917711 1.3791108058328138e-14c -0.5109329283696967,8.918367438562246e-3 -1.0217101860567093,2.675510231561778e-2 -1.5320206213563754 5.349933897499291e-2c -0.5103104352996595,2.674423665936134e-2 -1.0201540482119729,6.239597510106986e-2 -1.5292202557834944 0.10693349724638068c -0.5090662075715251,4.4537522145324616e-2 -1.0173550098022655,9.796082799427912e-2 -1.5245567708872907 0.16023737352320616c -0.5072017610850252,6.227654552891324e-2 -1.0133164810243458,0.1334063307377852 -1.5180358484057235 0.21334602524309107c -0.5047193673813775,7.993969450530584e-2 -1.0080433822048223,0.16868929830705937 -1.5096654330783563 0.2661947476946364c -0.5016220508735342,9.750544938757705e-2 -1.0015421377971578,0.20376674436099143 -1.4994557229669347 0.3187191528502646c -0.4979135851697838,0.11495240848927317 -0.9938206685857243,0.23859593049439135 -1.48741915703051 0.37085524781310375c -0.4935984884447892,0.1322593173187124 -0.9848883819184272,0.273134429951019 -1.4735703999706327 0.4225395127823278c -0.4886820180522089,0.14940508283130882 -0.9747561606829922,0.30734013586159226 -1.457926324364486 0.4737089784424698c -0.4831701636814938,0.16636884258087753 -0.9634363484136981,0.34117147471232157 -1.4405059901084114 0.5243013026816042c -0.47706964169471516,0.18312982796928268 -0.9509427403519413,0.37458685177640394 -1.4213306211963725 0.5742548465458889c -0.4703878808444314,0.1996679947694849 -0.9372905438760647,0.4075469605013472 -1.4004235798615685 0.6235087493368229c -0.46313303598550026,0.21596178883547568 -0.9224964449248727,0.4400064007745785 -1.3778103381134497 0.6720030027608637c -0.4553138931885753,0.2319966019862852 -0.9065782706263568,0.4719451940197527 -1.3535184467037393 0.7196785240401862c -0.44694017607738423,0.24773333002043346 -0.8895561507943694,0.5032513980278328 -1.327577501560231 0.7664772278958545c -0.43802135076585974,0.2632258298680217 -0.8714480775805984,0.5341594215966656 -1.3000191077287473 0.8123420973161617c -0.42857103014814885,0.2781826757195099 -0.8522863636297097,0.5636144354298719 -1.2708768408670759 0.8572172530226342c -0.4185904772373646,0.29360281759276236 -0.8320560982305331,0.595376693067939 -1.2401862063383529 0.9010480215504298c -0.40813010810781974,0.305671328482491 -0.81092470333029,0.615240109972324 -1.2079845959532833 0.9437810018598035c -0.39705989262299335,0.3285408918874795 -0.7883850826465094,0.6760538941725779 -1.174311242413776 0.9853641303967211c -0.3859261597672663,0.309310236224157 -0.7664532892782828,0.580417706387345 -1.139207171514197 1.0257467445244408c -0.37275388223591377,0.44532903813709585 -0.737734517196725,1.064879644248072 -1.1027151521575256 1.064879644248196c -0.3649806349608004,1.2411997252495324e-13 -0.7299612699215899,-0.6195506061106175 -1.1027151521574918 -1.0648796442476443c -0.37275388223590195,-0.4453290381370131 -0.7532810117469168,-0.7164365083002976 -1.1392071715141783 -1.0257467445244823c -0.3859261597672622,-0.3093102362241846 -0.7772513497907705,-0.6568232385092554 -1.1743112424137565 -0.9853641303967211c -0.39705989262298647,-0.3285408918874657 -0.7998544878454498,-0.6381096733773401 -1.2079845959532696 -0.9437810018598587c -0.40813010810781974,-0.30567132848253237 -0.8215957291009942,-0.6074452039577088 -1.2401862063383529 -0.9010480215504713c -0.4185904772373586,-0.29360281759276236 -0.8423058107189012,-0.5790345773031244 -1.2708768408670397 -0.8572172530226204c -0.4285710301481385,-0.27818267571949606 -0.861997756962872,-0.5491162674481538 -1.3000191077287317 -0.8123420973161893c -0.43802135076585974,-0.26322582986804927 -0.880637325482845,-0.5187438978754763 -1.327577501560224 -0.7664772278959235c -0.44694017607737735,-0.24773333002044726 -0.8982045535151503,-0.48768192205390104 -1.3535184467037238 -0.7196785240401999c -0.45531389318857013,-0.2319966019862852 -0.9146773021279408,-0.456041213925388 -1.3778103381134412 -0.6720030027608912c -0.46313303598550026,-0.21596178883548947 -0.9300356990171301,-0.42384075456735176 -1.400423579861553 -0.6235087493368505c -0.4703878808444228,-0.1996679947694987 -0.9442609795016454,-0.39112501857664755 -1.4213306211963606 -0.5742548465459302c -0.4770696416947186,-0.18312982796929644 -0.9573358264269298,-0.3579324601007543 -1.44050599010842 -0.5243013026816318c -0.48317016368149035,-0.16636884258087753 -0.9692443063122598,-0.3243038956111748 -1.4579263243644585 -0.47370897844248355c -0.4886820180521986,-0.14940508283129503 -0.9799719115258296,-0.2902801954636292 -1.4735703999706153 -0.4225395127823416c -0.49359848844478577,-0.13225931731872617 -0.9895055718607227,-0.25590283932385816 -1.4874191570305066 -0.37085524781313134c -0.49791358516978035,-0.11495240848928696 -0.9978336720934075,-0.22121370346272892 -1.4994557229669416 -0.31871915285031976c -0.5016220508735376,-9.750544938759084e-2 -1.0049460656969824,-0.18625505318933055 -1.5096654330783599 -0.2661947476946364c -0.5047193673813775,-7.993969450530584e-2 -1.0108340873206842,-0.15106947971419163 -1.5180358484057097 -0.21334602524311866c -0.5072017610850252,-6.227654552892703e-2 -1.0154905633157656,-0.11569985137788154 -1.5245567708872942 -0.16023737352321996c -0.5090662075715251,-4.453752214533841e-2 -1.018909820483828,-8.018926058701935e-2 -1.529220255783491 -0.10693349724640827c -0.5103104352996629,-2.6744236659388923e-2 -1.0210876929866752,-4.458097153645825e-2 -1.532020621356372 -5.3499338975020495e-2c -0.5109329283697036,-8.918367438562246e-3 -1.0220215274220847,-8.91836743861741e-3 -1.5329544557917745 2.7582216116656277e-14c -0.5109329283696898,8.9183674386312e-3 -1.0217101860566988,2.6755102315948767e-2 -1.5320206213563548 5.3499338974951544e-2c -0.5103104352996629,2.6744236659002774e-2 -1.0201540482119935,6.239597509969075e-2 -1.5292202557835048 0.10693349724633931c -0.5090662075715113,4.4537522146648564e-2 -1.017355009802217,9.796082799923013e-2 -1.524556770887308 0.16023737352323375c -0.5072017610850839,6.227654552400361e-2 -1.013316481024539,0.13340633071942926 -1.5180358484057337 0.2133460252430359c -0.5047193673811947,7.993969452360665e-2 -1.0080433822041155,0.1686892983753943 -1.5096654330783392 0.2661947476946226c -0.5016220508742237,9.750544931922832e-2 -1.00154213779973,0.20376674410591109 -1.499455722966952 0.3187191528502922c -0.4979135851672152,0.11495240874439487 -0.9938206685761463,0.23859593144650185 -1.4874191570305237 0.37085524781306234c -0.4935984884543775,0.1322593163665605 -0.9848883819542082,0.2731344263975745 -1.473570399970612 0.422539512782314c -0.4886820180163969,0.1494050863847395 -0.974756160549346,0.3073401491232183 -1.4579263243644964 0.473708978442456c -0.4831701638151434,0.1663688293192377 -0.9634363489124949,0.34117142521923427 -1.4405059901084218 0.5243013026815905c -0.4770696411959408,0.18312987746236994 -0.9509427384904778,0.3745870364870857 -1.4213306211963588 0.5742548465458751c -0.47038788270588794,0.1996678100587894 -0.9372905508231199,0.40754627115166625 -1.4004235798615787 0.6235087493368091c -0.4631330290384589,0.21596247818514283 -0.9224964189981378,0.4400089734625792 -1.377810338113455 0.6720030027608774c -0.45531391911531716,0.23199402929829824 -0.9065783673862655,0.4719355926174583 -1.3535184467037393 0.7196785240401172c -0.44694007931746,0.24774293142267273 -0.8895557896814246,0.5032872309488718 -1.3275775015602396 0.7664772278958821c -0.43802171187880806,0.26318999694701023 -0.8714494252724596,0.5340256913148453 -1.300019107728767 0.8123420973162031c -0.42856968245630056,0.27831640600137153 -0.852281333975264,0.564113523636252 -1.2708768408670743 0.8572172530225791c -0.41859550689181724,0.2931037293863409 -0.8320748691564813,0.5935140705241423 -1.240186206338352 0.9010480215504023c -0.4081113371818843,0.30753395102626 -0.8108546492809819,0.6221915119409787 -1.2079845959533022 0.9437810018598173c -0.3971299466723204,0.3215894899188248 -0.7886465279178704,0.6501109088417419 -1.1743112424137854 0.9853641303967211c -0.3856647144959082,0.3352532215549654 -0.7654775622421884,0.677238245741979 -1.1392071715141834 1.0257467445244546c -0.373729609272002,0.3485084987824619 -0.7413759800697327,0.7035404721603858 -1.1027151521575496 1.0648796442482098c -0.36133917208781696,0.3613391720878032 -0.7163711454657133,0.7289855428855063 -1.0648796442481891 1.1027151521575014c -0.3485084987824757,0.3737296092719882 -0.6904935229695168,0.7535424570182546 -1.025746744524496 1.139207171514149c -0.33525322155497916,0.3856647144958944 -0.6637746404779101,0.7771812957414306 -0.9853641303967349 1.1743112424137578c -0.3215894899188386,0.39712994667230656 -0.636247050833571,0.7998732587713973 -0.9437810018598587 1.2079845959532747c -0.3075339510262876,0.4081113371818774 -0.6079442921641027,0.8215906994465347 -0.9010480215504575 1.2401862063383313c -0.2931037293863547,0.4185955068918034 -0.5789008470212489,0.8423071584107461 -0.8572172530226204 1.2708768408670537c -0.27831640600135776,0.4285696824562937 -0.5491521003691928,0.8619973958499453 -0.8123420973162031 1.3000191077287395c -0.26318999694702405,0.4380217118787943 -0.518734296473237,0.8806374222427658 -0.7664772278959373 1.3275775015602052c -0.24774293142270032,0.44694007931744617 -0.4876844947418742,0.8982045275883739 -0.7196785240401724 1.3535184467036911c -0.23199402929829824,0.4553139191153102 -0.4560405245757484,0.914677309074996 -0.6720030027609188 1.377810338113455c -0.21596247818517042,0.4631330290384589 -0.4238409392780335,0.9300356971556701 -0.6235087493368505 1.400423579861558c -0.19966781005880319,0.4703878827058741 -0.39112496908356026,0.9442609800003974 -0.574254846545944 1.4213306211963381c -0.18312987746236994,0.477069641195927 -0.3579324733623803,0.9573358262932578 -0.5243013026816318 1.440505990108415c -0.16636882931925148,0.4831701638151434 -0.3243038920577303,0.9692443063480994 -0.47370897844248355 1.4579263243644964c -0.1494050863847671,0.4886820180163969 -0.2902801964158087,0.9799719115162139 -0.42253951278239676 1.4735703999705845c -0.13225931636658808,0.4935984884543637 -0.25590283906870886,0.989505571863281 -0.3708552478131175 1.4874191570304962c -0.11495240874440867,0.4979135851672152 -0.22121370353107764,0.9978336720927282 -0.31871915285031976 1.499455722966959c -9.75054493192421e-2,0.5016220508742237 -0.18625505317104354,1.0049460656971652 -0.2661947476946916 1.509665433078346c -7.993969452363422e-2,0.504719367381181 -0.15106947971910126,1.0108340873206154 -0.21334602524311866 1.5180358484056993c -6.22765455240174e-2,0.5072017610850839 -0.11569985137657138,1.0154905633158104 -0.16023737352320616 1.5245567708873355c -4.4537522146648564e-2,0.5090662075715182 -8.018926058736413e-2,1.018909820483828 -0.10693349724640827 1.529220255783491c -2.6744236659044147e-2,0.510310435299656 -4.458097153638929e-2,1.0210876929866444 -5.349933897503429e-2 1.532020621356341c -8.918367438644992e-3,0.5109329283697036 -8.918367438562246e-3,1.0220215274221227 -1.3791108058328138e-14 1.5329544557918193c 8.918367438562246e-3,0.5109329283697036 2.67551023155902e-2,1.021710186056692 5.3499338974951544e-2 1.5320206213563445c 2.674423665936134e-2,0.510310435299656 6.239597510104228e-2,1.0201540482119729 0.1069334972463531 1.5292202557834944c 4.4537522145324616e-2,0.5090662075715182 9.796082799427912e-2,1.017355009802238 0.16023737352317857 1.524556770887277c 6.227654552891324e-2,0.5072017610850322 0.1334063307377852,1.01331648102437 0.21334602524307728 1.518035848405758c 7.993969450531964e-2,0.5047193673813912 0.16868929830705937,1.008043382204836 0.2661947476946364 1.5096654330783563c 9.750544938757705e-2,0.5016220508735239 0.20376674436099143,1.0015421377971372 0.3187191528502508 1.4994557229669245c 0.11495240848925938,0.4979135851697907 0.23859593049437755,0.9938206685857621 0.3708552478130899 1.4874191570305582c 0.1322593173187124,0.49359848844479265 0.273134429951019,0.9848883819184169 0.42253951278230023 1.473570399970612c 0.14940508283128123,0.48868201805219513 0.3073401358615509,0.9747561606829612 0.4737089784424146 1.4579263243644585c 0.16636884258086374,0.4831701636815007 0.34117147471232157,0.9634363484137325 0.524301302681618 1.4405059901084598c 0.18312982796929644,0.4770696416947238 0.37458685177641776,0.950942740351936 0.5742548465459026 1.4213306211963657c 0.1996679947694849,0.47038788084442795 0.40754696050131967,0.9372905438760664 0.6235087493367816 1.40042357986157c 0.21596178883546188,0.46313303598550376 0.4400064007745509,0.9224964449248658 0.6720030027608361 1.3778103381134412c 0.2319966019862852,0.45531389318857873 0.4719451940197527,0.9065782706263757 0.7196785240401862 1.3535184467037686c 0.24773333002043346,0.4469401760773911 0.503251398027819,0.889556150794378 0.7664772278958407 1.3275775015602378c 0.2632258298680217,0.438021350765858 0.5341594215966519,0.8714480775805906 0.8123420973161479 1.3000191077287413c 0.27818267571949606,0.42857103014815057 0.5636144354298581,0.8522863636297243 0.8572172530226067 1.2708768408670983c 0.29360281759276236,0.4185904772373741 0.5953766930679251,0.8320560982305468 0.9010480215504161 1.240186206338364c 0.305671328482491,0.40813010810781714 0.615240109972324,0.8109247033302783 0.9437810018598035 1.2079845959532798c 0.3285408918874657,0.3970598926230011 0.6760538941725917,0.7883850826465422 0.9853641303967487 1.174311242413817c 0.3093102362241708,0.3859261597672751 0.5804177063873727,0.7664532892782837 1.0257467445244133 1.1392071715141925c 0.44532903813704067,0.3727538822359096 1.0648796442479203,0.7377345171967197 1.0648796442481685 1.1027151521575238c 2.6203105310823465e-13,0.36498063496080413 -0.6195506061100934,0.7299612699216025 -1.0648796442469686 1.1027151521575087c -0.4453290381368752,0.3727538822359062 -0.7164365083002563,0.7532810117469202 -1.025746744524496 1.1392071715141814c -0.309310236224226,0.38592615976726136 -0.6568232385092968,0.7772513497907709 -0.9853641303967625 1.1743112424137483c -0.3285408918874657,0.39705989262297825 -0.6381096733772987,0.7998544878454248 -0.9437810018598173 1.2079845959532403c -0.30567132848251855,0.4081301081078146 -0.6074452039577227,0.8215957291009985 -0.9010480215504988 1.2401862063383597c -0.2936028175927762,0.41859047723736115 -0.5790345773031381,0.8423058107189004 -0.8572172530226481 1.2708768408670312c -0.2781826757195099,0.42857103014813164 -0.5491162674481677,0.8619977569628573 -0.8123420973162031 1.3000191077287084c -0.26322582986804927,0.43802135076585114 -0.5187438978754763,0.8806373254828329 -0.7664772278959235 1.3275775015602154c -0.24773333002046105,0.4469401760773808 -0.4876819220539148,0.898204553515164 -0.7196785240401999 1.3535184467037358c -0.2319966019862852,0.4553138931885667 -0.45604121392540176,0.9146773021279202 -0.6720030027608912 1.377810338113412c -0.21596178883548947,0.46313303598548994 -0.4238407545673656,0.9300356990171198 -0.6235087493368505 1.4004235798615494c -0.1996679947694987,0.4703878808444297 -0.3911250185766338,0.9442609795016592 -0.574254846545944 1.4213306211963743c -0.18312982796929644,0.47706964169471516 -0.35793246010079566,0.9573358264269195 -0.5243013026816732 1.440505990108403c -0.16636884258087753,0.4831701636814834 -0.32430389561116096,0.9692443063122426 -0.4737089784424698 1.4579263243644447c -0.14940508283130882,0.4886820180521986 -0.29028019546364303,0.9799719115258401 -0.422539512782383 1.4735703999706327c -0.13225931731873997,0.4935984884447892 -0.2559028393238719,0.9895055718607227 -0.3708552478131451 1.487419157030503c -0.11495240848928696,0.4979135851697769 -0.22121370346272892,0.9978336720933937 -0.31871915285030594 1.4994557229669176c -9.750544938760462e-2,0.5016220508735204 -0.18625505318935814,1.0049460656969549 -0.266194747694664 1.5096654330783392c -7.993969450531964e-2,0.5047193673813809 -0.1510694797142192,1.0108340873207153 -0.21334602524314622 1.5180358484057441c -6.227654552892703e-2,0.5072017610850322 -0.11569985137789533,1.0154905633157587 -0.16023737352324752 1.524556770887277c -4.453752214533841e-2,0.5090662075715148 -8.018926058704692e-2,1.0189098204838247 -0.10693349724643585 1.529220255783491c -2.6744236659388923e-2,0.5103104352996629 -4.458097153645825e-2,1.021087692986689 -5.3499338975020495e-2 1.5320206213563927c -8.918367438562246e-3,0.5109329283697002 -8.91836743861741e-3,1.022021527422071 0.0 1.5329544557917607c 8.91836743861741e-3,0.510932928369683 2.6755102315934975e-2,1.0217101860566782 5.3499338974923955e-2 1.5320206213563548c 2.6744236659002774e-2,0.5103104352996698 6.239597509971833e-2,1.0201540482120142 0.10693349724633931 1.5292202557835324c 4.453752214662098e-2,0.5090662075715182 9.796082799917497e-2,1.0173550098022102 0.16023737352319237 1.5245567708872803c 6.227654552400361e-2,0.5072017610850632 0.13340633071944305,1.0133164810245046 0.21334602524306348 1.518035848405713c 7.993969452360665e-2,0.5047193673812016 0.1686892983753943,1.0080433822041706 0.2661947476946088 1.5096654330783943c 9.750544931921452e-2,0.5016220508742306 0.2037667441058697,1.0015421377997162 0.3187191528502508 1.4994557229669245c 0.11495240874438109,0.4979135851672152 0.23859593144648808,0.9938206685761325 0.37085524781304857 1.4874191570305169c 0.1322593163665743,0.49359848845438437 0.2731344263975883,0.984888381954222 0.422539512782314 1.473570399970612c 0.1494050863847395,0.4886820180163969 0.30734014912319074,0.9747561605493529 0.47370897844242843 1.4579263243645033c 0.1663688293192239,0.4831701638151572 0.3411714252192205,0.9634363489125017 0.5243013026815905 1.4405059901084287c 0.18312987746236994,0.47706964119593387 0.3745870364870857,0.9509427384904641 0.5742548465459026 1.421330621196345c 0.19966781005880319,0.47038788270588794 0.40754627115166625,0.9372905508231475 0.6235087493368091 1.40042357986162c 0.21596247818514283,0.46313302903846576 0.44000897346253787,0.9224964189981378 0.6720030027608361 1.377810338113448c 0.23199402929828444,0.45531391911530333 0.4719355926174445,0.906578367386238 0.719678524040131 1.3535184467037187c 0.24774293142268652,0.44694007931747376 0.5032872309488581,0.8895557896814866 0.7664772278958407 1.3275775015603015c 0.26318999694699646,0.4380217118788219 0.5340256913148178,0.871449425272439 0.8123420973161755 1.3000191077287326c 0.27831640600135776,0.42856968245627985 0.5641135236362381,0.8522813339752432 0.8572172530225929 1.2708768408670674c 0.2931037293863547,0.4185955068918241 0.5935140705241837,0.8320748691565021 0.9010480215504298 1.2401862063384002c 0.30753395102626,0.40811133718189124 0.6221915119409511,0.8108546492809888 0.9437810018597621 1.2079845959533022c 0.32158948991881103,0.39712994667231344 0.6501109088417419,0.7886465279178635 0.9853641303967073 1.1743112424137716c 0.3352532215549654,0.3856647144959151 0.6772382457419651,0.7654775622422022 1.025746744524427 1.1392071715142111c 0.3485084987824619,0.3737296092720089 0.7035404721603997,0.7413759800697396 1.064879644248196 1.1027151521575633c 0.3613391720878101,0.36133917208781696 0.7289855428854924,0.7163711454657272 1.10271515215746 1.064879644248203c 0.3737296092719675,0.3485084987824619 0.7535424570182339,0.6904935229695031 1.139207171514142 1.025746744524496c 0.3856647144959082,0.33525322155499293 0.7771812957414582,0.6637746404779377 1.1743112424137647 0.9853641303967625c 0.39712994667230656,0.3215894899188386 0.7998732587713697,0.636247050833571 1.2079845959532403 0.9437810018598449c 0.4081113371818774,0.30753395102627384 0.8215906994465485,0.6079442921641027 1.2401862063383589 0.9010480215504713c 0.4185955068918034,0.2931037293863685 0.8423071584107392,0.5789008470212903 1.270876840867026 0.8572172530226618c 0.4285696824562868,0.27831640600137153 0.8619973958499108,0.5491521003692067 1.300019107728705 0.8123420973162306c 0.4380217118787943,0.26318999694702405 0.880637422242752,0.518734296473237 1.3275775015602052 0.7664772278959373c 0.44694007931746,0.24774293142268652 0.8982045275884153,0.4876844947418604 1.3535184467037187 0.7196785240401724c 0.45531391911529645,0.23199402929831203 0.914677309074934,0.4560405245757622 1.377810338113386 0.6720030027609326c 0.4631330290384451,0.21596247818517042 0.9300356971557253,0.42384093927807487 1.40042357986162 0.6235087493368918c 0.4703878827059017,0.19966781005881698 0.944260980000418,0.3911249690835465 1.421330621196345 0.574254846545944c 0.477069641195927,0.18312987746238374 0.9573358262932646,0.35793247336242173 1.4405059901083874 0.5243013026816732c 0.4831701638151296,0.16636882931926528 0.9692443063480513,0.32430389205774407 1.4579263243644411 0.4737089784424974c 0.48868201801638306,0.1494050863847533 0.9799719115162139,0.2902801964157811 1.4735703999705982 0.422539512782383c 0.49359848845438437,0.13225931636658808 0.9895055718633017,0.25590283906872263 1.4874191570305169 0.37085524781313134c 0.4979135851672014,0.11495240874440867 0.9978336720926732,0.22121370353109143 1.4994557229669105 0.31871915285033353c 0.5016220508742306,9.75054493192421e-2 1.0049460656972202,0.18625505317104354 1.5096654330784287 0.2661947476946916c 0.5047193673812086,7.993969452364802e-2 1.0108340873206292,0.15106947971912885 1.5180358484056924 0.21334602524314622c 0.5072017610850563,6.227654552403119e-2 1.0154905633157552,0.11569985137662654 1.5245567708872734 0.1602373735232751c 0.5090662075715113,4.4537522146648564e-2 1.0189098204838418,8.018926058735033e-2 1.529220255783498 0.10693349724639448c 0.5103104352996629,2.6744236659044147e-2 1.0210876929866581,4.4580971536403086e-2 1.532020621356341 5.349933897504808e-2c 0.5109329283696898,8.918367438658783e-3 1.022021527422064,8.918367438603619e-3 1.5329544557917816 4.137332417498442e-14c 0.5109329283697139,-8.918367438562246e-3 1.0217101860567608,-2.675510231561778e-2 1.532020621356434 -5.3499338974979126e-2c 0.5103104352996698,-2.674423665936134e-2 1.020154048211959,-6.239597510100091e-2 1.5292202557834842 -0.10693349724631174c 0.5090662075715148,-4.453752214531083e-2 1.017355009802262,-9.796082799426534e-2 1.5245567708872874 -0.16023737352317857c 0.5072017610850288,-6.227654552891324e-2 1.0133164810243287,-0.13340633073775765 1.5180358484057097 -0.2133460252430497c 0.5047193673813775,-7.993969450529206e-2 1.0080433822048291,-0.16868929830703178 1.5096654330783632 -0.2661947476946226c 0.5016220508735342,-9.750544938757705e-2 1.001542137797151,-0.20376674436097764 1.4994557229669314 -0.31871915285022323c 0.4979135851697769,-0.11495240848925938 0.9938206685857138,-0.23859593049434996 1.4874191570305204 -0.37085524781306234c 0.49359848844480303,-0.1322593173187124 0.9848883819184721,-0.273134429951019 1.4735703999706913 -0.42253951278228646c 0.48868201805221584,-0.14940508283129503 0.9747561606829784,-0.30734013586156467 1.4579263243644722 -0.4737089784424146c 0.48317016368149035,-0.16636884258086374 0.9634363484137084,-0.341171474712294 1.4405059901084287 -0.5243013026815767c 0.4770696416947169,-0.18312982796926888 0.9509427403519326,-0.3745868517763626 1.421330621196364 -0.5742548465458475c 0.4703878808444314,-0.1996679947694849 0.9372905438760819,-0.40754696050133343 1.4004235798615838 -0.6235087493367953c 0.4631330359855055,-0.21596178883547568 0.9224964449248658,-0.4400064007745785 1.3778103381134497 -0.6720030027608361c 0.45531389318858734,-0.2319966019862576 0.9065782706264016,-0.4719451940196976 1.3535184467038013 -0.7196785240401449c 0.44694017607740144,-0.24773333002043346 0.8895561507943901,-0.5032513980278605 1.3275775015602533 -0.7664772278958684c 0.43802135076586324,-0.26322582986803544 0.871448077580601,-0.5341594215966519 1.3000191077287482 -0.8123420973161342c 0.4285710301481471,-0.2781826757194823 0.8522863636297071,-0.5636144354298305 1.2708768408670768 -0.8572172530225791c 0.4185904772373689,-0.29360281759276236 0.8320560982305494,-0.5953766930679113 1.2401862063383735 -0.9010480215504023c 0.4081301081078249,-0.305671328482491 0.8109247033302939,-0.615240109972324 1.2079845959532884 -0.9437810018597621c 0.39705989262299424,-0.32854089188745195 0.7883850826465142,-0.6760538941725089 1.1743112424137985 -0.9853641303966936c 0.38592615976728417,-0.3093102362241708 0.7664532892783332,-0.5804177063874554 1.1392071715142624 -1.0257467445244683c 0.3727538822359292,-0.4453290381370131 0.7377345171967384,-1.0648796442477546 1.1027151521575345 -1.0648796442481545c 0.36498063496079597,-3.861510256331879e-13 0.7299612699215786,0.6195506061095831 1.102715152157469 1.0648796442463067c 0.3727538822358905,0.44532903813673724 0.7532810117468893,0.7164365083002286 1.1392071715141419 1.025746744524496c 0.38592615976725186,0.3093102362242811 0.777251349790758,0.6568232385093106 1.1743112424137359 0.9853641303967625c 0.39705989262297786,0.32854089188745195 0.7998544878454278,0.6381096733773125 1.2079845959532294 0.943781001859831c 0.40813010810780076,0.30567132848251855 0.8215957291009528,0.6074452039577088 1.2401862063383173 0.9010480215504988c 0.41859047723736376,0.29360281759278994 0.8423058107189426,0.5790345773031795 1.2708768408670863 0.8572172530227032c 0.4285710301481437,0.27818267571952365 0.8619977569628531,0.5491162674481814 1.300019107728699 0.8123420973162306c 0.438021350765846,0.26322582986803544 0.8806373254828311,0.5187438978754763 1.3275775015602034 0.7664772278959373c 0.4469401760773722,0.24773333002044726 0.8982045535151347,0.48768192205392863 1.3535184467036927 0.7196785240402138c 0.455313893188558,0.2319966019862852 0.914677302127915,0.45604121392540176 1.3778103381134033 0.6720030027608912c 0.4631330359854882,0.21596178883550327 0.9300356990171095,0.4238407545673932 1.400423579861546 0.6235087493369195c 0.47038788084443656,0.1996679947695125 0.9442609795016885,0.39112501857667514 1.4213306211964072 0.5742548465459854c 0.4770696416947203,0.18312982796931024 0.9573358264269074,0.3579324601007819 1.4405059901083908 0.5243013026816594c 0.48317016368147997,0.16636884258089132 0.9692443063122494,0.32430389561118855 1.4579263243644447 0.47370897844251114c 0.48868201805219513,0.14940508283130882 0.9799719115258124,0.2902801954636292 1.4735703999705878 0.4225395127823554c 0.4935984884447789,0.13225931731872617 0.9895055718607193,0.25590283932385816 1.4874191570304927 0.3708552478131589c 0.4979135851697769,0.11495240848930074 0.9978336720933937,0.22121370346275648 1.499455722966914 0.31871915285034735c 0.5016220508735204,9.750544938760462e-2 1.0049460656969478,0.18625505318934435 1.5096654330783357 0.26619474769467777c 0.5047193673813912,7.993969450533343e-2 1.0108340873207498,0.15106947971423298 1.5180358484057854 0.2133460252431738c 0.5072017610850357,6.2276545528940824e-2 1.0154905633157552,0.11569985137792291 1.52455677088727 0.1602373735232613c 0.5090662075715148,4.453752214533841e-2 1.0189098204838247,8.018926058704692e-2 1.5292202557834806 0.10693349724642207c 0.510310435299656,2.6744236659388923e-2 1.0210876929866546,4.458097153645825e-2 1.5320206213563548 5.349933897503429e-2c 0.5109329283696967,8.918367438589828e-3 1.022021527422088,8.918367438672574e-3 1.532954455791785 6.895554029164069e-14c 0.5109329283696898,-8.918367438603619e-3 1.0217101860566782,-2.6755102315921184e-2 1.5320206213563548 -5.3499338974951544e-2c 0.5103104352996836,-2.6744236659002774e-2 1.0201540482120555,-6.239597509970454e-2 1.5292202557835737 -0.10693349724632552c 0.5090662075715251,-4.453752214662098e-2 1.0173550098022102,-9.796082799917497e-2 1.5245567708872665 -0.16023737352317857c 0.5072017610850632,-6.227654552400361e-2 1.0133164810245114,-0.13340633071944305 1.518035848405713 -0.2133460252430497c 0.5047193673812016,-7.993969452360665e-2 1.008043382204143,-0.16868929837538052 1.5096654330783668 -0.26619474769458124c 0.5016220508742237,-9.750544931921452e-2 1.0015421377997162,-0.2037667441058697 1.4994557229669245 -0.3187191528502508c 0.4979135851672152,-0.11495240874438109 0.9938206685761325,-0.23859593144648808 1.48741915703051 -0.37085524781304857c 0.4935984884543706,-0.1322593163665605 0.9848883819542151,-0.27313442639753316 1.4735703999706258 -0.42253951278227264c 0.48868201801641065,-0.1494050863847395 0.9747561605493874,-0.3073401491232045 1.4579263243645584 -0.47370897844242843c 0.4831701638151641,-0.1663688293192377 0.9634363489125017,-0.3411714252192205 1.4405059901084356 -0.5243013026815767c 0.4770696411959408,-0.18312987746235615 0.9509427384904778,-0.37458703648707187 1.4213306211963588 -0.5742548465458751c 0.4703878827058948,-0.1996678100587894 0.9372905508231267,-0.4075462711516525 1.4004235798615856 -0.6235087493367816c 0.4631330290384589,-0.21596247818512904 0.9224964189981516,-0.44000897346252404 1.3778103381134619 -0.6720030027608085c 0.45531391911531716,-0.23199402929828444 0.9065783673862655,-0.4719355926174445 1.3535184467037393 -0.719678524040131c 0.44694007931747376,-0.24774293142268652 0.8895557896815004,-0.5032872309488995 1.3275775015603293 -0.7664772278958959c 0.43802171187882877,-0.26318999694699646 0.8714494252724665,-0.5340256913147902 1.3000191077287602 -0.8123420973161342c 0.4285696824562937,-0.2783164060013302 0.8522813339752502,-0.5641135236362106 1.2708768408670812 -0.8572172530225652c 0.41859550689181724,-0.2931037293863409 0.8320748691564883,-0.5935140705241423 1.2401862063383726 -0.9010480215504023c 0.4081113371818843,-0.30753395102626 0.8108546492809819,-0.6221915119409649 1.2079845959533022 -0.943781001859776c 0.39712994667232726,-0.32158948991881103 0.7886465279178773,-0.6501109088417144 1.1743112424137854 -0.9853641303966798c 0.3856647144959151,-0.3352532215549516 0.7654775622421953,-0.6772382457419651 1.139207171514218 -1.025746744524427c 0.37372960927202264,-0.3485084987824619 0.741375980069774,-0.7035404721603583 1.1027151521576117 -1.0648796442481685c 0.3613391720878239,-0.3613391720878032 0.7163711454657341,-0.7289855428854994 1.0648796442482236 -1.1027151521574738c 0.3485084987824757,-0.3737296092719882 0.6904935229695031,-0.7535424570182546 1.025746744524496 -1.139207171514149c 0.33525322155499293,-0.3856647144958944 0.6637746404779239,-0.7771812957414237 0.9853641303967763 -1.1743112424137234c 0.3215894899188386,-0.3971299466722928 0.636247050833571,-0.799873258771349 0.9437810018598449 -1.2079845959532127c 0.3075339510262876,-0.40811133718186365 0.6079442921641166,-0.8215906994465279 0.901048021550485 -1.2401862063383173c 0.2931037293863685,-0.41859550689178965 0.5789008470212764,-0.8423071584107255 0.8572172530226481 -1.2708768408670121c 0.2783164060013991,-0.42856968245630056 0.549152100369248,-0.8619973958499659 0.812342097316272 -1.300019107728767c 0.2631899969470378,-0.43802171187880806 0.518734296473237,-0.880637422242752 0.7664772278959373 -1.3275775015602052c 0.24774293142270032,-0.44694007931744617 0.4876844947419018,-0.8982045275883878 0.7196785240402138 -1.3535184467036843c 0.23199402929831203,-0.45531391911528957 0.4560405245757484,-0.9146773090749478 0.6720030027609326 -1.3778103381133928c 0.21596247818515663,-0.4631330290384451 0.42384093927807487,-0.930035697155677 0.6235087493368918 -1.4004235798615443c 0.19966781005881698,-0.4703878827058741 0.3911249690835465,-0.9442609800003905 0.574254846545944 -1.4213306211963244c 0.18312987746238374,-0.4770696411959408 0.3579324733624631,-0.9573358262933267 0.5243013026817284 -1.4405059901084631c 0.16636882931926528,-0.4831701638151503 0.32430389205774407,-0.9692443063480719 0.4737089784424974 -1.4579263243644411c 0.1494050863847533,-0.48868201801638306 0.2902801964157949,-0.9799719115162208 0.422539512782383 -1.4735703999705914c 0.13225931636658808,-0.4935984884543706 0.25590283906873645,-0.989505571863281 0.3708552478131727 -1.487419157030503c 0.11495240874442246,-0.4979135851672083 0.22121370353110523,-0.9978336720926938 0.31871915285034735 -1.4994557229669105c 9.75054493192421e-2,-0.5016220508742169 0.18625505317104354,-1.0049460656971514 0.26619474769470536 -1.5096654330783392c 7.993969452364802e-2,-0.5047193673811878 0.15106947971912885,-1.0108340873206154 0.21334602524316001 -1.5180358484056993c 6.227654552403119e-2,-0.5072017610850839 0.11569985137661276,-1.0154905633158242 0.1602373735232751 -1.5245567708873424c 4.453752214666235e-2,-0.5090662075715251 8.01892605874055e-2,-1.018909820483835 0.10693349724646344 -1.529220255783491c 2.6744236659057938e-2,-0.5103104352996491 4.458097153641688e-2,-1.0210876929866444 5.349933897506187e-2 -1.532020621356341c 8.918367438644992e-3,-0.5109329283696898 8.918367438603619e-3,-1.0220215274220812 5.5164432233312554e-14 -1.5329544557917816c -8.918367438534663e-3,-0.5109329283696967 -2.6755102315576408e-2,-1.0217101860567024 -5.349933897493775e-2 -1.5320206213563514c -2.674423665936134e-2,-0.510310435299656 -6.239597510102849e-2,-1.020154048211959 -0.10693349724633931 -1.5292202557835013c -4.453752214531083e-2,-0.5090662075715457 -9.796082799425154e-2,-1.0173550098023205 -0.16023737352315098 -1.524556770887363c -6.227654552889945e-2,-0.5072017610850426 -0.13340633073774386,-1.013316481024339 -0.2133460252430359 -1.518035848405713c -7.993969450529206e-2,-0.504719367381374 -0.1686892983070042,-1.0080433822048291 -0.26619474769458124 -1.5096654330783632c -9.750544938757705e-2,-0.5016220508735342 -0.20376674436097764,-1.0015421377971476 -0.318719152850237 -1.4994557229669314c -0.11495240848924558,-0.4979135851697838 -0.23859593049433617,-0.993820668585738 -0.3708552478130348 -1.4874191570305237c -0.1322593173186986,-0.49359848844479265 -0.27313442995097764,-0.9848883819184169 -0.4225395127822589 -1.4735703999706153c -0.14940508283128123,-0.4886820180521986 -0.30734013586156467,-0.9747561606829681 -0.47370897844242843 -1.4579263243644824c -0.16636884258086374,-0.48317016368151444 -0.34117147471232157,-0.9634363484137739 -0.5243013026815767 -1.4405059901085062c -0.18312982796926888,-0.47706964169473587 -0.37458685177637635,-0.9509427403519447 -0.5742548465458337 -1.421330621196376c -0.19966799476945732,-0.47038788084442795 -0.40754696050130584,-0.9372905438760732 -0.6235087493367816 -1.4004235798615823c -0.21596178883546188,-0.4631330359855089 -0.4400064007745647,-0.9224964449248814 -0.6720030027608223 -1.3778103381134568c -0.2319966019862576,-0.455313893188577 -0.4719451940196976,-0.9065782706263603 -0.7196785240401035 -1.3535184467037427c -0.24773333002041967,-0.4469401760773877 -0.5032513980278053,-0.8895561507943763 -0.7664772278958132 -1.3275775015602602c -0.2632258298680217,-0.4380213507658839 -0.5341594215966656,-0.8714480775806622 -0.8123420973161755 -1.3000191077288274c -0.27818267571949606,-0.4285710301481644 -0.5636144354298442,-0.8522863636297157 -0.8572172530225929 -1.2708768408670863c -0.2936028175927486,-0.41859047723737064 -0.5953766930678975,-0.8320560982305606 -0.9010480215503885 -1.2401862063383822c -0.3056713284824772,-0.4081301081078232 -0.6152401099722964,-0.8109247033302792 -0.9437810018597897 -1.2079845959533007c -0.3285408918874795,-0.3970598926230214 -0.6760538941726193,-0.7883850826466081 -0.9853641303966659 -1.1743112424138087c -0.3093102362240467,-0.38592615976719996 -0.5804177063870141,-0.7664532892780137 -1.0257467445243995 -1.1392071715142167c -0.44532903813738545,-0.37275388223620287 -1.064879644249189,-0.7377345171977951 -1.0648796442494017 -1.1027151521588685Z"/>
  </g>
  <defs>
  </defs>
  <g stroke-linejoin="miter" stroke-opacity="1.0" fill-opacity="1.0" stroke="rgb(0,0,0)" stroke-width="0.0" fill="rgb(255,0,0)" stroke-linecap="butt" stroke-miterlimit="10.0">
    <path d="M 90.39379830369853,93.72448576002844 c 0.0,-1.6562567725813768 -1.3426613997723107,-2.998918172353688 -2.998918172353687 -2.998918172353688c -1.6562567725813768,-1.0141647775539544e-16 -2.998918172353688,1.3426613997723105 -2.998918172353688 2.998918172353687c -2.0283295551079088e-16,1.6562567725813768 1.3426613997723105,2.998918172353688 2.9989181723536866 2.998918172353688c 1.6562567725813768,3.042494332661863e-16 2.998918172353688,-1.3426613997723102 2.9989181723536884 -2.998918172353687Z"/>
  </g>
</svg>