<?xml version="1.0" encoding="UTF-8"?>
<!DOCTYPE svg PUBLIC "-//W3C//DTD SVG 1.1//EN"
    "http://www.w3.org/Graphics/SVG/1.1/DTD/svg11.dtd">
<svg xmlns="http://www.w3.org/2000/svg" height="500.0" stroke-opacity="1" viewBox="0 0 500 500" font-size="1" width="500.0" xmlns:xlink="http://www.w3.org/1999/xlink" stroke="rgb(0,0,0)" version="1.1">
  <defs>
  </defs>
  <defs>
  </defs>
  <g stroke-linejoin="miter" stroke-opacity="1.0" fill-opacity="0.0" stroke="rgb(255,0,0)" stroke-width="2.0" fill="rgb(0,0,0)" stroke-linecap="butt" stroke-miterlimit="10.0">
    <path d="M 374.24103353859516,483.15231593571593 l -357.3933494743112,-357.3933494743112 "/>
  </g>
  <defs>
  </defs>
  <g stroke-linejoin="miter" stroke-opacity="1.0" fill-opacity="0.0" stroke="rgb(0,0,0)" stroke-width="2.0" fill="rgb(0,0,0)" stroke-linecap="butt" stroke-miterlimit="10.0">
    <path d="M 314.6754752928766,185.32452470712335 l -106.75674782067246,106.75674782067247 "/>
  </g>
  <defs>
  </defs>
  <g stroke-linejoin="miter" stroke-opacity="1.0" fill-opacity="1.0" stroke="rgb(0,0,0)" stroke-width="0.0" fill="rgb(0,0,0)" stroke-linecap="butt" stroke-miterlimit="10.0">
  </g>
  <defs>
  </defs>
  <g stroke-linejoin="miter" stroke-opacity="1.0" fill-opacity="1.0" stroke="rgb(0,0,0)" stroke-width="0.0" fill="rgb(0,0,0)" stroke-linecap="butt" stroke-miterlimit="10.0">
  </g>
  <defs>
  </defs>
  <g stroke-linejoin="miter" stroke-opacity="1.0" fill-opacity="1.0" stroke="rgb(0,0,0)" stroke-width="0.0" fill="rgb(0,0,0)" stroke-linecap="butt" stroke-miterlimit="10.0">
    <path d="M 195.54435880143959,304.4556411985604 l 21.075400412501665,-8.729716683301714 c -6.818332849871293,4.440892098500626e-16 -12.345683729199953,-5.527350879328658 -12.345683729199953 -12.345683729199951l -8.72971668330171,21.075400412501665 Z"/>
  </g>
  <defs>
  </defs>
  <g stroke-linejoin="miter" stroke-opacity="1.0" fill-opacity="1.0" stroke="rgb(0,0,0)" stroke-width="0.0" fill="rgb(0,0,0)" stroke-linecap="butt" stroke-miterlimit="10.0">
    <path d="M 207.21162069101763,291.37416574660926 c 0.4323821643658867,0.5088753418715657 0.9053382205015295,0.9818313980072082 1.4142135623730956 1.4142135623730945Z"/>
  </g>
  <defs>
  </defs>
  <g stroke-linejoin="miter" stroke-opacity="1.0" fill-opacity="0.0" stroke="rgb(0,0,0)" stroke-width="2.0" fill="rgb(0,0,0)" stroke-linecap="butt" stroke-miterlimit="10.0">
    <path d="M 483.152315935716,185.32452470712335 c 0.0,-93.04718978671299 -75.42965085612636,-168.47684064283936 -168.47684064283933 -168.47684064283936c -93.04718978671299,-5.697497157097718e-15 -168.47684064283936,75.42965085612634 -168.47684064283936 168.4768406428393c -1.1394994314195436e-14,93.04718978671299 75.42965085612633,168.47684064283936 168.47684064283928 168.47684064283936c 93.04718978671299,1.7092491471293155e-14 168.47684064283936,-75.42965085612633 168.47684064283945 -168.4768406428393Z"/>
  </g>
  <defs>
  </defs>
  <g stroke-linejoin="miter" stroke-opacity="1.0" fill-opacity="1.0" stroke="rgb(0,0,0)" stroke-width="0.0" fill="rgb(255,0,0)" stroke-linecap="butt" stroke-miterlimit="10.0">
    <path d="M 321.4145489185902,185.32452470712335 c 0.0,-3.721887591468519 -3.0171860342450536,-6.739073625713574 -6.739073625713572 -6.739073625713574c -3.721887591468519,-2.278998862839087e-16 -6.739073625713574,3.017186034245053 -6.739073625713574 6.739073625713571c -4.557997725678174e-16,3.721887591468519 3.017186034245053,6.739073625713574 6.73907362571357 6.739073625713574c 3.721887591468519,6.836996588517261e-16 6.739073625713574,-3.0171860342450523 6.7390736257135755 -6.739073625713571Z"/>
  </g>
  <defs>
  </defs>
  <g stroke-linejoin="miter" stroke-opacity="1.0" fill-opacity="0.0" stroke="rgb(255,0,0)" stroke-width="2.0" fill="rgb(0,0,0)" stroke-linecap="butt" stroke-miterlimit="10.0">
    <path d="M 16.84768406428394,125.75896646140487 l 357.3933494743112,357.3933494743112 "/>
  </g>
  <defs>
  </defs>
  <g stroke-linejoin="miter" stroke-opacity="1.0" fill-opacity="0.0" stroke="rgb(0,0,0)" stroke-width="2.0" fill="rgb(0,0,0)" stroke-linecap="butt" stroke-miterlimit="10.0">
    <path d="M 135.97880055572102,364.021199444279 l 47.19118957495395,-47.191189574953945 "/>
  </g>
  <defs>
  </defs>
  <g stroke-linejoin="miter" stroke-opacity="1.0" fill-opacity="1.0" stroke="rgb(0,0,0)" stroke-width="0.0" fill="rgb(0,0,0)" stroke-linecap="butt" stroke-miterlimit="10.0">
  </g>
  <defs>
  </defs>
  <g stroke-linejoin="miter" stroke-opacity="1.0" fill-opacity="1.0" stroke="rgb(0,0,0)" stroke-width="0.0" fill="rgb(0,0,0)" stroke-linecap="butt" stroke-miterlimit="10.0">
  </g>
  <defs>
  </defs>
  <g stroke-linejoin="miter" stroke-opacity="1.0" fill-opacity="1.0" stroke="rgb(0,0,0)" stroke-width="0.0" fill="rgb(0,0,0)" stroke-linecap="butt" stroke-miterlimit="10.0">
    <path d="M 195.54435880143956,304.45564119856044 l -21.075400412501665,8.72971668330171 c 6.818332849871293,4.440892098500626e-16 12.345683729199951,5.52735087932866 12.345683729199951 12.345683729199953l 8.729716683301714,-21.075400412501665 Z"/>
  </g>
  <defs>
  </defs>
  <g stroke-linejoin="miter" stroke-opacity="1.0" fill-opacity="1.0" stroke="rgb(0,0,0)" stroke-width="0.0" fill="rgb(0,0,0)" stroke-linecap="butt" stroke-miterlimit="10.0">
    <path d="M 183.8770969118615,317.53711665051156 c -0.43238216436588667,-0.5088753418715657 -0.9053382205015292,-0.9818313980072084 -1.4142135623730954 -1.4142135623730947Z"/>
  </g>
  <defs>
  </defs>
  <g stroke-linejoin="miter" stroke-opacity="1.0" fill-opacity="0.0" stroke="rgb(0,0,0)" stroke-width="2.0" fill="rgb(0,0,0)" stroke-linecap="butt" stroke-miterlimit="10.0">
    <path d="M 220.2172208771407,364.021199444279 c 0.0,-46.523594893356496 -37.71482542806318,-84.23842032141968 -84.23842032141967 -84.23842032141968c -46.523594893356496,-2.848748578548859e-15 -84.23842032141968,37.71482542806317 -84.23842032141968 84.23842032141965c -5.697497157097718e-15,46.523594893356496 37.714825428063165,84.23842032141968 84.23842032141964 84.23842032141968c 46.523594893356496,8.546245735646578e-15 84.23842032141968,-37.714825428063165 84.23842032141972 -84.23842032141965Z"/>
  </g>
  <defs>
  </defs>
  <g stroke-linejoin="miter" stroke-opacity="1.0" fill-opacity="1.0" stroke="rgb(0,0,0)" stroke-width="0.0" fill="rgb(255,0,0)" stroke-linecap="butt" stroke-miterlimit="10.0">
    <path d="M 139.3483373685778,364.021199444279 c 0.0,-1.8609437957342596 -1.5085930171225268,-3.369536812856787 -3.369536812856786 -3.369536812856787c -1.8609437957342596,-1.1394994314195434e-16 -3.369536812856787,1.5085930171225266 -3.369536812856787 3.3695368128567855c -2.278998862839087e-16,1.8609437957342596 1.5085930171225266,3.369536812856787 3.369536812856785 3.369536812856787c 1.8609437957342596,3.4184982942586304e-16 3.369536812856787,-1.5085930171225261 3.3695368128567877 -3.3695368128567855Z"/>
  </g>
</svg>