<?xml version="1.0" encoding="UTF-8"?>
<!DOCTYPE svg PUBLIC "-//W3C//DTD SVG 1.1//EN"
    "http://www.w3.org/Graphics/SVG/1.1/DTD/svg11.dtd">
<svg xmlns="http://www.w3.org/2000/svg" height="418.3006535947712" stroke-opacity="1" viewBox="0 0 500 418" font-size="1" width="500.0" xmlns:xlink="http://www.w3.org/1999/xlink" stroke="rgb(0,0,0)" version="1.1">
  <defs>
  </defs>
  <defs>
  </defs>
  <g stroke-linejoin="miter" stroke-opacity="1.0" fill-opacity="0.0" stroke="rgb(0,0,0)" stroke-width="1.8293182415200941" fill="rgb(0,0,0)" stroke-linecap="butt" stroke-miterlimit="10.0">
    <path d="M 478.7581699346405,233.6601307189542 l -2.358316882373698e-14,-212.4183006535947 h -212.4183006535947 l -2.358316882373698e-14,212.4183006535947 Z"/>
  </g>
  <defs>
  </defs>
  <g stroke-linejoin="miter" stroke-opacity="1.0" fill-opacity="1.0" stroke="rgb(0,0,0)" stroke-width="0.0" fill="rgb(255,0,0)" stroke-linecap="butt" stroke-miterlimit="10.0">
    <path d="M 376.797385620915,127.45098039215685 c 0.0,-2.3463077607190566 -1.9020582523528373,-4.2483660130718945 -4.248366013071894 -4.2483660130718945c -2.3463077607190566,-1.4366991444895932e-16 -4.2483660130718945,1.9020582523528369 -4.2483660130718945 4.248366013071893c -2.8733982889791865e-16,2.3463077607190566 1.9020582523528369,4.2483660130718945 4.248366013071892 4.2483660130718945c 2.3463077607190566,4.31009743346878e-16 4.2483660130718945,-1.9020582523528367 4.248366013071897 -4.248366013071893Z"/>
  </g>
  <defs>
  </defs>
  <g stroke-linejoin="miter" stroke-opacity="1.0" fill-opacity="0.0" stroke="rgb(0,0,0)" stroke-width="1.8293182415200941" fill="rgb(0,0,0)" stroke-linecap="butt" stroke-miterlimit="10.0">
    <path d="M 233.66013071895424,397.0588235294117 l -2.358316882373698e-14,-212.4183006535947 h -212.4183006535947 l -2.358316882373698e-14,212.4183006535947 Z"/>
  </g>
  <defs>
  </defs>
  <g stroke-linejoin="miter" stroke-opacity="1.0" fill-opacity="1.0" stroke="rgb(0,0,0)" stroke-width="0.0" fill="rgb(255,0,0)" stroke-linecap="butt" stroke-miterlimit="10.0">
    <path d="M 131.69934640522874,290.8496732026143 c 0.0,-2.3463077607190566 -1.9020582523528373,-4.2483660130718945 -4.248366013071894 -4.2483660130718945c -2.3463077607190566,-1.4366991444895932e-16 -4.2483660130718945,1.9020582523528369 -4.2483660130718945 4.248366013071893c -2.8733982889791865e-16,2.3463077607190566 1.9020582523528369,4.2483660130718945 4.248366013071892 4.2483660130718945c 2.3463077607190566,4.31009743346878e-16 4.2483660130718945,-1.9020582523528367 4.248366013071897 -4.248366013071893Z"/>
  </g>
</svg>