<?xml version="1.0" encoding="UTF-8"?>
<!DOCTYPE svg PUBLIC "-//W3C//DTD SVG 1.1//EN"
    "http://www.w3.org/Graphics/SVG/1.1/DTD/svg11.dtd">
<svg xmlns="http://www.w3.org/2000/svg" height="367.10063524601054" stroke-opacity="1" viewBox="0 0 500 367" font-size="1" width="500.0" xmlns:xlink="http://www.w3.org/1999/xlink" stroke="rgb(0,0,0)" version="1.1">
  <defs>
  </defs>
  <defs>
  </defs>
  <g stroke-linejoin="miter" stroke-opacity="1.0" fill-opacity="0.0" stroke="rgb(255,0,0)" stroke-width="1.7137109096834522" fill="rgb(0,0,0)" stroke-linecap="butt" stroke-miterlimit="10.0">
    <path d="M 478.4497786470509,61.92183872668099 l -59.02915391916783,295.1457695958392 "/>
  </g>
  <defs>
  </defs>
  <g stroke-linejoin="miter" stroke-opacity="1.0" fill-opacity="0.0" stroke="rgb(0,128,0)" stroke-width="4.28427727420863" fill="rgb(0,0,0)" stroke-linecap="butt" stroke-miterlimit="10.0">
    <path d="M 355.00693353947395,190.70906989500202 l 93.92826814799302,18.785653629598606 "/>
  </g>
  <defs>
  </defs>
  <g stroke-linejoin="miter" stroke-opacity="1.0" fill-opacity="0.0" stroke="rgb(0,0,0)" stroke-width="1.7137109096834522" fill="rgb(0,0,0)" stroke-linecap="butt" stroke-miterlimit="10.0">
    <path d="M 355.00693353947395,190.70906989500202 l 35.46135635208385,7.092271270416769 "/>
  </g>
  <defs>
  </defs>
  <g stroke-linejoin="miter" stroke-opacity="1.0" fill-opacity="1.0" stroke="rgb(0,0,0)" stroke-width="0.0" fill="rgb(0,0,0)" stroke-linecap="butt" stroke-miterlimit="10.0">
  </g>
  <defs>
  </defs>
  <g stroke-linejoin="miter" stroke-opacity="1.0" fill-opacity="1.0" stroke="rgb(0,0,0)" stroke-width="0.0" fill="rgb(0,0,0)" stroke-linecap="butt" stroke-miterlimit="10.0">
  </g>
  <defs>
  </defs>
  <g stroke-linejoin="miter" stroke-opacity="1.0" fill-opacity="1.0" stroke="rgb(0,0,0)" stroke-width="0.0" fill="rgb(0,0,0)" stroke-linecap="butt" stroke-miterlimit="10.0">
    <path d="M 405.17206815692543,200.7420968184923 l -16.240917190463556,-10.876424076262934 c 3.240739209616102,4.861108814424154 1.927170107435607,11.428954325326632 -2.9339387069885468 14.669693534942732l 19.174855897452105,-3.7932694586798017 Z"/>
  </g>
  <defs>
  </defs>
  <g stroke-linejoin="miter" stroke-opacity="1.0" fill-opacity="1.0" stroke="rgb(0,0,0)" stroke-width="0.0" fill="rgb(0,0,0)" stroke-linecap="butt" stroke-miterlimit="10.0">
    <path d="M 390.30024671138216,198.64155706629694 c 0.15729073364847737,-0.5501328706297454 0.26968824116918344,-1.1121204082332756 0.3360863603512598 -1.680431801756301Z"/>
  </g>
  <defs>
  </defs>
  <g stroke-linejoin="miter" stroke-opacity="1.0" fill-opacity="0.0" stroke="rgb(255,0,0)" stroke-width="1.7137109096834522" fill="rgb(0,0,0)" stroke-linecap="butt" stroke-miterlimit="10.0">
    <path d="M 378.1817934266899,19.350615447876947 l 111.78517964981978,279.4629491245495 "/>
  </g>
  <defs>
  </defs>
  <g stroke-linejoin="miter" stroke-opacity="1.0" fill-opacity="0.0" stroke="rgb(0,128,0)" stroke-width="4.28427727420863" fill="rgb(0,0,0)" stroke-linecap="butt" stroke-miterlimit="10.0">
    <path d="M 355.00693353947395,190.70906989500202 l 79.06744971212585,-31.62697988485034 "/>
  </g>
  <defs>
  </defs>
  <g stroke-linejoin="miter" stroke-opacity="1.0" fill-opacity="0.0" stroke="rgb(0,0,0)" stroke-width="1.7137109096834522" fill="rgb(0,0,0)" stroke-linecap="butt" stroke-miterlimit="10.0">
    <path d="M 355.00693353947395,190.70906989500202 l 36.242654065078966,-14.497061626031588 "/>
  </g>
  <defs>
  </defs>
  <g stroke-linejoin="miter" stroke-opacity="1.0" fill-opacity="1.0" stroke="rgb(0,0,0)" stroke-width="0.0" fill="rgb(0,0,0)" stroke-linecap="butt" stroke-miterlimit="10.0">
  </g>
  <defs>
  </defs>
  <g stroke-linejoin="miter" stroke-opacity="1.0" fill-opacity="1.0" stroke="rgb(0,0,0)" stroke-width="0.0" fill="rgb(0,0,0)" stroke-linecap="butt" stroke-miterlimit="10.0">
  </g>
  <defs>
  </defs>
  <g stroke-linejoin="miter" stroke-opacity="1.0" fill-opacity="1.0" stroke="rgb(0,0,0)" stroke-width="0.0" fill="rgb(0,0,0)" stroke-linecap="butt" stroke-miterlimit="10.0">
    <path d="M 405.17206815692543,170.64301604802142 l -19.545004381537954,-0.23831827430758423 c 5.369944626617405,2.3014048399788885 7.857487617167003,8.520262316352879 5.556082777188114 13.890206942970282l 13.988921604349837,-13.651888668662702 Z"/>
  </g>
  <defs>
  </defs>
  <g stroke-linejoin="miter" stroke-opacity="1.0" fill-opacity="1.0" stroke="rgb(0,0,0)" stroke-width="0.0" fill="rgb(0,0,0)" stroke-linecap="butt" stroke-miterlimit="10.0">
    <path d="M 391.5678157314643,177.00757858624888 c -0.16877147695633352,-0.5467199820794719 -0.3816218184604528,-1.0788458358397703 -0.6364562538227442 -1.5911406345568588Z"/>
  </g>
  <defs>
  </defs>
  <g stroke-linejoin="miter" stroke-opacity="1.0" fill-opacity="0.0" stroke="rgb(0,0,0)" stroke-width="1.7137109096834522" fill="rgb(0,0,0)" stroke-linecap="butt" stroke-miterlimit="10.0">
    <path d="M 405.17206815692543,259.7554542204648 l 31.003758243798966,-95.41975633750162 l -81.16889286125044,-58.97265261480919 l -81.16889286125046,58.97265261480918 l 31.00375824379896,95.41975633750162 ZM 430.2546354656512,299.887561914426 v -10.033026923490294 c 0.0,-16.623263293456358 -13.475817477014523,-30.099080770470884 -30.09908077047088 -30.099080770470884h -90.29724231141266 c -16.623263293456358,-1.0178813091857508e-15 -30.099080770470884,13.475817477014523 -30.099080770470884 30.099080770470874v 10.033026923490294 c -2.0357626183715017e-15,16.623263293456358 13.47581747701452,30.099080770470884 30.099080770470874 30.09908077047089h 90.29724231141265 c 16.623263293456358,2.673224621374541e-15 30.099080770470884,-13.47581747701452 30.099080770470906 -30.099080770470888Z"/>
  </g>
  <defs>
  </defs>
  <g stroke-linejoin="miter" stroke-opacity="1.0" fill-opacity="1.0" stroke="rgb(0,0,0)" stroke-width="0.0" fill="rgb(255,0,0)" stroke-linecap="butt" stroke-miterlimit="10.0">
    <path d="M 359.4994054878088,190.70906989500202 c 0.0,-2.481123746107974 -2.011348202226883,-4.492471948334858 -4.492471948334857 -4.492471948334858c -2.481123746107974,-1.5192501269798103e-16 -4.492471948334858,2.011348202226883 -4.492471948334858 4.492471948334856c -3.0385002539596207e-16,2.481123746107974 2.0113482022268827,4.492471948334858 4.492471948334855 4.492471948334858c 2.481123746107974,4.557750380939431e-16 4.492471948334858,-2.0113482022268823 4.4924719483348605 -4.492471948334856Z"/>
  </g>
  <defs>
  </defs>
  <g stroke-linejoin="miter" stroke-opacity="1.0" fill-opacity="0.0" stroke="rgb(255,0,0)" stroke-width="1.7137109096834522" fill="rgb(0,0,0)" stroke-linecap="butt" stroke-miterlimit="10.0">
    <path d="M 10.033026923490326,268.1305152347829 l 154.8584929867756,-258.09748831129264 "/>
  </g>
  <defs>
  </defs>
  <g stroke-linejoin="miter" stroke-opacity="1.0" fill-opacity="0.0" stroke="rgb(0,128,0)" stroke-width="4.28427727420863" fill="rgb(0,0,0)" stroke-linecap="butt" stroke-miterlimit="10.0">
    <path d="M 173.50777144332056,190.70906989500202 l -86.04549802644242,-51.627298815865444 "/>
  </g>
  <defs>
  </defs>
  <g stroke-linejoin="miter" stroke-opacity="1.0" fill-opacity="0.0" stroke="rgb(0,0,0)" stroke-width="1.7137109096834522" fill="rgb(0,0,0)" stroke-linecap="butt" stroke-miterlimit="10.0">
    <path d="M 173.50777144332056,190.70906989500202 l -37.30705352696424,-22.384232116178545 "/>
  </g>
  <defs>
  </defs>
  <g stroke-linejoin="miter" stroke-opacity="1.0" fill-opacity="1.0" stroke="rgb(0,0,0)" stroke-width="0.0" fill="rgb(0,0,0)" stroke-linecap="butt" stroke-miterlimit="10.0">
  </g>
  <defs>
  </defs>
  <g stroke-linejoin="miter" stroke-opacity="1.0" fill-opacity="1.0" stroke="rgb(0,0,0)" stroke-width="0.0" fill="rgb(0,0,0)" stroke-linecap="butt" stroke-miterlimit="10.0">
  </g>
  <defs>
  </defs>
  <g stroke-linejoin="miter" stroke-opacity="1.0" fill-opacity="1.0" stroke="rgb(0,0,0)" stroke-width="0.0" fill="rgb(0,0,0)" stroke-linecap="butt" stroke-miterlimit="10.0">
    <path d="M 123.34263682586908,160.60998912453115 l 11.636615114966332,15.705195972681903 c -1.4169721141848113,-5.667888456739249 2.029076458292017,-11.411302744200631 7.696964915031265 -12.828274858385441l -19.3335800299976,-2.876921114296459 Z"/>
  </g>
  <defs>
  </defs>
  <g stroke-linejoin="miter" stroke-opacity="1.0" fill-opacity="1.0" stroke="rgb(0,0,0)" stroke-width="0.0" fill="rgb(0,0,0)" stroke-linecap="butt" stroke-miterlimit="10.0">
    <path d="M 136.6415664108873,167.5900902879385 c -0.3331569837601329,0.46518058258148626 -0.628023290906615,0.956624427825623 -0.8816969890619811 1.4694949817699692Z"/>
  </g>
  <defs>
  </defs>
  <g stroke-linejoin="miter" stroke-opacity="1.0" fill-opacity="0.0" stroke="rgb(0,0,0)" stroke-width="1.7137109096834522" fill="rgb(0,0,0)" stroke-linecap="butt" stroke-miterlimit="10.0">
    <path d="M 273.83804067822354,190.70906989500202 c 0.0,-55.41087764485453 -44.91939159004841,-100.33026923490296 -100.33026923490293 -100.33026923490296c -55.41087764485453,-3.3929376972858364e-15 -100.33026923490296,44.919391590048406 -100.33026923490296 100.33026923490293c -6.785875394571673e-15,55.41087764485453 44.919391590048406,100.33026923490296 100.33026923490291 100.33026923490296c 55.41087764485453,1.017881309185751e-14 100.33026923490296,-44.9193915900484 100.33026923490297 -100.33026923490293Z"/>
  </g>
  <defs>
  </defs>
  <g stroke-linejoin="miter" stroke-opacity="1.0" fill-opacity="1.0" stroke="rgb(0,0,0)" stroke-width="0.0" fill="rgb(255,0,0)" stroke-linecap="butt" stroke-miterlimit="10.0">
    <path d="M 177.5209822127167,190.70906989500202 c 0.0,-2.216435105794181 -1.7967756636019363,-4.013210769396117 -4.0132107693961165 -4.013210769396117c -2.216435105794181,-1.3571750789143344e-16 -4.013210769396117,1.7967756636019359 -4.013210769396117 4.0132107693961165c -2.714350157828669e-16,2.216435105794181 1.7967756636019359,4.013210769396117 4.013210769396116 4.013210769396117c 2.216435105794181,4.071525236743003e-16 4.013210769396117,-1.7967756636019356 4.013210769396119 -4.0132107693961165Z"/>
  </g>
</svg>