<?xml version="1.0" encoding="UTF-8"?>
<!DOCTYPE svg PUBLIC "-//W3C//DTD SVG 1.1//EN"
    "http://www.w3.org/Graphics/SVG/1.1/DTD/svg11.dtd">
<svg xmlns="http://www.w3.org/2000/svg" height="500.0" stroke-opacity="1" viewBox="0 0 500 500" font-size="1" width="500.0" xmlns:xlink="http://www.w3.org/1999/xlink" stroke="rgb(0,0,0)" version="1.1">
  <defs>
  </defs>
  <defs>
  </defs>
  <g stroke-linejoin="miter" stroke-opacity="1.0" fill-opacity="0.0" stroke="rgb(0,0,0)" stroke-width="2.0" fill="rgb(0,0,0)" stroke-linecap="butt" stroke-miterlimit="10.0">
    <path d="M 477.27272727272725,250.0 l -2.5232341468753555e-14,-227.27272727272725 h -227.27272727272725 l -2.5232341468753555e-14,227.27272727272725 Z"/>
  </g>
  <defs>
  </defs>
  <g stroke-linejoin="miter" stroke-opacity="1.0" fill-opacity="1.0" stroke="rgb(0,0,0)" stroke-width="0.0" fill="rgb(255,0,0)" stroke-linecap="butt" stroke-miterlimit="10.0">
    <path d="M 368.1818181818182,136.36363636363637 c 0.0,-2.5103852265036064 -2.035069318950938,-4.545454545454545 -4.545454545454544 -4.545454545454545c -2.5103852265036064,-1.5371676161322225e-16 -4.545454545454545,2.0350693189509377 -4.545454545454545 4.545454545454543c -3.074335232264445e-16,2.5103852265036064 2.0350693189509377,4.545454545454545 4.545454545454543 4.545454545454545c 2.5103852265036064,4.611502848396667e-16 4.545454545454545,-2.0350693189509372 4.545454545454547 -4.545454545454543Z"/>
  </g>
  <defs>
  </defs>
  <g stroke-linejoin="miter" stroke-opacity="1.0" fill-opacity="0.0" stroke="rgb(0,0,0)" stroke-width="2.0" fill="rgb(0,0,0)" stroke-linecap="butt" stroke-miterlimit="10.0">
    <path d="M 250.0,477.27272727272725 l -2.5232341468753555e-14,-227.27272727272725 h -227.27272727272725 l -2.5232341468753555e-14,227.27272727272725 Z"/>
  </g>
  <defs>
  </defs>
  <g stroke-linejoin="miter" stroke-opacity="1.0" fill-opacity="1.0" stroke="rgb(0,0,0)" stroke-width="0.0" fill="rgb(255,0,0)" stroke-linecap="butt" stroke-miterlimit="10.0">
    <path d="M 140.90909090909088,363.6363636363636 c 0.0,-2.5103852265036064 -2.035069318950938,-4.545454545454545 -4.545454545454544 -4.545454545454545c -2.5103852265036064,-1.5371676161322225e-16 -4.545454545454545,2.0350693189509377 -4.545454545454545 4.545454545454543c -3.074335232264445e-16,2.5103852265036064 2.0350693189509377,4.545454545454545 4.545454545454543 4.545454545454545c 2.5103852265036064,4.611502848396667e-16 4.545454545454545,-2.0350693189509372 4.545454545454547 -4.545454545454543Z"/>
  </g>
</svg>