<?xml version="1.0" encoding="UTF-8"?>
<!DOCTYPE svg PUBLIC "-//W3C//DTD SVG 1.1//EN"
    "http://www.w3.org/Graphics/SVG/1.1/DTD/svg11.dtd">
<svg xmlns="http://www.w3.org/2000/svg" height="216.2310947490055" stroke-opacity="1" viewBox="0 0 500 216" font-size="1" width="500.0" xmlns:xlink="http://www.w3.org/1999/xlink" stroke="rgb(0,0,0)" version="1.1">
  <defs>
  </defs>
  <defs>
  </defs>
  <g stroke-linejoin="miter" stroke-opacity="1.0" fill-opacity="0.0" stroke="rgb(0,0,0)" stroke-width="1.3152371489552916" fill="rgb(0,0,0)" stroke-linecap="butt" stroke-miterlimit="10.0">
    <path d="M 487.36093504670794,142.6099372331853 v -5.841971879976228 c 0.0,-9.679295934753604 -7.84661970517508,-17.525915639928687 -17.525915639928684 -17.525915639928687h -52.577746919786065 c -9.679295934753604,-5.926859392247995e-16 -17.525915639928687,7.84661970517508 -17.525915639928687 17.52591563992868v 5.841971879976228 c -1.185371878449599e-15,9.679295934753604 7.846619705175078,17.525915639928687 17.52591563992868 17.52591563992869h 52.57774691978606 c 9.679295934753604,1.5565495025600263e-15 17.525915639928687,-7.846619705175078 17.525915639928698 -17.525915639928684Z"/>
  </g>
  <defs>
  </defs>
  <g stroke-linejoin="miter" stroke-opacity="1.0" fill-opacity="0.0" stroke="rgb(0,0,0)" stroke-width="1.3152371489552916" fill="rgb(0,0,0)" stroke-linecap="butt" stroke-miterlimit="10.0">
    <path d="M 472.7560053467674,119.24204971328037 l 18.05268591573215,-55.56045424464441 l -47.262545315613295,-34.338249153573614 l -47.2625453156133,34.33824915357361 l 18.052685915732148,55.56045424464441 Z"/>
  </g>
  <defs>
  </defs>
  <g stroke-linejoin="miter" stroke-opacity="1.0" fill-opacity="0.0" stroke="rgb(0,0,0)" stroke-width="1.3152371489552916" fill="rgb(0,0,0)" stroke-linecap="butt" stroke-miterlimit="10.0">
    <path d="M 396.28360063127286,79.038127335779 c 0.0,-32.26431978251202 -26.155399017250268,-58.41971879976229 -58.41971879976228 -58.41971879976229c -32.26431978251202,-1.9756197974159985e-15 -58.41971879976229,26.155399017250264 -58.41971879976229 58.41971879976227c -3.951239594831997e-15,32.26431978251202 26.15539901725026,58.41971879976229 58.419718799762265 58.41971879976229c 32.26431978251202,5.926859392247995e-15 58.41971879976229,-26.155399017250257 58.41971879976231 -58.41971879976227Z"/>
  </g>
  <defs>
  </defs>
  <g stroke-linejoin="miter" stroke-opacity="1.0" fill-opacity="0.0" stroke="rgb(255,0,0)" stroke-width="1.3152371489552916" fill="rgb(0,0,0)" stroke-linecap="butt" stroke-miterlimit="10.0">
    <path d="M 490.80869126249945,90.37713070456533 c 0.14898424688228995,-0.6150808647653133 0.29819014633596896,-1.2324459039400795 0.43364098203895085 -1.8522600133919462c 0.1354508357029819,-0.6198141094518664 0.2571466076552667,-1.2420772891808338 0.3687338774397673 -1.8662655186609174c 0.11158726978450062,-0.6241882294800832 0.21306603740120408,-1.2503015087112854 0.3033775274099612 -1.877997266871564c 9.031149000875716e-2,-0.6276957581602803 0.16945570240958097,-1.2569739952496364 0.23765155859467885 -1.8874409646958257c 6.819585618509787e-2,-0.6304669694461894 0.12544335615448274,-1.2621226712492115 0.17163604796293214 -1.8945851064426134c 4.6192691808436444e-2,-0.632462435193402 8.133057545589852e-2,-1.2657316037771789 0.1054114252448704 -1.8994209880756416c 2.408084978897189e-2,-0.6336893842984596 3.7104665719453596e-2,-1.2677989843116002 3.905837494283757e-2 -1.9019427178180937c 1.953709223383971e-3,-0.6341437335064917 -7.162688260342767e-3,-1.268321600506333 -2.7342261972641738e-2 -1.9021472233306986c -2.0179573712298973e-2,-0.6338256228243642 -5.142232365319612e-2,-1.2672990014732546 -9.370958655374789e-2 -1.9000342554549863c -4.228726290055178e-2,-0.6327352539817317 -9.561903876075818e-2,-1.2647323832963049 -0.15996274043849174 -1.8956063885168353c -6.434370167773357e-2,-0.6308740052205336 -0.13969932917299427,-1.2606248863470277 -0.22602100436435268 -1.8888690171900706c -8.632167519138435e-2,-0.6282441308430363 -0.18360939807889232,-1.2549815114026117 -0.29180389651222 -1.879830349923828c -0.10819449843331472,-0.6248488385212098 -0.22729577241244917,-1.2478091350040605 -0.35723127056123194 -1.8685013989418489c -0.1299354981487828,-0.6206922639377884 -0.27070522046721396,-1.2391164953305212 -0.42222341333427726 -1.8548959668258471c -0.15151819286706328,-0.6157794714953292 -0.31378485628270675,-1.2289141830932613 -0.48670114191658276 -1.8390306296991183c -0.17291628563387598,-0.6101164466058603 -0.35648219348594556,-1.2172146282196488 -0.5505859001282546 -1.8209247170309977c -0.19410370664229598,-0.6037100888113358 -0.3987452120748313,-1.2040320848202222 -0.6137998542316133 -1.8006002880871974c -0.21505464215676898,-0.5965682032669751 -0.4405224210377716,-1.189382613792039 -0.6762659877614168 -1.7780821050535063c -0.23574356672365812,-0.5886994912614673 -0.4817629212899328,-1.1732840632593444 -0.7379081953559564 -1.7533976028673588c -0.25614527406599763,-0.5801135396080145 -0.5224164676316924,-1.1557560468261663 -0.7986513754802472 -1.726576855792378c -0.2762349078485679,-0.5708208089662051 -0.5624335299800219,-1.1368199196804702 -0.8584215219265748 -1.6976525407773435c -0.2959879919465399,-0.5608326210968605 -0.6017653537081915,-1.1164987525763295 -0.9171458139780022 -1.6666598976446947c -0.31538046026981065,-0.5501611450683588 -0.6403640190477803,-1.0948173037256335 -0.974752705130646 -1.6336366861560592c -0.3343886860828527,-0.5388193824304257 -0.6781824994706144,-1.071801988634009 -1.0311720102611814 -1.598623140007773c -0.3529895107905542,-0.5268211513737575 -0.7151747189839138,-1.0474808479176891 -1.0863349911371367 -1.5616619178124171c -0.37116027215322284,-0.5141810698947215 -0.7512956082663088,-1.0218835131402328 -1.1401744401634135 -1.5227980511257717c -0.3888788318971177,-0.500914537985539 -0.7865011595782411,-0.9950411707111055 -1.1926247622647894 -1.4820788895828991c -0.4061236026865354,-0.48703771887178715 -0.8207484803784828,-0.9669865238897883 -1.2436220548031292 -1.4395540432097944c -0.42287357442463325,-0.4725675193200062 -0.8539958455819522,-0.9377537529420175 -1.2931041854329253 -1.3952753219813938c -0.4391083398509861,-0.45752156903937646 -0.8862027483956262,-0.9073784734961117 -1.341010867800269 -1.3492966726987878c -0.45480811940466875,-0.44191819920266323 -0.9173299496693402,-0.875897693151261 -1.3872837349920046 -1.3016741132637573c -0.46995378532267745,-0.4257764201125028 -0.9473395257033479,-0.8433497663889171 -1.4318664106474235 -1.2524656644292131c -0.48452688494410157,-0.4091158980403026 -0.9761949144516472,-0.8097743478444804 -1.474704577643597 -1.2017312791100931c -0.49850966319196266,-0.39195693126561265 -1.0038609600683552,-0.7752123439926601 -1.5157460442725115 -1.1495327693399877c -0.5118850842041821,-0.3743204253473275 -1.0303039557361664,-0.7397058633149352 -1.554940807829517 -1.0959337309622852c -0.5246368520933636,-0.35622786764735 -1.0554916847480675,-0.7032981649744294 -1.592241115532376 -1.0409994661490798c -0.5367494307842955,-0.3377013011746504 -1.0793934596981565,-0.6660336061968588 -1.6276015227018377 -0.9847969038401011c -0.5482080630037071,-0.3187632976432423 -1.1019801600972599,-0.6279575879074925 -1.6609789481287789 -0.9273945182000333c -0.5589987880315448,-0.29943693029254076 -1.1232242670010295,-0.5891165006133721 -1.6923327265615145 -0.8688622451938308c -0.5691084595604978,-0.2797457445804458 -1.1430998997119828,-0.5495576634205063 -1.7216246582509154 -0.809271397379679c -0.5785247585389325,-0.25971373395918573 -1.1615828354653124,-0.5093292830374967 -1.748819055490105 -0.7486945770266603c -0.5872362200247926,-0.2393652939891765 -1.178650583148011,-0.4684803328892184 -1.7738827860951905 -0.6872055876589703c -0.5952322029471796,-0.21872525476975194 -1.1942822457183335,-0.42706072540922685 -1.7967853137710135 -0.6248793441387458c -0.602503068052667,-0.197818618729506 -1.2084591613868727,-0.3851203855490561 -1.8174987353155998 -0.5617917813929121c -0.6090395739287271,-0.17667139584386898 -1.2211626284519754,-0.3427124207120698 -1.835997814615403 -0.4980197618988655c -0.6148351861634146,-0.15530734118679568 -1.2323825039669825,-0.2998809986921602 -1.852260013391908 -0.43364098203900275c -0.6198775094249127,-0.1337599833468555 -1.2420852104711833,-0.25670629253520194 -1.866265518660911 -0.36873387743975433c -0.6241803081897277,-0.1120275849045524 -1.2503332235229125,-0.2131364455253497 -1.8779972668715683 -0.3033775274099872c -0.6276640433486557,-9.02410818846375e-2 -1.256839214712743,-0.1696143850331282 -1.887440964695834 -0.2376515585947826c -0.6306017499830844,-6.803717356166739e-2 -1.2626300785851396,-0.12473821753651144 -1.8945851064425843 -0.17163604796284135c -0.6319550278574511,-4.68978304263299e-2 -1.2638367549702914,-8.399244730414565e-2 -1.8994209880756612 -0.10541142524498714c -0.6355842331053633,-2.1418977940854466e-2 -1.2748709722032172,-2.7162316944734678e-2 -1.9019427178180708 -3.905837494283757e-2c -0.6270717456148732,-1.1896057998115862e-2 -1.2419284977467526,-2.9944834990480347e-2 -1.9021472233306986 2.73422619727066e-2c -0.6602187255839524,5.728709696318694e-2 -1.3657994246199843,0.18991006788189937 -1.9000342554549734 9.370958655376087e-2c -0.5342348308349761,-9.62004813281385e-2 -0.8971237934688902,-0.42122441490312795 -1.3108081147720403 -0.6752157485563753c -0.41368432130315025,-0.25399133365324744 -0.8781640012755302,-0.43695006738473985 -1.3335742956755121 -0.6290578818871029c -0.4554102943999883,-0.19210781450236306 -0.9017512032275914,-0.3933647097755708 -1.3547157217211614 -0.5821336050875555c -0.4529645184935635,-0.1887688953119847 -0.9125526466530809,-0.3650497906627204 -1.3742066353378317 -0.5345000881610504c -0.46165398868476376,-0.16945029749832996 -0.9253738378947609,-0.3320699971442412 -1.3920232898496756 -0.4862153652105329c -0.46664945195491475,-0.15414536806630472 -0.9362285066547471,-0.299816404552977 -1.4081439784075849 -0.43733826373318596c -0.47191547175284415,-0.13752185918020896 -0.9461673605587066,-0.2668945410539287 -1.4225490604357822 -0.3879283329482916c -0.4763816998770821,-0.12103379189437591 -0.9548932108253645,-0.23372869380939507 -1.435220985560651 -0.3380457712456054c -0.48032777473528016,-0.10431707743619739 -0.962471813257558,-0.200256330393586 -1.4461443149934867 -0.28775135284250414c -0.48367250173592874,-8.749502244891812e-2 -0.9688734666855083,-0.1665458143893398 -1.4553057403399985 -0.23710635374064398c -0.48643227365449027,-7.05605393513042e-2 -0.9740958560138913,-0.13263082611349092 -1.4626940998145583 -0.18617247707018234c -0.4885982438006541,-5.354165095667847e-2 -0.9781311490425613,-9.85546661078487e-2 -1.4683003918391893 -0.1350117779142197c -0.49016924279662144,-3.6457111806371005e-2 -0.9809748231479573,-6.435832026794279e-2 -1.4721177860107741 -8.368658770368136e-2c -0.4911429628628105,-1.9328267435725587e-2 -0.9826233082370959,-3.0083593845617946e-2 -1.4741416314224096 -3.225943827702101e-2c -0.49151832318530075,-2.1758444314030653e-3 -0.9830746241816072,4.227793115683164e-3 -1.474369462330326 1.9207014306007554e-2c -0.49129483814871244,1.4979221190337361e-2 -0.9823282134498375,3.8534026023912885e-2 -1.4728010011575383 7.065006610072734e-2c -0.4904727877077008,3.2116040076814456e-2 -0.9803849878219741,7.279331539686786e-2 -1.4694381588324885 0.122007041672703c -0.4890531710105145,4.92137262758092e-2 -0.9772473129172635,0.10696390350738717 -1.4642850324604832 0.17321537045812838c -0.4870377195432164,6.625146695072821e-2 -0.9729190167229,0.1410042236206067 -1.4573479003322203 0.224212662996442c -0.48442888360932024,8.320843937584829e-2 -0.9674053536482706,0.1748725614576664 -1.4486352142746641 0.2749367869421758c -0.4812298606263968,0.10006422548449645 -0.9607131118402302,0.20852855437169718 -1.4381575893536442 0.3253259427638596c -0.4774444775134204,0.11679738839216243 -0.9528501813264181,0.2419278362893125 -1.4259277909412271 0.3753187390368697c -0.47307760961480894,0.13339090274755716 -0.9438271250314324,0.2750422603455215 -1.4119607191628565 0.42485426723974357c -0.4681335941314176,0.1498120068942351 -0.9336512669776358,0.3077846630847151 -1.3962733907440492 0.4738721759618095c -0.4626221237664135,0.1660875128770945 -0.9223486984530238,0.3402898824408294 -1.3788849182780902 0.5223127444318985c -0.4565362198250647,0.182022861991082 -0.9098820847885773,0.37186621640952405 -1.359816486940103 0.5701169552789838c -0.4499344021515258,0.1982507388694727 -0.8964573414910616,0.404908862189976 -1.3390913286764872 0.6172265664358274c -0.44263398718542396,0.21231770424585136 -0.8813790222167361,0.4302949894170507 -1.316734693900075 0.6635841820979816c -0.4353556716833406,0.2332891926809309 -0.8673219800187096,0.4818902928716323 -1.2927738207265487 0.7091333226514822c -0.42545184070783904,0.22724302977982402 -0.8443892137881448,0.4331279891487837 -1.2672379017890552 0.7538184934850591c -0.4228486880009096,0.3206905043362755 -0.8496086909224262,0.7561865536398668 -1.2401580486712351 0.797585252601004c -0.3905493577488089,4.1398698961111244e-2 -0.7448880703249117,-0.31129995242021863 -1.1085801622186098 -0.6324037514097364c -0.36369209189369717,-0.3211037989895177 -0.7367375631049896,-0.6106127455871971 -1.1136885383012014 -0.904101791845068c -0.37695097519621096,-0.2934890462578838 -0.7578074543773405,-0.5909581921759849 -1.1439347848407435 -0.8826680649644576c -0.3861273304634035,-0.2917098727884727 -0.777525512209082,-0.5776604724473301 -1.1737275345301081 -0.8602578167402758c -0.39620202232102597,-0.2825973442929587 -0.7972078852173996,-0.5618414332200058 -1.2030350962677567 -0.8368876629115506c -0.4058272110503571,-0.2750462296915448 -0.8164757702546981,-0.5458946001476003 -1.2318261618827762 -0.8125513814824513c -0.4153503916280779,-0.2666567813348641 -0.8354026156798927,-0.5291219735485237 -1.2600656538966866 -0.7871716402548267c -0.4246630382167939,-0.2580496667062899 -0.8539368905985666,-0.511683807905223 -1.2877147682597814 -0.7607446656053313c -0.4337778776612151,-0.24906085770010822 -0.8720597806018722,-0.4935484319013785 -1.3147352120105154 -0.7332919670355307c -0.4426754314086424,-0.23974353513415214 -0.8897443912852709,-0.47474303120117317 -1.3410896488048052 -0.7048361825965677c -0.4513452575195342,-0.2300931513953945 -0.9069668126819764,-0.4552799581191624 -1.3667417223500953 -0.6754010422186966c -0.459774909668122,-0.22012108409954712 -0.923703173841923,-0.43517644557486046 -1.3916560786777863 -0.6450113303697341c -0.4679529048358633,-0.2098348847948737 -0.9399304503337923,-0.4144492929093207 -1.415798387202869 -0.6136928481151102c -0.4758679368690768,-0.1992435552058024 -0.9556262651093063,-0.39311625750296014 -1.43913536052822 -0.5814723746619386c -0.4835090954189186,-0.1883561171589914 -0.9707689580165249,-0.3711956491797905 -1.4616347729572796 -0.5483776284686773c -0.49086581494075643,-0.17718197928887383 -0.9853375822246583,-0.3487064058458224 -1.4832654776891139 -0.5144372280071566c -0.49792789546445554,-0.16573082216132123 -0.999311919109468,-0.32566803992700216 -1.5039974226768882 -0.4796806522654575c -0.5046855035674201,-0.15401261233845534 -1.0126724870572545,-0.3021006192496981 -1.5238016651405173 -0.44413820108428437c -0.5111291780832627,-0.1420375818345733 -1.025400550759954,-0.27802473859249005 -1.5426503847333701 -0.4078409554169076c -0.5172498339734194,-0.12981621682441757 -1.0374781292435702,-0.2534614937153489 -1.5605168953714101 -0.37082073760715045c -0.52303876612784,-0.11735924389178859 -1.048888003113369,-0.22843245478442148 -1.5773756557437832 -0.333110071779542c -0.5284876526304142,-0.10467761699513349 -1.0596137209057168,-0.2029596400927546 -1.5932022785321858 -0.29474214443088426c -0.5335885576264721,-9.178250433809072e-2 -1.069639604604117,-0.17706548991667698 -1.6079735383765925 -0.2557507653170299c -0.538333933772479,-7.868527540033993e-2 -1.0789507543397823,-0.15077284062245946 -1.6216673786339402 -0.2161703287191504c -0.5427166242941581,-6.539748809669094e-2 -1.0875330523151614,-0.12410489906797921 -1.6342629169857856 -0.17603577517652091c -0.5467298646706178,-5.1930876108567635e-2 -1.0953731659908565,-9.708521735438869e-2 -1.645740449959018 -0.13538255376210953c -0.5503672839681615,-3.829733640772084e-2 -1.1024585505842586,-6.973766797735442e-2 -1.6560814564334854 -9.424658497531221e-2c -0.5536229058492268,-2.450891699797076e-2 -1.1087774509315835,-4.208641942427869e-2 -1.6652686002164119 -5.266422431893623e-2c -0.556491149284822,-1.0577804894631594e-2 -1.1143189027721225,-1.4155912257573882e-2 -1.6732857317726864 -1.0672226617235622e-2c -0.5589668290005573,3.4836856403642046e-3 -1.1190727335143844,1.4029164284021931e-2 -1.68011788920304 3.169228887640892e-2c -0.5610451556886557,1.7663124592386985e-2 -1.1230295625521463,4.2443895133490256e-2 -1.6857512985718774 7.439187253973517e-2c -0.5627217360197312,3.1947977406244915e-2 -1.1261808011957224,7.106316167763148e-2 -1.690173373685023 0.11738877758662783c -0.5639925724893008,4.632561590899635e-2 -1.128518652291911,9.986166345555061e-2 -1.693372715426333 0.16064499239544885c -0.5648540631344152,6.0783328939898254e-2 -1.1300361096006224,0.12881393927310159 -1.6953391107566862 0.20412227196209692c -0.5653030011560637,7.530833268896941e-2 -1.130726957001971,0.15789438773373085 -1.6960635314851176 0.24778216848233575c -0.5653365744831401,8.988778074860489e-2 -1.1305857676035258,0.18707728720109215 -1.6955381329153605 0.2915860610901782c -0.564952365311841,0.104508773889099 -1.1296079028151371,0.21633681521480974 -1.693756252468548 0.335495184786935c -0.5641483496534175,0.1191583695721123 -1.1277895114569567,0.24564706739060022 -1.6907124083784673 0.3794706586118552c -0.5629228969215235,0.13382359122125498 -1.1251275289610316,0.27498207584528994 -1.6864022985476785 0.4234735131188018c -0.5612747695866599,0.1484914372734989 -1.121619676720452,0.30431582719647465 -1.6808227996431777 0.46746471723525057c -0.5592031229227256,0.16314889003877595 -1.117264461634391,0.33362228019337803 -1.673971966501002 0.511405204593609c -0.5567075048665981,0.17778292440023102 -1.1120611758881485,0.362875383046091 -1.6658490318955868 0.5552558994356995c -0.5537878560074317,0.19238051638959558 -1.1060098970007581,0.39204909052292675 -1.6564544067182103 0.598977742199952c -0.5504445097174522,0.20692865167702523 -1.0991114881590107,0.42111738089774453 -1.6457896805895618 0.6425317149137347c -0.5466781924305381,0.22141433401600322 -1.0913675988500557,0.4500542728272774 -1.6338576229205344 0.6858788665138608c -0.5424900240704786,0.23582459368658337 -1.0827806657919183,0.4788338422485019 -1.620662184415479 0.728980338230331c -0.5378815186235606,0.25014649598184213 -1.0733539141492292,0.507430239383595 -1.606208498994416 0.7717973891657055c -0.5328545848452,0.26436714978212356 -1.0630913590099054,0.535817705944592 -1.5905028860944894 0.8142914222076415c -0.5274115270845839,0.2784737162630495 -1.0519978070890723,0.563970592626693 -1.5735528532940917 0.8564240104075986c -0.5215550462050322,0.2924534177809186 -1.0400788586106213,0.5918633769790993 -1.5553670991820043 0.8981569239577513c -0.515288240571396,0.306293546978652 -1.0273409093086119,0.6194706817377753 -1.5359555163816767 0.9394521578904155c -0.5086146070730517,0.31998147615264017 -1.013791152481926,0.6467672936987972 -1.5153291946244365 0.9802719606164656c -0.5015380421425104,0.33350466691766845 -0.9994375810186437,0.6737281832068482 -1.49350042374688 1.020578863410613c -0.49406284272822354,0.3468506802037646 -0.9842889893085243,0.7003285243221139 -1.4704826964831912 1.060335710935841c -0.4861937071746538,0.36000718661373987 -0.9683549749436737,0.7265437157228574 -1.446290710903265 1.0995056928892384c -0.47793573595957833,0.372961977166381 -0.9516459401097022,0.7523494023899867 -1.4209403723463352 1.1380523768335054c -0.4692944322366202,0.38570297444351875 -0.9341730925597368,0.7777214981069246 -1.3944487946884074 1.1759397422611937c -0.46027570212864466,0.398218244154269 -0.9159484460628563,0.8026362087993881 -1.366834300779226 1.2131322159234361c -0.4508858547163567,0.41049600712404793 -0.8969848202148456,0.8270700567270247 -1.3381164218819073 1.2495947084354897c -0.4411316016670488,0.42252465170846504 -0.8772958395026575,0.8509999055224183 -1.3083158959508439 1.2852926521495307c -0.4310200564482122,0.4342927466270995 -0.8568959315090018,0.8744029860673581 -1.2774546645806368 1.3201920402734602c -0.4205587330715961,0.4457890542061085 -0.8358003241539856,0.8972569231780668 -1.2455558684708892 1.3542594671891068c -0.40975554431687755,0.4570025440110205 -0.8140250418682691,0.9195397630610965 -1.2126438412527252 1.3874621699083292c -0.3986187993844562,0.4679224068472325 -0.791586900601977,0.9412300014915891 -1.1787441015340272 1.4197680705903626c -0.3871572009320502,0.4785380690987735 -0.7685035015786298,0.9623066126519704 -1.1438833430310855 1.4511458200240297c -0.3753798414524427,0.4888392073720463 -0.7447932237107874,0.9827490785629355 -1.108089422665197 1.481564841968194c -0.3632961989543966,0.49881576340525857 -0.7204752146048838,1.002537419024867 -1.0713913465179086 1.510995378226367c -0.3509161319130377,0.5084579592014933 -0.6955693800886259,1.021652221984878 -1.0338192535495219 1.5394085343246626c -0.3382498734608829,0.5177563123397846 -0.6700963722070865,1.0400746742359692 -0.9954043970037035 1.566776325650415c -0.32530802479663,0.5267016514144457 -0.6440775756436864,1.0577865923471719 -0.9561791234357971 1.593071723899412c -0.3121015477921107,0.5352851315522402 -0.6175350925292757,1.0747704537239753 -0.9161768493147988 1.6182687036783512c -0.2986417567855361,0.5434982499543695 -0.5904917256194173,1.091009427691367 -0.8754320351713593 1.6423422891010604c -0.28494030955194194,0.5513328614096998 -0.5629709598219057,1.1064874064920889 -0.8339801572705084 1.6652686002164443c -0.27100919744856383,0.5587811937243555 -0.5349969420757148,1.1211890360906778 -0.7918576768131789 1.6870248991050205c -0.256860734737477,0.5658358630143427 -0.5065944595852411,1.1350997466766868 -0.7491020066764101 1.7075896354837263c -0.24250754709118205,0.5724898888070395 -0.4777889164257431,1.1482057827587617 -0.7057514757193725 1.7269424916582021c -0.22796255929365525,0.5787367088994468 -0.44860630854639166,1.1604942327466117 -0.6618452906979773 1.7450644266686102c -0.21323898215158554,0.5845701939219983 -0.4190731972020332,1.171953057918817 -0.617423495837043 1.7619377194781753c -0.19835029863499687,0.5899846615593584 -0.38921668085455596,1.18257112068125 -0.5725269301249275 1.777546011062479c -0.18331024927035852,0.5949748903812389 -0.35906436559156835,1.1923382120218249 -0.5271971824033971 1.791874345260723c -0.16813281681185463,0.5995361332388981 -0.32864433411435406,1.2012450780761081 -0.481476544333679 1.8049092082626954c -0.1528322102193379,0.6036641301865906 -0.29798511335552724,1.2092834457225619 -0.4354079613302106 1.8166385666115556c -0.13742284797468332,0.6073551208889938 -0.2671156407879125,1.216446047131023 -0.3890349815565468 1.8270519036106683c -0.12191934076863428,0.6106058564796453 -0.2360652294926607,1.2227266431969033 -0.34240170308659085 1.836140254035444c -0.10633647359393016,0.6134136108385405 -0.2048635320577381,1.2281200457983505 -0.29555271933830746 1.8438962370587926c -9.068918728060825e-2,0.6157761912604452 -0.17354050337797788,1.232622138821519 -0.2485330628885055 1.8503140873087136c -7.499255951054058e-2,0.6176919484871913 -0.1421263624342651,1.2362298979005033 -0.20138814778429512 1.8553896839883688c -5.926178535005595e-2,0.619159786087859 -0.1106515531264563,1.2389414088502668 -0.15416371046420277 1.8591205779975621c -4.3512157337746465e-2,0.6201791691472954 -7.914670423683903e-2,1.24075588467948 -0.10690574940493844 1.8615060170061417c -2.775904516812534e-2,0.6207501323266617 -4.764258860528345e-2,1.2416736814478035 -5.966046361375197e-2 1.862546968437155c -1.2017875008468522e-2,0.6208732869893514 -1.617008158826043e-2,1.2416963118469109 -1.2474190076405144e-2 1.8622461403310262c 3.6958915118552858e-3,0.6205498284841154 1.5239881115370738e-2,1.2408264605947843 3.460665971805809e-2 1.8606080000690428c 1.936677860266141e-2,0.6197815394742585 4.6556346204481756e-2,1.2390679863121066 8.153566406614456e-2 1.857638790943695c 3.4979317861662806e-2,0.6185708046315872 7.774838598316808e-2,1.2364259670569144 0.12826645603791098 1.8533465465742696c 5.051807005472995e-2,0.6169205795173548 0.10878514204273647,1.2329065761267373 0.17475278905855193 1.8477411031743085c 6.596764701584142e-2,0.6148345270475708 0.1396358690595307,1.2285175845333296 0.2209727216200396 1.8408336886917085c 8.13368525605089e-2,0.6123161041583784 0.17034233563783743,1.2232652549893785 0.2669769240626108 1.8326327187469211c 9.663458842474744e-2,0.6093674637575436 0.20089828219693973,1.2171532404416303 0.31274404228062014 1.8231437863799793c 0.11184576008366742,0.6059905459383508 0.23127358647878404,1.210185861130965 0.35822900378645384 1.8123738456186367c 0.12695541730768276,0.6021879844876693 0.2614384255278797,1.2023686382703962 0.40338720099466374 1.8003316018812017c 0.14194877546677104,0.5979629636108056 0.2913633181801161,1.1937082370496883 0.4481745546574127 1.7870274793156815c 0.15681123647728357,0.5933192422659948 0.3210191667185316,1.1842124533590952 0.49254757600010796 1.7724735860777632c 0.17152840928158933,0.588261132718668 0.3503772976035329,1.1738901870629037 0.5364634274485459 1.7566836775649468c 0.18608612984502593,0.5827934905020414 0.37940950121310824,1.1627514171618905 0.5798799818417564 1.7396731176354518c 0.200470480628674,0.5769217004735615 0.4080880705179008,1.1508071747608322 0.6227558800212207 1.7214588378468632c 0.21466780950331987,0.5706516630860278 0.4363858386207328,1.1380695149708155 0.6650505866883052 1.7020592947608446c 0.2286647480675724,0.5639897797900291 0.4642762150853561,1.1245514874853055 0.7067244444193378 1.6814944253672959c 0.24244822933398164,0.5569429378819936 0.49173322098420014,1.1102671059507074 0.7477387257312589 1.6597856006930838c 0.25600550474705874,0.5495184947423764 0.5187315225909578,1.0952313161584217 0.7880556830886641 1.6369555776693798c 0.26932416049770636,0.541724261510958 0.545246463649207,1.0794599631168287 0.8276385967482035 1.613028449339908c 0.28239213309899647,0.5335684862230858 0.5712540961454888,1.0629697570633772 0.8664518203352015 1.5880295935049642c 0.2951977241897257,0.5250598364415839 0.5967312095227365,1.0457782384844605 0.9044608240560664 1.5619856199040068c 0.3077296145333298,0.5162073814195396 0.6216553582669916,1.027903742215752 0.9416322354480062 1.5349243160490795c 0.31997687718102763,0.5070205738333277 0.6460048878094212,1.0093653607037836 0.9779338775802693 1.5068745918321844c 0.3319289897708481,0.49750923112840084 0.6697589586841768,0.9901829065147467 1.013334804619531 1.477866423037898c 0.3435758459353543,0.48768351652315134 0.6928975688927731,0.9703768741831083 1.047805334687681 1.447930793901926c 0.3549077657949338,0.47755391971881767 0.7154015744273827,0.9499684014964961 1.081317079942286 1.4170996388628037c 0.3659155055149032,0.46713123736630763 0.7372527079122868,0.9289792303212573 1.1138429738222249 1.3854057836646048c 0.376590265909951,0.4564265533433539 0.7584335953324435,0.9074316670751315 1.1453572954135112 1.352882885972057c 0.38692370008105476,0.4454512188969256 0.7789277708206976,0.8853485429590252 1.1758356908967096 1.3195653756670542c 0.39690792007599895,0.43421683270801614 0.7987196894883799,0.8627531740619813 1.2052551920560364 1.285488394999221c 0.4065355025676565,0.4227352209372398 0.8177947382905886,0.8396693214577544 1.2335942318401552 1.25068773876811c 0.4157994935495536,0.4110184173103555 0.8361392449257546,0.816121151410526 1.260832656978585 1.2151997947136994c 0.4246934120528176,0.3990786433031798 0.8537404847823035,0.792133195809356 1.2869517376763582 1.1790614842952216c 0.43321125289405465,0.3869282884858655 0.8705866859526651,0.7677303129514204 1.3119341744209232 1.1423102040363182c 0.44134748846827115,0.3745798910848979 0.8866670323461641,0.742937648789126 1.3357641019538598 1.104983767609531c 0.4490970696076828,0.36204611882040505 0.9019716649451816,0.7177805987569805 1.3584270904762812 1.0671203488318182c 0.4564554255310866,0.34933975007483764 0.9164916812557352,0.6922847702879633 1.379910144170245 1.0287584257336624c 0.4634184629145227,0.3364736554456926 0.9302191330189067,0.6664759461239586 1.4002016971390143 0.9899367258564182c 0.46998256412012057,0.32346077973246623 0.9431470222559648,0.6403800485191328 1.4192916068785781 0.9506941729234947c 0.47614458462261344,0.3103141244043619 0.955269295732009,0.6140231044264126 1.4371711454126845 0.9110698350167507c 0.4819018496806884,0.2970467305903381 0.9665808379326565,0.5874312117489635 1.453832988234834 0.8711028743780544c 0.48725215030217756,0.28367166262909094 0.9770774626545385,0.5606305067286279 1.4692712012118267 0.830832498939041c 0.4921937385573012,0.2702019922104067 0.9867559033195167,0.5336471325316636 1.4834812256167875 0.7902979156660112c 0.4967253222972838,0.25665078313434103 0.9956138021296359,0.5065072090817533 1.4964598614677667 0.7495382857898447c 0.5008460593381047,0.2430310767080915 1.003649698181988,0.4792368041768428 1.5082052493531042 0.7085926819710187c 0.5045555511711032,0.22935587779416944 1.0108630146694524,0.45186190591377645 1.518716850933581 0.6675000474312123c 0.5078538362641158,0.21563814151743577 1.0172540452940113,0.4244083964327003 1.5279954283105381 0.626299157063965c 0.5107413830165269,0.20189076063126468 1.0228239400196981,0.39690202697851007 1.5360430224517643 0.5850285805158595c 0.513219082432053,0.18812655353734942 1.0275746902930007,0.3693683942648159 1.5428629308643969 0.543726647211824c 0.515288240571396,0.17435825294702106 1.0315091138532662,0.34183291811359673 1.5484596846992582 0.5024314132792246c 0.516950570845992,0.16059849516564084 1.0346308392561252,0.3143208203303209 1.5528390254666797 0.4611806303069601c 0.5182081862105609,0.14685980997663925 1.036944290221556,0.28685710476522475 1.5560078815308442 0.4200117158610325c 0.5190635913092753,0.13315461109580773 1.0384546699168566,0.2594665384988247 1.557974344543955 0.37896172566110287c 0.5195196746270982,0.11949518716226519 1.0391679452737264,0.23217363408376565 1.5587476459656786 0.33806732731204653c 0.5195797006919523,0.10589369322828086 1.0390908314292284,0.20500263276335512 1.5583381337990836 0.29736477547020007c 0.5192473023698615,9.2362142706845e-2 1.0382307763723082,0.17797748858546072 1.556757249661104 0.25688988831861714c 0.5185264732888021,7.891239973315643e-2 1.036595945863953,0.15112185332082761 1.5540175062855641 0.21667802521553106c 0.5174215604216045,6.555617189469046e-2 1.034195208689656,0.12445906209637424 1.5501324655426598 0.1767640653782643c 0.515937256853004,5.2305003281890056e-2 1.0310381222909732,9.801211964397341e-2 1.5451167170390512 0.13718238746093278c 0.5140785947480778,3.917026781697234e-2 1.027134918806277,7.180368708879475e-2 1.5389858573453141 9.796684988521388e-2c 0.511850938539037,2.6163162796419125e-2 1.0224964915589116,4.585606911740902e-2 1.5317564698794885 5.9150771786119785e-2c 0.509259978320577,1.3294702668710768e-2 1.0171343819418501,2.0191201685129435e-2 1.5234461054609345 2.0766914437117156e-2c 0.5063117235190844,5.757127520006931e-4 1.0110607669359737,-5.1693607604165895e-3 1.5140732635263074 -1.715253697154454e-2c 0.5030124965903401,-1.198317621111498e-2 1.0042884463541182,-3.0204455120927655e-2 1.5036573739925145 -5.457599132434635e-2c 0.49936892763840296,-2.437153620343167e-2 0.9968308331514244,-5.489332970048233e-2 1.4922187797293782 -9.147246944952059e-2c 0.4953879465779539,-3.657913974905123e-2 0.9887019342208402,-7.921562575009004e-2 1.4797787195981718 -0.12781162196897713c 0.491076785377338,-4.859599621888708e-2 0.9799163684891212,-0.10315150265559649 1.466359311997289 -0.1635637472155662c 0.48644294350817424,-6.041224455998271e-2 0.9704892474127396,-0.1266812272432128 1.451983538848604 -0.19869980929566425c 0.4814942914358579,-7.201858205246442e-2 0.960436570403015,-0.1497867634741632 1.436675229951505 -0.23319145636037156c 0.47623865954849004,-8.340469288620837e-2 0.949773699678313,-0.17244589723692635 1.42045904762122 -0.26701103913488794c 0.4706853479429102,-9.456514189794864e-2 0.9385210036989077,-0.19465422134314092 1.403360471530437 -0.30013162974621294c 0.4648394678315327,-0.10547740840308499 0.9266827477385908,-0.21634314576406272 1.3854057836645757 -0.3325270408707953c 0.458723035925988,-0.11618389510673259 0.9143258278709026,-0.23768594795922007 1.3666220533044853 -0.364171845217542c 0.4522962254335827,-0.12648589725833487 0.9012858843558336,-0.25795563892250417 1.3470371219476724 -0.3950413953438647c 0.4457512375918455,-0.13708575642136048 0.8882640538532857,-0.2797875275999381 1.3266795880856204 -0.425111843796864c 0.4384155342323348,-0.14532431619691294 0.8727337864355547,-0.2932711774121871 1.3055787917516481 -0.45436016355558906c 0.4328450053160903,-0.16108898614340192 0.8642167637450513,-0.33532009721494455 1.2837647987655159 -0.48276416874604133c 0.4195480350204679,-0.1474440715311098 0.8272723466324428,-0.2681011035217738 1.2612683846010726 -0.5103025355893468c 0.43399603796862996,-0.24220143206756647 0.8942638022939151,-0.6059472642120419 1.2381210178118849 -0.5369548235352164c 0.34385721551796966,6.899244067682546e-2 0.5713038822286239,0.5707231541749582 0.8338120024764801 0.9635724724624254c 0.26250812024785786,0.3928493182874671 0.5600776940329145,0.6768172413642815 0.8552074321082171 0.9846716846451702c 0.2951297380753009,0.3078544432809017 0.5878196404408446,0.6395954067659038 0.8879483486845956 0.9594131495002008c 0.30012870824374943,0.319817742734297 0.6076962223657063,0.627712264717863 0.9198777353964225 0.9330498213694874c 0.3121815130307161,0.3053375566516374 0.6289770249701964,0.6081181479713463 0.9509577987826721 0.9056101532929959c 0.32198077381247575,0.2974920053216625 0.6491468094979469,0.5896954246453046 0.9811517778032225 0.8771239625714142c 0.3320049683052772,0.28742853792610973 0.6688488692303555,0.5700821944547131 1.0104239952552336 0.8476223935917849c 0.34157512602487977,0.27754019913708483 0.6878814771495594,0.5499669408826382 1.038739907870411 0.8171378787579717c 0.35085843072085166,0.26717093787534657 0.7062689410378729,0.5290860718804733 1.0660661550279378 0.7857040975878122c 0.3597972139900649,0.256618025707326 0.7239811316531727,0.5079389431168512 1.0923706060187848 0.753355934040114c 0.36838947436561453,0.24541699092326286 0.7409845054337342,0.4849300553602504 1.1176224058051873 0.7201294321338646c 0.3766379003714541,0.23519937677361413 0.7573186700462426,0.46608506588381593 1.1417920192193662 0.686061749928676c 0.38447334917312354,0.21997668404486 0.7727392778445807,0.42904436302433935 1.1648512735516967 0.6511911119296127c 0.392111995707116,0.22214674890527336 0.7880700584498899,0.4573725677363278 1.186773399481492 0.6155567599876165c 0.39870334103160227,0.15818419225130168 0.8001519603520331,0.23932675792286354 1.2075330703074019 0.5791989027627094c 0.40738110995536875,0.33987214483984585 0.8206947105456756,0.9384738688479886 1.2431207845522148 1.4596198808499123c 0.4224260740065393,0.5211460120019238 0.8539646214293114,0.9648363119976547 1.293493184067986 1.4207780369938694c 0.43952856263867424,0.45594172499620184 0.887047140493251,0.9241348749928616 1.342573106861397 1.3801787381432449c 0.45552596636814613,0.4560438631503833 0.919059321249863,0.8999384394544641 1.39029937457427 1.337868241981659c 0.471240053324407,0.4379298025271949 0.9501868050915049,0.8698948312774908 1.43661251527243 1.2938948546815214c 0.486425710180926,0.4240000234040435 0.9803303787756776,0.8400350414618345 1.4814548292867076 1.2483088693234345c 0.5011244505110299,0.4082738278615871 1.0094686829383381,0.8087864655269963 1.5247704529041624 1.2011625020936212c 0.5153017699658226,0.3923760365666249 1.0375610774701578,0.7766154720344526 1.5665054198260437 1.1525098263431857c 0.5289443423558892,0.3758943543087461 1.0645737195633243,0.7434436274583976 1.6066077203099218 1.1024067046012214c 0.5420340007465944,0.35896307714283665 1.090472625032351,0.7093399582788066 1.6450273579232046 1.0509107186365312c 0.5545547328908518,0.34157076035772477 1.1152255743867985,0.6743353999371914 1.6817164038356545 0.9980810976614805c 0.5664908294488592,0.32374569772428907 1.138801646850621,0.6384724535934395 1.7166290485870057 0.9439786447836438c 0.5778274017363879,0.3055061911902172 1.1611713878073922,0.6017918177015142 1.7497216512676284 0.888665661799635c 0.5885502634602429,0.2868738440981207 1.1823068043097147,0.5643359057830782 1.7809527860605276 0.8322058724442036c 0.5986459817508163,0.2678699666611383 1.202181404402974,0.5261478382984316 1.8102832860920135 0.7746643441966878c 0.6081018816890396,0.24851650589825622 1.2207702224149644,0.48727164605748835 1.8376762845497439 0.7161074087525026c 0.6169060621347732,0.2288357626950272 1.2380498456784013,0.44775214792586243 1.8630972530300216 0.6566025812756555c 0.6250474073516235,0.20885043334979314 1.253998438511252,0.4076349148185442 1.886514037081151 0.5962184785362614c 0.632515598569899,0.18858356371771726 1.2685957645500783,0.36696620968434884 1.9078968889174561 0.535024736049669c 0.6393011243673714,0.16805852636532023 1.2818232071219413,0.3257929331292772 1.9272184972823525 0.47309192432706076c 0.6453952901604111,0.14729899119779655 1.2936637877266761,0.28416256682944563 1.9444540144477616 0.41049146435013145c 0.6507902267210854,0.12632889752068585 1.3041021825969912,0.2421231169304215 1.9595810803364824 0.34729554237982235c 0.6554788977394912,0.10517242544940085 1.3131247373425614,0.19972305693849288 1.972579843768201 0.28357702421095166c 0.6594551064256461,8.385396727244579e-2 1.3207194796738682,0.15701127032825832 1.9834329808271853 0.21940936897959173c 0.6627135011533238,6.2398098651320434e-2 1.3268761302117364,0.11403699289809688 1.9921257103601175 0.15486654263133734c 0.665249580148381,4.082954973325343e-2 1.331586111386711,7.084975495294493e-2 1.9986458066134043 9.002293115357847e-2c 0.6670596952266867,1.9173176200607593e-2 1.3348425544417042,2.749932338218317e-2 2.002983609028729 2.4953253674955114e-2c 0.6681410545870187,-2.546069707215084e-3 1.3366403045460318,-1.5964356303207857e-2 2.0051320292122092 -4.026752447109391e-2c 0.668491724666184,-2.430316816789903e-2 1.3369759240395258,-5.9491217907717296e-2 2.0050865551046524 -0.10556427862193156c 0.6681106310651204,-4.6073060714240215e-2 1.3358476938219999,-0.10303113240287645 2.0028452523768627 -0.17086181151007207c 0.6669975585548694,-6.783067910718264e-2 1.3332556129077158,-0.14653396563287277 1.9984087630806264 -0.23608493974768216c 0.665153150172917,-8.955097411482237e-2 1.3292013961658786,-0.18994963581873803 1.9917803015860258 -0.301158579989058c 0.6625789054201472,-0.11120894417030698 1.3236884702674736,-0.23322817080699226 1.9829656478381248 -0.3660078346901202c 0.6592771775706446,-0.132779663883102 1.3167219678646205,-0.27631976501259475 1.9719731379693655 -0.43055807739168944c 0.655251170104745,-0.15423831237910765 1.308308720020285,-0.3191748360078302 1.9588136522980295 -0.4947350374547294c 0.6505049322777444,-0.17556020144688622 1.2984572469176934,-0.36174408071193614 1.9435006007533946 -0.5584648841803646c 0.6450433538357012,-0.1967208034684413 1.2871777468671417,-0.40397853114024806 1.9260499057567169 -0.6216743102544957c 0.6388721588895753,-0.2176957791142606 1.2744820836372721,-0.4458296096709621 1.9064799825959928 -0.6842906144546459c 0.6319978989587206,-0.23846100478367083 1.2603837721284519,-0.4872491837942721 1.884811717322792 -0.7462417835667461c 0.6244279451943532,-0.258992599772461 1.2448979624133283,-0.5281896203067946 1.8610684422063883 -0.8074565734574194c 0.61617047979306,-0.27926695315062483 1.228041422160218,-0.568603838917541 1.8352759087691177 -0.8678645892514979c 0.6072344866088997,-0.29926075033396987 1.209832517459541,-0.6084453652349676 1.807462258433063 -0.927396364569019c 0.597629740973535,-0.31895099933406434 1.190291192069964,-0.6476683831011952 1.7776579908013959 -0.9859834397723211c 0.587366798731432,-0.3383150566711128 1.1694389450978542,-0.6862277862462334 1.7458959295954346 -1.0435584391806867c 0.5764569844975803,-0.35733065293446625 1.1472988071263186,-0.7240792292282912 1.7122111862699196 -1.100055147204218c 0.5649123791435751,-0.3759759179759269 1.123895314802,-0.7611791776339428 1.6766411213203765 -1.1554085833545613c 0.5527458065183896,-0.3942294057206315 1.099254483896744,-0.7974849575038915 1.6392253033048367 -1.2095550760838525c 0.5399708194080928,-0.4120701185799739 1.073403780845911,-0.8329548039566876 1.6000054655856901 -1.2624323354066367c 0.5266016847397922,-0.429477531449975 1.0463720927815452,-0.8675479089732113 1.559025460816004 -1.3139795242518766c 0.5126533680344456,-0.44643161527866526 1.0181896960615706,-0.9012244683127594 1.5163312131734463 -1.364137328497805c 0.4981415171118367,-0.4629128601850454 0.988888223308398,-0.933945727521042 1.4719706683617289 -1.4128480256315867c 0.4830824450533049,-0.4789022981105576 0.9585006289633664,-0.9656740269956502 1.4259937413893062 -1.4600555519792326c 0.46749311242596575,-0.4943815249835824 0.9270611533678358,-0.9963728460656416 1.3784522621423674 -1.505705568442251c 0.4513911087745445,-0.5093327223766093 0.8946052853817764,-1.0260068460477687 1.3293999187673338 -1.5497455246820833c 0.4347946333855574,-0.5237386786343146 0.8611697235494793,-1.054541912231784 1.2788921988810644 -1.5921247216808765c 0.4177224753315852,-0.5375828094490923 0.8267923358308467,-1.0819451947497816 1.226986328633697 -1.6327943726109397c 0.40019399280286333,-0.5508491778611583 0.7915121179093284,-1.108185148282747 1.1737412096451953 -1.671707661940585c 0.38222909173588,-0.5635225136578382 0.7553691501011488,-1.1332315705519003 1.119217353850144 -1.7088198026980388c 0.3638482037489821,-0.5755882321461516 0.7184045528817163,-1.1570556395444187 1.0634768162794186 -1.7440880918176442c 0.3450722633977023,-0.5870324522732254 0.6806604410604116,-1.179629949421435 1.0065831258237607 -1.7774719634877993c 0.32592268476337505,-0.5978420140663772 0.6421798766273898,-1.2009285450509284 0.9486012140182574 -1.8089330404170338c 0.3064213373908416,-0.6080044953661119 0.6030068203084971,-1.2209269551138104 0.8895973419018238 -1.8384351829382475c 0.2865905215933268,-0.6175082278244305 0.563186081862364,-1.2396022237256124 0.8296390250059714 -1.8659445358656002c 0.26645294314360746,-0.6263423121399945 0.5227632691617982,-1.2569329405188014 0.7687949565350246 -1.8914295730222794c 0.24603168737320052,-0.6344966325034845 0.4817847361014108,-1.2728992691316208 0.707134928804889 -1.914861139356534c 0.22535019270345227,-0.6419618702249134 0.4402975293821595,-1.287482974046604 0.6447297530159435 -1.9362124905635583c 0.20443222363378397,-0.6487295165169543 0.3983493342226447,-1.300667445729192 0.5816511774386014 -1.9554593301368035c 0.18330184321594373,-0.6547918844076052 0.3559884190589705,-1.3124377240105844 0.5179718040964933 -1.9725798437681425c 0.16198338503752288,-0.660142119757558 0.31326357926954185,-1.3227805196697078 0.4537650040383319 -1.987554731026929c 0.140501424768803,-0.6647742113572279 0.2702240800743641,-1.331684234159534 0.3891048312972401 -2.000367234244178c 0.118880751222889,-0.6686830000846505 0.22691959836311892,-1.339138977451626 0.3240659356313808 -2.0110031645394173c 9.714633726826187e-2,-0.671864187087791 0.18340016466458162,-1.3451365838963978 0.25872347416033664 -2.019450924923776c 7.532330949575501e-2,-0.6743143410273785 0.13971610109094526,-1.3496706262735223 0.19315302199866793 -2.0257015304277797c 5.3436920907735636e-2,-0.6760309041542574 9.59179711279907e-2,-1.3527364272166151 0.12743048200417187 -2.029748625196391c 3.151251087616817e-2,-0.6770121979797759 5.205648240819756e-2,-1.3543310708769698 6.1631993755604964e-2 -2.031588496509547c 9.575511347420374e-3,-0.6772574256325775 8.18256251019282e-3,-1.3544534040005387 -4.166158120531511e-3 -2.0312200856848244c -1.234872063072433e-2,-0.6767666816842823 -3.565321305494543e-2,-1.3531040666848893 -6.988763615383e-2 -2.028644995828828c -3.423442309887159e-2,-0.6755409291439356 -7.939877687236774e-2,-1.3502854024312032 -0.13545614263953348 -2.0238674964079055c -5.605736576715276e-2,-0.6735820939766992 -0.12300774352796215,-1.3460018086428236 -0.2007955125300989 -2.0168945246156404c -7.778776900212377e-2,-0.6708927159728134 -0.16641292924556192,-1.340258433252319 -0.26582980648273336 -2.007735683522744c -9.941687723715845e-2,-0.6674772502704314 -0.20962547146806315,-1.3330660335317919 -0.3304834039357016 -1.9964032369956999c -0.12085793246761249,-0.6633372034639081 -0.2523652031719587,-1.3244228271303642 -0.39468109608847396 -1.982912101384578c -0.1423158929165152,-0.6584892742542156 -0.2954404080452643,-1.3143821990961941 -0.45834817865539945 -1.9672798339797062c -0.1629077706101222,-0.6528976348835123 -0.33559879670166953,-1.3027999798085566 -0.5214105442711778 -1.9495266182478597c -0.1858117475695083,-0.646726638439303 -0.38474421661697766,-1.2902775703928644 -0.5837947744190474 -1.9296752458613697c -0.19905055780206976,-0.6393976754685053 -0.398219204358701,-1.274642094451953 -0.64542823075956 -1.9077510955437877c -0.24720902640085904,-0.633109001091834 -0.5424584326459458,-1.2640825842920527 -0.7062391457345834 -1.8837821087555073c -0.16378071308866346,-0.6196995244634554 -0.19609273302090358,-1.2281249901901483 -8.635711943609903e-2 -1.8340596373720657c 0.10973561358479159,-0.6059346471819181 0.3615188606865889,-1.2093784758190622 0.561791781392951 -1.8174987353155634c 0.2002729207063621,-0.6081202594965022 0.34903551501726304,-1.2209169498523627 0.49801976189953734 -1.8359978146175253Z"/>
  </g>
  <defs>
  </defs>
  <g stroke-linejoin="miter" stroke-opacity="1.0" fill-opacity="1.0" stroke="rgb(0,0,0)" stroke-width="0.0" fill="rgb(255,0,0)" stroke-linecap="butt" stroke-miterlimit="10.0">
    <path d="M 389.42911378317996,90.37713070456533 c 0.0,-2.376308212394535 -1.9263784236615527,-4.302686636056088 -4.302686636056087 -4.302686636056088c -2.376308212394535,-1.4550691230482678e-16 -4.302686636056088,1.9263784236615527 -4.302686636056088 4.3026866360560865c -2.9101382460965355e-16,2.376308212394535 1.9263784236615522,4.302686636056088 4.3026866360560865 4.302686636056088c 2.376308212394535,4.3652073691448033e-16 4.302686636056088,-1.9263784236615518 4.302686636056088 -4.3026866360560865Z"/>
  </g>
  <defs>
  </defs>
  <g stroke-linejoin="miter" stroke-opacity="1.0" fill-opacity="0.0" stroke="rgb(0,0,0)" stroke-width="1.3152371489552916" fill="rgb(0,0,0)" stroke-linecap="butt" stroke-miterlimit="10.0">
    <path d="M 213.75874389493583,153.94894060197163 v -5.841971879976228 c 0.0,-9.679295934753604 -7.84661970517508,-17.525915639928687 -17.525915639928684 -17.525915639928687h -52.577746919786065 c -9.679295934753604,-5.926859392247995e-16 -17.525915639928687,7.84661970517508 -17.525915639928687 17.52591563992868v 5.841971879976228 c -1.185371878449599e-15,9.679295934753604 7.846619705175078,17.525915639928687 17.52591563992868 17.52591563992869h 52.57774691978606 c 9.679295934753604,1.5565495025600263e-15 17.525915639928687,-7.846619705175078 17.525915639928698 -17.525915639928684Z"/>
  </g>
  <defs>
  </defs>
  <g stroke-linejoin="miter" stroke-opacity="1.0" fill-opacity="0.0" stroke="rgb(0,0,0)" stroke-width="1.3152371489552916" fill="rgb(0,0,0)" stroke-linecap="butt" stroke-miterlimit="10.0">
    <path d="M 199.15381419499525,130.58105308206672 l 18.05268591573215,-55.56045424464441 l -47.262545315613295,-34.338249153573614 l -47.2625453156133,34.33824915357361 l 18.052685915732148,55.56045424464441 Z"/>
  </g>
  <defs>
  </defs>
  <g stroke-linejoin="miter" stroke-opacity="1.0" fill-opacity="0.0" stroke="rgb(0,0,0)" stroke-width="1.3152371489552916" fill="rgb(0,0,0)" stroke-linecap="butt" stroke-miterlimit="10.0">
    <path d="M 122.6814094795008,90.37713070456533 c 0.0,-32.26431978251202 -26.155399017250268,-58.41971879976229 -58.41971879976228 -58.41971879976229c -32.26431978251202,-1.9756197974159985e-15 -58.41971879976229,26.155399017250264 -58.41971879976229 58.41971879976227c -3.951239594831997e-15,32.26431978251202 26.15539901725026,58.41971879976229 58.419718799762265 58.41971879976229c 32.26431978251202,5.926859392247995e-15 58.41971879976229,-26.155399017250257 58.41971879976231 -58.41971879976227Z"/>
  </g>
  <defs>
  </defs>
  <g stroke-linejoin="miter" stroke-opacity="1.0" fill-opacity="0.0" stroke="rgb(255,0,0)" stroke-width="1.3152371489552916" fill="rgb(0,0,0)" stroke-linecap="butt" stroke-miterlimit="10.0">
    <path d="M 217.2065001107274,90.37713070456533 c 8.30165998664226e-2,-0.8900432053740921 0.16145536679616138,-1.781219115595441 0.22138269389213971 -2.673525828347647c 5.9927327095978325e-2,-0.892306712752206 0.1013432143581443,-1.7857442280352696 0.12794312770612642 -2.6796233332447468c 2.659991334798212e-2,-0.8938791052094771 3.8383852781780387e-2,-1.7881998003453683 3.4347682527088204e-2 -2.6824561298746232c -4.036170254666242e-3,-0.894256329529254 -2.389245019779699e-2,-1.7884482934518704 -5.928961001221426e-2 -2.6820207669109335c -3.539715981441727e-2,-0.8935724734590629 -8.633519950012104e-2,-1.7865254564545725 -0.15285466729454122 -2.6783177747763958c -6.651946779444613e-2,-0.8917923183218249 -0.14862036369760867,-1.7824239719699668 -0.24623349471034003 -2.671351664996513c -9.761313101273135e-2,-0.8889276930265494 -0.2107384971350315,-1.7761514254315078 -0.3393123245421413 -2.661130924703012c -0.1285738274071098,-0.884979499271504 -0.2725961160990811,-1.7677147654095566 -0.4319777545734868 -2.6476680062935647c -0.15938163847440573,-0.8799532408840081 -0.3341226267312459,-1.7571244565139745 -0.5241168862520168 -2.6309793122604317c -0.1899942595207709,-0.8738548557464574 -0.3952417903054466,-1.744393351609399 -0.6156174622386287 -2.6110851752066124c -0.22037567193320803,-0.8666918235972167 -0.4558794850149484,-1.7295369749287053 -0.706368003176202 -2.588009833073628c -0.25048851816127954,-0.858472858144926 -0.5159617414020722,-1.7125734231032927 -0.7962579435094624 -2.561781399611407c -0.2802962021073902,-0.849207976508114 -0.5754153830814038,-1.693523364565975 -0.8851777661927495 -2.5324318301259265c -0.3097623831113457,-0.8389084655599514 -0.6341679683600234,-1.672410008621993 -0.9730191361189999 -2.49999688254668c -0.3388511677590024,-0.827586873924687 -0.6921479180283554,-1.6492590787120258 -1.059675032110108 -2.4645160738610152c -0.3675271140817526,-0.8152569951489893 -0.7492845919758788,-1.6240987806596356 -1.1450398773050114 -2.4260326319689614c -0.39575528532910664,-0.8019338513093259 -0.8055083780932196,-1.5969597684173316 -1.2290096677891926 -2.384593443016549c -0.42350128969597306,-0.7876336745992305 -0.8607507763238321,-1.5678751066896859 -1.3114820993077028 -2.340248994272263c -0.45073132298389645,-0.7723738875825771 -0.9149444823238563,-1.5368802306572757 -1.3923566919064874 -2.2930533126161956c -0.4774122095826571,-0.7561730819589135 -0.9680234694080376,-1.5040129028020353 -1.4715349123523225 -2.2430638987164713c -0.5035114429443107,-0.7390509959144297 -1.0199230690074998,-1.4693131669001607 -1.548920294180026 -2.1903416569736636c -0.5289972251725261,-0.7210284900735029 -1.0705800494543634,-1.4328232992347714 -1.6244185552221095 -2.1349508213181334c -0.5538385057677202,-0.7021275220833556 -1.1199326930212974,-1.394587757088779 -1.6979377124772144 -2.076958876950762c -0.578005019455917,-0.6823711198619895 -1.1679208711141218,-1.3546531245805449 -1.7693881941768501 -2.0164364781228254c -0.6014673230627283,-0.6617833535422805 -1.2144861175299542,-1.3130680559083052 -1.838682948915322 -1.953457362054513c -0.6241968313853421,-0.6403893061462077 -1.2595716996888005,-1.2698832160725984 -1.9057375517078892 -1.888098259097604c -0.6461658520190626,-0.6182150430250056 -1.3031226877537556,-1.225151219148626 -1.970470306850052 -1.8204387992512094c -0.6673476190963223,-0.5952875801025834 -1.3450860215542741,-1.1789265641841555 -2.0328023474509815 -1.7505614151450135c -0.6877163258967074,-0.5716348509608579 -1.3854105752321961,-1.1312655688009885 -2.092657731520785 -1.678551241607802c -0.7072471562886148,-0.5472856728068135 -1.4240472195303298,-1.0822263005803099 -2.149963534493956 -1.6044960119436562c -0.7259163149636262,-0.5222697113633591 -1.4609488816491119,-1.0318685063165938 -2.2046499380768023 -1.5284859510426672c -0.7437010564276906,-0.4966174447260735 -1.496070602597586,-0.9802535392250118 -2.25665031531041 -1.4506136654555277c -0.7605797127128495,-0.470360126230503 -1.5293695919686658,-0.9274442841925837 -2.305901311745181 -1.3709740305669051c -0.7765317197765153,-0.4435297463743213 -1.5608052800737293,-0.8735050811608962 -2.352342922628358 -1.2896640750044248c -0.7915376425546027,-0.41615899384352856 -1.5903393673665809,-0.8185016467439978 -2.395918566011045 -1.2067828624240717c -0.8055791986444513,-0.3882812156800739 -1.6179358711213494,-0.7625009941397525 -2.4365751516840297 -1.1224313708164886c -0.8186392805626411,-0.35993037667674904 -1.6435611692110512,-0.7055713515705686 -2.4742631458602165 -1.0367123694808957c -0.8307019766491652,-0.3311410179103272 -1.6671840412991115,-0.6477820788372008 -2.5089366315242945 -0.9497302938163535c -0.8417525902251828,-0.3019482149791657 -1.6887757060255892,-0.5892035840105715 -2.540553364374823 -0.8615911180835754c -0.8517776583492335,-0.2723875340730038 -1.708309859247307,-0.5299072331875537 -2.5690748242932067 -0.7724022262912806c -0.8607649650459127,-0.24249499310372685 -1.7257626942396516,-0.4699652801966566 -2.5944662622737673 -0.6822722813657712c -0.8687035680341155,-0.21230700116911466 -1.7411129749086465,-0.4094507164144402 -2.616696742760685 -0.5913110927613385c -0.8755837678520384,-0.18186037634688543 -1.7543418966816102,-0.34843741379536963 -2.635739181337711 -0.499629482674932c -0.8813972846560879,-0.15119206887957534 -1.765433725138692,-0.2869991691902548 -2.651570377726828 -0.40733915102586254c -0.8861366525881487,-0.12033998183559477 -1.774373517281803,-0.22521284519610488 -2.664171044053777 -0.3145525393670591c -0.8897975267719871,-8.933969417094127e-2 -1.78115571562232,-0.16314621915233968 -2.67352582834764 -0.22138269389216567c -0.892370112725333,-5.823647473982598e-2 -1.7857521493256272,-0.10090289923806658 -2.6796233332447206 -0.12794312770611346c -0.8938711839191062,-2.704022846804688e-2 -1.7882315151569985,-3.845426090593896e-2 -2.6824561298746206 -3.434768252714009e-2c -0.894224614717622,4.1065783788248105e-3 -1.7883135129149739,2.3733767574327595e-2 -2.682020766910925 5.928961001218831e-2c -0.8937072539959513,3.555584243786072e-2 -1.7870328637904893,8.70403381180664e-2 -2.6783177747763554 0.15285466729459313c -0.8912849109858789,6.581432917652673e-2 -1.7805291231630729,0.14595849184941342 -2.6713516649965148 0.24623349471028813c -0.8908225418334418,0.10027500286087472 -1.7832234133231313,0.22068084590973747 -2.6611309247030053 0.33931232454210236c -0.8779075113798741,0.11863147863236492 -1.7413216626499588,0.23548859284823204 -2.647668006293568 0.4319777545735257c -0.9063463436436092,0.19648916172526776 -1.855624879660717,0.4726103709599491 -2.6309793122604255 0.5241168862520168c -0.7753544325996953,5.1506515292080605e-2 -1.3767847617819908,-0.12160166335843954 -2.0262869014618143 -0.21956102675621247c -0.6495021396798301,-9.795936339777295e-2 -1.3470760898571947,-0.12076991154279869 -2.0327151115590794 -0.1487108830752666c -0.685639021701891,-2.794097153246789e-2 -1.3593431149282886,-6.101236645241685e-2 -2.036666771408753 -7.767955809032609e-2c -0.677323656480458,-1.6667191637922216e-2 -1.3582668762149825,-1.6930179993791743e-2 -2.038137066521903 -6.553592529532857e-3c -0.6798701903069136,1.0376587464245912e-2 -1.35866735118621,3.1392750748607264e-2 -2.037124205570492 6.458035757426764e-2c -0.6784568543842823,3.3187606825660375e-2 -1.3565734022735312,7.854665719261977e-2 -2.033629422569498 0.13563562646028743c -0.6770560202959667,5.70889692676417e-2 -1.3530515129986576,0.1259078574360046 -2.027656975373717 0.2065256442284653c -0.6746054623750528,8.061778679246069e-2 -1.3478208944224996,0.17303447220899323 -2.0192141404900483 0.277164042311961c -0.6713932460675485,0.10412957010299372 -1.3409643061552179,0.2199720248924097 -2.00831120421225 0.3474647587037688c -0.6673468980570321,0.12749273381135914 -1.3324696340834266,0.26663574664464845 -1.994961450088816 0.41734214281000376c -0.6624918160053828,0.1507063961653553 -1.3223527119897538,0.3129761756627636 -1.979181142738639 0.48671105980177604c -0.6568284307488915,0.17373488413902544 -1.310624396262284,0.358934872919668 -1.9609895080355546 0.5554869943392963c -0.6503651117732704,0.1965521214196412 -1.2972993698064121,0.4044563754782551 -1.9404087096842066 0.6235861535404391c -0.6431093398778008,0.21912977806217102 -1.2823937616002479,0.4494850801278992 -1.9174638222171125 0.6909255690695344c -0.6350700606168644,0.24144048894164824 -1.2659257601281333,0.4939661647592036 -1.8921828004453816 0.757423198221702c -0.6262570403172418,0.2634570334625115 -1.24791542144046,0.5378454245699661 -1.8645964453996504 0.8229980238788868c -0.6166810239591903,0.2851525993089337 -1.228384690754343,0.5810694068193465 -1.834738366804321 0.8875701532171266c -0.6063536760499778,0.30650074639776714 -1.2073573613547743,0.6235854316828886 -1.8026449421287902 0.9510609150433909c -0.5952875807740223,0.3274754833605022 -1.1848590570172672,0.6653417647963981 -1.7683552722674263 1.0133929556443464c -0.5834962152501654,0.3480511908479354 -1.1609171695072578,0.7062872911079103 -1.7319111339010949 1.0744903330300486c -0.5709939643938371,0.3682030419221382 -1.1355609389244188,0.7463730255064137 -1.6933569285985253 1.1342786094575465c -0.5577959896741098,0.38790558395111985 -1.1088209944917475,0.7855467682690581 -1.652739628720137 1.1926849421216283c -0.5439186342283894,0.4071381738525703 -1.0807308978675334,0.8237733372397726 -1.6101087201891515 1.2496381719027687c -0.529377822321618,0.425864834662996 -1.0513212033257098,0.8609593406017727 -1.5655161422008386 1.3050689100634327c -0.5141949388751302,0.4441095694616601 -1.0206414356212956,0.8972342024461906 -1.5190162239425613 1.3589096227876802c -0.49837478832127063,0.4616754203414897 -0.98867786821764,0.9319016280399385 -1.4706656184018883 1.4110947134605119c -0.4819877501842481,0.47919308542057326 -0.955660170656375,0.9673530485632451 -1.420523233343899 1.4615606025874681c -0.46486306268752425,0.49420755402421 -0.9209167675904459,0.9944626989299453 -1.3686501595408924 1.5102458052563474c -0.4477333919504466,0.515783106326415 -0.887146470948418,1.0470941740735098 -1.3151095963428643 1.5570910060469978c -0.42796312539444614,0.509996831973475 -0.8444762971853662,0.9986794281733173 -1.2599667746788281 1.6020391312983413c -0.4154904774934627,0.603359703125024 -0.8299582606894672,1.3213965131752297 -1.2032888775828328 1.645035418643334c -0.37333061689336466,0.3236389054680979 -0.7055240674840901,0.2528799063540946 -1.0421578665577336 0.21324345537391276c -0.3366337990736435,-3.963645098018182e-2 -0.6777079466302048,-4.815035382654215e-2 -1.0177940434035437 -6.128783517955424e-2c -0.3400860967733388,-1.3137481353012091e-2 -0.6791841427634553,-3.0898541212656495e-2 -1.0186849233769282 -4.371419739772763e-2c -0.3395007806134726,-1.2815656185058165e-2 -0.6794042958503026,-2.0685908695510635e-2 -1.0192749041630604 -2.61861743290672e-2c -0.33987060831275806,-5.500265633543592e-3 -0.6797083097014446,-8.630544390178308e-3 -1.0195678737359788 -8.714433473183082e-3c -0.3398595640345342,-8.388908299828875e-5 -0.6797409907149161,2.878611507646335e-3 -1.0195678737359657 8.714433473176596e-3c -0.33982688302104985,5.835821965530262e-3 -0.6795992223827669,1.4544965305952649e-2 -1.0192749041630609 2.6186174329047743e-2c -0.33967568178029406,1.1641209023088609e-2 -0.6792547059791644,2.6214483728856413e-2 -1.0186849233769277 4.3714197397721144e-2c -0.33943021739776336,1.7499713668858247e-2 -0.6787116279944204,3.7925866300819906e-2 -1.0177940434035453 6.128783517955424e-2c -0.33908241540912487,2.3361968878734325e-2 -0.6779658356307174,4.965975400422186e-2 -1.0165989335473862 7.889648573725522e-2c -0.33863309791666785,2.923673173303336e-2 -0.6770158735284125,6.1412410073612554e-2 -1.0150968023948166 9.652963470215037e-2c -0.3380809288664042,3.5117224628544295e-2 -0.6758600109874695,7.317599554504073e-2 -1.0132853791928513 0.11417687651518743c -0.3374253682053834,4.100088097014022e-2 -0.6744970224950839,8.494387199390477e-2 -1.0111628946020719 0.13182793484775918c -0.3366658721069895,4.6884062853854415e-2 -0.6729259620312663,9.670919753779221e-2 -1.0087280608299674 0.14947268214351342c -0.33580209879870115,5.2763484605734184e-2 -0.6711462064718267,0.10846531913327773 -1.0059800511571022 0.16710115822107727c -0.3348338446852755,5.8635839087799534e-2 -0.6691574263827009,0.12020568273586155 -1.0029184788772807 0.1847035878764559c -0.3337610524945831,6.449790514059438e-2 -0.6669595757863223,0.13192387177370166 -0.9995433756796782 0.2022703974221278c -0.33258379989335607,7.034652564843263e-2 -0.6645528763883242,0.1436136103121906 -0.9958551695090175 0.2197922300997608c -0.33130229312069176,7.617861978757667e-2 -0.6619378028671022,0.1552687746989785 -0.9918546619485646 0.23725996030390903c -0.329916859081464,8.199118560494349e-2 -0.6591150674979799,0.16688340190341566 -0.9875430051779497 0.25466470655475604c -0.3284279376799731,8.778130465135336e-2 -0.6560856046234034,0.1784516976555944 -0.9829216785669939 0.27199784315843806c -0.3268360739436003,9.354614550285661e-2 -0.6528505548873674,0.1899680435043223 -0.977992464974655 0.2892510104984935c -0.3251419100872875,9.928296699416467e-2 -0.6494112493181018,0.2014270029810283 -0.9727574268303164 0.3064161239017917c -0.3233461775122114,0.10498912092076984 -0.6457691933058296,0.21282332677544588 -0.967218882083325 0.323485381029641c -0.32144968877749536,0.11066205425419512 -0.6419260505388679,0.22415195690790282 -0.9613793801137948 0.3404512677475727c -0.3194533295749236,0.11629931083966984 -0.6378836269634015,0.23540802986531478 -0.9552416777055702 0.3573065624342429c -0.31735805074217194,0.12189853256892812 -0.6336438548380444,0.24658687868113294 -0.9488087151893584 0.3740443386981396c -0.31516486035131724,0.1274574600170066 -0.6292087769580728,0.25768403393882156 -0.9420835928698728 0.3906579664757407c -0.31287481591179345,0.13297393253691914 -0.6245805311286151,0.268695223688962 -0.9350695478570112 0.4071411114978491c -0.31048901672839296,0.13844588780888065 -0.619761334968354,0.2796163722746121 -0.9277699314248838 0.4234877331184983c -0.3080085964565299,0.14387136084387325 -0.6147534711296286,0.29044359806590125 -0.9201881870274116 0.4396920805116193c -0.3054347158977894,0.14924848244571803 -0.609559273020263,0.30117321011513254 -0.9123278290997932 0.4557486872549187c -0.30276855607953007,0.15457547713978612 -0.6041811111161101,0.3118017037499309 -0.904192422778435 0.47165236433068725c -0.3000113116623184,0.15985066058074993 -0.5986213799503786,0.322325755132105 -0.8957855646688134 0.4873981915885374c -0.2971641847184317,0.16507243645642591 -0.5928824858672253,0.33274221481792265 -0.8871108647914112 0.5029815077272298c -0.2942283789241891,0.1702392929093072 -0.5869668356237803,0.3430481003664184 -0.8781719298306017 0.518397898869101c -0.2912050942068214,0.17534979850268267 -0.5808768259208924,0.3532405880509303 -0.8689723478055361 0.5336431858132366c -0.2880955218846437,0.18040259776230624 -0.5746148339398796,0.3633170037386581 -0.8595156742768505 0.5487134100686412c -0.28490084033697094,0.1853964063299766 -0.5681832089556705,0.37327481301357796 -0.8498054201919163 0.5636048187832714c -0.28162221123624576,0.1903300057697064 -0.5615842650900312,0.3831116106255179 -0.8398450414616626 0.5783138486970243c -0.278260776371625,0.19520223807151935 -0.554820275261096,0.39282510935872056 -0.829637930349342 0.5928371092610567c -0.27481765508823297,0.20001199990233617 -0.5478934663752408,0.4024131284198073 -0.8191874087372144 0.6071713650765007c -0.27129394236197363,0.20475823665669993 -0.5408060157989195,0.4118735814526481 -0.8084967233227142 0.6213135178162789c -0.2676907075237947,0.20943993636363073 -0.5335600491344382,0.42120446429496994 -0.7975690427762278 0.6352605878035117c -0.2640089936417896,0.21405612350854822 -0.5261576393147187,0.4304038425943055 -0.7864074568782431 0.6490096954254494c -0.2602498175635244,0.2186058528311375 -0.518600807017618,0.43946983940766177 -0.7750149776318428 0.6625580425694421c -0.2564141706142183,0.22308820316177383 -0.5108915223885612,0.4484006229088102 -0.7633945423288699 0.6759028942680738c -0.2525030199403023,0.22750227135924408 -0.5030317080465769,0.45719439433071535 -0.7515490185277528 0.6890415607438342c -0.24851731048118236,0.23184716641312533 -0.49502324333725944,0.46584937626791123 -0.7394812108828831 0.7019713800405556c -0.24445796754562363,0.2361220037726444 -0.4868679697807938,0.4743638014631538 -0.7271938697436303 0.7146897014259969c -0.24032589996283005,0.24032589996283654 -0.47856769765334595,0.4827359021979937 -0.7146897014259969 0.7271938697435979c -0.23612200377265088,0.24445796754560417 -0.4701242136274562,0.49096390040167476 -0.701971380040588 0.7394812108828571c -0.23184716641311884,0.24851731048117587 -0.4615392893845706,0.4990459985874635 -0.6890415607438277 0.7515490185277658c -0.22750227135925058,0.25250301994030877 -0.4528146911063129,0.5069803717146387 -0.6759028942680932 0.763394542328857c -0.22308820316178682,0.2564141706142183 -0.4439521897383111,0.5147651600683184 -0.6625580425694615 0.7750149776318428c -0.21860585283114398,0.2602498175635179 -0.4349535719169207,0.5223984632364406 -0.649009695425456 0.7864074568782302c -0.21405612350854175,0.2640089936417896 -0.42582065143986153,0.529878335252446 -0.6352605878035117 0.7975690427762212c -0.2094399363636437,0.2676907075237882 -0.4165552811596113,0.5372027809607146 -0.6213135178163177 0.8084967233226817c -0.2047582366567064,0.27129394236197363 -0.4071593651741386,0.5443697536489944 -0.6071713650764683 0.8191874087372274c -0.20001199990233617,0.2748176550882394 -0.39763487118957636,0.551377153977691 -0.5928371092610892 0.829637930349316c -0.1952022380715258,0.278260776371625 -0.38798384292733085,0.5582228302254104 -0.5783138486970307 0.8398450414616562c -0.19033000576969994,0.28162221123624576 -0.3782084124533013,0.5649045798549518 -0.5636048187832844 0.8498054201919163c -0.18539640632998308,0.28490084033696444 -0.36831081230636087,0.5714201523921808 -0.5487134100686542 0.8595156742768245c -0.18040259776230624,0.2880955218846437 -0.3582933873105604,0.5777672535987147 -0.5336431858132366 0.8689723478055296c -0.17534979850269564,0.2912050942068214 -0.3481586059598263,0.583943550906393 -0.51839789886914 0.8781719298305757c -0.1702392929093137,0.2942283789241859 -0.33790907127079095,0.589946680072986 -0.5029815077272234 0.8871108647914177c -0.16507243645641942,0.2971641847184285 -0.3275475310077745,0.5957742530064886 -0.48739819158854386 0.8957855646688102c -0.1598506605807629,0.3000113116623184 -0.3170768871909336,0.601423866698892 -0.47165236433071966 0.904192422778422c -0.15457547713978612,0.30276855607953007 -0.3065002048091747,0.6068931132020102 -0.4557486872548992 0.9123278290997964c -0.14924848244571803,0.3054347158977829 -0.29582071966777196,0.6121795905708687 -0.43969208051167114 0.920188187027392c -0.14387136084388621,0.3080085964565299 -0.2850418453095982,0.6172809146965038 -0.4234877331184918 0.9277699314248936c -0.1384458878088936,0.31048901672839296 -0.2741671789609494,0.6221947319451984 -0.407141111497888 0.935069547856982c -0.13297393253693213,0.31287481591178695 -0.26320050645874055,0.6269187325185652 -0.3906579664757602 0.9420835928698824c -0.1274574600170131,0.31516486035131724 -0.25214580612921145,0.6314506644471768 -0.3740443386981525 0.948808715189339c -0.12189853256894109,0.3173580507421622 -0.24100725159459901,0.6357883481306401 -0.35730656243427533 0.9552416777055605c -0.11629931083967633,0.3194533295749171 -0.22978921349337106,0.6399296913362832 -0.3404512677475532 0.9613793801137818c -0.11066205425418214,0.3214496887774986 -0.21849626010887763,0.643872704571133 -0.32348538102966695 0.9672188820833508c -0.10498912092078282,0.3233461775122146 -0.2071331569076724,0.647615516743016 -0.3064161239018176 0.9727574268302938c -9.92829669941517e-2,0.3251419100872778 -0.195704864995572,0.6511563910310254 -0.2892510104984935 0.9779924649746388c -9.35461455029085e-2,0.32683607394361003 -0.18421653850733116,0.6544937408870727 -0.27199784315847697 0.9829216785670134c -8.778130465113933e-2,0.3284279376799374 -0.1726735209490083,0.6576261460963544 -0.2546647065547755 0.9875430051779367c -8.199118560576721e-2,0.32991685908158075 -0.16108134051942613,0.6605523688283286 -0.237259960303922 0.9918546619485631c -7.617861978449587e-2,0.33130229312023124 -0.14944570443982869,0.6632713696139492 -0.21979223009975432 0.9958551695090321c -7.034652565991914e-2,0.3325837998950845 -0.13777249232442462,0.6657823231915388 -0.2022703974221343 0.9995433756796652c -6.449790509772263e-2,0.3337610524881264 -0.12606774862864945,0.6680846341679249 -0.18470358787650132 1.0029184788772743c -5.86358392478454e-2,0.33483384470935273 -0.11433767421262885,0.6701779524482582 -0.16710115822107727 1.005980051157089c -5.2763484008441934e-2,0.33580209870883265 -0.10258861706057477,0.6720621883875892 -0.14947268214351342 1.008728060829982c -4.6884065082938645e-2,0.33666587244239116 -9.082706219670254e-2,0.6737375276484137 -0.13182793484782404 1.0111628946020645c -4.1000872651121505e-2,0.33742536695365005 -7.905962083960061e-2,0.6752044456549277 -0.11417687651517447 1.0132853791928407c -3.5117255675573854e-2,0.3380809335379123 -6.729301883822947e-2,0.6764637219124616 -9.652963470216333e-2 1.015096802394841c -2.9236615863920894e-2,0.33863308048237856 -5.5534084429087596e-2,0.6775164530725871 -7.889648573727467e-2 1.0165989335473722c -2.3362401308187078e-2,0.33908248047478523 -4.378973535936858e-2,0.6783640688341451 -6.1287835179580176e-2 1.0177940434035295c -1.7498099820205112e-2,0.33942997456938395 -3.206696540943384e-2,0.6790083353487907 -4.371419739770169e-2 1.0186849233769548c -1.1647231988267852e-2,0.3396765880281642 -2.0372830375574837e-2,0.6794514033050858 -2.6186174329086657e-2 1.0192749041630464c -5.813343953511822e-3,0.3398235008579606 -8.71443347320254e-3,0.67969568729696 -8.71443347320254e-3 1.0195678737359657c 0.0,0.33987218643900563 2.9010895197101754e-3,0.6797443728780174 8.714433473196054e-3 1.0195678737359917c 5.813343953492364e-3,0.33982350085797414 1.4538942340753947e-2,0.6795983161349107 2.6186174329028287e-2 1.0192749041630735c 1.1647231988261366e-2,0.3396765880281626 2.6216097577522517e-2,0.6792549488075516 4.371419739773412e-2 1.0186849233769277c 1.74980998202116e-2,0.3394299745693754 3.792543387136716e-2,0.6787115629287378 6.1287835179528294e-2 1.0177940434035326c 2.3362401308167618e-2,0.3390824804747941 4.965986987334081e-2,0.6779658530650206 7.889648573725522e-2 1.0165989335473982c 2.923661586390792e-2,0.33863308048237933 6.141237902657003e-2,0.6770158688569117 9.652963470213739e-2 1.0150968023948175c 3.5117255675573854e-2,0.3380809335379066 7.317600386406593e-2,0.6758600122391858 0.11417687651518095 1.01328537919284c 4.1000872651108536e-2,0.33742536695365327 8.494386976483352e-2,0.6744970221596823 0.13182793484776567 1.0111628946020734c 4.688406508292567e-2,0.33666587244239277 9.670919813503906e-2,0.672925962121151 0.14947268214349396 1.0087280608299836c 5.276348400844842e-2,0.33580209870883265 0.1084653189732189,0.6711462064477397 0.1671011582210578 1.0059800511570909c 5.863583924785189e-2,0.3348338447093511 0.12020568277876573,0.6691574263891463 0.1847035878764689 1.0029184788772791c 6.449790509770965e-2,0.33376105248813287 0.13192387176221515,0.6669595757846083 0.2022703974221278 0.9995433756796929c 7.034652565991914e-2,0.3325837998950845 0.14361361031524547,0.6645528763887847 0.21979223009974133 0.9958551695090078c 7.617861978449587e-2,0.3313022931202215 0.15526877469814832,0.6619378028669709 0.23725996030390253 0.9918546619485614c 8.199118560576071e-2,0.32991685908159213 0.16688340190361026,0.6591150674980302 0.2546647065547366 0.9875430051779708c 8.778130465111987e-2,0.3284279376799439 0.17845169765551658,0.6560856046233936 0.27199784315844455 0.9829216785669972c 9.354614550292148e-2,0.3268360739436036 0.18996804350435476,0.6528505548873544 0.28925101049849994 0.9779924649746354c 9.928296699414521e-2,0.325141910087281 0.2014270029809959,0.6494112493180856 0.3064161239017657 0.9727574268303067c 0.10498912092077632,0.3233461775122211 0.21282332677545884,0.6457691933058523 0.32348538102964747 0.9672188820833508c 0.11066205425419512,0.3214496887774986 0.22415195690788337,0.6419260505388646 0.3404512677475402 0.961379380113785c 0.11629931083966984,0.31945332957492034 0.23540802986530832,0.6378836269633983 0.3573065624342494 0.9552416777055637c 0.12189853256894109,0.31735805074217194 0.24658687868115886,0.6336438548380444 0.3740443386981655 0.9488087151893714c 0.1274574600170066,0.31516486035132046 0.25768403393878264,0.6292087769580825 0.3906579664756953 0.942083592869876c 0.13297393253691914,0.31287481591178695 0.268695223688962,0.6245805311285956 0.4071411114978621 0.935069547856995c 0.1384458878088936,0.31048901672839296 0.27961637227464453,0.6197613349683767 0.4234877331185178 0.9277699314249065c 0.14387136084387325,0.3080085964565331 0.29044359806589476,0.6147534711296091 0.4396920805116128 0.9201881870273888c 0.14924848244571154,0.3054347158977797 0.30117321011512604,0.6095592730202598 0.4557486872548992 0.9123278290998028c 0.15457547713978612,0.3027685560795398 0.3118017037499438,0.6041811111161393 0.47165236433069374 0.9041924227784642c 0.15985066058074993,0.3000113116623184 0.3223257551320985,0.5986213799503624 0.48739819158852443 0.8957855646687908c 0.16507243645642591,0.2971641847184252 0.33274221481792265,0.5928824858672318 0.5029815077272168 0.8871108647914306c 0.1702392929093072,0.2942283789241956 0.3430481003664184,0.5869668356237803 0.5183978988690946 0.8781719298306017c 0.17534979850268267,0.2912050942068214 0.3532405880509368,0.5808768259208794 0.5336431858132366 0.8689723478055296c 0.18040259776229975,0.28809552188465015 0.3633170037386581,0.5746148339398796 0.5487134100686347 0.8595156742768439c 0.18539640632997012,0.28490084033696444 0.3732748130135455,0.5681832089556705 0.5636048187832584 0.8498054201919227c 0.1903300057697064,0.28162221123625875 0.3831116106255309,0.5615842650900637 0.5783138486970373 0.8398450414616886c 0.19520223807151935,0.2782607763716315 0.39282510935872056,0.5548202752610896 0.5928371092610503 0.829637930349316c 0.20001199990233617,0.2748176550882265 0.4024131284197878,0.5478934663752343 0.6071713650764943 0.8191874087372144c 0.2047582366567064,0.2712939423619801 0.41187358145266106,0.5408060157989389 0.6213135178162918 0.8084967233227337c 0.20943993636363073,0.2676907075238012 0.421204464294944,0.5335600491344382 0.6352605878034857 0.7975690427762212c 0.21405612350853526,0.2640089936417831 0.4304038425943055,0.5261576393147187 0.649009695425456 0.7864074568782431c 0.21860585283115047,0.2602498175635244 0.4394698394076747,0.5186008070176505 0.662558042569455 0.7750149776318753c 0.22308820316178032,0.2564141706142183 0.4484006229088037,0.5108915223885482 0.6759028942680608 0.7633945423288505c 0.2275022713592376,0.25250301994030877 0.45719439433070236,0.5030317080466029 0.6890415607438147 0.7515490185277723c 0.23184716641311234,0.24851731048118236 0.46584937626789175,0.49502324333726594 0.7019713800405426 0.7394812108828895c 0.23612200377265738,0.24445796754561713 0.47436380146319274,0.48686796978076785 0.7146897014260293 0.7271938697436043c 0.24032589996282355,0.24032589996283654 0.4827359021979613,0.4785676976533654 0.7271938697435655 0.7146897014260163c 0.24445796754559768,0.23612200377265088 0.49096390040168775,0.4701242136274238 0.7394812108828701 0.7019713800405621c 0.24851731048118236,0.2318471664131383 0.49904599858747,0.4615392893846225 0.7515490185277658 0.6890415607438731c 0.2525030199402958,0.22750227135925705 0.5069803717146127,0.4528146911062805 0.763394542328844 0.6759028942680673c 0.2564141706142183,0.22308820316178682 0.5147651600683508,0.44395218973831757 0.7750149776318753 0.662558042569455c 0.2602498175635244,0.21860585283114398 0.5223984632364471,0.4349535719169077 0.7864074568782172 0.6490096954254754c 0.2640089936417766,0.21405612350854822 0.5298783352524071,0.42582065143990694 0.7975690427761953 0.6352605878035182c 0.2676907075237882,0.20943993636363073 0.5372027809607406,0.4165552811595335 0.8084967233227013 0.6213135178162983c 0.27129394236196064,0.20475823665676476 0.5443697536489231,0.40715936517440454 0.819187408737208 0.6071713650765007c 0.2748176550882848,0.2000119999020897 0.5513771539778921,0.3976348711886359 0.82963793034929 0.5928371092610892c 0.2782607763713915,0.19520223807243384 0.5582228302245738,0.3879838429307748 0.839845041461708 0.5783138486970631c 0.2816222112371343,0.19033000576628833 0.5649045798582207,0.37820841244053705 0.8498054201918969 0.5636048187833038c 0.28490084033366964,0.18539640634277976 0.571420152379916,0.3683108123540711 0.8595156742768439 0.5487134100686347c 0.288095521896928,0.18040259771457007 0.5777672536445181,0.3582933871324124 0.8689723478054971 0.533643185813243c 0.2912050941609726,0.17534979868083714 0.5839435507353212,0.3481586066246756 0.8781719298305887 0.5183978988691206c 0.2942283790952642,0.17023929224443846 0.5899466807114442,0.3379090687894769 0.8871108647914112 0.5029815077272493c 0.29716418407996703,0.16507243893775944 0.5957742506237211,0.32754754026824634 0.8957855646687843 0.48739819158854386c 0.30001131404505993,0.15985065132029752 0.601423875591416,0.3170768526304316 0.9041924227784772 0.47165236433072616c 0.30276854718706125,0.15457551170028805 0.6068930800148212,0.3065003337907301 0.9123278290997802 0.4557486872549316c 0.30543474908495893,0.14924835346420157 0.61217971442712,0.2958202383021367 0.9201881870273758 0.4396920805116258c 0.30800847260025904,0.14387184220948906 0.6172804524586063,0.28504364179050606 0.9277699314248741 0.4234877331185307c 0.3104894789662645,0.13844409132803115 0.6221964570404462,0.2741604744030699 0.9350695478569854 0.407141111497888c 0.3128730908165423,0.13298063709482458 0.6269122943754484,0.26322552820942197 0.942083592869863 0.3906579664757342c 0.31517129849441455,0.12743243826631223 0.6314746919243472,0.2520524236843133 0.9488087151893908 0.374044338698172c 0.31733402326503707,0.12199191501385219 0.6356986763651883,0.24135575962356196 0.9552416777055475 0.3573065624342948c 0.319543001340356,0.1159508028107458 0.64026435092092,0.22848856382252763 0.961379380113785 0.3404512677475467c 0.32111502919286494,0.11196270392502557 0.6426237379980341,0.22335035076330137 0.967218882083312 0.32348538102966695c 0.3245951440852811,0.10013503026637204 0.6522767234506776,0.18901744396084033 0.9727574268302938 0.3064161239018241c 0.3204807033796162,0.1173986799409773 0.6337605307734523,0.2633136261284571 0.9779924649746388 0.28925101049849994c 0.3442319342011865,2.5937384370049325e-2 0.7194159752097168,-6.810279307733186e-2 0.9829216785669874 0.2719978431584575c 0.2635057033572706,0.3401006362357829 0.41533306906327494,1.1143420861547297 0.6070001646975426 1.7809386755472296c 0.19166709563426934,0.6665965893924997 0.42317392119680697,1.2255483182585263 0.6570594310819058 1.8094555893081887c 0.2338855098850989,0.5839072710496757 0.4701497040927591,1.1927700842829614 0.7187055972277901 1.7906098836018112c 0.2485558931350278,0.5978397993188367 0.5094034851974216,1.1846565847232242 0.779746429731927 1.7696466997252693c 0.27034294453450375,0.5849901150020581 0.5501812415411175,1.1681535596017867 0.840108667320866 1.74658791147455c 0.28992742577974695,0.5784343518727632 0.5899439803326271,1.1521396110185476 0.8997198731357959 1.721457998723016c 0.3097758928031672,0.5693183877044814 0.6293111238566214,1.1342499039676466 0.9585085296143887 1.6942840167502027c 0.3291974057577673,0.560034112782556 0.6680569862198461,1.1151708220844898 1.0164041322540842 1.6650955621534742c 0.34834714603423805,0.5499247400689975 0.7061818576406352,1.0946375109050588 1.0733372821381415 1.6339247354011335c 0.3671554244975053,0.5392872244960745 0.7436315618861203,1.0731489026521621 1.1292397771071743 1.6008061000823792c 0.3856082152210531,0.5276571974302171 0.7803485082745443,1.0491099141345765 1.1840447014660465 1.5657766389175267c 0.40369619319150213,0.51666672478295 0.8163482865210161,1.0285474576444775 1.2376865141170028 1.5288757065941962c 0.421338227595988,0.5003282489497058 0.8513625894584518,0.9891040139876158 1.290101135015494 1.4901449794963233c 0.43873854555704184,0.5010409655086944 0.8861912748086618,1.014347131488212 1.3412260298485266 1.4496284023989094c 0.4550347550398648,0.4352812709107103 0.9176515358679747,0.7925376467526262 1.3910002928391603 1.4073721322010184c 0.4733487569711857,0.6148344854484052 0.957429490085447,1.4872470805032871 1.4553790726990081 2.280885695805618c 0.49794958261356115,0.7936386153023441 1.009768014726423,1.5085032508521246 1.53428393380159 2.234135851577705c 0.5245159190751673,0.7256326007255675 1.0617293251126396,1.4620331666269217 1.611602951744232 2.1846376011462842c 0.5498736266315922,0.7226044345193627 1.1124074738573042,1.4314127376567338 1.6872405431812223 2.1324480441968023c 0.5748330693239156,0.7010353065400814 1.1619653607460365,1.394297616482834 1.761103230529824 2.077627523015279c 0.5991378697837875,0.6833299065324714 1.210281317929243,1.3567274096546225 1.8330997492419894 2.0202395462443334c 0.6228184313127445,0.663512136589711 1.2573118457927828,1.3171389066469428 1.9031411523890747 1.9603507089785492c 0.6458293065962969,0.6432118023316193 1.3029945053088523,1.2760086369376522 1.971140912426824 1.8980306093060615c 0.66814640711797,0.6220219723684224 1.3472740226413562,1.2332690824991823 2.0370150200081616 1.8333517614067252c 0.6897409973668054,0.6000826789075557 1.3900953765770314,1.1890009265918424 2.1006820797233576 1.7663895053262404c 0.7105867031463262,0.5773885787343981 1.4314057302287462,1.1432474885189077 2.1620634026474748 1.697221913545119c 0.7306576724187317,0.5539744250262242 1.4711539901737718,1.0960643652941628 2.221083095584222 1.6259296944712744c 0.7499291054104472,0.5298653291771117 1.5092909984763079,1.0475060472633964 2.2776681468991105 1.5525960929836737c 0.7683771484228025,0.5050900457202901 1.5457695522025598,0.9976294190745727 2.331748508845325 1.4773067881650785c 0.7859789566427652,0.4796773690904929 1.580544466148548,0.9464927339171961 2.383257176285448 1.4001497883585814c 0.8027127101368999,0.4536570544413852 1.6135726209049268,0.8941557984974653 2.4321302617265137 1.3212153236904762c 0.8185576408215871,0.4270595251930108 1.644813011696741,0.8406798315229782 2.4783070665875395 1.2405957362050397c 0.8334940548907984,0.3999159046820615 1.6742267937972413,0.7861274077162042 2.5217301486274044 1.1583853677550506c 0.8475033548301633,0.37225796003882056 1.7017773255840472,0.7305623770823061 2.562345385468091 1.0746804457985188c 0.8605680598840374,0.34411806871621275 1.7274302088982283,0.6740497891051528 2.600102034154343 0.9895789672511932c 0.8726718252561085,0.3155291781460405 1.7511533267541282,0.6166558140491556 2.6349527867011866 0.9031805805464839c 0.8837994599470718,0.28652476649732833 1.7729168783431826,0.5584476635888829 2.6668538215805704 0.8155864660532741c 0.8939369432373878,0.25713880246441717 1.792693411316059,0.499493510301658 2.695764851114737 0.726899215005674c 0.9030714397986714,0.22740570470404195 1.810457851317343,0.4398624062748331 2.7216491647428476 0.63722270709467c 0.9111913134254914,0.19736030081983688 1.826187528757809,0.37962420088871945 2.744473668138316 0.5466619868734787c 0.9182861393805003,0.16703778598475913 1.8398622028092027,0.3188494578853689 2.7642089181578213 0.4553231391254561c 0.9243467153486188,0.13647368124011314 1.8514640826171733,0.2576093718197037 2.7808291536139724 0.3633131633432849c 0.9293650709967861,0.10570379152358117 1.8609778457218298,0.19597568399117887 2.7943123218600876 0.27073984746412505c 0.9333344761382582,7.476416347297209e-2 1.8683906536897437,0.13402059795129262 2.8046401011924864 0.1777116410045089c 0.9362494475027426,4.369104305321628e-2 1.8736921649567295,7.181669468130238e-2 2.8117979190705435 8.433752773478963e-2c 0.9381057541138139,1.2520833053513194e-2 1.876874544887468,9.436847532453493e-3 2.8157749661653853 -9.273101968733316e-3c 0.9389004212779171,-1.8709949501238696e-2 1.8779324730601232,-5.3045862982656386e-2 2.816564206249044 -0.10301057896273699c 0.9386317331889211,-4.996471598010655e-2 1.8768631477845572,-0.11555823445890197 2.8141623819397674 -0.19676508323323694c 0.9372992341551843,-8.120684877438686e-2 1.8736662878699428,-0.17802702784433924 2.8085700163250955 -0.2904267717272199c 0.9349037284551656,-0.1123997438829066 1.8683441316507123,-0.24037905257876746 2.7997914104795574 -0.3838859059929168c 0.931447278828845,-0.14350685341414932 1.8609014332909495,-0.3025412515466131 2.7878346369050093 -0.4770329795129298c 0.9269332036140598,-0.1744917279663167 1.8513454563800362,-0.36444078576651234 2.772711528915096 -0.5697588446136491c 0.9213660725350593,-0.2053180588471368 1.8396859648391626,-0.42600511874124075 2.7544376659915604 -0.6619548388383125c 0.9147517011523716,-0.23594972009704587 1.8259352111529985,-0.48716210039703367 2.7330323551361 -0.7535129106769497c 0.9070971439830887,-0.266350810279916 1.8101079219486393,-0.5478400505397212 2.7085186082486534 -0.8443257445458049c 0.8984106863000273,-0.2964856940060578 1.7922212809345703,-0.6079678417583422 2.6809231155527926 -0.9342868849123479c 0.8887018346182355,-0.3263190431539798 1.7722949092202025,-0.667474981709681 2.650276215098609 -1.0232908594666248c 0.8779813058784067,-0.35581587775693085 1.7503508430332404,-0.7262916947150914 2.6166118583680675 -1.1112333012361477c 0.8662610153348401,-0.3849416065210564 1.7264135088496866,-0.7843490026049699 2.5799675720066757 -1.1980110695476973c 0.8535540631569889,-0.4136620669427145 1.7005096959561201,-0.8415788047442562 2.5403844157083064 -1.2835223697359726c 0.8398747197521605,-0.4419435649917294 1.6726685264573502,-0.8979139571736595 2.4979069362761344 -1.3676668715013205c 0.8252384098187839,-0.469752914327661 1.642921422751149,-0.9532883508010398 2.4525831178885946 -1.4503458258175321c 0.8096616951374453,-0.4970574750164794 1.611302072479997,-1.0076369885760723 2.4044643285887686 -1.5314621802894708c 0.7931622561087845,-0.5238251917133984 1.577846390983776,-1.060896061580641 2.353605263031108 -1.6109206928587827c 0.7757588720473321,-0.5500246312781674 1.5425924812670047,-1.1130030239672595 2.3000638815072563 -1.6886280437551615c 0.7574714002402775,-0.575625019787915 1.505580591501186,-1.1638966666746011 2.2439013452825627 -1.764492945586875c 0.7383207537813768,-0.6005962789122739 1.466853070083248,-1.2135171898501094 2.18518194827426 -1.8384262514641725c 0.7183288781909861,-0.6249090616140631 1.4264543182710872,-1.2618062739043279 2.1239730451052563 -1.910341061043018c 0.6975187268341948,-0.6485347871386772 1.3844307404224834,-1.3087071491258055 2.060344975572786 -1.9801528243803133c 0.6759142351502765,-0.6714456752545207 1.340830691862593,-1.3541646637764337 1.9943709855708645 -2.0477794434810006c 0.6535402937082715,-0.6936147797045539 1.2957044244124463,-1.3981253505917486 1.92612714451718 -2.1131413714227762c 0.6304227201047335,-0.7150160208310405 1.2491040296100258,-1.440537491605888 1.8556922593328131 -2.1761617089377756c 0.6065882297227874,-0.7356242173319008 1.201083379663096,-1.4813511812208289 1.7831477850342734 -2.2367662983295693c 0.5820644053711774,-0.7554151171087274 1.151698066173172,-1.5205183874372543 1.7085777320002418 -2.294883814602419c 0.5568796658270698,-0.7743654271651517 1.101005336679215,-1.557993011166967 1.6320685699857191 -2.350445853681221c 0.531063233306504,-0.7924528425142409 1.0490640290673667,-1.5937309435408942 1.553709128956192 -2.403387017593836c 0.5046450998888252,-0.809656074052929 0.9959345039055869,-1.62769012113216 1.473590496831195 -2.453644996495749c 0.4776559929256082,-0.8259548753636021 0.9416785747600628,-1.6598305790115886 1.3918059142247994 -2.5011606474118278c 0.4501273394647367,-0.8413300684002393 0.8863594365597555,-1.6901145015527443 1.3084506662838484 -2.5458780695728884c 0.4220912297240931,-0.8557635680201441 0.8300415920773123,-1.7185062709079402 1.2236219717290084 -2.587744676228538c 0.39358037965169623,-0.8692384053206108 0.7727907766018954,-1.7449725130740494 1.137418869212322 -2.6267112628169835c 0.36462809261045237,-0.8817387497429341 0.714673880881184,-1.769482141475351 1.049942101112105 -2.662732071380859c 0.3352682202309211,-0.8932499299055212 0.6557588724220837,-1.792006397984134 0.9612939948911767 -2.695764851114724c 0.3055351224690931,-0.9037584531305899 0.5961147152161426,-1.8125188913131698 0.871578342153475 -2.725770914942546c 0.27546362693733245,-0.9132520236293825 0.5358112880649477,-1.8309956327055679 0.7809002755393165 -2.7527151920223507c 0.24508898747434285,-0.9217195593167697 0.474919301295491,-1.8474150688741435 0.6893661436032325 -2.7765662760838863c 0.21444684230774147,-0.9291512072097425 0.4135102131021022,-1.8617581120718538 0.5970833838286664 -2.7972964695089932c 0.18357317072659018,-0.935538357437146 0.351656141385332,-1.8740081674493072 0.5041603939338999 -2.8148818230756514c 0.1525042525485938,-0.9408736556263444 0.2894297869869876,-1.884151156866846 0.41070640163059935 -2.8293021712842377c 0.1212766146436117,-0.9451510144173981 0.22690430949244125,-1.8921755420116928 0.31683133300055744 -2.8405411632032145c 8.992702350814215e-2,-0.9483656211915349 0.16415337567551908,-1.8980723359803038 0.22264567965840437 -2.8485862887695896c 5.8492303982833393e-2,-0.9505139527892923 0.10125055978114919,-1.9018351435791145 0.12826036487245207 -2.853428900491824c 2.7009805091328828e-2,-0.951593756912703 3.827115947567069e-2,-1.9034600799482932 3.3786608817259006e-2 -2.855064230509565c -4.484550658463567e-3,-0.9516041505612584 -2.4715006359706616e-2,-1.9029461286481848 -6.066420686556448e-2 -2.853491402971409c -3.594920050588381e-2,-0.9505452743232243 -8.761714581643432e-2,-1.9002938448827336 -0.15498067502085586 -2.848713441704256c -6.736352920442155e-2,-0.9484195968215255 -0.15042264230276603,-1.895510219905064 -0.24905149926827985 -2.8407372731473277c -9.862885696551384e-2,-0.9452270532422636 -0.21282745779819706,-1.8885905366432523 -0.34276563044761443 -2.829573724542931c -0.12993817264939142,-0.9409831878996722 -0.275615917115517,-1.8795860802980375 -0.4360124030390272 -2.8152375173752087c -0.16039648592351025,-0.9356514370771714 -0.3355117133043792,-1.8683514188331454 -0.5286816713813555 -2.7977472560612036c -0.1931699580769763,-0.929395837228058 -0.404394646850008,-1.855487529928198 -0.6206639455074847 -2.7771254119036692c -0.21626929865750266,-0.9216378819754709 -0.4375832071993984,-1.8388219532262726 -0.7118505264203063 -2.7533983023274353c -0.27426731922090786,-0.9145763491011641 -0.6014880491208279,-1.826544976052689 -0.8021336406323449 -2.7265960654210324c -0.2006455915115689,-0.9000510893683425 -0.2747160446347608,-1.7881846411535036 -0.21160698089986096 -2.6730135049387838c 6.310906373489984e-2,-0.8848288637852791 0.2633976443278914,-1.7663530395706752 0.40733915102596635 -2.6515703777267907c 0.14394150669802305,-0.8852173381561157 0.2315359395011035,-1.7741278386829504 0.3145525393674227 -2.664171044057138Z"/>
  </g>
  <defs>
  </defs>
  <g stroke-linejoin="miter" stroke-opacity="1.0" fill-opacity="1.0" stroke="rgb(0,0,0)" stroke-width="0.0" fill="rgb(255,0,0)" stroke-linecap="butt" stroke-miterlimit="10.0">
    <path d="M 68.55693079248813,90.37713070456533 c 0.0,-2.372195611133112 -1.923044501616506,-4.295240112749618 -4.295240112749617 -4.295240112749618c -2.372195611133112,-1.4525508810627825e-16 -4.295240112749618,1.9230445016165056 -4.295240112749618 4.295240112749617c -2.905101762125565e-16,2.372195611133112 1.9230445016165056,4.295240112749618 4.295240112749617 4.295240112749618c 2.372195611133112,4.3576526431883477e-16 4.295240112749618,-1.9230445016165052 4.295240112749617 -4.295240112749617Z"/>
  </g>
</svg>