<?xml version="1.0" encoding="UTF-8"?>
<!DOCTYPE svg PUBLIC "-//W3C//DTD SVG 1.1//EN"
    "http://www.w3.org/Graphics/SVG/1.1/DTD/svg11.dtd">
<svg xmlns="http://www.w3.org/2000/svg" height="500.0" stroke-opacity="1" viewBox="0 0 500 500" font-size="1" width="500.0" xmlns:xlink="http://www.w3.org/1999/xlink" stroke="rgb(0,0,0)" version="1.1">
  <g>
    <defs>
    </defs>
    <g stroke-linejoin="miter" stroke-opacity="1.0" fill-opacity="0.0" stroke="rgb(139,0,0)" stroke-width="2.0000000000000004" fill="rgb(0,0,0)" stroke-linecap="butt" stroke-miterlimit="10.0">
      <path d="M 3.18471337579615,3.18471337579615 v 15.923566878980893 h 15.923566878980893 v -15.923566878980893 l 15.923566878980893,-9.75037260467638e-16 l 15.923566878980893,-9.75037260467638e-16 l 9.75037260467638e-16,15.923566878980893 l -15.923566878980893,9.75037260467638e-16 l 9.75037260467638e-16,15.923566878980893 l 15.923566878980893,-9.75037260467638e-16 l 9.75037260467638e-16,15.923566878980893 l -15.923566878980893,9.75037260467638e-16 l -15.923566878980893,9.75037260467638e-16 v -15.923566878980893 h -15.923566878980893 v 15.923566878980893 v 15.923566878980893 l 15.923566878980893,-9.75037260467638e-16 l 9.75037260467638e-16,15.923566878980893 l -15.923566878980893,9.75037260467638e-16 v 15.923566878980893 v 15.923566878980893 h 15.923566878980893 v -15.923566878980893 h 15.923566878980893 v 15.923566878980893 h 15.923566878980893 v -15.923566878980893 v -15.923566878980893 l -15.923566878980893,9.75037260467638e-16 l -9.75037260467638e-16,-15.923566878980893 l 15.923566878980893,-9.75037260467638e-16 h 15.923566878980893 l 15.923566878980893,-9.75037260467638e-16 l 9.75037260467638e-16,15.923566878980893 l -15.923566878980893,9.75037260467638e-16 v 15.923566878980893 v 15.923566878980893 h 15.923566878980893 v -15.923566878980893 h 15.923566878980893 v 15.923566878980893 h 15.923566878980893 v -15.923566878980893 v -15.923566878980893 l -15.923566878980893,9.75037260467638e-16 l -9.75037260467638e-16,-15.923566878980893 l 15.923566878980893,-9.75037260467638e-16 v -15.923566878980893 v -15.923566878980893 h -15.923566878980893 v 15.923566878980893 l -15.923566878980893,9.75037260467638e-16 l -15.923566878980893,9.75037260467638e-16 l -9.75037260467638e-16,-15.923566878980893 l 15.923566878980893,-9.75037260467638e-16 l -9.75037260467638e-16,-15.923566878980893 l -15.923566878980893,9.75037260467638e-16 l -9.75037260467638e-16,-15.923566878980893 l 15.923566878980893,-9.75037260467638e-16 l 15.923566878980893,-9.75037260467638e-16 v 15.923566878980893 h 15.923566878980893 v -15.923566878980893 l 15.923566878980893,-9.75037260467638e-16 l 15.923566878980893,-9.75037260467638e-16 l 9.75037260467638e-16,15.923566878980893 l -15.923566878980893,9.75037260467638e-16 v 15.923566878980893 v 15.923566878980893 h 15.923566878980893 v -15.923566878980893 h 15.923566878980893 v 15.923566878980893 h 15.923566878980893 v -15.923566878980893 v -15.923566878980893 l -15.923566878980893,9.75037260467638e-16 l -9.75037260467638e-16,-15.923566878980893 l 15.923566878980893,-9.75037260467638e-16 l 15.923566878980893,-9.75037260467638e-16 v 15.923566878980893 h 15.923566878980893 v -15.923566878980893 l 15.923566878980893,-9.75037260467638e-16 l 15.923566878980893,-9.75037260467638e-16 l 9.75037260467638e-16,15.923566878980893 l -15.923566878980893,9.75037260467638e-16 l 9.75037260467638e-16,15.923566878980893 l 15.923566878980893,-9.75037260467638e-16 l 9.75037260467638e-16,15.923566878980893 l -15.923566878980893,9.75037260467638e-16 l -15.923566878980893,9.75037260467638e-16 v -15.923566878980893 h -15.923566878980893 v 15.923566878980893 l 9.75037260467638e-16,15.923566878980893 v 15.923566878980893 h 15.923566878980893 v -15.923566878980893 l 15.923566878980893,-9.75037260467638e-16 l 15.923566878980893,-9.75037260467638e-16 l 9.75037260467638e-16,15.923566878980893 l -15.923566878980893,9.75037260467638e-16 l 9.75037260467638e-16,15.923566878980893 l 15.923566878980893,-9.75037260467638e-16 l 9.75037260467638e-16,15.923566878980893 l -15.923566878980893,9.75037260467638e-16 l -15.923566878980893,9.75037260467638e-16 v -15.923566878980893 h -15.923566878980893 v 15.923566878980893 l -15.923566878980893,9.75037260467638e-16 l -15.923566878980893,9.75037260467638e-16 l -9.75037260467638e-16,-15.923566878980893 l 15.923566878980893,-9.75037260467638e-16 v -15.923566878980893 v -15.923566878980893 h -15.923566878980893 v 15.923566878980893 h -15.923566878980893 v -15.923566878980893 h -15.923566878980893 v 15.923566878980893 v 15.923566878980893 l 15.923566878980893,-9.75037260467638e-16 l 9.75037260467638e-16,15.923566878980893 l -15.923566878980893,9.75037260467638e-16 l 9.75037260467638e-16,15.923566878980893 l 15.923566878980893,-9.75037260467638e-16 l 9.75037260467638e-16,15.923566878980893 l -15.923566878980893,9.75037260467638e-16 v 15.923566878980893 v 15.923566878980893 h 15.923566878980893 v -15.923566878980893 h 15.923566878980893 v 15.923566878980893 h 15.923566878980893 v -15.923566878980893 v -15.923566878980893 l -15.923566878980893,9.75037260467638e-16 l -9.75037260467638e-16,-15.923566878980893 l 15.923566878980893,-9.75037260467638e-16 l 15.923566878980893,-9.75037260467638e-16 v 15.923566878980893 h 15.923566878980893 v -15.923566878980893 l 15.923566878980893,-9.75037260467638e-16 l 15.923566878980893,-9.75037260467638e-16 l 9.75037260467638e-16,15.923566878980893 l -15.923566878980893,9.75037260467638e-16 l 9.75037260467638e-16,15.923566878980893 l 15.923566878980893,-9.75037260467638e-16 l 9.75037260467638e-16,15.923566878980893 l -15.923566878980893,9.75037260467638e-16 l -15.923566878980893,9.75037260467638e-16 v -15.923566878980893 h -15.923566878980893 v 15.923566878980893 l 9.75037260467638e-16,15.923566878980893 v 15.923566878980893 h 15.923566878980893 v -15.923566878980893 l 15.923566878980893,-9.75037260467638e-16 l 15.923566878980893,-9.75037260467638e-16 l 9.75037260467638e-16,15.923566878980893 l -15.923566878980893,9.75037260467638e-16 l 9.75037260467638e-16,15.923566878980893 l 15.923566878980893,-9.75037260467638e-16 l 9.75037260467638e-16,15.923566878980893 l -15.923566878980893,9.75037260467638e-16 l -15.923566878980893,9.75037260467638e-16 v -15.923566878980893 h -15.923566878980893 v 15.923566878980893 l -15.923566878980893,9.75037260467638e-16 l -15.923566878980893,9.75037260467638e-16 l -9.75037260467638e-16,-15.923566878980893 l 15.923566878980893,-9.75037260467638e-16 v -15.923566878980893 v -15.923566878980893 h -15.923566878980893 v 15.923566878980893 h -15.923566878980893 v -15.923566878980893 h -15.923566878980893 v 15.923566878980893 v 15.923566878980893 l 15.923566878980893,-9.75037260467638e-16 l 9.75037260467638e-16,15.923566878980893 l -15.923566878980893,9.75037260467638e-16 l -15.923566878980893,9.75037260467638e-16 v -15.923566878980893 h -15.923566878980893 v 15.923566878980893 l -15.923566878980893,9.75037260467638e-16 l -15.923566878980893,9.75037260467638e-16 l -9.75037260467638e-16,-15.923566878980893 l 15.923566878980893,-9.75037260467638e-16 l -9.75037260467638e-16,-15.923566878980893 l -15.923566878980893,9.75037260467638e-16 l -9.75037260467638e-16,-15.923566878980893 l 15.923566878980893,-9.75037260467638e-16 l 15.923566878980893,-9.75037260467638e-16 v 15.923566878980893 h 15.923566878980893 v -15.923566878980893 v -15.923566878980893 l -15.923566878980893,9.75037260467638e-16 l -9.75037260467638e-16,-15.923566878980893 l 15.923566878980893,-9.75037260467638e-16 v -15.923566878980893 v -15.923566878980893 h -15.923566878980893 v 15.923566878980893 h -15.923566878980893 v -15.923566878980893 h -15.923566878980893 v 15.923566878980893 v 15.923566878980893 l 15.923566878980893,-9.75037260467638e-16 l 9.75037260467638e-16,15.923566878980893 l -15.923566878980893,9.75037260467638e-16 h -15.923566878980893 l -15.923566878980893,9.75037260467638e-16 l -9.75037260467638e-16,-15.923566878980893 l 15.923566878980893,-9.75037260467638e-16 v -15.923566878980893 v -15.923566878980893 h -15.923566878980893 v 15.923566878980893 h -15.923566878980893 v -15.923566878980893 h -15.923566878980893 v 15.923566878980893 v 15.923566878980893 l 15.923566878980893,-9.75037260467638e-16 l 9.75037260467638e-16,15.923566878980893 l -15.923566878980893,9.75037260467638e-16 v 15.923566878980893 v 15.923566878980893 h 15.923566878980893 v -15.923566878980893 l 15.923566878980893,-9.75037260467638e-16 l 15.923566878980893,-9.75037260467638e-16 l 9.75037260467638e-16,15.923566878980893 l -15.923566878980893,9.75037260467638e-16 l 9.75037260467638e-16,15.923566878980893 l 15.923566878980893,-9.75037260467638e-16 l 9.75037260467638e-16,15.923566878980893 l -15.923566878980893,9.75037260467638e-16 l -15.923566878980893,9.75037260467638e-16 v -15.923566878980893 h -15.923566878980893 v 15.923566878980893 v 15.923566878980893 l 15.923566878980893,-9.75037260467638e-16 l 9.75037260467638e-16,15.923566878980893 l -15.923566878980893,9.75037260467638e-16 v 15.923566878980893 v 15.923566878980893 h 15.923566878980893 v -15.923566878980893 h 15.923566878980893 v 15.923566878980893 h 15.923566878980893 v -15.923566878980893 v -15.923566878980893 l -15.923566878980893,9.75037260467638e-16 l -9.75037260467638e-16,-15.923566878980893 l 15.923566878980893,-9.75037260467638e-16 l 15.923566878980893,-9.75037260467638e-16 v 15.923566878980893 h 15.923566878980893 v -15.923566878980893 l 15.923566878980893,-9.75037260467638e-16 l 15.923566878980893,-9.75037260467638e-16 l 9.75037260467638e-16,15.923566878980893 l -15.923566878980893,9.75037260467638e-16 l 9.75037260467638e-16,15.923566878980893 l 15.923566878980893,-9.75037260467638e-16 l 9.75037260467638e-16,15.923566878980893 l -15.923566878980893,9.75037260467638e-16 l -15.923566878980893,9.75037260467638e-16 v -15.923566878980893 h -15.923566878980893 v 15.923566878980893 l 9.75037260467638e-16,15.923566878980893 v 15.923566878980893 h 15.923566878980893 v -15.923566878980893 l 15.923566878980893,-9.75037260467638e-16 l 15.923566878980893,-9.75037260467638e-16 l 9.75037260467638e-16,15.923566878980893 l -15.923566878980893,9.75037260467638e-16 l 9.75037260467638e-16,15.923566878980893 l 15.923566878980893,-9.75037260467638e-16 l 9.75037260467638e-16,15.923566878980893 l -15.923566878980893,9.75037260467638e-16 l -15.923566878980893,9.75037260467638e-16 v -15.923566878980893 h -15.923566878980893 v 15.923566878980893 l -15.923566878980893,9.75037260467638e-16 l -15.923566878980893,9.75037260467638e-16 l -9.75037260467638e-16,-15.923566878980893 l 15.923566878980893,-9.75037260467638e-16 v -15.923566878980893 v -15.923566878980893 h -15.923566878980893 v 15.923566878980893 h -15.923566878980893 v -15.923566878980893 h -15.923566878980893 v 15.923566878980893 v 15.923566878980893 l 15.923566878980893,-9.75037260467638e-16 l 9.75037260467638e-16,15.923566878980893 l -15.923566878980893,9.75037260467638e-16 v 15.923566878980893 v 15.923566878980893 h 15.923566878980893 v -15.923566878980893 l 15.923566878980893,-9.75037260467638e-16 l 15.923566878980893,-9.75037260467638e-16 l 9.75037260467638e-16,15.923566878980893 l -15.923566878980893,9.75037260467638e-16 l 9.75037260467638e-16,15.923566878980893 l 15.923566878980893,-9.75037260467638e-16 l 9.75037260467638e-16,15.923566878980893 l -15.923566878980893,9.75037260467638e-16 l -15.923566878980893,9.75037260467638e-16 v -15.923566878980893 h -15.923566878980893 v 15.923566878980893 v 15.923566878980893 l 15.923566878980893,-9.75037260467638e-16 l 9.75037260467638e-16,15.923566878980893 l -15.923566878980893,9.75037260467638e-16 v 15.923566878980893 v 15.923566878980893 h 15.923566878980893 v -15.923566878980893 h 15.923566878980893 v 15.923566878980893 h 15.923566878980893 v -15.923566878980893 v -15.923566878980893 l -15.923566878980893,9.75037260467638e-16 l -9.75037260467638e-16,-15.923566878980893 l 15.923566878980893,-9.75037260467638e-16 h 15.923566878980893 l 15.923566878980893,-9.75037260467638e-16 l 9.75037260467638e-16,15.923566878980893 l -15.923566878980893,9.75037260467638e-16 v 15.923566878980893 v 15.923566878980893 h 15.923566878980893 v -15.923566878980893 h 15.923566878980893 v 15.923566878980893 h 15.923566878980893 v -15.923566878980893 v -15.923566878980893 l -15.923566878980893,9.75037260467638e-16 l -9.75037260467638e-16,-15.923566878980893 l 15.923566878980893,-9.75037260467638e-16 v -15.923566878980893 v -15.923566878980893 h -15.923566878980893 v 15.923566878980893 l -15.923566878980893,9.75037260467638e-16 l -15.923566878980893,9.75037260467638e-16 l -9.75037260467638e-16,-15.923566878980893 l 15.923566878980893,-9.75037260467638e-16 l -9.75037260467638e-16,-15.923566878980893 l -15.923566878980893,9.75037260467638e-16 l -9.75037260467638e-16,-15.923566878980893 l 15.923566878980893,-9.75037260467638e-16 l 15.923566878980893,-9.75037260467638e-16 v 15.923566878980893 h 15.923566878980893 v -15.923566878980893 h 15.923566878980893 v 15.923566878980893 h 15.923566878980893 v -15.923566878980893 l 15.923566878980893,-9.75037260467638e-16 l 15.923566878980893,-9.75037260467638e-16 l 9.75037260467638e-16,15.923566878980893 l -15.923566878980893,9.75037260467638e-16 l 9.75037260467638e-16,15.923566878980893 l 15.923566878980893,-9.75037260467638e-16 l 9.75037260467638e-16,15.923566878980893 l -15.923566878980893,9.75037260467638e-16 l -15.923566878980893,9.75037260467638e-16 v -15.923566878980893 h -15.923566878980893 v 15.923566878980893 v 15.923566878980893 l 15.923566878980893,-9.75037260467638e-16 l 9.75037260467638e-16,15.923566878980893 l -15.923566878980893,9.75037260467638e-16 v 15.923566878980893 v 15.923566878980893 h 15.923566878980893 v -15.923566878980893 h 15.923566878980893 v 15.923566878980893 h 15.923566878980893 v -15.923566878980893 v -15.923566878980893 l -15.923566878980893,9.75037260467638e-16 l -9.75037260467638e-16,-15.923566878980893 l 15.923566878980893,-9.75037260467638e-16 h 15.923566878980893 l 15.923566878980893,-9.75037260467638e-16 l 9.75037260467638e-16,15.923566878980893 l -15.923566878980893,9.75037260467638e-16 v 15.923566878980893 v 15.923566878980893 h 15.923566878980893 v -15.923566878980893 h 15.923566878980893 v 15.923566878980893 h 15.923566878980893 v -15.923566878980893 v -15.923566878980893 l -15.923566878980893,9.75037260467638e-16 l -9.75037260467638e-16,-15.923566878980893 l 15.923566878980893,-9.75037260467638e-16 v -15.923566878980893 v -15.923566878980893 h -15.923566878980893 v 15.923566878980893 l -15.923566878980893,9.75037260467638e-16 l -15.923566878980893,9.75037260467638e-16 l -9.75037260467638e-16,-15.923566878980893 l 15.923566878980893,-9.75037260467638e-16 l -9.75037260467638e-16,-15.923566878980893 l -15.923566878980893,9.75037260467638e-16 l -9.75037260467638e-16,-15.923566878980893 l 15.923566878980893,-9.75037260467638e-16 l 15.923566878980893,-9.75037260467638e-16 v 15.923566878980893 h 15.923566878980893 v -15.923566878980893 v -15.923566878980893 l -15.923566878980893,9.75037260467638e-16 l -9.75037260467638e-16,-15.923566878980893 l 15.923566878980893,-9.75037260467638e-16 v -15.923566878980893 v -15.923566878980893 h -15.923566878980893 v 15.923566878980893 h -15.923566878980893 v -15.923566878980893 h -15.923566878980893 v 15.923566878980893 v 15.923566878980893 l 15.923566878980893,-9.75037260467638e-16 l 9.75037260467638e-16,15.923566878980893 l -15.923566878980893,9.75037260467638e-16 l -15.923566878980893,9.75037260467638e-16 v -15.923566878980893 h -15.923566878980893 v 15.923566878980893 l -15.923566878980893,9.75037260467638e-16 l -15.923566878980893,9.75037260467638e-16 l -9.75037260467638e-16,-15.923566878980893 l 15.923566878980893,-9.75037260467638e-16 l -9.75037260467638e-16,-15.923566878980893 l -15.923566878980893,9.75037260467638e-16 l -9.75037260467638e-16,-15.923566878980893 l 15.923566878980893,-9.75037260467638e-16 l 15.923566878980893,-9.75037260467638e-16 v 15.923566878980893 h 15.923566878980893 v -15.923566878980893 l -9.75037260467638e-16,-15.923566878980893 v -15.923566878980893 h -15.923566878980893 v 15.923566878980893 l -15.923566878980893,9.75037260467638e-16 l -15.923566878980893,9.75037260467638e-16 l -9.75037260467638e-16,-15.923566878980893 l 15.923566878980893,-9.75037260467638e-16 l -9.75037260467638e-16,-15.923566878980893 l -15.923566878980893,9.75037260467638e-16 l -9.75037260467638e-16,-15.923566878980893 l 15.923566878980893,-9.75037260467638e-16 l 15.923566878980893,-9.75037260467638e-16 v 15.923566878980893 h 15.923566878980893 v -15.923566878980893 l 15.923566878980893,-9.75037260467638e-16 l 15.923566878980893,-9.75037260467638e-16 l 9.75037260467638e-16,15.923566878980893 l -15.923566878980893,9.75037260467638e-16 v 15.923566878980893 v 15.923566878980893 h 15.923566878980893 v -15.923566878980893 h 15.923566878980893 v 15.923566878980893 h 15.923566878980893 v -15.923566878980893 v -15.923566878980893 l -15.923566878980893,9.75037260467638e-16 l -9.75037260467638e-16,-15.923566878980893 l 15.923566878980893,-9.75037260467638e-16 h 15.923566878980893 l 15.923566878980893,-9.75037260467638e-16 l 9.75037260467638e-16,15.923566878980893 l -15.923566878980893,9.75037260467638e-16 v 15.923566878980893 v 15.923566878980893 h 15.923566878980893 v -15.923566878980893 h 15.923566878980893 v 15.923566878980893 h 15.923566878980893 v -15.923566878980893 v -15.923566878980893 l -15.923566878980893,9.75037260467638e-16 l -9.75037260467638e-16,-15.923566878980893 l 15.923566878980893,-9.75037260467638e-16 l 15.923566878980893,-9.75037260467638e-16 v 15.923566878980893 h 15.923566878980893 v -15.923566878980893 l 15.923566878980893,-9.75037260467638e-16 l 15.923566878980893,-9.75037260467638e-16 l 9.75037260467638e-16,15.923566878980893 l -15.923566878980893,9.75037260467638e-16 l 9.75037260467638e-16,15.923566878980893 l 15.923566878980893,-9.75037260467638e-16 l 9.75037260467638e-16,15.923566878980893 l -15.923566878980893,9.75037260467638e-16 l -15.923566878980893,9.75037260467638e-16 v -15.923566878980893 h -15.923566878980893 v 15.923566878980893 l 9.75037260467638e-16,15.923566878980893 v 15.923566878980893 h 15.923566878980893 v -15.923566878980893 l 15.923566878980893,-9.75037260467638e-16 l 15.923566878980893,-9.75037260467638e-16 l 9.75037260467638e-16,15.923566878980893 l -15.923566878980893,9.75037260467638e-16 l 9.75037260467638e-16,15.923566878980893 l 15.923566878980893,-9.75037260467638e-16 l 9.75037260467638e-16,15.923566878980893 l -15.923566878980893,9.75037260467638e-16 l -15.923566878980893,9.75037260467638e-16 v -15.923566878980893 h -15.923566878980893 v 15.923566878980893 l -15.923566878980893,9.75037260467638e-16 l -15.923566878980893,9.75037260467638e-16 l -9.75037260467638e-16,-15.923566878980893 l 15.923566878980893,-9.75037260467638e-16 v -15.923566878980893 v -15.923566878980893 h -15.923566878980893 v 15.923566878980893 h -15.923566878980893 v -15.923566878980893 h -15.923566878980893 v 15.923566878980893 v 15.923566878980893 l 15.923566878980893,-9.75037260467638e-16 l 9.75037260467638e-16,15.923566878980893 l -15.923566878980893,9.75037260467638e-16 v 15.923566878980893 v 15.923566878980893 h 15.923566878980893 v -15.923566878980893 l 15.923566878980893,-9.75037260467638e-16 l 15.923566878980893,-9.75037260467638e-16 l 9.75037260467638e-16,15.923566878980893 l -15.923566878980893,9.75037260467638e-16 l 9.75037260467638e-16,15.923566878980893 l 15.923566878980893,-9.75037260467638e-16 l 9.75037260467638e-16,15.923566878980893 l -15.923566878980893,9.75037260467638e-16 l -15.923566878980893,9.75037260467638e-16 v -15.923566878980893 h -15.923566878980893 v 15.923566878980893 v 15.923566878980893 l 15.923566878980893,-9.75037260467638e-16 l 9.75037260467638e-16,15.923566878980893 l -15.923566878980893,9.75037260467638e-16 v 15.923566878980893 v 15.923566878980893 h 15.923566878980893 v -15.923566878980893 h 15.923566878980893 v 15.923566878980893 h 15.923566878980893 v -15.923566878980893 v -15.923566878980893 l -15.923566878980893,9.75037260467638e-16 l -9.75037260467638e-16,-15.923566878980893 l 15.923566878980893,-9.75037260467638e-16 h 15.923566878980893 l 15.923566878980893,-9.75037260467638e-16 l 9.75037260467638e-16,15.923566878980893 l -15.923566878980893,9.75037260467638e-16 v 15.923566878980893 v 15.923566878980893 h 15.923566878980893 v -15.923566878980893 h 15.923566878980893 v 15.923566878980893 h 15.923566878980893 v -15.923566878980893 v -15.923566878980893 l -15.923566878980893,9.75037260467638e-16 l -9.75037260467638e-16,-15.923566878980893 l 15.923566878980893,-9.75037260467638e-16 v -15.923566878980893 v -15.923566878980893 h -15.923566878980893 v 15.923566878980893 l -15.923566878980893,9.75037260467638e-16 l -15.923566878980893,9.75037260467638e-16 l -9.75037260467638e-16,-15.923566878980893 l 15.923566878980893,-9.75037260467638e-16 l -9.75037260467638e-16,-15.923566878980893 l -15.923566878980893,9.75037260467638e-16 l -9.75037260467638e-16,-15.923566878980893 l 15.923566878980893,-9.75037260467638e-16 l 15.923566878980893,-9.75037260467638e-16 v 15.923566878980893 h 15.923566878980893 v -15.923566878980893 h 15.923566878980893 v 15.923566878980893 h 15.923566878980893 v -15.923566878980893 l 15.923566878980893,-9.75037260467638e-16 l 15.923566878980893,-9.75037260467638e-16 l 9.75037260467638e-16,15.923566878980893 l -15.923566878980893,9.75037260467638e-16 l 9.75037260467638e-16,15.923566878980893 l 15.923566878980893,-9.75037260467638e-16 l 9.75037260467638e-16,15.923566878980893 l -15.923566878980893,9.75037260467638e-16 l -15.923566878980893,9.75037260467638e-16 v -15.923566878980893 h -15.923566878980893 v 15.923566878980893 v 15.923566878980893 l 15.923566878980893,-9.75037260467638e-16 l 9.75037260467638e-16,15.923566878980893 l -15.923566878980893,9.75037260467638e-16 v 15.923566878980893 v 15.923566878980893 h 15.923566878980893 v -15.923566878980893 h 15.923566878980893 v 15.923566878980893 h 15.923566878980893 v -15.923566878980893 v -15.923566878980893 l -15.923566878980893,9.75037260467638e-16 l -9.75037260467638e-16,-15.923566878980893 l 15.923566878980893,-9.75037260467638e-16 h 15.923566878980893 l 15.923566878980893,-9.75037260467638e-16 l 9.75037260467638e-16,15.923566878980893 l -15.923566878980893,9.75037260467638e-16 v 15.923566878980893 v 15.923566878980893 h 15.923566878980893 v -15.923566878980893 h 15.923566878980893 v 15.923566878980893 h 15.923566878980893 v -15.923566878980893 v -15.923566878980893 l -15.923566878980893,9.75037260467638e-16 l -9.75037260467638e-16,-15.923566878980893 l 15.923566878980893,-9.75037260467638e-16 v -15.923566878980893 v -15.923566878980893 h -15.923566878980893 v 15.923566878980893 l -15.923566878980893,9.75037260467638e-16 l -15.923566878980893,9.75037260467638e-16 l -9.75037260467638e-16,-15.923566878980893 l 15.923566878980893,-9.75037260467638e-16 l -9.75037260467638e-16,-15.923566878980893 l -15.923566878980893,9.75037260467638e-16 l -9.75037260467638e-16,-15.923566878980893 l 15.923566878980893,-9.75037260467638e-16 l 15.923566878980893,-9.75037260467638e-16 v 15.923566878980893 h 15.923566878980893 v -15.923566878980893 v -15.923566878980893 l -15.923566878980893,9.75037260467638e-16 l -9.75037260467638e-16,-15.923566878980893 l 15.923566878980893,-9.75037260467638e-16 v -15.923566878980893 v -15.923566878980893 h -15.923566878980893 v 15.923566878980893 h -15.923566878980893 v -15.923566878980893 h -15.923566878980893 v 15.923566878980893 v 15.923566878980893 l 15.923566878980893,-9.75037260467638e-16 l 9.75037260467638e-16,15.923566878980893 l -15.923566878980893,9.75037260467638e-16 l -15.923566878980893,9.75037260467638e-16 v -15.923566878980893 h -15.923566878980893 v 15.923566878980893 l -15.923566878980893,9.75037260467638e-16 l -15.923566878980893,9.75037260467638e-16 l -9.75037260467638e-16,-15.923566878980893 l 15.923566878980893,-9.75037260467638e-16 l -9.75037260467638e-16,-15.923566878980893 l -15.923566878980893,9.75037260467638e-16 l -9.75037260467638e-16,-15.923566878980893 l 15.923566878980893,-9.75037260467638e-16 l 15.923566878980893,-9.75037260467638e-16 v 15.923566878980893 h 15.923566878980893 v -15.923566878980893 l -9.75037260467638e-16,-15.923566878980893 v -15.923566878980893 h -15.923566878980893 v 15.923566878980893 l -15.923566878980893,9.75037260467638e-16 l -15.923566878980893,9.75037260467638e-16 l -9.75037260467638e-16,-15.923566878980893 l 15.923566878980893,-9.75037260467638e-16 l -9.75037260467638e-16,-15.923566878980893 l -15.923566878980893,9.75037260467638e-16 l -9.75037260467638e-16,-15.923566878980893 l 15.923566878980893,-9.75037260467638e-16 l 15.923566878980893,-9.75037260467638e-16 v 15.923566878980893 h 15.923566878980893 v -15.923566878980893 l 15.923566878980893,-9.75037260467638e-16 l 15.923566878980893,-9.75037260467638e-16 l 9.75037260467638e-16,15.923566878980893 l -15.923566878980893,9.75037260467638e-16 v 15.923566878980893 v 15.923566878980893 h 15.923566878980893 v -15.923566878980893 h 15.923566878980893 v 15.923566878980893 h 15.923566878980893 v -15.923566878980893 v -15.923566878980893 l -15.923566878980893,9.75037260467638e-16 l -9.75037260467638e-16,-15.923566878980893 l 15.923566878980893,-9.75037260467638e-16 v -15.923566878980893 v -15.923566878980893 h -15.923566878980893 v 15.923566878980893 l -15.923566878980893,9.75037260467638e-16 l -15.923566878980893,9.75037260467638e-16 l -9.75037260467638e-16,-15.923566878980893 l 15.923566878980893,-9.75037260467638e-16 l -9.75037260467638e-16,-15.923566878980893 l -15.923566878980893,9.75037260467638e-16 l -9.75037260467638e-16,-15.923566878980893 l 15.923566878980893,-9.75037260467638e-16 l 15.923566878980893,-9.75037260467638e-16 v 15.923566878980893 h 15.923566878980893 v -15.923566878980893 v -15.923566878980893 l -15.923566878980893,9.75037260467638e-16 l -9.75037260467638e-16,-15.923566878980893 l 15.923566878980893,-9.75037260467638e-16 v -15.923566878980893 v -15.923566878980893 h -15.923566878980893 v 15.923566878980893 h -15.923566878980893 v -15.923566878980893 h -15.923566878980893 v 15.923566878980893 v 15.923566878980893 l 15.923566878980893,-9.75037260467638e-16 l 9.75037260467638e-16,15.923566878980893 l -15.923566878980893,9.75037260467638e-16 h -15.923566878980893 l -15.923566878980893,9.75037260467638e-16 l -9.75037260467638e-16,-15.923566878980893 l 15.923566878980893,-9.75037260467638e-16 v -15.923566878980893 v -15.923566878980893 h -15.923566878980893 v 15.923566878980893 h -15.923566878980893 v -15.923566878980893 h -15.923566878980893 v 15.923566878980893 v 15.923566878980893 l 15.923566878980893,-9.75037260467638e-16 l 9.75037260467638e-16,15.923566878980893 l -15.923566878980893,9.75037260467638e-16 v 15.923566878980893 v 15.923566878980893 h 15.923566878980893 v -15.923566878980893 l 15.923566878980893,-9.75037260467638e-16 l 15.923566878980893,-9.75037260467638e-16 l 9.75037260467638e-16,15.923566878980893 l -15.923566878980893,9.75037260467638e-16 l 9.75037260467638e-16,15.923566878980893 l 15.923566878980893,-9.75037260467638e-16 l 9.75037260467638e-16,15.923566878980893 l -15.923566878980893,9.75037260467638e-16 l -15.923566878980893,9.75037260467638e-16 v -15.923566878980893 h -15.923566878980893 v 15.923566878980893 l -15.923566878980893,9.75037260467638e-16 l -15.923566878980893,9.75037260467638e-16 l -9.75037260467638e-16,-15.923566878980893 l 15.923566878980893,-9.75037260467638e-16 v -15.923566878980893 v -15.923566878980893 h -15.923566878980893 v 15.923566878980893 h -15.923566878980893 v -15.923566878980893 h -15.923566878980893 v 15.923566878980893 v 15.923566878980893 l 15.923566878980893,-9.75037260467638e-16 l 9.75037260467638e-16,15.923566878980893 l -15.923566878980893,9.75037260467638e-16 l -15.923566878980893,9.75037260467638e-16 v -15.923566878980893 h -15.923566878980893 v 15.923566878980893 l -15.923566878980893,9.75037260467638e-16 l -15.923566878980893,9.75037260467638e-16 l -9.75037260467638e-16,-15.923566878980893 l 15.923566878980893,-9.75037260467638e-16 l -9.75037260467638e-16,-15.923566878980893 l -15.923566878980893,9.75037260467638e-16 l -9.75037260467638e-16,-15.923566878980893 l 15.923566878980893,-9.75037260467638e-16 l 15.923566878980893,-9.75037260467638e-16 v 15.923566878980893 h 15.923566878980893 v -15.923566878980893 l -9.75037260467638e-16,-15.923566878980893 v -15.923566878980893 h -15.923566878980893 v 15.923566878980893 l -15.923566878980893,9.75037260467638e-16 l -15.923566878980893,9.75037260467638e-16 l -9.75037260467638e-16,-15.923566878980893 l 15.923566878980893,-9.75037260467638e-16 l -9.75037260467638e-16,-15.923566878980893 l -15.923566878980893,9.75037260467638e-16 l -9.75037260467638e-16,-15.923566878980893 l 15.923566878980893,-9.75037260467638e-16 l 15.923566878980893,-9.75037260467638e-16 v 15.923566878980893 h 15.923566878980893 v -15.923566878980893 l 15.923566878980893,-9.75037260467638e-16 l 15.923566878980893,-9.75037260467638e-16 l 9.75037260467638e-16,15.923566878980893 l -15.923566878980893,9.75037260467638e-16 v 15.923566878980893 v 15.923566878980893 h 15.923566878980893 v -15.923566878980893 h 15.923566878980893 v 15.923566878980893 h 15.923566878980893 v -15.923566878980893 v -15.923566878980893 l -15.923566878980893,9.75037260467638e-16 l -9.75037260467638e-16,-15.923566878980893 l 15.923566878980893,-9.75037260467638e-16 l -9.75037260467638e-16,-15.923566878980893 l -15.923566878980893,9.75037260467638e-16 l -9.75037260467638e-16,-15.923566878980893 l 15.923566878980893,-9.75037260467638e-16 v -15.923566878980893 v -15.923566878980893 h -15.923566878980893 v 15.923566878980893 h -15.923566878980893 v -15.923566878980893 h -15.923566878980893 v 15.923566878980893 v 15.923566878980893 l 15.923566878980893,-9.75037260467638e-16 l 9.75037260467638e-16,15.923566878980893 l -15.923566878980893,9.75037260467638e-16 l -15.923566878980893,9.75037260467638e-16 v -15.923566878980893 h -15.923566878980893 v 15.923566878980893 l -15.923566878980893,9.75037260467638e-16 l -15.923566878980893,9.75037260467638e-16 l -9.75037260467638e-16,-15.923566878980893 l 15.923566878980893,-9.75037260467638e-16 l -9.75037260467638e-16,-15.923566878980893 l -15.923566878980893,9.75037260467638e-16 l -9.75037260467638e-16,-15.923566878980893 l 15.923566878980893,-9.75037260467638e-16 l 15.923566878980893,-9.75037260467638e-16 v 15.923566878980893 h 15.923566878980893 v -15.923566878980893 l -9.75037260467638e-16,-15.923566878980893 v -15.923566878980893 h -15.923566878980893 v 15.923566878980893 l -15.923566878980893,9.75037260467638e-16 l -15.923566878980893,9.75037260467638e-16 l -9.75037260467638e-16,-15.923566878980893 l 15.923566878980893,-9.75037260467638e-16 l -9.75037260467638e-16,-15.923566878980893 l -15.923566878980893,9.75037260467638e-16 l -9.75037260467638e-16,-15.923566878980893 l 15.923566878980893,-9.75037260467638e-16 l 15.923566878980893,-9.75037260467638e-16 v 15.923566878980893 h 15.923566878980893 v -15.923566878980893 l 15.923566878980893,-9.75037260467638e-16 l 15.923566878980893,-9.75037260467638e-16 l 9.75037260467638e-16,15.923566878980893 l -15.923566878980893,9.75037260467638e-16 v 15.923566878980893 v 15.923566878980893 h 15.923566878980893 v -15.923566878980893 h 15.923566878980893 v 15.923566878980893 h 15.923566878980893 v -15.923566878980893 v -15.923566878980893 l -15.923566878980893,9.75037260467638e-16 l -9.75037260467638e-16,-15.923566878980893 l 15.923566878980893,-9.75037260467638e-16 l 15.923566878980893,-9.75037260467638e-16 v 15.923566878980893 h 15.923566878980893 v -15.923566878980893 l 15.923566878980893,-9.75037260467638e-16 l 15.923566878980893,-9.75037260467638e-16 l 9.75037260467638e-16,15.923566878980893 l -15.923566878980893,9.75037260467638e-16 l 9.75037260467638e-16,15.923566878980893 l 15.923566878980893,-9.75037260467638e-16 l 9.75037260467638e-16,15.923566878980893 l -15.923566878980893,9.75037260467638e-16 l -15.923566878980893,9.75037260467638e-16 v -15.923566878980893 h -15.923566878980893 v 15.923566878980893 v 15.923566878980893 l 15.923566878980893,-9.75037260467638e-16 l 9.75037260467638e-16,15.923566878980893 l -15.923566878980893,9.75037260467638e-16 v 15.923566878980893 v 15.923566878980893 h 15.923566878980893 v -15.923566878980893 h 15.923566878980893 v 15.923566878980893 h 15.923566878980893 v -15.923566878980893 v -15.923566878980893 l -15.923566878980893,9.75037260467638e-16 l -9.75037260467638e-16,-15.923566878980893 l 15.923566878980893,-9.75037260467638e-16 h 15.923566878980893 l 15.923566878980893,-9.75037260467638e-16 l 9.75037260467638e-16,15.923566878980893 l -15.923566878980893,9.75037260467638e-16 v 15.923566878980893 v 15.923566878980893 h 15.923566878980893 v -15.923566878980893 h 15.923566878980893 v 15.923566878980893 h 15.923566878980893 v -15.923566878980893 v -15.923566878980893 l -15.923566878980893,9.75037260467638e-16 l -9.75037260467638e-16,-15.923566878980893 l 15.923566878980893,-9.75037260467638e-16 v -15.923566878980893 v -15.923566878980893 h -15.923566878980893 v 15.923566878980893 l -15.923566878980893,9.75037260467638e-16 l -15.923566878980893,9.75037260467638e-16 l -9.75037260467638e-16,-15.923566878980893 l 15.923566878980893,-9.75037260467638e-16 l -9.75037260467638e-16,-15.923566878980893 l -15.923566878980893,9.75037260467638e-16 l -9.75037260467638e-16,-15.923566878980893 l 15.923566878980893,-9.75037260467638e-16 l 15.923566878980893,-9.75037260467638e-16 v 15.923566878980893 h 15.923566878980893 v -15.923566878980893 "/>
    </g>
  </g>
</svg>