<?xml version="1.0" encoding="UTF-8"?>
<!DOCTYPE svg PUBLIC "-//W3C//DTD SVG 1.1//EN"
    "http://www.w3.org/Graphics/SVG/1.1/DTD/svg11.dtd">
<svg xmlns="http://www.w3.org/2000/svg" height="444.17725157684936" stroke-opacity="1" viewBox="0 0 500 444" font-size="1" width="500.00000000000006" xmlns:xlink="http://www.w3.org/1999/xlink" stroke="rgb(0,0,0)" version="1.1">
  <defs>
  </defs>
  <defs>
  </defs>
  <g stroke-linejoin="miter" stroke-opacity="1.0" fill-opacity="1.0" opacity="0.3570422405617534" stroke="rgb(0,0,0)" stroke-width="0.0" fill="rgb(21,137,255)" stroke-linecap="butt" stroke-miterlimit="10.0">
    <defs>
      <clipPath id="mirrormyClip1">
        <path d="M 458.33333333333337,402.5105849101827 l -208.3333333333334,-360.843918243516 l -208.33333333333331,360.84391824351604 Z"/>
      </clipPath>
    </defs>
    <g clip-path="url(#mirrormyClip1)">
      <path d="M 515.0309186662379,209.52956165875798 c 0.0,-52.77697643776792 -42.784192785060505,-95.56116922282843 -95.56116922282841 -95.56116922282843c -52.77697643776792,-3.231657763159388e-15 -95.56116922282843,42.7841927850605 -95.56116922282843 95.5611692228284c -6.463315526318776e-15,52.77697643776792 42.78419278506049,95.56116922282843 95.56116922282838 95.56116922282843c 52.77697643776792,9.694973289478164e-15 95.56116922282843,-42.78419278506048 95.56116922282847 -95.5611692228284Z"/>
    </g>
  </g>
  <defs>
  </defs>
  <g stroke-linejoin="miter" stroke-opacity="1.0" fill-opacity="1.0" opacity="0.2594275193344049" stroke="rgb(0,0,0)" stroke-width="0.0" fill="rgb(127,56,236)" stroke-linecap="butt" stroke-miterlimit="10.0">
    <defs>
      <clipPath id="mirrormyClip2">
        <path d="M 458.33333333333337,402.5105849101827 l -208.3333333333334,-360.843918243516 l -208.33333333333331,360.84391824351604 Z"/>
      </clipPath>
    </defs>
    <g clip-path="url(#mirrormyClip2)">
      <path d="M 535.0898810155918,218.3961330740822 c 0.0,-47.52106770885218 -38.52343691201861,-86.04450462087081 -86.04450462087078 -86.04450462087081c -47.52106770885218,-2.9098261730855234e-15 -86.04450462087081,38.5234369120186 -86.04450462087081 86.04450462087078c -5.819652346171047e-15,47.52106770885218 38.5234369120186,86.04450462087081 86.04450462087077 86.04450462087081c 47.52106770885218,8.72947851925657e-15 86.04450462087081,-38.523436912018596 86.04450462087082 -86.04450462087078Z"/>
    </g>
  </g>
  <defs>
  </defs>
  <g stroke-linejoin="miter" stroke-opacity="1.0" fill-opacity="1.0" opacity="0.4776156270702475" stroke="rgb(0,0,0)" stroke-width="0.0" fill="rgb(212,160,23)" stroke-linecap="butt" stroke-miterlimit="10.0">
    <defs>
      <clipPath id="mirrormyClip3">
        <path d="M 458.33333333333337,402.5105849101827 l -208.3333333333334,-360.843918243516 l -208.33333333333331,360.84391824351604 Z"/>
      </clipPath>
    </defs>
    <g clip-path="url(#mirrormyClip3)">
      <path d="M 140.3050273171188,390.4160182910848 c 0.0,-50.189395398979954 -40.686543895662446,-90.87593929464241 -90.8759392946424 -90.87593929464241c -50.189395398979954,-3.073214121325085e-15 -90.87593929464241,40.68654389566244 -90.87593929464241 90.87593929464238c -6.14642824265017e-15,50.189395398979954 40.68654389566244,90.87593929464241 90.87593929464238 90.87593929464241c 50.189395398979954,9.219642363975255e-15 90.87593929464241,-40.68654389566243 90.87593929464241 -90.87593929464238Z"/>
    </g>
  </g>
  <defs>
  </defs>
  <g stroke-linejoin="miter" stroke-opacity="1.0" fill-opacity="1.0" opacity="0.7081935842383938" stroke="rgb(0,0,0)" stroke-width="0.0" fill="rgb(76,196,23)" stroke-linecap="butt" stroke-miterlimit="10.0">
    <defs>
      <clipPath id="mirrormyClip4">
        <path d="M 458.33333333333337,402.5105849101827 l -208.3333333333334,-360.843918243516 l -208.33333333333331,360.84391824351604 Z"/>
      </clipPath>
    </defs>
    <g clip-path="url(#mirrormyClip4)">
      <path d="M 169.46967326197228,115.31370794809632 c 0.0,-19.18959044076259 -15.556236683093008,-34.745827123855605 -34.7458271238556 -34.745827123855605c -19.18959044076259,-1.1750235255114277e-15 -34.745827123855605,15.556236683093008 -34.745827123855605 34.74582712385559c -2.3500470510228553e-15,19.18959044076259 15.556236683093006,34.745827123855605 34.745827123855584 34.745827123855605c 19.18959044076259,3.5250705765342826e-15 34.745827123855605,-15.556236683093003 34.745827123855626 -34.74582712385559Z"/>
    </g>
  </g>
  <defs>
  </defs>
  <g stroke-linejoin="miter" stroke-opacity="1.0" fill-opacity="1.0" opacity="0.8971006040074593" stroke="rgb(0,0,0)" stroke-width="0.0" fill="rgb(43,27,23)" stroke-linecap="butt" stroke-miterlimit="10.0">
    <defs>
      <clipPath id="mirrormyClip5">
        <path d="M 458.33333333333337,402.5105849101827 l -208.3333333333334,-360.843918243516 l -208.33333333333331,360.84391824351604 Z"/>
      </clipPath>
    </defs>
    <g clip-path="url(#mirrormyClip5)">
      <path d="M 398.9672204730504,328.23883208078036 c 0.0,-42.81386902008885 -34.707498414383984,-77.52136743447284 -77.52136743447284 -77.52136743447284c -42.81386902008885,-2.621593382728292e-15 -77.52136743447284,34.70749841438398 -77.52136743447284 77.52136743447282c -5.243186765456584e-15,42.81386902008885 34.70749841438397,77.52136743447284 77.52136743447281 77.52136743447284c 42.81386902008885,7.864780148184877e-15 77.52136743447284,-34.70749841438397 77.52136743447286 -77.52136743447282Z"/>
    </g>
  </g>
  <defs>
  </defs>
  <g stroke-linejoin="miter" stroke-opacity="1.0" fill-opacity="1.0" opacity="0.9931413769759115" stroke="rgb(0,0,0)" stroke-width="0.0" fill="rgb(253,238,244)" stroke-linecap="butt" stroke-miterlimit="10.0">
    <defs>
      <clipPath id="mirrormyClip6">
        <path d="M 458.33333333333337,402.5105849101827 l -208.3333333333334,-360.843918243516 l -208.33333333333331,360.84391824351604 Z"/>
      </clipPath>
    </defs>
    <g clip-path="url(#mirrormyClip6)">
      <path d="M 517.2384951636279,325.63100555855414 c 0.0,-57.30783189598839 -46.45717684913105,-103.76500874511945 -103.76500874511943 -103.76500874511945c -57.30783189598839,-3.509092644874839e-15 -103.76500874511945,46.457176849131045 -103.76500874511945 103.76500874511942c -7.018185289749678e-15,57.30783189598839 46.45717684913104,103.76500874511945 103.7650087451194 103.76500874511945c 57.30783189598839,1.0527277934624515e-14 103.76500874511945,-46.45717684913103 103.76500874511949 -103.76500874511942Z"/>
    </g>
  </g>
  <defs>
  </defs>
  <g stroke-linejoin="miter" stroke-opacity="1.0" fill-opacity="1.0" opacity="0.3475321772366021" stroke="rgb(0,0,0)" stroke-width="0.0" fill="rgb(248,116,49)" stroke-linecap="butt" stroke-miterlimit="10.0">
    <defs>
      <clipPath id="mirrormyClip7">
        <path d="M 458.33333333333337,402.5105849101827 l -208.3333333333334,-360.843918243516 l -208.33333333333331,360.84391824351604 Z"/>
      </clipPath>
    </defs>
    <g clip-path="url(#mirrormyClip7)">
      <path d="M 288.12798747767306,410.81673150866624 c 0.0,-14.032103650403432 -11.375267555668298,-25.407371206071733 -25.40737120607173 -25.407371206071733c -14.032103650403432,-8.592185410385227e-16 -25.407371206071733,11.375267555668298 -25.407371206071733 25.407371206071726c -1.7184370820770454e-15,14.032103650403432 11.375267555668296,25.407371206071733 25.407371206071723 25.407371206071733c 14.032103650403432,2.577655623115568e-15 25.407371206071733,-11.375267555668295 25.407371206071737 -25.407371206071726Z"/>
    </g>
  </g>
  <defs>
  </defs>
  <g stroke-linejoin="miter" stroke-opacity="1.0" fill-opacity="1.0" opacity="0.8189066356608298" stroke="rgb(0,0,0)" stroke-width="0.0" fill="rgb(255,255,255)" stroke-linecap="butt" stroke-miterlimit="10.0">
    <defs>
      <clipPath id="mirrormyClip8">
        <path d="M 458.33333333333337,402.5105849101827 l -208.3333333333334,-360.843918243516 l -208.33333333333331,360.84391824351604 Z"/>
      </clipPath>
    </defs>
    <g clip-path="url(#mirrormyClip8)">
      <path d="M 147.59227181998733,110.20067593646371 c 0.0,-40.871165537137706 -33.13262607517755,-74.00379161231525 -74.00379161231525 -74.00379161231525c -40.871165537137706,-2.502637102623865e-15 -74.00379161231525,33.13262607517754 -74.00379161231525 74.00379161231524c -5.00527420524773e-15,40.871165537137706 33.13262607517754,74.00379161231525 74.00379161231523 74.00379161231525c 40.871165537137706,7.507911307871595e-15 74.00379161231525,-33.132626075177534 74.00379161231528 -74.00379161231524Z"/>
    </g>
  </g>
  <defs>
  </defs>
  <g stroke-linejoin="miter" stroke-opacity="1.0" fill-opacity="1.0" opacity="0.5621863581018364" stroke="rgb(0,0,0)" stroke-width="0.0" fill="rgb(226,167,111)" stroke-linecap="butt" stroke-miterlimit="10.0">
    <defs>
      <clipPath id="mirrormyClip9">
        <path d="M 458.33333333333337,402.5105849101827 l -208.3333333333334,-360.843918243516 l -208.33333333333331,360.84391824351604 Z"/>
      </clipPath>
    </defs>
    <g clip-path="url(#mirrormyClip9)">
      <path d="M 152.41483909037035,488.29932333010925 c 0.0,-47.87691349288345 -38.81190691642852,-86.68882040931197 -86.68882040931196 -86.68882040931197c -47.87691349288345,-2.931615443105722e-15 -86.68882040931197,38.81190691642852 -86.68882040931197 86.68882040931196c -5.863230886211444e-15,47.87691349288345 38.81190691642851,86.68882040931197 86.68882040931194 86.68882040931197c 47.87691349288345,8.794846329317166e-15 86.68882040931197,-38.811906916428505 86.688820409312 -86.68882040931196Z"/>
    </g>
  </g>
  <defs>
  </defs>
  <g stroke-linejoin="miter" stroke-opacity="1.0" fill-opacity="1.0" opacity="0.8469813425737215" stroke="rgb(0,0,0)" stroke-width="0.0" fill="rgb(195,74,44)" stroke-linecap="butt" stroke-miterlimit="10.0">
    <defs>
      <clipPath id="mirrormyClip10">
        <path d="M 458.33333333333337,402.5105849101827 l -208.3333333333334,-360.843918243516 l -208.33333333333331,360.84391824351604 Z"/>
      </clipPath>
    </defs>
    <g clip-path="url(#mirrormyClip10)">
      <path d="M 357.53972661627415,417.95484479949886 c 0.0,-44.89028218056273 -36.390763863739615,-81.28104604430236 -81.28104604430234 -81.28104604430236c -44.89028218056273,-2.7487370192623807e-15 -81.28104604430236,36.390763863739615 -81.28104604430236 81.28104604430234c -5.497474038524761e-15,44.89028218056273 36.390763863739615,81.28104604430236 81.28104604430233 81.28104604430236c 44.89028218056273,8.246211057787143e-15 81.28104604430236,-36.39076386373961 81.28104604430236 -81.28104604430234Z"/>
    </g>
  </g>
  <defs>
  </defs>
  <g stroke-linejoin="miter" stroke-opacity="1.0" fill-opacity="1.0" opacity="0.5356119333627692" stroke="rgb(0,0,0)" stroke-width="0.0" fill="rgb(145,114,236)" stroke-linecap="butt" stroke-miterlimit="10.0">
    <defs>
      <clipPath id="mirrormyClip11">
        <path d="M 458.33333333333337,402.5105849101827 l -208.3333333333334,-360.843918243516 l -208.33333333333331,360.84391824351604 Z"/>
      </clipPath>
    </defs>
    <g clip-path="url(#mirrormyClip11)">
      <path d="M 332.57922187355166,306.2431265949221 c 0.0,-14.359023106264956 -11.640288137915167,-25.999311244180124 -25.99931124418012 -25.999311244180124c -14.359023106264956,-8.792365842985132e-16 -25.999311244180124,11.640288137915165 -25.999311244180124 25.999311244180117c -1.7584731685970264e-15,14.359023106264956 11.640288137915164,25.999311244180124 25.999311244180113 25.999311244180124c 14.359023106264956,2.6377097528955393e-15 25.999311244180124,-11.640288137915162 25.999311244180127 -25.999311244180117Z"/>
    </g>
  </g>
  <defs>
  </defs>
  <g stroke-linejoin="miter" stroke-opacity="1.0" fill-opacity="1.0" opacity="9.704521828079427e-2" stroke="rgb(0,0,0)" stroke-width="0.0" fill="rgb(138,251,23)" stroke-linecap="butt" stroke-miterlimit="10.0">
    <defs>
      <clipPath id="mirrormyClip12">
        <path d="M 458.33333333333337,402.5105849101827 l -208.3333333333334,-360.843918243516 l -208.33333333333331,360.84391824351604 Z"/>
      </clipPath>
    </defs>
    <g clip-path="url(#mirrormyClip12)">
      <path d="M 425.86056952530845,488.72493551669766 c 0.0,-48.293658222751645 -39.149745270731806,-87.44340349348347 -87.44340349348344 -87.44340349348347c -48.293658222751645,-2.9571336980804526e-15 -87.44340349348347,39.149745270731806 -87.44340349348347 87.44340349348343c -5.914267396160905e-15,48.293658222751645 39.1497452707318,87.44340349348347 87.44340349348343 87.44340349348347c 48.293658222751645,8.871401094241358e-15 87.44340349348347,-39.1497452707318 87.44340349348349 -87.44340349348343Z"/>
    </g>
  </g>
  <defs>
  </defs>
  <g stroke-linejoin="miter" stroke-opacity="1.0" fill-opacity="1.0" opacity="0.1558070320981505" stroke="rgb(0,0,0)" stroke-width="0.0" fill="rgb(200,181,96)" stroke-linecap="butt" stroke-miterlimit="10.0">
    <defs>
      <clipPath id="mirrormyClip13">
        <path d="M 458.33333333333337,402.5105849101827 l -208.3333333333334,-360.843918243516 l -208.33333333333331,360.84391824351604 Z"/>
      </clipPath>
    </defs>
    <g clip-path="url(#mirrormyClip13)">
      <path d="M 132.9927831838456,276.40767609356595 c 0.0,-43.10730556870833 -34.94537573729433,-78.05268130600265 -78.05268130600264 -78.05268130600265c -43.10730556870833,-2.6395611892292762e-15 -78.05268130600265,34.94537573729432 -78.05268130600265 78.05268130600263c -5.2791223784585524e-15,43.10730556870833 34.94537573729431,78.05268130600265 78.05268130600263 78.05268130600265c 43.10730556870833,7.918683567687828e-15 78.05268130600265,-34.945375737294306 78.05268130600268 -78.05268130600263Z"/>
    </g>
  </g>
  <defs>
  </defs>
  <g stroke-linejoin="miter" stroke-opacity="1.0" fill-opacity="1.0" opacity="0.9151537700937137" stroke="rgb(0,0,0)" stroke-width="0.0" fill="rgb(108,196,23)" stroke-linecap="butt" stroke-miterlimit="10.0">
    <defs>
      <clipPath id="mirrormyClip14">
        <path d="M 458.33333333333337,402.5105849101827 l -208.3333333333334,-360.843918243516 l -208.33333333333331,360.84391824351604 Z"/>
      </clipPath>
    </defs>
    <g clip-path="url(#mirrormyClip14)">
      <path d="M 422.34143999611075,376.7843647604651 c 0.0,-28.052817688131423 -22.741302005968617,-50.79411969410005 -50.79411969410003 -50.79411969410005c -28.052817688131423,-1.71773966944172e-15 -50.79411969410005,22.741302005968613 -50.79411969410005 50.794119694100026c -3.43547933888344e-15,28.052817688131423 22.74130200596861,50.79411969410005 50.79411969410002 50.79411969410005c 28.052817688131423,5.15321900832516e-15 50.79411969410005,-22.741302005968606 50.79411969410006 -50.794119694100026Z"/>
    </g>
  </g>
  <defs>
  </defs>
  <g stroke-linejoin="miter" stroke-opacity="1.0" fill-opacity="1.0" opacity="0.28778572005565417" stroke="rgb(0,0,0)" stroke-width="0.0" fill="rgb(204,255,255)" stroke-linecap="butt" stroke-miterlimit="10.0">
    <defs>
      <clipPath id="mirrormyClip15">
        <path d="M 458.33333333333337,402.5105849101827 l -208.3333333333334,-360.843918243516 l -208.33333333333331,360.84391824351604 Z"/>
      </clipPath>
    </defs>
    <g clip-path="url(#mirrormyClip15)">
      <path d="M 329.8411806532702,119.82283076673437 c 0.0,-43.92152303180086 -35.60542940579104,-79.5269524375919 -79.52695243759189 -79.5269524375919c -43.92152303180086,-2.689417629728583e-15 -79.5269524375919,35.605429405791035 -79.5269524375919 79.52695243759189c -5.378835259457166e-15,43.92152303180086 35.60542940579103,79.5269524375919 79.52695243759187 79.5269524375919c 43.92152303180086,8.06825288918575e-15 79.5269524375919,-35.60542940579103 79.5269524375919 -79.52695243759189Z"/>
    </g>
  </g>
  <defs>
  </defs>
  <g stroke-linejoin="miter" stroke-opacity="1.0" fill-opacity="1.0" opacity="0.5295131460726624" stroke="rgb(0,0,0)" stroke-width="0.0" fill="rgb(156,176,113)" stroke-linecap="butt" stroke-miterlimit="10.0">
    <defs>
      <clipPath id="mirrormyClip16">
        <path d="M 458.33333333333337,402.5105849101827 l -208.3333333333334,-360.843918243516 l -208.33333333333331,360.84391824351604 Z"/>
      </clipPath>
    </defs>
    <g clip-path="url(#mirrormyClip16)">
      <path d="M 155.01427391605787,134.12133237778514 c 0.0,-49.260209688840426 -39.93329004826538,-89.19349973710581 -89.1934997371058 -89.19349973710581c -49.260209688840426,-3.0163179060382933e-15 -89.19349973710581,39.93329004826537 -89.19349973710581 89.19349973710578c -6.0326358120765865e-15,49.260209688840426 39.93329004826537,89.19349973710581 89.19349973710578 89.19349973710581c 49.260209688840426,9.048953718114879e-15 89.19349973710581,-39.93329004826536 89.19349973710584 -89.19349973710578Z"/>
    </g>
  </g>
  <defs>
  </defs>
  <g stroke-linejoin="miter" stroke-opacity="1.0" fill-opacity="1.0" opacity="0.795735797095306" stroke="rgb(0,0,0)" stroke-width="0.0" fill="rgb(228,27,23)" stroke-linecap="butt" stroke-miterlimit="10.0">
    <defs>
      <clipPath id="mirrormyClip17">
        <path d="M 458.33333333333337,402.5105849101827 l -208.3333333333334,-360.843918243516 l -208.33333333333331,360.84391824351604 Z"/>
      </clipPath>
    </defs>
    <g clip-path="url(#mirrormyClip17)">
      <path d="M 216.40924153020438,383.922423628771 c 0.0,-41.419594424136484 -33.577215530920995,-74.99680995505749 -74.99680995505747 -74.99680995505749c -41.419594424136484,-2.536218686675015e-15 -74.99680995505749,33.57721553092099 -74.99680995505749 74.99680995505746c -5.07243737335003e-15,41.419594424136484 33.57721553092098,74.99680995505749 74.99680995505744 74.99680995505749c 41.419594424136484,7.608656060025044e-15 74.99680995505749,-33.577215530920974 74.9968099550575 -74.99680995505746Z"/>
    </g>
  </g>
  <defs>
  </defs>
  <g stroke-linejoin="miter" stroke-opacity="1.0" fill-opacity="1.0" opacity="0.2730254450677386" stroke="rgb(0,0,0)" stroke-width="0.0" fill="rgb(59,49,49)" stroke-linecap="butt" stroke-miterlimit="10.0">
    <defs>
      <clipPath id="mirrormyClip18">
        <path d="M 458.33333333333337,402.5105849101827 l -208.3333333333334,-360.843918243516 l -208.33333333333331,360.84391824351604 Z"/>
      </clipPath>
    </defs>
    <g clip-path="url(#mirrormyClip18)">
      <path d="M 373.29038938542936,189.00824430804528 c 0.0,-48.35080628438268 -39.1960729281905,-87.54687921257319 -87.54687921257317 -87.54687921257319c -48.35080628438268,-2.960633007618149e-15 -87.54687921257319,39.1960729281905 -87.54687921257319 87.54687921257316c -5.921266015236298e-15,48.35080628438268 39.196072928190496,87.54687921257319 87.54687921257316 87.54687921257319c 48.35080628438268,8.881899022854445e-15 87.54687921257319,-39.19607292819049 87.54687921257319 -87.54687921257316Z"/>
    </g>
  </g>
  <defs>
  </defs>
  <g stroke-linejoin="miter" stroke-opacity="1.0" fill-opacity="1.0" opacity="0.29767057280288456" stroke="rgb(0,0,0)" stroke-width="0.0" fill="rgb(255,128,64)" stroke-linecap="butt" stroke-miterlimit="10.0">
    <defs>
      <clipPath id="mirrormyClip19">
        <path d="M 458.33333333333337,402.5105849101827 l -208.3333333333334,-360.843918243516 l -208.33333333333331,360.84391824351604 Z"/>
      </clipPath>
    </defs>
    <g clip-path="url(#mirrormyClip19)">
      <path d="M 255.94824262165906,145.62027509783755 c 0.0,-48.310806329369214 -39.163646557788105,-87.47445288715733 -87.47445288715731 -87.47445288715733c -48.310806329369214,-2.958183716774485e-15 -87.47445288715733,39.163646557788105 -87.47445288715733 87.4744528871573c -5.91636743354897e-15,48.310806329369214 39.1636465577881,87.47445288715733 87.4744528871573 87.47445288715733c 48.310806329369214,8.874551150323455e-15 87.47445288715733,-39.16364655778809 87.47445288715736 -87.4744528871573Z"/>
    </g>
  </g>
  <defs>
  </defs>
  <g stroke-linejoin="miter" stroke-opacity="1.0" fill-opacity="1.0" opacity="0.11679399570025017" stroke="rgb(0,0,0)" stroke-width="0.0" fill="rgb(195,98,65)" stroke-linecap="butt" stroke-miterlimit="10.0">
    <defs>
      <clipPath id="mirrormyClip20">
        <path d="M 458.33333333333337,402.5105849101827 l -208.3333333333334,-360.843918243516 l -208.33333333333331,360.84391824351604 Z"/>
      </clipPath>
    </defs>
    <g clip-path="url(#mirrormyClip20)">
      <path d="M 421.95051332935293,160.87518833864988 c 0.0,-39.43204696009055 -31.965989962296977,-71.39803692238755 -71.39803692238753 -71.39803692238755c -39.43204696009055,-2.414516504675151e-15 -71.39803692238755,31.96598996229697 -71.39803692238755 71.39803692238752c -4.829033009350302e-15,39.43204696009055 31.96598996229697,71.39803692238755 71.3980369223875 71.39803692238755c 39.43204696009055,7.243549514025452e-15 71.39803692238755,-31.965989962296963 71.39803692238759 -71.39803692238752Z"/>
    </g>
  </g>
  <defs>
  </defs>
  <g stroke-linejoin="miter" stroke-opacity="1.0" fill-opacity="1.0" opacity="0.8632175996621838" stroke="rgb(0,0,0)" stroke-width="0.0" fill="rgb(101,115,131)" stroke-linecap="butt" stroke-miterlimit="10.0">
    <defs>
      <clipPath id="mirrormyClip21">
        <path d="M 458.33333333333337,402.5105849101827 l -208.3333333333334,-360.843918243516 l -208.33333333333331,360.84391824351604 Z"/>
      </clipPath>
    </defs>
    <g clip-path="url(#mirrormyClip21)">
      <path d="M 259.7403088869827,173.5260930724713 c 0.0,-45.603076820400865 -36.96859808891453,-82.5716749093154 -82.57167490931538 -82.5716749093154c -45.603076820400865,-2.7923831029687384e-15 -82.5716749093154,36.968598088914526 -82.5716749093154 82.57167490931538c -5.584766205937477e-15,45.603076820400865 36.968598088914526,82.5716749093154 82.57167490931538 82.5716749093154c 45.603076820400865,8.377149308906216e-15 82.5716749093154,-36.96859808891452 82.5716749093154 -82.57167490931538Z"/>
    </g>
  </g>
  <defs>
  </defs>
  <g stroke-linejoin="miter" stroke-opacity="1.0" fill-opacity="1.0" opacity="0.9406813144513206" stroke="rgb(0,0,0)" stroke-width="0.0" fill="rgb(121,186,236)" stroke-linecap="butt" stroke-miterlimit="10.0">
    <defs>
      <clipPath id="mirrormyClip22">
        <path d="M 458.33333333333337,402.5105849101827 l -208.3333333333334,-360.843918243516 l -208.33333333333331,360.84391824351604 Z"/>
      </clipPath>
    </defs>
    <g clip-path="url(#mirrormyClip22)">
      <path d="M 346.47769402213623,210.98672235587054 c 0.0,-21.67113908622376 -17.567929334302544,-39.23906842052631 -39.239068420526294 -39.23906842052631c -21.67113908622376,-1.326974555791051e-15 -39.23906842052631,17.56792933430254 -39.23906842052631 39.239068420526294c -2.653949111582102e-15,21.67113908622376 17.567929334302537,39.23906842052631 39.23906842052629 39.23906842052631c 21.67113908622376,3.980923667373153e-15 39.23906842052631,-17.567929334302537 39.239068420526316 -39.239068420526294Z"/>
    </g>
  </g>
  <defs>
  </defs>
  <g stroke-linejoin="miter" stroke-opacity="1.0" fill-opacity="1.0" opacity="0.9662060031123852" stroke="rgb(0,0,0)" stroke-width="0.0" fill="rgb(233,171,23)" stroke-linecap="butt" stroke-miterlimit="10.0">
    <defs>
      <clipPath id="mirrormyClip23">
        <path d="M 458.33333333333337,402.5105849101827 l -208.3333333333334,-360.843918243516 l -208.33333333333331,360.84391824351604 Z"/>
      </clipPath>
    </defs>
    <g clip-path="url(#mirrormyClip23)">
      <path d="M 323.4153277385011,206.17070424335276 c 0.0,-53.13721566021846 -43.07622437501409,-96.21344003523257 -96.21344003523254 -96.21344003523257c -53.13721566021846,-3.2537160536944576e-15 -96.21344003523257,43.076224375014085 -96.21344003523257 96.21344003523252c -6.507432107388915e-15,53.13721566021846 43.07622437501408,96.21344003523257 96.21344003523252 96.21344003523257c 53.13721566021846,9.761148161083372e-15 96.21344003523257,-43.07622437501407 96.21344003523258 -96.21344003523252Z"/>
    </g>
  </g>
  <defs>
  </defs>
  <g stroke-linejoin="miter" stroke-opacity="1.0" fill-opacity="1.0" opacity="0.6796561279010164" stroke="rgb(0,0,0)" stroke-width="0.0" fill="rgb(184,115,51)" stroke-linecap="butt" stroke-miterlimit="10.0">
    <defs>
      <clipPath id="mirrormyClip24">
        <path d="M 458.33333333333337,402.5105849101827 l -208.3333333333334,-360.843918243516 l -208.33333333333331,360.84391824351604 Z"/>
      </clipPath>
    </defs>
    <g clip-path="url(#mirrormyClip24)">
      <path d="M 378.22972853335654,259.6537407576477 c 0.0,-34.64157732555538 -28.082547025458673,-62.72412435101406 -62.72412435101405 -62.72412435101406c -34.64157732555538,-2.121184839457846e-15 -62.72412435101406,28.08254702545867 -62.72412435101406 62.72412435101404c -4.242369678915692e-15,34.64157732555538 28.08254702545867,62.72412435101406 62.72412435101404 62.72412435101406c 34.64157732555538,6.363554518373538e-15 62.72412435101406,-28.082547025458663 62.72412435101407 -62.72412435101404Z"/>
    </g>
  </g>
  <defs>
  </defs>
  <g stroke-linejoin="miter" stroke-opacity="1.0" fill-opacity="1.0" opacity="0.68873440839491" stroke="rgb(0,0,0)" stroke-width="0.0" fill="rgb(59,185,255)" stroke-linecap="butt" stroke-miterlimit="10.0">
    <defs>
      <clipPath id="mirrormyClip25">
        <path d="M 458.33333333333337,402.5105849101827 l -208.3333333333334,-360.843918243516 l -208.33333333333331,360.84391824351604 Z"/>
      </clipPath>
    </defs>
    <g clip-path="url(#mirrormyClip25)">
      <path d="M 316.2171950615713,412.56370766839586 c 0.0,-24.370631947689322 -19.75630068109662,-44.126932628785944 -44.12693262878594 -44.126932628785944c -24.370631947689322,-1.4922708203967978e-15 -44.126932628785944,19.756300681096615 -44.126932628785944 44.12693262878593c -2.9845416407935955e-15,24.370631947689322 19.75630068109661,44.126932628785944 44.12693262878593 44.126932628785944c 24.370631947689322,4.476812461190393e-15 44.126932628785944,-19.75630068109661 44.126932628785944 -44.12693262878593Z"/>
    </g>
  </g>
  <defs>
  </defs>
  <g stroke-linejoin="miter" stroke-opacity="1.0" fill-opacity="1.0" opacity="0.6744089947181051" stroke="rgb(0,0,0)" stroke-width="0.0" fill="rgb(249,150,107)" stroke-linecap="butt" stroke-miterlimit="10.0">
    <defs>
      <clipPath id="mirrormyClip26">
        <path d="M 458.33333333333337,402.5105849101827 l -208.3333333333334,-360.843918243516 l -208.33333333333331,360.84391824351604 Z"/>
      </clipPath>
    </defs>
    <g clip-path="url(#mirrormyClip26)">
      <path d="M 327.00800649417164,376.82839469174644 c 0.0,-46.039255903573746 -37.32219109940623,-83.36144700297999 -83.36144700297996 -83.36144700297999c -46.039255903573746,-2.8190913688718737e-15 -83.36144700297999,37.322191099406226 -83.36144700297999 83.36144700297996c -5.638182737743747e-15,46.039255903573746 37.32219109940622,83.36144700297999 83.36144700297994 83.36144700297999c 46.039255903573746,8.45727410661562e-15 83.36144700297999,-37.32219109940621 83.36144700298 -83.36144700297996Z"/>
    </g>
  </g>
  <defs>
  </defs>
  <g stroke-linejoin="miter" stroke-opacity="1.0" fill-opacity="1.0" opacity="0.6174388460513771" stroke="rgb(0,0,0)" stroke-width="0.0" fill="rgb(204,102,0)" stroke-linecap="butt" stroke-miterlimit="10.0">
    <defs>
      <clipPath id="mirrormyClip27">
        <path d="M 458.33333333333337,402.5105849101827 l -208.3333333333334,-360.843918243516 l -208.33333333333331,360.84391824351604 Z"/>
      </clipPath>
    </defs>
    <g clip-path="url(#mirrormyClip27)">
      <path d="M 374.0145470746113,284.0608326586681 c 0.0,-49.11341497048388 -39.814289416666085,-88.92770438714997 -88.92770438714996 -88.92770438714997c -49.11341497048388,-3.007329321939939e-15 -88.92770438714997,39.81428941666608 -88.92770438714997 88.92770438714994c -6.014658643879878e-15,49.11341497048388 39.81428941666608,88.92770438714997 88.92770438714994 88.92770438714997c 49.11341497048388,9.021987965819817e-15 88.92770438714997,-39.81428941666608 88.92770438714997 -88.92770438714994Z"/>
    </g>
  </g>
  <defs>
  </defs>
  <g stroke-linejoin="miter" stroke-opacity="1.0" fill-opacity="1.0" opacity="0.6718044158423887" stroke="rgb(0,0,0)" stroke-width="0.0" fill="rgb(21,137,255)" stroke-linecap="butt" stroke-miterlimit="10.0">
    <defs>
      <clipPath id="mirrormyClip28">
        <path d="M 458.33333333333337,402.5105849101827 l -208.3333333333334,-360.843918243516 l -208.33333333333331,360.84391824351604 Z"/>
      </clipPath>
    </defs>
    <g clip-path="url(#mirrormyClip28)">
      <path d="M 163.48357393180922,187.3778264475814 c 0.0,-54.817028691572666 -44.43798189556967,-99.25501058714235 -99.25501058714232 -99.25501058714235c -54.817028691572666,-3.356574936295154e-15 -99.25501058714235,44.43798189556966 -99.25501058714235 99.25501058714231c -6.713149872590308e-15,54.817028691572666 44.437981895569656,99.25501058714235 99.25501058714231 99.25501058714235c 54.817028691572666,1.0069724808885463e-14 99.25501058714235,-44.43798189556965 99.25501058714237 -99.25501058714231Z"/>
    </g>
  </g>
  <defs>
  </defs>
  <g stroke-linejoin="miter" stroke-opacity="1.0" fill-opacity="1.0" opacity="0.509040374256156" stroke="rgb(0,0,0)" stroke-width="0.0" fill="rgb(97,64,81)" stroke-linecap="butt" stroke-miterlimit="10.0">
    <defs>
      <clipPath id="mirrormyClip29">
        <path d="M 458.33333333333337,402.5105849101827 l -208.3333333333334,-360.843918243516 l -208.33333333333331,360.84391824351604 Z"/>
      </clipPath>
    </defs>
    <g clip-path="url(#mirrormyClip29)">
      <path d="M 431.059662082938,310.3604021749576 c 0.0,-45.12348548144121 -36.57981249168938,-81.70329797313059 -81.70329797313057 -81.70329797313059c -45.12348548144121,-2.7630166030609514e-15 -81.70329797313059,36.579812491689374 -81.70329797313059 81.70329797313057c -5.526033206121903e-15,45.12348548144121 36.57981249168937,81.70329797313059 81.70329797313056 81.70329797313059c 45.12348548144121,8.289049809182855e-15 81.70329797313059,-36.57981249168937 81.70329797313062 -81.70329797313057Z"/>
    </g>
  </g>
  <defs>
  </defs>
  <g stroke-linejoin="miter" stroke-opacity="1.0" fill-opacity="1.0" opacity="0.9173477583193336" stroke="rgb(0,0,0)" stroke-width="0.0" fill="rgb(138,251,23)" stroke-linecap="butt" stroke-miterlimit="10.0">
    <defs>
      <clipPath id="mirrormyClip30">
        <path d="M 458.33333333333337,402.5105849101827 l -208.3333333333334,-360.843918243516 l -208.33333333333331,360.84391824351604 Z"/>
      </clipPath>
    </defs>
    <g clip-path="url(#mirrormyClip30)">
      <path d="M 347.21783526060426,341.8205613442364 c 0.0,-42.26873207089999 -34.26557760151102,-76.53430967241101 -76.53430967241101 -76.53430967241101c -42.26873207089999,-2.5882133717322373e-15 -76.53430967241101,34.26557760151101 -76.53430967241101 76.534309672411c -5.1764267434644745e-15,42.26873207089999 34.265577601511005,76.53430967241101 76.53430967241098 76.53430967241101c 42.26873207089999,7.764640115196713e-15 76.53430967241101,-34.265577601511 76.53430967241104 -76.534309672411Z"/>
    </g>
  </g>
  <defs>
  </defs>
  <g stroke-linejoin="miter" stroke-opacity="1.0" fill-opacity="1.0" opacity="0.41537657792418836" stroke="rgb(0,0,0)" stroke-width="0.0" fill="rgb(95,251,23)" stroke-linecap="butt" stroke-miterlimit="10.0">
    <defs>
      <clipPath id="mirrormyClip31">
        <path d="M 458.33333333333337,402.5105849101827 l -208.3333333333334,-360.843918243516 l -208.33333333333331,360.84391824351604 Z"/>
      </clipPath>
    </defs>
    <g clip-path="url(#mirrormyClip31)">
      <path d="M 126.52863003749334,232.5419699789947 c 0.0,-16.13858437445546 -13.082907581279196,-29.221491955734656 -29.221491955734653 -29.221491955734656c -16.13858437445546,-9.882032848473183e-16 -29.221491955734656,13.082907581279192 -29.221491955734656 29.221491955734646c -1.9764065696946366e-15,16.13858437445546 13.082907581279192,29.221491955734656 29.221491955734646 29.221491955734656c 16.13858437445546,2.964609854541955e-15 29.221491955734656,-13.08290758127919 29.221491955734667 -29.221491955734646Z"/>
    </g>
  </g>
  <defs>
  </defs>
  <g stroke-linejoin="miter" stroke-opacity="1.0" fill-opacity="1.0" opacity="8.522904917565699e-2" stroke="rgb(0,0,0)" stroke-width="0.0" fill="rgb(193,27,23)" stroke-linecap="butt" stroke-miterlimit="10.0">
    <defs>
      <clipPath id="mirrormyClip32">
        <path d="M 458.33333333333337,402.5105849101827 l -208.3333333333334,-360.843918243516 l -208.33333333333331,360.84391824351604 Z"/>
      </clipPath>
    </defs>
    <g clip-path="url(#mirrormyClip32)">
      <path d="M 209.00667819544145,322.9092047213024 c 0.0,-21.17219042673512 -17.16345152829217,-38.3356419550273 -38.33564195502729 -38.3356419550273c -21.17219042673512,-1.2964227618519699e-15 -38.3356419550273,17.16345152829217 -38.3356419550273 38.335641955027285c -2.5928455237039397e-15,21.17219042673512 17.163451528292168,38.3356419550273 38.335641955027285 38.3356419550273c 21.17219042673512,3.88926828555591e-15 38.3356419550273,-17.163451528292168 38.33564195502731 -38.335641955027285Z"/>
    </g>
  </g>
  <defs>
  </defs>
  <g stroke-linejoin="miter" stroke-opacity="1.0" fill-opacity="1.0" opacity="0.5722563319824504" stroke="rgb(0,0,0)" stroke-width="0.0" fill="rgb(204,255,255)" stroke-linecap="butt" stroke-miterlimit="10.0">
    <defs>
      <clipPath id="mirrormyClip33">
        <path d="M 458.33333333333337,402.5105849101827 l -208.3333333333334,-360.843918243516 l -208.33333333333331,360.84391824351604 Z"/>
      </clipPath>
    </defs>
    <g clip-path="url(#mirrormyClip33)">
      <path d="M 207.94709452634945,353.1867957588347 c 0.0,-22.12118387089726 -17.932762716754578,-40.053946587651836 -40.05394658765183 -40.053946587651836c -22.12118387089726,-1.3545318510422194e-15 -40.053946587651836,17.932762716754574 -40.053946587651836 40.05394658765183c -2.7090637020844387e-15,22.12118387089726 17.93276271675457,40.053946587651836 40.05394658765182 40.053946587651836c 22.12118387089726,4.063595553126657e-15 40.053946587651836,-17.932762716754567 40.05394658765185 -40.05394658765183Z"/>
    </g>
  </g>
  <defs>
  </defs>
  <g stroke-linejoin="miter" stroke-opacity="1.0" fill-opacity="1.0" opacity="0.4769726778574993" stroke="rgb(0,0,0)" stroke-width="0.0" fill="rgb(248,129,88)" stroke-linecap="butt" stroke-miterlimit="10.0">
    <defs>
      <clipPath id="mirrormyClip34">
        <path d="M 458.33333333333337,402.5105849101827 l -208.3333333333334,-360.843918243516 l -208.33333333333331,360.84391824351604 Z"/>
      </clipPath>
    </defs>
    <g clip-path="url(#mirrormyClip34)">
      <path d="M 384.7380575646581,130.9671699589864 c 0.0,-53.427784848065656 -43.311777242748214,-96.73956209081388 -96.73956209081385 -96.73956209081388c -53.427784848065656,-3.2715082849858527e-15 -96.73956209081388,43.31177724274821 -96.73956209081388 96.73956209081385c -6.543016569971705e-15,53.427784848065656 43.31177724274821,96.73956209081388 96.73956209081383 96.73956209081388c 53.427784848065656,9.814524854957559e-15 96.73956209081388,-43.3117772427482 96.73956209081389 -96.73956209081385Z"/>
    </g>
  </g>
  <defs>
  </defs>
  <g stroke-linejoin="miter" stroke-opacity="1.0" fill-opacity="1.0" opacity="0.10326057703636105" stroke="rgb(0,0,0)" stroke-width="0.0" fill="rgb(131,126,124)" stroke-linecap="butt" stroke-miterlimit="10.0">
    <defs>
      <clipPath id="mirrormyClip35">
        <path d="M 458.33333333333337,402.5105849101827 l -208.3333333333334,-360.843918243516 l -208.33333333333331,360.84391824351604 Z"/>
      </clipPath>
    </defs>
    <g clip-path="url(#mirrormyClip35)">
      <path d="M 301.6780256816725,116.09088716728877 c 0.0,-15.223822187690006 -12.34134630981823,-27.56516849750824 -27.565168497508232 -27.56516849750824c -15.223822187690006,-9.321902556471511e-16 -27.56516849750824,12.341346309818228 -27.56516849750824 27.565168497508225c -1.8643805112943023e-15,15.223822187690006 12.341346309818226,27.56516849750824 27.565168497508225 27.56516849750824c 15.223822187690006,2.7965707669414532e-15 27.56516849750824,-12.341346309818224 27.565168497508246 -27.565168497508225Z"/>
    </g>
  </g>
  <defs>
  </defs>
  <g stroke-linejoin="miter" stroke-opacity="1.0" fill-opacity="1.0" opacity="0.7411921174161725" stroke="rgb(0,0,0)" stroke-width="0.0" fill="rgb(255,245,238)" stroke-linecap="butt" stroke-miterlimit="10.0">
    <defs>
      <clipPath id="mirrormyClip36">
        <path d="M 458.33333333333337,402.5105849101827 l -208.3333333333334,-360.843918243516 l -208.33333333333331,360.84391824351604 Z"/>
      </clipPath>
    </defs>
    <g clip-path="url(#mirrormyClip36)">
      <path d="M 358.9361593851162,474.19278635583925 c 0.0,-16.045427492617723 -13.007389007446143,-29.052816500063866 -29.052816500063862 -29.052816500063866c -16.045427492617723,-9.824990709892616e-16 -29.052816500063866,13.007389007446141 -29.052816500063866 29.052816500063855c -1.9649981419785232e-15,16.045427492617723 13.00738900744614,29.052816500063866 29.052816500063855 29.052816500063866c 16.045427492617723,2.9474972129677846e-15 29.052816500063866,-13.007389007446138 29.05281650006387 -29.052816500063855Z"/>
    </g>
  </g>
  <defs>
  </defs>
  <g stroke-linejoin="miter" stroke-opacity="1.0" fill-opacity="1.0" opacity="3.506547087105705e-2" stroke="rgb(0,0,0)" stroke-width="0.0" fill="rgb(227,49,157)" stroke-linecap="butt" stroke-miterlimit="10.0">
    <defs>
      <clipPath id="mirrormyClip37">
        <path d="M 458.33333333333337,402.5105849101827 l -208.3333333333334,-360.843918243516 l -208.33333333333331,360.84391824351604 Z"/>
      </clipPath>
    </defs>
    <g clip-path="url(#mirrormyClip37)">
      <path d="M 122.27556428748217,244.13345517519764 c 0.0,-39.70861632943454 -32.1901937347584,-71.89881006419294 -71.89881006419294 -71.89881006419294c -39.70861632943454,-2.4314514943206162e-15 -71.89881006419294,32.190193734758395 -71.89881006419294 71.89881006419293c -4.8629029886412325e-15,39.70861632943454 32.190193734758395,71.89881006419294 71.89881006419292 71.89881006419294c 39.70861632943454,7.294354482961849e-15 71.89881006419294,-32.19019373475839 71.89881006419297 -71.89881006419293Z"/>
    </g>
  </g>
  <defs>
  </defs>
  <g stroke-linejoin="miter" stroke-opacity="1.0" fill-opacity="1.0" opacity="0.9923898670690801" stroke="rgb(0,0,0)" stroke-width="0.0" fill="rgb(130,202,250)" stroke-linecap="butt" stroke-miterlimit="10.0">
    <defs>
      <clipPath id="mirrormyClip38">
        <path d="M 458.33333333333337,402.5105849101827 l -208.3333333333334,-360.843918243516 l -208.33333333333331,360.84391824351604 Z"/>
      </clipPath>
    </defs>
    <g clip-path="url(#mirrormyClip38)">
      <path d="M 194.41915790637083,424.16974606485053 c 0.0,-15.244283032703954 -12.357933101951996,-27.602216134655954 -27.602216134655947 -27.602216134655954c -15.244283032703954,-9.334431210648601e-16 -27.602216134655954,12.357933101951994 -27.602216134655954 27.602216134655944c -1.8668862421297203e-15,15.244283032703954 12.357933101951993,27.602216134655954 27.602216134655944 27.602216134655954c 15.244283032703954,2.8003293631945806e-15 27.602216134655954,-12.357933101951993 27.602216134655958 -27.602216134655944Z"/>
    </g>
  </g>
  <defs>
  </defs>
  <g stroke-linejoin="miter" stroke-opacity="1.0" fill-opacity="1.0" opacity="0.9684493798095125" stroke="rgb(0,0,0)" stroke-width="0.0" fill="rgb(254,252,255)" stroke-linecap="butt" stroke-miterlimit="10.0">
    <defs>
      <clipPath id="mirrormyClip39">
        <path d="M 458.33333333333337,402.5105849101827 l -208.3333333333334,-360.843918243516 l -208.33333333333331,360.84391824351604 Z"/>
      </clipPath>
    </defs>
    <g clip-path="url(#mirrormyClip39)">
      <path d="M 416.1250074018144,214.26634072540907 c 0.0,-37.36385735076641 -30.289391018329024,-67.65324836909544 -67.65324836909544 -67.65324836909544c -37.36385735076641,-2.2878764154207195e-15 -67.65324836909544,30.28939101832902 -67.65324836909544 67.65324836909542c -4.575752830841439e-15,37.36385735076641 30.289391018329013,67.65324836909544 67.65324836909541 67.65324836909544c 37.36385735076641,6.863629246262158e-15 67.65324836909544,-30.289391018329013 67.65324836909546 -67.65324836909542Z"/>
    </g>
  </g>
  <defs>
  </defs>
  <g stroke-linejoin="miter" stroke-opacity="1.0" fill-opacity="1.0" opacity="0.4512747437232296" stroke="rgb(0,0,0)" stroke-width="0.0" fill="rgb(195,142,199)" stroke-linecap="butt" stroke-miterlimit="10.0">
    <defs>
      <clipPath id="mirrormyClip40">
        <path d="M 458.33333333333337,402.5105849101827 l -208.3333333333334,-360.843918243516 l -208.33333333333331,360.84391824351604 Z"/>
      </clipPath>
    </defs>
    <g clip-path="url(#mirrormyClip40)">
      <path d="M 225.46077846001123,249.54525339579988 c 0.0,-45.48498152408303 -36.87286293571513,-82.35784445979817 -82.35784445979816 -82.35784445979817c -45.48498152408303,-2.7851518516372394e-15 -82.35784445979817,36.87286293571513 -82.35784445979817 82.35784445979816c -5.570303703274479e-15,45.48498152408303 36.872862935715126,82.35784445979817 82.35784445979814 82.35784445979817c 45.48498152408303,8.355455554911719e-15 82.35784445979817,-36.87286293571512 82.3578444597982 -82.35784445979816Z"/>
    </g>
  </g>
  <defs>
  </defs>
  <g stroke-linejoin="miter" stroke-opacity="1.0" fill-opacity="1.0" opacity="0.26679742670169826" stroke="rgb(0,0,0)" stroke-width="0.0" fill="rgb(76,196,23)" stroke-linecap="butt" stroke-miterlimit="10.0">
    <defs>
      <clipPath id="mirrormyClip41">
        <path d="M 458.33333333333337,402.5105849101827 l -208.3333333333334,-360.843918243516 l -208.33333333333331,360.84391824351604 Z"/>
      </clipPath>
    </defs>
    <g clip-path="url(#mirrormyClip41)">
      <path d="M 218.28783864407177,174.4975589502473 c 0.0,-52.22114493745051 -42.33360232553256,-94.55474726298308 -94.55474726298306 -94.55474726298308c -52.22114493745051,-3.1976228997729394e-15 -94.55474726298308,42.33360232553255 -94.55474726298308 94.55474726298306c -6.395245799545879e-15,52.22114493745051 42.333602325532546,94.55474726298308 94.55474726298304 94.55474726298308c 52.22114493745051,9.592868699318816e-15 94.55474726298308,-42.333602325532546 94.5547472629831 -94.55474726298306Z"/>
    </g>
  </g>
  <defs>
  </defs>
  <g stroke-linejoin="miter" stroke-opacity="1.0" fill-opacity="1.0" opacity="9.633336381350721e-2" stroke="rgb(0,0,0)" stroke-width="0.0" fill="rgb(135,175,199)" stroke-linecap="butt" stroke-miterlimit="10.0">
    <defs>
      <clipPath id="mirrormyClip42">
        <path d="M 458.33333333333337,402.5105849101827 l -208.3333333333334,-360.843918243516 l -208.33333333333331,360.84391824351604 Z"/>
      </clipPath>
    </defs>
    <g clip-path="url(#mirrormyClip42)">
      <path d="M 97.55011560756155,181.2474070618212 c 0.0,-29.50544614155235 -23.91889003755108,-53.424336179103435 -53.42433617910342 -53.424336179103435c -29.50544614155235,-1.8066875087333353e-15 -53.424336179103435,23.918890037551076 -53.424336179103435 53.42433617910341c -3.613375017466671e-15,29.50544614155235 23.918890037551076,53.424336179103435 53.42433617910341 53.424336179103435c 29.50544614155235,5.420062526200005e-15 53.424336179103435,-23.918890037551073 53.42433617910344 -53.42433617910341Z"/>
    </g>
  </g>
  <defs>
  </defs>
  <g stroke-linejoin="miter" stroke-opacity="1.0" fill-opacity="1.0" opacity="0.8343827292248259" stroke="rgb(0,0,0)" stroke-width="0.0" fill="rgb(233,171,23)" stroke-linecap="butt" stroke-miterlimit="10.0">
    <defs>
      <clipPath id="mirrormyClip43">
        <path d="M 458.33333333333337,402.5105849101827 l -208.3333333333334,-360.843918243516 l -208.33333333333331,360.84391824351604 Z"/>
      </clipPath>
    </defs>
    <g clip-path="url(#mirrormyClip43)">
      <path d="M 488.985814534702,159.6849650352063 c 0.0,-34.764460127517665 -28.182163218806203,-62.946623346323875 -62.94662334632387 -62.946623346323875c -34.764460127517665,-2.1287092409625148e-15 -62.946623346323875,28.182163218806203 -62.946623346323875 62.946623346323854c -4.2574184819250296e-15,34.764460127517665 28.1821632188062,62.946623346323875 62.946623346323854 62.946623346323875c 34.764460127517665,6.386127722887545e-15 62.946623346323875,-28.182163218806192 62.946623346323896 -62.946623346323854Z"/>
    </g>
  </g>
  <defs>
  </defs>
  <g stroke-linejoin="miter" stroke-opacity="1.0" fill-opacity="1.0" opacity="0.15985323080171354" stroke="rgb(0,0,0)" stroke-width="0.0" fill="rgb(21,49,126)" stroke-linecap="butt" stroke-miterlimit="10.0">
    <defs>
      <clipPath id="mirrormyClip44">
        <path d="M 458.33333333333337,402.5105849101827 l -208.3333333333334,-360.843918243516 l -208.33333333333331,360.84391824351604 Z"/>
      </clipPath>
    </defs>
    <g clip-path="url(#mirrormyClip44)">
      <path d="M 288.4939208839961,287.61613184967257 c 0.0,-47.495003435868206 -38.502307644004105,-85.99731107987232 -85.99731107987229 -85.99731107987232c -47.495003435868206,-2.9082301966614265e-15 -85.99731107987232,38.5023076440041 -85.99731107987232 85.99731107987229c -5.816460393322853e-15,47.495003435868206 38.50230764400409,85.99731107987232 85.99731107987228 85.99731107987232c 47.495003435868206,8.72469058998428e-15 85.99731107987232,-38.502307644004084 85.99731107987233 -85.99731107987229Z"/>
    </g>
  </g>
  <defs>
  </defs>
  <g stroke-linejoin="miter" stroke-opacity="1.0" fill-opacity="1.0" opacity="0.3912249786778328" stroke="rgb(0,0,0)" stroke-width="0.0" fill="rgb(87,27,126)" stroke-linecap="butt" stroke-miterlimit="10.0">
    <defs>
      <clipPath id="mirrormyClip45">
        <path d="M 458.33333333333337,402.5105849101827 l -208.3333333333334,-360.843918243516 l -208.33333333333331,360.84391824351604 Z"/>
      </clipPath>
    </defs>
    <g clip-path="url(#mirrormyClip45)">
      <path d="M 549.2504126247759,255.48863012760222 c 0.0,-54.92870835599055 -44.528516151510985,-99.45722450750155 -99.45722450750154 -99.45722450750155c -54.92870835599055,-3.3634133434731153e-15 -99.45722450750155,44.528516151510985 -99.45722450750155 99.45722450750152c -6.7268266869462306e-15,54.92870835599055 44.52851615151098,99.45722450750155 99.45722450750151 99.45722450750155c 54.92870835599055,1.0090240030419346e-14 99.45722450750155,-44.52851615151097 99.45722450750156 -99.45722450750152Z"/>
    </g>
  </g>
  <defs>
  </defs>
  <g stroke-linejoin="miter" stroke-opacity="1.0" fill-opacity="1.0" opacity="0.5472660334984274" stroke="rgb(0,0,0)" stroke-width="0.0" fill="rgb(231,153,163)" stroke-linecap="butt" stroke-miterlimit="10.0">
    <defs>
      <clipPath id="mirrormyClip46">
        <path d="M 458.33333333333337,402.5105849101827 l -208.3333333333334,-360.843918243516 l -208.33333333333331,360.84391824351604 Z"/>
      </clipPath>
    </defs>
    <g clip-path="url(#mirrormyClip46)">
      <path d="M 338.17464790776523,164.55218032221237 c 0.0,-46.806379302077275 -37.94406748541342,-84.75044678749072 -84.75044678749069 -84.75044678749072c -46.806379302077275,-2.866064129598293e-15 -84.75044678749072,37.94406748541341 -84.75044678749072 84.75044678749069c -5.732128259196586e-15,46.806379302077275 37.94406748541341,84.75044678749072 84.75044678749067 84.75044678749072c 46.806379302077275,8.598192388794879e-15 84.75044678749072,-37.94406748541341 84.75044678749073 -84.75044678749069Z"/>
    </g>
  </g>
  <defs>
  </defs>
  <g stroke-linejoin="miter" stroke-opacity="1.0" fill-opacity="1.0" opacity="0.5258181898609943" stroke="rgb(0,0,0)" stroke-width="0.0" fill="rgb(204,251,93)" stroke-linecap="butt" stroke-miterlimit="10.0">
    <defs>
      <clipPath id="mirrormyClip47">
        <path d="M 458.33333333333337,402.5105849101827 l -208.3333333333334,-360.843918243516 l -208.33333333333331,360.84391824351604 Z"/>
      </clipPath>
    </defs>
    <g clip-path="url(#mirrormyClip47)">
      <path d="M 275.01034815650377,163.75307281225838 c 0.0,-40.10461341731613 -32.5112128020448,-72.61582621936095 -72.61582621936094 -72.61582621936095c -40.10461341731613,-2.45569932262791e-15 -72.61582621936095,32.5112128020448 -72.61582621936095 72.61582621936093c -4.91139864525582e-15,40.10461341731613 32.5112128020448,72.61582621936095 72.61582621936091 72.61582621936095c 40.10461341731613,7.36709796788373e-15 72.61582621936095,-32.511212802044795 72.61582621936097 -72.61582621936093Z"/>
    </g>
  </g>
  <defs>
  </defs>
  <g stroke-linejoin="miter" stroke-opacity="1.0" fill-opacity="1.0" opacity="0.8429910422717214" stroke="rgb(0,0,0)" stroke-width="0.0" fill="rgb(240,255,255)" stroke-linecap="butt" stroke-miterlimit="10.0">
    <defs>
      <clipPath id="mirrormyClip48">
        <path d="M 458.33333333333337,402.5105849101827 l -208.3333333333334,-360.843918243516 l -208.33333333333331,360.84391824351604 Z"/>
      </clipPath>
    </defs>
    <g clip-path="url(#mirrormyClip48)">
      <path d="M 327.06321808056765,343.1946105904613 c 0.0,-14.079405379057697 -11.413613183144648,-25.493018562202344 -25.49301856220234 -25.493018562202344c -14.079405379057697,-8.621149365680517e-16 -25.493018562202344,11.413613183144646 -25.493018562202344 25.493018562202337c -1.7242298731361034e-15,14.079405379057697 11.413613183144644,25.493018562202344 25.493018562202334 25.493018562202344c 14.079405379057697,2.586344809704155e-15 25.493018562202344,-11.413613183144642 25.493018562202355 -25.493018562202337Z"/>
    </g>
  </g>
  <defs>
  </defs>
  <g stroke-linejoin="miter" stroke-opacity="1.0" fill-opacity="1.0" opacity="0.506780364840072" stroke="rgb(0,0,0)" stroke-width="0.0" fill="rgb(196,116,81)" stroke-linecap="butt" stroke-miterlimit="10.0">
    <defs>
      <clipPath id="mirrormyClip49">
        <path d="M 458.33333333333337,402.5105849101827 l -208.3333333333334,-360.843918243516 l -208.33333333333331,360.84391824351604 Z"/>
      </clipPath>
    </defs>
    <g clip-path="url(#mirrormyClip49)">
      <path d="M 339.5479486049116,349.1968478700129 c 0.0,-14.61763603080642 -11.849935335748432,-26.467571366554854 -26.46757136655485 -26.467571366554854c -14.61763603080642,-8.950720588114051e-16 -26.467571366554854,11.84993533574843 -26.467571366554854 26.467571366554843c -1.7901441176228102e-15,14.61763603080642 11.849935335748428,26.467571366554854 26.467571366554843 26.467571366554854c 14.61763603080642,2.6852161764342156e-15 26.467571366554854,-11.849935335748427 26.467571366554857 -26.467571366554843Z"/>
    </g>
  </g>
  <defs>
  </defs>
  <g stroke-linejoin="miter" stroke-opacity="1.0" fill-opacity="1.0" opacity="0.6177451719314333" stroke="rgb(0,0,0)" stroke-width="0.0" fill="rgb(181,234,170)" stroke-linecap="butt" stroke-miterlimit="10.0">
    <defs>
      <clipPath id="mirrormyClip50">
        <path d="M 458.33333333333337,402.5105849101827 l -208.3333333333334,-360.843918243516 l -208.33333333333331,360.84391824351604 Z"/>
      </clipPath>
    </defs>
    <g clip-path="url(#mirrormyClip50)">
      <path d="M 166.01569187787067,180.93363147575613 c 0.0,-56.93810995112717 -46.15745799379908,-103.09556794492626 -103.09556794492623 -103.09556794492626c -56.93810995112717,-3.486453705057397e-15 -103.09556794492626,46.15745799379907 -103.09556794492626 103.09556794492622c -6.972907410114794e-15,56.93810995112717 46.15745799379906,103.09556794492626 103.09556794492622 103.09556794492626c 56.93810995112717,1.0459361115172192e-14 103.09556794492626,-46.157457993799056 103.09556794492627 -103.09556794492622Z"/>
    </g>
  </g>
</svg>