<?xml version="1.0" encoding="UTF-8"?>
<!DOCTYPE svg PUBLIC "-//W3C//DTD SVG 1.1//EN"
    "http://www.w3.org/Graphics/SVG/1.1/DTD/svg11.dtd">
<svg xmlns="http://www.w3.org/2000/svg" height="463.83210721050096" stroke-opacity="1" viewBox="0 0 500 464" font-size="1" width="500.00000000000006" xmlns:xlink="http://www.w3.org/1999/xlink" stroke="rgb(0,0,0)" version="1.1">
  <defs>
  </defs>
  <defs>
  </defs>
  <g stroke-linejoin="miter" stroke-opacity="1.0" fill-opacity="1.0" opacity="0.3570422405617534" stroke="rgb(0,0,0)" stroke-width="0.0" fill="rgb(21,137,255)" stroke-linecap="butt" stroke-miterlimit="10.0">
    <path d="M 443.70718411223777,160.94864339157527 c 0.0,-39.15028238676326 -31.737574644882,-70.88785703164527 -70.88785703164524 -70.88785703164527c -39.15028238676326,-2.397263400533231e-15 -70.88785703164527,31.737574644881995 -70.88785703164527 70.88785703164524c -4.794526801066462e-15,39.15028238676326 31.73757464488199,70.88785703164527 70.88785703164523 70.88785703164527c 39.15028238676326,7.191790201599693e-15 70.88785703164527,-31.737574644881988 70.88785703164528 -70.88785703164524Z"/>
  </g>
  <defs>
  </defs>
  <g stroke-linejoin="miter" stroke-opacity="1.0" fill-opacity="1.0" opacity="0.2594275193344049" stroke="rgb(0,0,0)" stroke-width="0.0" fill="rgb(127,56,236)" stroke-linecap="butt" stroke-miterlimit="10.0">
    <path d="M 458.5870444863663,167.52592004026062 c 0.0,-35.251417297764846 -28.5769200020882,-63.828337299853054 -63.82833729985304 -63.828337299853054c -35.251417297764846,-2.1585267679557677e-15 -63.828337299853054,28.576920002088197 -63.828337299853054 63.82833729985304c -4.3170535359115354e-15,35.251417297764846 28.576920002088197,63.828337299853054 63.82833729985303 63.828337299853054c 35.251417297764846,6.475580303867304e-15 63.828337299853054,-28.57692000208819 63.82833729985306 -63.82833729985304Z"/>
  </g>
  <defs>
  </defs>
  <g stroke-linejoin="miter" stroke-opacity="1.0" fill-opacity="1.0" opacity="0.4776156270702475" stroke="rgb(0,0,0)" stroke-width="0.0" fill="rgb(212,160,23)" stroke-linecap="butt" stroke-miterlimit="10.0">
    <path d="M 165.73323686938136,295.131318017642 c 0.0,-37.23079902100743 -30.181525929869867,-67.4123249508773 -67.41232495087729 -67.4123249508773c -37.23079902100743,-2.2797289425387578e-15 -67.4123249508773,30.181525929869863 -67.4123249508773 67.41232495087728c -4.5594578850775156e-15,37.23079902100743 30.181525929869863,67.4123249508773 67.41232495087728 67.4123249508773c 37.23079902100743,6.839186827616273e-15 67.4123249508773,-30.18152592986986 67.4123249508773 -67.41232495087728Z"/>
  </g>
  <defs>
  </defs>
  <g stroke-linejoin="miter" stroke-opacity="1.0" fill-opacity="1.0" opacity="0.7081935842383938" stroke="rgb(0,0,0)" stroke-width="0.0" fill="rgb(76,196,23)" stroke-linecap="butt" stroke-miterlimit="10.0">
    <path d="M 187.3677487629784,91.05874959609093 c 0.0,-14.23495500027477 -11.539711065800764,-25.77466606607554 -25.774666066075536 -25.77466606607554c -14.23495500027477,-8.716396038546554e-16 -25.77466606607554,11.539711065800764 -25.77466606607554 25.77466606607553c -1.7432792077093108e-15,14.23495500027477 11.539711065800763,25.77466606607554 25.774666066075525 25.77466606607554c 14.23495500027477,2.6149188115639658e-15 25.77466606607554,-11.539711065800761 25.774666066075554 -25.77466606607553Z"/>
  </g>
  <defs>
  </defs>
  <g stroke-linejoin="miter" stroke-opacity="1.0" fill-opacity="1.0" opacity="0.8971006040074593" stroke="rgb(0,0,0)" stroke-width="0.0" fill="rgb(43,27,23)" stroke-linecap="butt" stroke-miterlimit="10.0">
    <path d="M 357.6104262869135,249.00790280043762 c 0.0,-31.759588656671895 -25.746233596074088,-57.505822252745986 -57.50582225274598 -57.505822252745986c -31.759588656671895,-1.944713929531491e-15 -57.505822252745986,25.746233596074084 -57.505822252745986 57.505822252745965c -3.889427859062982e-15,31.759588656671895 25.746233596074077,57.505822252745986 57.50582225274596 57.505822252745986c 31.759588656671895,5.834141788594473e-15 57.505822252745986,-25.746233596074077 57.505822252746015 -57.505822252745965Z"/>
  </g>
  <defs>
  </defs>
  <g stroke-linejoin="miter" stroke-opacity="1.0" fill-opacity="1.0" opacity="0.9931413769759115" stroke="rgb(0,0,0)" stroke-width="0.0" fill="rgb(253,238,244)" stroke-linecap="butt" stroke-miterlimit="10.0">
    <path d="M 445.3447777960123,247.0734012118285 c 0.0,-42.51129854599895 -34.46221658188276,-76.97351512788171 -76.97351512788168 -76.97351512788171c -42.51129854599895,-2.603066284597757e-15 -76.97351512788171,34.46221658188275 -76.97351512788171 76.97351512788168c -5.206132569195514e-15,42.51129854599895 34.46221658188275,76.97351512788171 76.97351512788167 76.97351512788171c 42.51129854599895,7.80919885379327e-15 76.97351512788171,-34.46221658188274 76.97351512788173 -76.97351512788168Z"/>
  </g>
  <defs>
  </defs>
  <g stroke-linejoin="miter" stroke-opacity="1.0" fill-opacity="1.0" opacity="0.3475321772366021" stroke="rgb(0,0,0)" stroke-width="0.0" fill="rgb(248,116,49)" stroke-linecap="butt" stroke-miterlimit="10.0">
    <path d="M 275.3892085478096,310.26469126613546 c 0.0,-10.409099904413923 -8.438242716585508,-18.847342620999434 -18.84734262099943 -18.847342620999434c -10.409099904413923,-6.373735439972766e-16 -18.847342620999434,8.438242716585508 -18.847342620999434 18.847342620999427c -1.2747470879945533e-15,10.409099904413923 8.438242716585506,18.847342620999434 18.847342620999424 18.847342620999434c 10.409099904413923,1.9121206319918295e-15 18.847342620999434,-8.438242716585505 18.847342620999445 -18.847342620999427Z"/>
  </g>
  <defs>
  </defs>
  <g stroke-linejoin="miter" stroke-opacity="1.0" fill-opacity="1.0" opacity="0.8189066356608298" stroke="rgb(0,0,0)" stroke-width="0.0" fill="rgb(255,255,255)" stroke-linecap="butt" stroke-miterlimit="10.0">
    <path d="M 171.13895920069186,87.26587132569558 c 0.0,-30.318479387349328 -24.577983708251566,-54.89646309560089 -54.896463095600886 -54.89646309560089c -30.318479387349328,-1.8564714368366178e-15 -54.89646309560089,24.57798370825156 -54.89646309560089 54.89646309560088c -3.7129428736732356e-15,30.318479387349328 24.57798370825156,54.89646309560089 54.89646309560087 54.89646309560089c 30.318479387349328,5.569414310509853e-15 54.89646309560089,-24.577983708251555 54.896463095600915 -54.89646309560088Z"/>
  </g>
  <defs>
  </defs>
  <g stroke-linejoin="miter" stroke-opacity="1.0" fill-opacity="1.0" opacity="0.5621863581018364" stroke="rgb(0,0,0)" stroke-width="0.0" fill="rgb(226,167,111)" stroke-linecap="butt" stroke-miterlimit="10.0">
    <path d="M 174.7163689579046,367.7417495331001 c 0.0,-35.515385866471895 -28.79090880734073,-64.30629467381263 -64.30629467381262 -64.30629467381263c -35.515385866471895,-2.1746901810928976e-15 -64.30629467381263,28.790908807340728 -64.30629467381263 64.30629467381262c -4.349380362185795e-15,35.515385866471895 28.790908807340724,64.30629467381263 64.3062946738126 64.30629467381263c 35.515385866471895,6.524070543278693e-15 64.30629467381263,-28.790908807340717 64.30629467381266 -64.30629467381262Z"/>
  </g>
  <defs>
  </defs>
  <g stroke-linejoin="miter" stroke-opacity="1.0" fill-opacity="1.0" opacity="0.8469813425737215" stroke="rgb(0,0,0)" stroke-width="0.0" fill="rgb(195,74,44)" stroke-linecap="butt" stroke-miterlimit="10.0">
    <path d="M 326.87925916556173,315.5597871565628 c 0.0,-33.299884578701445 -26.994890152818325,-60.29477473151978 -60.294774731519766 -60.29477473151978c -33.299884578701445,-2.039029853064152e-15 -60.29477473151978,26.99489015281832 -60.29477473151978 60.294774731519766c -4.078059706128304e-15,33.299884578701445 26.99489015281832,60.29477473151978 60.29477473151976 60.29477473151978c 33.299884578701445,6.117089559192455e-15 60.29477473151978,-26.994890152818318 60.29477473151979 -60.294774731519766Z"/>
  </g>
  <defs>
  </defs>
  <g stroke-linejoin="miter" stroke-opacity="1.0" fill-opacity="1.0" opacity="0.5356119333627692" stroke="rgb(0,0,0)" stroke-width="0.0" fill="rgb(145,114,236)" stroke-linecap="butt" stroke-miterlimit="10.0">
    <path d="M 308.3634048072505,232.6913545782627 c 0.0,-10.651610746803646 -8.63483659773563,-19.286447344539276 -19.286447344539273 -19.286447344539276c -10.651610746803646,-6.522230503418317e-16 -19.286447344539276,8.634836597735628 -19.286447344539276 19.28644734453927c -1.3044461006836634e-15,10.651610746803646 8.634836597735628,19.286447344539276 19.28644734453927 19.286447344539276c 10.651610746803646,1.9566691510254948e-15 19.286447344539276,-8.634836597735626 19.286447344539283 -19.28644734453927Z"/>
  </g>
  <defs>
  </defs>
  <g stroke-linejoin="miter" stroke-opacity="1.0" fill-opacity="1.0" opacity="9.704521828079427e-2" stroke="rgb(0,0,0)" stroke-width="0.0" fill="rgb(138,251,23)" stroke-linecap="butt" stroke-miterlimit="10.0">
    <path d="M 377.5600763196925,368.0574712439077 c 0.0,-35.824529643906246 -29.041519355060323,-64.86604899896658 -64.86604899896656 -64.86604899896658c -35.824529643906246,-2.1936197779684627e-15 -64.86604899896658,29.04151935506032 -64.86604899896658 64.86604899896655c -4.387239555936925e-15,35.824529643906246 29.041519355060316,64.86604899896658 64.86604899896655 64.86604899896658c 35.824529643906246,6.580859333905388e-15 64.86604899896658,-29.041519355060316 64.86604899896658 -64.86604899896655Z"/>
  </g>
  <defs>
  </defs>
  <g stroke-linejoin="miter" stroke-opacity="1.0" fill-opacity="1.0" opacity="0.1558070320981505" stroke="rgb(0,0,0)" stroke-width="0.0" fill="rgb(200,181,96)" stroke-linecap="butt" stroke-miterlimit="10.0">
    <path d="M 160.3089696600583,210.55923578131498 c 0.0,-31.977261674651537 -25.9226924422213,-57.89995411687284 -57.899954116872834 -57.89995411687284c -31.977261674651537,-1.9580425577679667e-15 -57.89995411687284,25.922692442221294 -57.89995411687284 57.89995411687282c -3.916085115535933e-15,31.977261674651537 25.92269244222129,57.89995411687284 57.89995411687281 57.89995411687284c 31.977261674651537,5.8741276733039e-15 57.89995411687284,-25.922692442221287 57.899954116872856 -57.89995411687282Z"/>
  </g>
  <defs>
  </defs>
  <g stroke-linejoin="miter" stroke-opacity="1.0" fill-opacity="1.0" opacity="0.9151537700937137" stroke="rgb(0,0,0)" stroke-width="0.0" fill="rgb(108,196,23)" stroke-linecap="butt" stroke-miterlimit="10.0">
    <path d="M 374.94956461320726,285.01927444971284 c 0.0,-20.80975092481409 -16.869636259405077,-37.67938718421917 -37.67938718421916 -37.67938718421917c -20.80975092481409,-1.2742297430563623e-15 -37.67938718421917,16.869636259405073 -37.67938718421917 37.67938718421916c -2.5484594861127247e-15,20.80975092481409 16.869636259405073,37.67938718421917 37.67938718421915 37.67938718421917c 20.80975092481409,3.822689229169087e-15 37.67938718421917,-16.86963625940507 37.67938718421918 -37.67938718421916Z"/>
  </g>
  <defs>
  </defs>
  <g stroke-linejoin="miter" stroke-opacity="1.0" fill-opacity="1.0" opacity="0.28778572005565417" stroke="rgb(0,0,0)" stroke-width="0.0" fill="rgb(204,255,255)" stroke-linecap="butt" stroke-miterlimit="10.0">
    <path d="M 306.3323091629782,94.40364435099295 c 0.0,-32.58125314509688 -26.412324271406064,-58.99357741650295 -58.99357741650293 -58.99357741650295c -32.58125314509688,-1.995026368817626e-15 -58.99357741650295,26.41232427140606 -58.99357741650295 58.99357741650293c -3.990052737635252e-15,32.58125314509688 26.412324271406057,58.99357741650295 58.99357741650292 58.99357741650295c 32.58125314509688,5.985079106452878e-15 58.99357741650295,-26.412324271406057 58.993577416502966 -58.99357741650293Z"/>
  </g>
  <defs>
  </defs>
  <g stroke-linejoin="miter" stroke-opacity="1.0" fill-opacity="1.0" opacity="0.5295131460726624" stroke="rgb(0,0,0)" stroke-width="0.0" fill="rgb(156,176,113)" stroke-linecap="butt" stroke-miterlimit="10.0">
    <path d="M 176.64464553493914,105.01035988423888 c 0.0,-36.541523405065256 -29.622757640646547,-66.16428104571182 -66.1642810457118 -66.16428104571182c -36.541523405065256,-2.237522983699063e-15 -66.16428104571182,29.622757640646544 -66.16428104571182 66.16428104571179c -4.475045967398126e-15,36.541523405065256 29.62275764064654,66.16428104571182 66.16428104571179 66.16428104571182c 36.541523405065256,6.712568951097189e-15 66.16428104571182,-29.622757640646537 66.16428104571185 -66.16428104571179Z"/>
  </g>
  <defs>
  </defs>
  <g stroke-linejoin="miter" stroke-opacity="1.0" fill-opacity="1.0" opacity="0.795735797095306" stroke="rgb(0,0,0)" stroke-width="0.0" fill="rgb(228,27,23)" stroke-linecap="butt" stroke-miterlimit="10.0">
    <path d="M 222.1878062359745,290.3143299691786 c 0.0,-30.725307274133975 -24.90778287283723,-55.63309014697121 -55.633090146971206 -55.63309014697121c -30.725307274133975,-1.881382460304353e-15 -55.63309014697121,24.907782872837227 -55.63309014697121 55.63309014697119c -3.762764920608706e-15,30.725307274133975 24.907782872837224,55.63309014697121 55.633090146971185 55.63309014697121c 30.725307274133975,5.644147380913059e-15 55.63309014697121,-24.90778287283722 55.63309014697124 -55.63309014697119Z"/>
  </g>
  <defs>
  </defs>
  <g stroke-linejoin="miter" stroke-opacity="1.0" fill-opacity="1.0" opacity="0.2730254450677386" stroke="rgb(0,0,0)" stroke-width="0.0" fill="rgb(59,49,49)" stroke-linecap="butt" stroke-miterlimit="10.0">
    <path d="M 338.5631966855184,145.72580526298077 c 0.0,-35.866922423897144 -29.075885493369967,-64.94280791726712 -64.9428079172671 -64.94280791726712c -35.866922423897144,-2.1962155870846032e-15 -64.94280791726712,29.075885493369967 -64.94280791726712 64.94280791726709c -4.3924311741692065e-15,35.866922423897144 29.075885493369963,64.94280791726712 64.94280791726709 64.94280791726712c 35.866922423897144,6.588646761253809e-15 64.94280791726712,-29.075885493369956 64.94280791726715 -64.94280791726709Z"/>
  </g>
  <defs>
  </defs>
  <g stroke-linejoin="miter" stroke-opacity="1.0" fill-opacity="1.0" opacity="0.29767057280288456" stroke="rgb(0,0,0)" stroke-width="0.0" fill="rgb(255,128,64)" stroke-linecap="butt" stroke-miterlimit="10.0">
    <path d="M 251.51807792833404,113.54034559060283 c 0.0,-35.83725021377951 -29.05183141441892,-64.88908162819844 -64.88908162819841 -64.88908162819844c -35.83725021377951,-2.194398688227394e-15 -64.88908162819844,29.051831414418917 -64.88908162819844 64.88908162819841c -4.388797376454788e-15,35.83725021377951 29.051831414418913,64.88908162819844 64.88908162819841 64.88908162819844c 35.83725021377951,6.5831960646821814e-15 64.88908162819844,-29.05183141441891 64.88908162819844 -64.88908162819841Z"/>
  </g>
  <defs>
  </defs>
  <g stroke-linejoin="miter" stroke-opacity="1.0" fill-opacity="1.0" opacity="0.11679399570025017" stroke="rgb(0,0,0)" stroke-width="0.0" fill="rgb(195,98,65)" stroke-linecap="butt" stroke-miterlimit="10.0">
    <path d="M 374.6595728321485,124.8565330926968 c 0.0,-29.25093246665999 -23.71256593814253,-52.96349840480253 -52.963498404802515 -52.96349840480253c -29.25093246665999,-1.7911030408685277e-15 -52.96349840480253,23.712565938142525 -52.96349840480253 52.96349840480251c -3.582206081737055e-15,29.25093246665999 23.712565938142525,52.96349840480253 52.9634984048025 52.96349840480253c 29.25093246665999,5.373309122605582e-15 52.96349840480253,-23.71256593814252 52.96349840480254 -52.96349840480251Z"/>
  </g>
  <defs>
  </defs>
  <g stroke-linejoin="miter" stroke-opacity="1.0" fill-opacity="1.0" opacity="0.8632175996621838" stroke="rgb(0,0,0)" stroke-width="0.0" fill="rgb(101,115,131)" stroke-linecap="butt" stroke-miterlimit="10.0">
    <path d="M 254.33105576710426,134.2410512331243 c 0.0,-33.82863998147333 -27.423531098458884,-61.252171079932225 -61.252171079932204 -61.252171079932225c -33.82863998147333,-2.0714067836409745e-15 -61.252171079932225,27.42353109845888 -61.252171079932225 61.252171079932204c -4.142813567281949e-15,33.82863998147333 27.42353109845888,61.252171079932225 61.2521710799322 61.252171079932225c 33.82863998147333,6.214220350922924e-15 61.252171079932225,-27.423531098458877 61.252171079932225 -61.252171079932204Z"/>
  </g>
  <defs>
  </defs>
  <g stroke-linejoin="miter" stroke-opacity="1.0" fill-opacity="1.0" opacity="0.9406813144513206" stroke="rgb(0,0,0)" stroke-width="0.0" fill="rgb(121,186,236)" stroke-linecap="butt" stroke-miterlimit="10.0">
    <path d="M 318.6733760501705,162.02957406675557 c 0.0,-16.07578289121796 -13.031996920089856,-29.107779811307818 -29.107779811307807 -29.107779811307818c -16.07578289121796,-9.843578030758928e-16 -29.107779811307818,13.031996920089854 -29.107779811307818 29.107779811307807c -1.9687156061517856e-15,16.07578289121796 13.031996920089851,29.107779811307818 29.107779811307804 29.107779811307818c 16.07578289121796,2.9530734092276782e-15 29.107779811307818,-13.031996920089851 29.107779811307825 -29.107779811307807Z"/>
  </g>
  <defs>
  </defs>
  <g stroke-linejoin="miter" stroke-opacity="1.0" fill-opacity="1.0" opacity="0.9662060031123852" stroke="rgb(0,0,0)" stroke-width="0.0" fill="rgb(233,171,23)" stroke-linecap="butt" stroke-miterlimit="10.0">
    <path d="M 301.5655723552025,158.45702251471346 c 0.0,-39.41751003483356 -31.954205455970996,-71.37171549080456 -71.37171549080455 -71.37171549080456c -39.41751003483356,-2.41362637472588e-15 -71.37171549080456,31.95420545597099 -71.37171549080456 71.37171549080455c -4.82725274945176e-15,39.41751003483356 31.954205455970985,71.37171549080456 71.37171549080453 71.37171549080456c 39.41751003483356,7.240879124177639e-15 71.37171549080456,-31.954205455970982 71.37171549080456 -71.37171549080455Z"/>
  </g>
  <defs>
  </defs>
  <g stroke-linejoin="miter" stroke-opacity="1.0" fill-opacity="1.0" opacity="0.6796561279010164" stroke="rgb(0,0,0)" stroke-width="0.0" fill="rgb(184,115,51)" stroke-linecap="butt" stroke-miterlimit="10.0">
    <path d="M 342.22722853230977,198.13106456418961 c 0.0,-25.697332931104658 -20.831804328212552,-46.52913725931722 -46.52913725931721 -46.52913725931722c -25.697332931104658,-1.5735078260350597e-15 -46.52913725931722,20.83180432821255 -46.52913725931722 46.5291372593172c -3.1470156520701193e-15,25.697332931104658 20.83180432821255,46.52913725931722 46.5291372593172 46.52913725931722c 25.697332931104658,4.720523478105179e-15 46.52913725931722,-20.831804328212545 46.52913725931722 -46.5291372593172Z"/>
  </g>
  <defs>
  </defs>
  <g stroke-linejoin="miter" stroke-opacity="1.0" fill-opacity="1.0" opacity="0.68873440839491" stroke="rgb(0,0,0)" stroke-width="0.0" fill="rgb(59,185,255)" stroke-linecap="butt" stroke-miterlimit="10.0">
    <path d="M 296.225953718817,311.5606088156564 c 0.0,-18.07828312826826 -14.655344106246185,-32.73362723451445 -32.73362723451444 -32.73362723451445c -18.07828312826826,-1.106975578355666e-15 -32.73362723451445,14.655344106246183 -32.73362723451445 32.73362723451444c -2.213951156711332e-15,18.07828312826826 14.655344106246181,32.73362723451445 32.73362723451444 32.73362723451445c 18.07828312826826,3.3209267350669983e-15 32.73362723451445,-14.655344106246181 32.73362723451445 -32.73362723451444Z"/>
  </g>
  <defs>
  </defs>
  <g stroke-linejoin="miter" stroke-opacity="1.0" fill-opacity="1.0" opacity="0.6744089947181051" stroke="rgb(0,0,0)" stroke-width="0.0" fill="rgb(249,150,107)" stroke-linecap="butt" stroke-miterlimit="10.0">
    <path d="M 304.23064332559585,285.0519361207573 c 0.0,-34.15220028049034 -27.685828546041147,-61.83802882653149 -61.83802882653148 -61.83802882653149c -34.15220028049034,-2.0912191378670915e-15 -61.83802882653149,27.685828546041144 -61.83802882653149 61.83802882653148c -4.182438275734183e-15,34.15220028049034 27.68582854604114,61.83802882653149 61.83802882653147 61.83802882653149c 34.15220028049034,6.273657413601275e-15 61.83802882653149,-27.685828546041137 61.8380288265315 -61.83802882653148Z"/>
  </g>
  <defs>
  </defs>
  <g stroke-linejoin="miter" stroke-opacity="1.0" fill-opacity="1.0" opacity="0.6174388460513771" stroke="rgb(0,0,0)" stroke-width="0.0" fill="rgb(204,102,0)" stroke-linecap="butt" stroke-miterlimit="10.0">
    <path d="M 339.1003812674629,216.23639390777873 c 0.0,-36.43263018941618 -29.534482247742808,-65.967112437159 -65.96711243715897 -65.967112437159c -36.43263018941618,-2.2308551972993877e-15 -65.967112437159,29.534482247742805 -65.967112437159 65.96711243715897c -4.4617103945987755e-15,36.43263018941618 29.5344822477428,65.967112437159 65.96711243715897 65.967112437159c 36.43263018941618,6.692565591898163e-15 65.967112437159,-29.5344822477428 65.967112437159 -65.96711243715897Z"/>
  </g>
  <defs>
  </defs>
  <g stroke-linejoin="miter" stroke-opacity="1.0" fill-opacity="1.0" opacity="0.6718044158423887" stroke="rgb(0,0,0)" stroke-width="0.0" fill="rgb(21,137,255)" stroke-linecap="butt" stroke-miterlimit="10.0">
    <path d="M 182.92722384114168,144.51635136937153 c 0.0,-40.663605566888705 -32.964365474040875,-73.6279710409296 -73.62797104092958 -73.6279710409296c -40.663605566888705,-2.489927719964037e-15 -73.6279710409296,32.964365474040875 -73.6279710409296 73.62797104092957c -4.979855439928074e-15,40.663605566888705 32.96436547404087,73.6279710409296 73.62797104092955 73.6279710409296c 40.663605566888705,7.469783159892112e-15 73.6279710409296,-32.96436547404087 73.62797104092964 -73.62797104092957Z"/>
  </g>
  <defs>
  </defs>
  <g stroke-linejoin="miter" stroke-opacity="1.0" fill-opacity="1.0" opacity="0.509040374256156" stroke="rgb(0,0,0)" stroke-width="0.0" fill="rgb(97,64,81)" stroke-linecap="butt" stroke-miterlimit="10.0">
    <path d="M 381.4167948269781,235.74557466630782 c 0.0,-33.472876206853606 -27.13512757581262,-60.60800378266623 -60.608003782666216 -60.60800378266623c -33.472876206853606,-2.049622535248943e-15 -60.60800378266623,27.135127575812618 -60.60800378266623 60.608003782666216c -4.099245070497886e-15,33.472876206853606 27.135127575812614,60.60800378266623 60.60800378266621 60.60800378266623c 33.472876206853606,6.148867605746829e-15 60.60800378266623,-27.135127575812614 60.60800378266624 -60.608003782666216Z"/>
  </g>
  <defs>
  </defs>
  <g stroke-linejoin="miter" stroke-opacity="1.0" fill-opacity="1.0" opacity="0.9173477583193336" stroke="rgb(0,0,0)" stroke-width="0.0" fill="rgb(138,251,23)" stroke-linecap="butt" stroke-miterlimit="10.0">
    <path d="M 319.2224173262709,259.08291224308465 c 0.0,-31.3552027493934 -25.418414047014366,-56.77361679640777 -56.77361679640776 -56.77361679640777c -31.3552027493934,-1.9199524341830457e-15 -56.77361679640777,25.418414047014362 -56.77361679640777 56.77361679640775c -3.8399048683660914e-15,31.3552027493934 25.41841404701436,56.77361679640777 56.773616796407744 56.77361679640777c 31.3552027493934,5.759857302549137e-15 56.77361679640777,-25.418414047014355 56.77361679640779 -56.77361679640775Z"/>
  </g>
  <defs>
  </defs>
  <g stroke-linejoin="miter" stroke-opacity="1.0" fill-opacity="1.0" opacity="0.41537657792418836" stroke="rgb(0,0,0)" stroke-width="0.0" fill="rgb(95,251,23)" stroke-linecap="butt" stroke-miterlimit="10.0">
    <path d="M 155.51382150735222,178.01938796518905 c 0.0,-11.971700128133715 -9.70498048236938,-21.676680610503098 -21.676680610503094 -21.676680610503098c -11.971700128133715,-7.330552121135456e-16 -21.676680610503098,9.704980482369379 -21.676680610503098 21.67668061050309c -1.4661104242270912e-15,11.971700128133715 9.704980482369379,21.676680610503098 21.67668061050309 21.676680610503098c 11.971700128133715,2.199165636340637e-15 21.676680610503098,-9.704980482369377 21.676680610503105 -21.67668061050309Z"/>
  </g>
  <defs>
  </defs>
  <g stroke-linejoin="miter" stroke-opacity="1.0" fill-opacity="1.0" opacity="8.522904917565699e-2" stroke="rgb(0,0,0)" stroke-width="0.0" fill="rgb(193,27,23)" stroke-linecap="butt" stroke-miterlimit="10.0">
    <path d="M 216.69653969319324,245.0543527825464 c 0.0,-15.705659738397511 -12.731952821444741,-28.437612559842258 -28.437612559842254 -28.437612559842258c -15.705659738397511,-9.616942963562983e-16 -28.437612559842258,12.731952821444741 -28.437612559842258 28.437612559842247c -1.9233885927125966e-15,15.705659738397511 12.73195282144474,28.437612559842258 28.437612559842243 28.437612559842258c 15.705659738397511,2.885082889068895e-15 28.437612559842258,-12.731952821444738 28.43761255984227 -28.437612559842247Z"/>
  </g>
  <defs>
  </defs>
  <g stroke-linejoin="miter" stroke-opacity="1.0" fill-opacity="1.0" opacity="0.5722563319824504" stroke="rgb(0,0,0)" stroke-width="0.0" fill="rgb(204,255,255)" stroke-linecap="butt" stroke-miterlimit="10.0">
    <path d="M 215.91053407753867,267.51445412063765 c 0.0,-16.409628852011743 -13.302632544014946,-29.71226139602669 -29.712261396026683 -29.71226139602669c -16.409628852011743,-1.0047999724406119e-15 -29.71226139602669,13.302632544014944 -29.71226139602669 29.712261396026683c -2.0095999448812237e-15,16.409628852011743 13.30263254401494,29.71226139602669 29.71226139602668 29.71226139602669c 16.409628852011743,3.0143999173218352e-15 29.71226139602669,-13.302632544014939 29.712261396026694 -29.712261396026683Z"/>
  </g>
  <defs>
  </defs>
  <g stroke-linejoin="miter" stroke-opacity="1.0" fill-opacity="1.0" opacity="0.4769726778574993" stroke="rgb(0,0,0)" stroke-width="0.0" fill="rgb(248,129,88)" stroke-linecap="butt" stroke-miterlimit="10.0">
    <path d="M 347.05514662537973,102.67058300188381 c 0.0,-39.63305602713807 -32.128940007119006,-71.76199603425708 -71.76199603425707 -71.76199603425708c -39.63305602713807,-2.4268247602031173e-15 -71.76199603425708,32.128940007119006 -71.76199603425708 71.76199603425705c -4.8536495204062346e-15,39.63305602713807 32.128940007119006,71.76199603425708 71.76199603425705 71.76199603425708c 39.63305602713807,7.280474280609352e-15 71.76199603425708,-32.128940007119 71.76199603425708 -71.76199603425705Z"/>
  </g>
  <defs>
  </defs>
  <g stroke-linejoin="miter" stroke-opacity="1.0" fill-opacity="1.0" opacity="0.10326057703636105" stroke="rgb(0,0,0)" stroke-width="0.0" fill="rgb(131,126,124)" stroke-linecap="butt" stroke-miterlimit="10.0">
    <path d="M 285.4407093696411,91.63526587175114 c 0.0,-11.293123969629642 -9.15488581715078,-20.44800978678042 -20.448009786780418 -20.44800978678042c -11.293123969629642,-6.915044060890595e-16 -20.44800978678042,9.154885817150777 -20.44800978678042 20.448009786780414c -1.383008812178119e-15,11.293123969629642 9.154885817150776,20.44800978678042 20.448009786780414 20.44800978678042c 11.293123969629642,2.0745132182671787e-15 20.44800978678042,-9.154885817150774 20.44800978678042 -20.448009786780414Z"/>
  </g>
  <defs>
  </defs>
  <g stroke-linejoin="miter" stroke-opacity="1.0" fill-opacity="1.0" opacity="0.7411921174161725" stroke="rgb(0,0,0)" stroke-width="0.0" fill="rgb(255,245,238)" stroke-linecap="butt" stroke-miterlimit="10.0">
    <path d="M 327.91514149388644,357.27743453594974 c 0.0,-11.902595786119765 -9.64896034460162,-21.551556130721387 -21.551556130721384 -21.551556130721387c -11.902595786119765,-7.288237915508171e-16 -21.551556130721387,9.648960344601619 -21.551556130721387 21.551556130721377c -1.4576475831016342e-15,11.902595786119765 9.648960344601617,21.551556130721387 21.551556130721377 21.551556130721387c 11.902595786119765,2.186471374652451e-15 21.551556130721387,-9.648960344601617 21.551556130721398 -21.551556130721377Z"/>
  </g>
  <defs>
  </defs>
  <g stroke-linejoin="miter" stroke-opacity="1.0" fill-opacity="1.0" opacity="3.506547087105705e-2" stroke="rgb(0,0,0)" stroke-width="0.0" fill="rgb(227,49,157)" stroke-linecap="butt" stroke-miterlimit="10.0">
    <path d="M 152.35887144463408,186.61802224368816 c 0.0,-29.456093308378794 -23.878881661332784,-53.33497496971158 -53.334974969711574 -53.33497496971158c -29.456093308378794,-1.803665519274593e-15 -53.33497496971158,23.87888166133278 -53.33497496971158 53.33497496971157c -3.607331038549186e-15,29.456093308378794 23.87888166133278,53.33497496971158 53.33497496971156 53.33497496971158c 29.456093308378794,5.4109965578237785e-15 53.33497496971158,-23.878881661332777 53.3349749697116 -53.33497496971157Z"/>
  </g>
  <defs>
  </defs>
  <g stroke-linejoin="miter" stroke-opacity="1.0" fill-opacity="1.0" opacity="0.9923898670690801" stroke="rgb(0,0,0)" stroke-width="0.0" fill="rgb(130,202,250)" stroke-linecap="butt" stroke-miterlimit="10.0">
    <path d="M 205.87542834527105,320.1700387466908 c 0.0,-11.308301949010716 -9.16719000052311,-20.47549194953383 -20.475491949533826 -20.47549194953383c -11.308301949010716,-6.924337892823873e-16 -20.47549194953383,9.167190000523108 -20.47549194953383 20.47549194953382c -1.3848675785647747e-15,11.308301949010716 9.167190000523108,20.47549194953383 20.47549194953382 20.47549194953383c 11.308301949010716,2.0773013678471625e-15 20.47549194953383,-9.167190000523107 20.475491949533833 -20.47549194953382Z"/>
  </g>
  <defs>
  </defs>
  <g stroke-linejoin="miter" stroke-opacity="1.0" fill-opacity="1.0" opacity="0.9684493798095125" stroke="rgb(0,0,0)" stroke-width="0.0" fill="rgb(254,252,255)" stroke-linecap="butt" stroke-miterlimit="10.0">
    <path d="M 370.3381770739465,164.46241493704775 c 0.0,-27.716736824931896 -22.46885463567538,-50.18559146060728 -50.18559146060727 -50.18559146060728c -27.716736824931896,-1.697160651773121e-15 -50.18559146060728,22.468854635675378 -50.18559146060728 50.18559146060726c -3.394321303546242e-15,27.716736824931896 22.46885463567537,50.18559146060728 50.185591460607256 50.18559146060728c 27.716736824931896,5.0914819553193625e-15 50.18559146060728,-22.46885463567537 50.185591460607284 -50.18559146060726Z"/>
  </g>
  <defs>
  </defs>
  <g stroke-linejoin="miter" stroke-opacity="1.0" fill-opacity="1.0" opacity="0.4512747437232296" stroke="rgb(0,0,0)" stroke-width="0.0" fill="rgb(195,142,199)" stroke-linecap="butt" stroke-miterlimit="10.0">
    <path d="M 228.90229142922936,190.6325271065537 c 0.0,-33.74103617179236 -27.35251417905434,-61.093550350846705 -61.093550350846684 -61.093550350846705c -33.74103617179236,-2.0660425973850285e-15 -61.093550350846705,27.35251417905434 -61.093550350846705 61.093550350846684c -4.132085194770057e-15,33.74103617179236 27.352514179054335,61.093550350846705 61.09355035084668 61.093550350846705c 33.74103617179236,6.198127792155086e-15 61.093550350846705,-27.35251417905433 61.09355035084672 -61.093550350846684Z"/>
  </g>
  <defs>
  </defs>
  <g stroke-linejoin="miter" stroke-opacity="1.0" fill-opacity="1.0" opacity="0.26679742670169826" stroke="rgb(0,0,0)" stroke-width="0.0" fill="rgb(76,196,23)" stroke-linecap="butt" stroke-miterlimit="10.0">
    <path d="M 223.58136101048098,134.96169053478803 c 0.0,-38.73796319635749 -31.403323899159545,-70.14128709551704 -70.14128709551703 -70.14128709551704c -38.73796319635749,-2.372016131695359e-15 -70.14128709551704,31.403323899159542 -70.14128709551704 70.14128709551701c -4.744032263390718e-15,38.73796319635749 31.403323899159535,70.14128709551704 70.14128709551701 70.14128709551704c 38.73796319635749,7.116048395086075e-15 70.14128709551704,-31.40332389915953 70.14128709551707 -70.14128709551701Z"/>
  </g>
  <defs>
  </defs>
  <g stroke-linejoin="miter" stroke-opacity="1.0" fill-opacity="1.0" opacity="9.633336381350721e-2" stroke="rgb(0,0,0)" stroke-width="0.0" fill="rgb(135,175,199)" stroke-linecap="butt" stroke-miterlimit="10.0">
    <path d="M 134.01738310454806,139.96876895178448 c 0.0,-21.887319554035127 -17.743178229473948,-39.63049778350908 -39.630497783509064 -39.63049778350908c -21.887319554035127,-1.3402117916882195e-15 -39.63049778350908,17.743178229473944 -39.63049778350908 39.63049778350906c -2.680423583376439e-15,21.887319554035127 17.743178229473944,39.63049778350908 39.63049778350906 39.63049778350908c 21.887319554035127,4.020635375064658e-15 39.63049778350908,-17.74317822947394 39.630497783509085 -39.63049778350906Z"/>
  </g>
  <defs>
  </defs>
  <g stroke-linejoin="miter" stroke-opacity="1.0" fill-opacity="1.0" opacity="0.8343827292248259" stroke="rgb(0,0,0)" stroke-width="0.0" fill="rgb(233,171,23)" stroke-linecap="butt" stroke-miterlimit="10.0">
    <path d="M 424.38676732510646,123.97361820104761 c 0.0,-25.788488141615307 -20.905700226823736,-46.69418836843905 -46.69418836843904 -46.69418836843905c -25.788488141615307,-1.579089472873933e-15 -46.69418836843905,20.905700226823736 -46.69418836843905 46.694188368439036c -3.158178945747866e-15,25.788488141615307 20.905700226823733,46.69418836843905 46.694188368439036 46.69418836843905c 25.788488141615307,4.737268418621799e-15 46.69418836843905,-20.90570022682373 46.69418836843905 -46.694188368439036Z"/>
  </g>
  <defs>
  </defs>
  <g stroke-linejoin="miter" stroke-opacity="1.0" fill-opacity="1.0" opacity="0.15985323080171354" stroke="rgb(0,0,0)" stroke-width="0.0" fill="rgb(21,49,126)" stroke-linecap="butt" stroke-miterlimit="10.0">
    <path d="M 275.6606601761383,218.873736489565 c 0.0,-35.23208266140629 -28.561246182456472,-63.79332884386277 -63.793328843862746 -63.79332884386277c -35.23208266140629,-2.1573428629293083e-15 -63.79332884386277,28.56124618245647 -63.79332884386277 63.793328843862746c -4.314685725858617e-15,35.23208266140629 28.561246182456465,63.79332884386277 63.79332884386274 63.79332884386277c 35.23208266140629,6.472028588787925e-15 63.79332884386277,-28.561246182456458 63.79332884386277 -63.793328843862746Z"/>
  </g>
  <defs>
  </defs>
  <g stroke-linejoin="miter" stroke-opacity="1.0" fill-opacity="1.0" opacity="0.3912249786778328" stroke="rgb(0,0,0)" stroke-width="0.0" fill="rgb(87,27,126)" stroke-linecap="butt" stroke-miterlimit="10.0">
    <path d="M 469.09141303237334,195.04136014486448 c 0.0,-40.74645022177292 -33.031524336200356,-73.77797455797328 -73.77797455797327 -73.77797455797328c -40.74645022177292,-2.4950004920355586e-15 -73.77797455797328,33.031524336200356 -73.77797455797328 73.77797455797327c -4.990000984071117e-15,40.74645022177292 33.03152433620035,73.77797455797328 73.77797455797325 73.77797455797328c 40.74645022177292,7.485001476106675e-15 73.77797455797328,-33.03152433620034 73.77797455797328 -73.77797455797327Z"/>
  </g>
  <defs>
  </defs>
  <g stroke-linejoin="miter" stroke-opacity="1.0" fill-opacity="1.0" opacity="0.5472660334984274" stroke="rgb(0,0,0)" stroke-width="0.0" fill="rgb(231,153,163)" stroke-linecap="butt" stroke-miterlimit="10.0">
    <path d="M 312.51412590003645,127.58414812877375 c 0.0,-34.721257087151486 -28.147140234681547,-62.868397321833044 -62.86839732183302 -62.868397321833044c -34.721257087151486,-2.126063817707621e-15 -62.868397321833044,28.147140234681544 -62.868397321833044 62.86839732183302c -4.252127635415242e-15,34.721257087151486 28.14714023468154,62.868397321833044 62.868397321833015 62.868397321833044c 34.721257087151486,6.378191453122863e-15 62.868397321833044,-28.14714023468154 62.868397321833044 -62.86839732183302Z"/>
  </g>
  <defs>
  </defs>
  <g stroke-linejoin="miter" stroke-opacity="1.0" fill-opacity="1.0" opacity="0.5258181898609943" stroke="rgb(0,0,0)" stroke-width="0.0" fill="rgb(204,251,93)" stroke-linecap="butt" stroke-miterlimit="10.0">
    <path d="M 265.65846384936987,126.99136531354425 c 0.0,-29.749846358691958 -24.117015559560503,-53.86686191825247 -53.86686191825246 -53.86686191825247c -29.749846358691958,-1.8216527059148825e-15 -53.86686191825247,24.117015559560496 -53.86686191825247 53.86686191825245c -3.643305411829765e-15,29.749846358691958 24.117015559560496,53.86686191825247 53.86686191825244 53.86686191825247c 29.749846358691958,5.464958117744647e-15 53.86686191825247,-24.117015559560492 53.866861918252496 -53.86686191825245Z"/>
  </g>
  <defs>
  </defs>
  <g stroke-linejoin="miter" stroke-opacity="1.0" fill-opacity="1.0" opacity="0.8429910422717214" stroke="rgb(0,0,0)" stroke-width="0.0" fill="rgb(240,255,255)" stroke-linecap="butt" stroke-miterlimit="10.0">
    <path d="M 304.2715996164696,260.10219033807846 c 0.0,-10.44418861466583 -8.46668773646585,-18.91087635113168 -18.910876351131677 -18.91087635113168c -10.44418861466583,-6.395221078320868e-16 -18.91087635113168,8.466687736465849 -18.91087635113168 18.910876351131673c -1.2790442156641736e-15,10.44418861466583 8.466687736465849,18.91087635113168 18.910876351131673 18.91087635113168c 10.44418861466583,1.9185663234962605e-15 18.91087635113168,-8.466687736465847 18.91087635113168 -18.910876351131673Z"/>
  </g>
  <defs>
  </defs>
  <g stroke-linejoin="miter" stroke-opacity="1.0" fill-opacity="1.0" opacity="0.506780364840072" stroke="rgb(0,0,0)" stroke-width="0.0" fill="rgb(196,116,81)" stroke-linecap="butt" stroke-miterlimit="10.0">
    <path d="M 313.53284871676726,264.55468648900694 c 0.0,-10.843451388463055 -8.790354165257598,-19.633805553720656 -19.633805553720652 -19.633805553720656c -10.843451388463055,-6.639699017295602e-16 -19.633805553720656,8.790354165257597 -19.633805553720656 19.63380555372065c -1.3279398034591204e-15,10.843451388463055 8.790354165257597,19.633805553720656 19.63380555372065 19.633805553720656c 10.843451388463055,1.9919097051886807e-15 19.633805553720656,-8.790354165257595 19.633805553720663 -19.63380555372065Z"/>
  </g>
  <defs>
  </defs>
  <g stroke-linejoin="miter" stroke-opacity="1.0" fill-opacity="1.0" opacity="0.6177451719314333" stroke="rgb(0,0,0)" stroke-width="0.0" fill="rgb(181,234,170)" stroke-linecap="butt" stroke-miterlimit="10.0">
    <path d="M 184.80556434709678,139.73600831201944 c 0.0,-42.237036556720945 -34.23988331054198,-76.47691986726294 -76.47691986726292 -76.47691986726294c -42.237036556720945,-2.5862725812329025e-15 -76.47691986726294,34.23988331054197 -76.47691986726294 76.47691986726291c -5.172545162465805e-15,42.237036556720945 34.23988331054197,76.47691986726294 76.4769198672629 76.47691986726294c 42.237036556720945,7.758817743698708e-15 76.47691986726294,-34.23988331054196 76.47691986726295 -76.47691986726291Z"/>
  </g>
</svg>