<?xml version="1.0" encoding="UTF-8"?>
<!DOCTYPE svg PUBLIC "-//W3C//DTD SVG 1.1//EN"
    "http://www.w3.org/Graphics/SVG/1.1/DTD/svg11.dtd">
<svg xmlns="http://www.w3.org/2000/svg" height="146.70752745963736" stroke-opacity="1" viewBox="0 0 500 147" font-size="1" width="500.0" xmlns:xlink="http://www.w3.org/1999/xlink" stroke="rgb(0,0,0)" version="1.1">
  <defs>
  </defs>
  <defs>
  </defs>
  <g stroke-linejoin="miter" stroke-opacity="1.0" fill-opacity="0.0" stroke="rgb(0,0,0)" stroke-width="1.0833559985882288" fill="rgb(0,0,0)" stroke-linecap="butt" stroke-miterlimit="10.0">
    <path d="M 400.1260554870496,121.4921711775122 v -20.6307460490115 l 11.911166784979597,6.876915349670501 v 20.6307460490115 M 435.85955584198837,73.35376372981868 l -29.77791696244899,-30.946119073517245 M 376.3037219170904,38.96918698146618 l 29.77791696244899,3.4384576748352536 M 406.08163887953936,42.40764465630143 l 59.55583392489798,-34.3845767483525 M 495.41538976688634,38.96918698146618 l -29.77791696244899,-30.946119073517245 M 435.85955584198837,4.584610233113681 l 29.77791696244899,3.4384576748352536 M 435.85955584198837,73.35376372981868 v -68.769153496705 M 435.85955584198837,73.35376372981868 l 59.55583392489798,34.3845767483525 M 435.85955584198837,73.35376372981868 l -59.55583392489798,34.3845767483525 M 435.85955584198837,4.584610233113681 v 68.769153496705 M 435.85955584198837,4.584610233113681 l 59.55583392489798,34.3845767483525 M 435.85955584198837,4.584610233113681 l -59.55583392489798,34.3845767483525 M 495.41538976688634,107.73834047817118 l -59.55583392489798,-34.3845767483525 M 495.41538976688634,107.73834047817118 v -68.769153496705 M 495.41538976688634,107.73834047817118 l -59.55583392489798,34.3845767483525 M 495.41538976688634,38.96918698146618 l -59.55583392489798,-34.3845767483525 M 495.41538976688634,38.96918698146618 v 68.769153496705 M 495.41538976688634,38.96918698146618 l -59.55583392489798,34.3845767483525 M 376.3037219170904,107.73834047817118 l 59.55583392489798,-34.3845767483525 M 376.3037219170904,107.73834047817118 v -68.769153496705 M 376.3037219170904,107.73834047817118 l 59.55583392489798,34.3845767483525 M 376.3037219170904,38.96918698146618 l 59.55583392489798,-34.3845767483525 M 376.3037219170904,38.96918698146618 v 68.769153496705 M 376.3037219170904,38.96918698146618 l 59.55583392489798,34.3845767483525 M 435.85955584198837,142.12291722652367 l 59.55583392489798,-34.3845767483525 M 435.85955584198837,142.12291722652367 l -59.55583392489798,-34.3845767483525 M 435.85955584198837,142.12291722652367 v -68.769153496705 M 435.85955584198837,73.35376372981868 l 59.55583392489798,-34.3845767483525 M 435.85955584198837,73.35376372981868 l -59.55583392489798,-34.3845767483525 M 435.85955584198837,73.35376372981868 v 68.769153496705 "/>
  </g>
  <defs>
  </defs>
  <g stroke-linejoin="miter" stroke-opacity="1.0" fill-opacity="0.0" stroke="rgb(0,0,0)" stroke-width="1.0833559985882288" fill="rgb(0,0,0)" stroke-linecap="butt" stroke-miterlimit="10.0">
    <path d="M 225.26528377332363,125.96785714187325 v -25.297355450736642 l 11.842845753739816,5.3850200282167995 v 25.297355450736642 M 260.79382103454304,57.798399057401525 l -29.60711438434954,-30.327453704366423 M 201.57959226584398,30.87329891631748 l 29.60711438434954,-3.4023535632824267 M 231.1867066501935,27.47094535303509 l 69.66379855141068,-22.88633511992139 M 330.45761958595375,34.912063937480156 l -29.60711438434954,-30.327453704366423 M 271.2433908172547,7.986963796396111 l 29.60711438434954,-3.4023535632824267 M 271.2433908172547,92.31148196551823 v -84.32451816912213 M 271.2433908172547,92.31148196551823 l 59.21422876869908,26.925100141084 M 271.2433908172547,92.31148196551823 l -69.66379855141068,22.88633511992139 M 271.2433908172547,7.986963796396111 v 84.32451816912213 M 271.2433908172547,7.986963796396111 l 59.21422876869908,26.925100141084 M 271.2433908172547,7.986963796396111 l -69.66379855141068,22.88633511992139 M 330.45761958595375,119.23658210660227 l -59.21422876869908,-26.925100141084 M 330.45761958595375,119.23658210660227 v -84.32451816912213 M 330.45761958595375,119.23658210660227 l -69.66379855141068,22.88633511992139 M 330.45761958595375,34.912063937480156 l -59.21422876869908,-26.925100141084 M 330.45761958595375,34.912063937480156 v 84.32451816912213 M 330.45761958595375,34.912063937480156 l -69.66379855141068,22.88633511992139 M 201.57959226584398,115.19781708543962 l 69.66379855141068,-22.88633511992139 M 201.57959226584398,115.19781708543962 v -84.32451816912213 M 201.57959226584398,115.19781708543962 l 59.21422876869908,26.925100141084 M 201.57959226584398,30.87329891631748 l 69.66379855141068,-22.88633511992139 M 201.57959226584398,30.87329891631748 v 84.32451816912213 M 201.57959226584398,30.87329891631748 l 59.21422876869908,26.925100141084 M 260.79382103454304,142.12291722652367 l 69.66379855141068,-22.88633511992139 M 260.79382103454304,142.12291722652367 l -59.21422876869908,-26.925100141084 M 260.79382103454304,142.12291722652367 v -84.32451816912213 M 260.79382103454304,57.798399057401525 l 69.66379855141068,-22.88633511992139 M 260.79382103454304,57.798399057401525 l -59.21422876869908,-26.925100141084 M 260.79382103454304,57.798399057401525 v 84.32451816912213 "/>
  </g>
  <defs>
  </defs>
  <g stroke-linejoin="miter" stroke-opacity="1.0" fill-opacity="0.0" stroke="rgb(0,0,0)" stroke-width="1.0833559985882288" fill="rgb(0,0,0)" stroke-linecap="butt" stroke-miterlimit="10.0">
    <path d="M 33.4948893415187,111.92208920533349 l -1.8171933389174009,-20.060404014075246 l 11.973462307344665,8.43578862484474 l 1.4215657038429514,20.70339191093799 M 70.82080298162586,59.493451760547316 l -20.705633553016295,-19.127767200300386 l -18.408280185825305,-17.005482930565776 M 4.584610233113693,27.359770746000926 l 27.122279009670567,-3.999569116319775 M 31.706889242784257,23.36020162968115 l 47.0526341772226,-10.400438635281343 l 37.890036456572155,-8.37515276128613 M 155.7334899347073,31.14911992224461 l -39.0839300581283,-26.56450968913093 M 83.74615686120094,10.202968696777052 l 32.90340301537806,-5.61835846366337 M 83.2497499123038,70.07139426646697 l 0.49640694889715226,-59.86842556968991 M 83.2497499123038,70.07139426646697 l 28.423208161023943,14.241729023972496 l 34.704580130310994,17.389072454684634 M 83.2497499123038,70.07139426646697 l -32.055228014453185,11.927448057576957 l -37.88345128980831,14.096074977136405 M 83.74615686120094,10.202968696777052 l -0.49640694889715226,59.86842556968991 M 83.74615686120094,10.202968696777052 l 31.972027817562882,9.30289956661827 l 40.01530525594348,11.64325165884929 M 83.74615686120094,10.202968696777052 l -35.883668114380214,7.777121808027307 l -43.27787851370706,9.379680241196569 M 146.37753820363872,101.7021957451241 l -34.704580130310994,-17.389072454684634 l -28.423208161023943,-14.241729023972496 M 146.37753820363872,101.7021957451241 l 9.355951731068576,-70.55307582287949 M 146.37753820363872,101.7021957451241 l -33.32984215851071,18.115384322456524 l -41.03878524279209,22.305337158943054 M 155.7334899347073,31.14911992224461 l -40.01530525594348,-11.64325165884929 l -31.972027817562882,-9.30289956661827 M 155.7334899347073,31.14911992224461 l -9.355951731068576,70.55307582287949 M 155.7334899347073,31.14911992224461 l -37.37354179272951,12.475498168267032 l -47.539145160351936,15.868833670035668 M 13.311070608042286,96.09491730118032 l 37.88345128980831,-14.096074977136405 l 32.055228014453185,-11.927448057576957 M 13.311070608042286,96.09491730118032 l -8.726460374928608,-68.73514655517941 M 13.311070608042286,96.09491730118032 l 25.8340793669496,20.257832302471478 l 32.86376082734404,25.770167622871867 M 4.584610233113693,27.359770746000926 l 43.27787851370706,-9.379680241196569 l 35.883668114380214,-7.777121808027307 M 4.584610233113693,27.359770746000926 l 8.726460374928608,68.73514655517941 M 4.584610233113693,27.359770746000926 l 28.550083081255245,13.850724575235509 l 37.68610966725692,18.28295643931088 M 72.00891080233593,142.1229172265237 l 41.03878524279209,-22.305337158943054 l 33.32984215851071,-18.115384322456524 M 72.00891080233593,142.1229172265237 l -32.86376082734404,-25.770167622871867 l -25.8340793669496,-20.257832302471478 M 72.00891080233593,142.1229172265237 l -0.5460054323116166,-37.97309993840825 l -0.6421023883984627,-44.65636552756813 M 70.82080298162586,59.493451760547316 l 47.539145160351936,-15.868833670035668 l 37.37354179272951,-12.475498168267032 M 70.82080298162586,59.493451760547316 l -37.68610966725692,-18.28295643931088 l -28.550083081255245,-13.850724575235509 M 70.82080298162586,59.493451760547316 l 0.6421023883984627,44.65636552756813 l 0.5460054323116166,37.97309993840825 "/>
  </g>
</svg>