<?xml version="1.0" encoding="UTF-8"?>
<!DOCTYPE svg PUBLIC "-//W3C//DTD SVG 1.1//EN"
    "http://www.w3.org/Graphics/SVG/1.1/DTD/svg11.dtd">
<svg xmlns="http://www.w3.org/2000/svg" height="433.42877206680197" stroke-opacity="1" viewBox="0 0 500 433" font-size="1" width="500.0" xmlns:xlink="http://www.w3.org/1999/xlink" stroke="rgb(0,0,0)" version="1.1">
  <defs>
  </defs>
  <defs>
  </defs>
  <g stroke-linejoin="miter" stroke-opacity="1.0" fill-opacity="1.0" stroke="rgb(128,0,128)" stroke-width="3.4914444309452795" fill="rgb(255,165,0)" stroke-linecap="butt" stroke-miterlimit="10.0">
    <path d="M 490.68322981366464,431.8759770357461 l 7.763975155279508,-13.447599437646563 l -7.763975155279498,-13.447599437646568 l -15.527950310559008,-7.757769582008082e-15 l -7.7639751552795095,13.447599437646561 l 7.763975155279494,13.447599437646572 Z"/>
  </g>
  <defs>
  </defs>
  <g stroke-linejoin="miter" stroke-opacity="1.0" fill-opacity="1.0" stroke="rgb(128,0,128)" stroke-width="3.4914444309452795" fill="rgb(255,165,0)" stroke-linecap="butt" stroke-miterlimit="10.0">
    <path d="M 459.62732919254665,431.8759770357461 l 7.763975155279508,-13.447599437646563 l -7.763975155279498,-13.447599437646568 l -15.527950310559008,-7.757769582008082e-15 l -7.7639751552795095,13.447599437646561 l 7.763975155279494,13.447599437646572 Z"/>
  </g>
  <defs>
  </defs>
  <g stroke-linejoin="miter" stroke-opacity="1.0" fill-opacity="1.0" stroke="rgb(128,0,128)" stroke-width="3.4914444309452795" fill="rgb(255,165,0)" stroke-linecap="butt" stroke-miterlimit="10.0">
    <path d="M 475.15527950310565,404.9807781604529 l 7.763975155279508,-13.447599437646563 l -7.763975155279498,-13.447599437646568 l -15.527950310559008,-7.757769582008082e-15 l -7.7639751552795095,13.447599437646561 l 7.763975155279494,13.447599437646572 Z"/>
  </g>
  <defs>
  </defs>
  <g stroke-linejoin="miter" stroke-opacity="1.0" fill-opacity="1.0" stroke="rgb(128,0,128)" stroke-width="3.4914444309452795" fill="rgb(255,165,0)" stroke-linecap="butt" stroke-miterlimit="10.0">
    <path d="M 428.5714285714286,431.8759770357461 l 7.763975155279508,-13.447599437646563 l -7.763975155279498,-13.447599437646568 l -15.527950310559008,-7.757769582008082e-15 l -7.7639751552795095,13.447599437646561 l 7.763975155279494,13.447599437646572 Z"/>
  </g>
  <defs>
  </defs>
  <g stroke-linejoin="miter" stroke-opacity="1.0" fill-opacity="1.0" stroke="rgb(128,0,128)" stroke-width="3.4914444309452795" fill="rgb(255,165,0)" stroke-linecap="butt" stroke-miterlimit="10.0">
    <path d="M 397.5155279503106,431.8759770357461 l 7.763975155279508,-13.447599437646563 l -7.763975155279498,-13.447599437646568 l -15.527950310559008,-7.757769582008082e-15 l -7.7639751552795095,13.447599437646561 l 7.763975155279494,13.447599437646572 Z"/>
  </g>
  <defs>
  </defs>
  <g stroke-linejoin="miter" stroke-opacity="1.0" fill-opacity="1.0" stroke="rgb(128,0,128)" stroke-width="3.4914444309452795" fill="rgb(255,165,0)" stroke-linecap="butt" stroke-miterlimit="10.0">
    <path d="M 413.0434782608696,404.9807781604529 l 7.763975155279508,-13.447599437646563 l -7.763975155279498,-13.447599437646568 l -15.527950310559008,-7.757769582008082e-15 l -7.7639751552795095,13.447599437646561 l 7.763975155279494,13.447599437646572 Z"/>
  </g>
  <defs>
  </defs>
  <g stroke-linejoin="miter" stroke-opacity="1.0" fill-opacity="1.0" stroke="rgb(128,0,128)" stroke-width="3.4914444309452795" fill="rgb(255,165,0)" stroke-linecap="butt" stroke-miterlimit="10.0">
    <path d="M 459.6273291925466,378.0855792851598 l 7.763975155279508,-13.447599437646563 l -7.763975155279498,-13.447599437646568 l -15.527950310559008,-7.757769582008082e-15 l -7.7639751552795095,13.447599437646561 l 7.763975155279494,13.447599437646572 Z"/>
  </g>
  <defs>
  </defs>
  <g stroke-linejoin="miter" stroke-opacity="1.0" fill-opacity="1.0" stroke="rgb(128,0,128)" stroke-width="3.4914444309452795" fill="rgb(255,165,0)" stroke-linecap="butt" stroke-miterlimit="10.0">
    <path d="M 428.5714285714286,378.0855792851598 l 7.763975155279508,-13.447599437646563 l -7.763975155279498,-13.447599437646568 l -15.527950310559008,-7.757769582008082e-15 l -7.7639751552795095,13.447599437646561 l 7.763975155279494,13.447599437646572 Z"/>
  </g>
  <defs>
  </defs>
  <g stroke-linejoin="miter" stroke-opacity="1.0" fill-opacity="1.0" stroke="rgb(128,0,128)" stroke-width="3.4914444309452795" fill="rgb(255,165,0)" stroke-linecap="butt" stroke-miterlimit="10.0">
    <path d="M 444.0993788819876,351.19038040986663 l 7.763975155279508,-13.447599437646563 l -7.763975155279498,-13.447599437646568 l -15.527950310559008,-7.757769582008082e-15 l -7.7639751552795095,13.447599437646561 l 7.763975155279494,13.447599437646572 Z"/>
  </g>
  <defs>
  </defs>
  <g stroke-linejoin="miter" stroke-opacity="1.0" fill-opacity="1.0" stroke="rgb(128,0,128)" stroke-width="3.4914444309452795" fill="rgb(255,165,0)" stroke-linecap="butt" stroke-miterlimit="10.0">
    <path d="M 366.4596273291926,431.8759770357461 l 7.763975155279508,-13.447599437646563 l -7.763975155279498,-13.447599437646568 l -15.527950310559008,-7.757769582008082e-15 l -7.7639751552795095,13.447599437646561 l 7.763975155279494,13.447599437646572 Z"/>
  </g>
  <defs>
  </defs>
  <g stroke-linejoin="miter" stroke-opacity="1.0" fill-opacity="1.0" stroke="rgb(128,0,128)" stroke-width="3.4914444309452795" fill="rgb(255,165,0)" stroke-linecap="butt" stroke-miterlimit="10.0">
    <path d="M 335.4037267080746,431.8759770357461 l 7.763975155279508,-13.447599437646563 l -7.763975155279498,-13.447599437646568 l -15.527950310559008,-7.757769582008082e-15 l -7.7639751552795095,13.447599437646561 l 7.763975155279494,13.447599437646572 Z"/>
  </g>
  <defs>
  </defs>
  <g stroke-linejoin="miter" stroke-opacity="1.0" fill-opacity="1.0" stroke="rgb(128,0,128)" stroke-width="3.4914444309452795" fill="rgb(255,165,0)" stroke-linecap="butt" stroke-miterlimit="10.0">
    <path d="M 350.9316770186336,404.9807781604529 l 7.763975155279508,-13.447599437646563 l -7.763975155279498,-13.447599437646568 l -15.527950310559008,-7.757769582008082e-15 l -7.7639751552795095,13.447599437646561 l 7.763975155279494,13.447599437646572 Z"/>
  </g>
  <defs>
  </defs>
  <g stroke-linejoin="miter" stroke-opacity="1.0" fill-opacity="1.0" stroke="rgb(128,0,128)" stroke-width="3.4914444309452795" fill="rgb(255,165,0)" stroke-linecap="butt" stroke-miterlimit="10.0">
    <path d="M 304.34782608695656,431.8759770357461 l 7.763975155279508,-13.447599437646563 l -7.763975155279498,-13.447599437646568 l -15.527950310559008,-7.757769582008082e-15 l -7.7639751552795095,13.447599437646561 l 7.763975155279494,13.447599437646572 Z"/>
  </g>
  <defs>
  </defs>
  <g stroke-linejoin="miter" stroke-opacity="1.0" fill-opacity="1.0" stroke="rgb(128,0,128)" stroke-width="3.4914444309452795" fill="rgb(255,165,0)" stroke-linecap="butt" stroke-miterlimit="10.0">
    <path d="M 273.2919254658386,431.8759770357461 l 7.763975155279508,-13.447599437646563 l -7.763975155279498,-13.447599437646568 l -15.527950310559008,-7.757769582008082e-15 l -7.7639751552795095,13.447599437646561 l 7.763975155279494,13.447599437646572 Z"/>
  </g>
  <defs>
  </defs>
  <g stroke-linejoin="miter" stroke-opacity="1.0" fill-opacity="1.0" stroke="rgb(128,0,128)" stroke-width="3.4914444309452795" fill="rgb(255,165,0)" stroke-linecap="butt" stroke-miterlimit="10.0">
    <path d="M 288.81987577639757,404.9807781604529 l 7.763975155279508,-13.447599437646563 l -7.763975155279498,-13.447599437646568 l -15.527950310559008,-7.757769582008082e-15 l -7.7639751552795095,13.447599437646561 l 7.763975155279494,13.447599437646572 Z"/>
  </g>
  <defs>
  </defs>
  <g stroke-linejoin="miter" stroke-opacity="1.0" fill-opacity="1.0" stroke="rgb(128,0,128)" stroke-width="3.4914444309452795" fill="rgb(255,165,0)" stroke-linecap="butt" stroke-miterlimit="10.0">
    <path d="M 335.40372670807454,378.0855792851598 l 7.763975155279508,-13.447599437646563 l -7.763975155279498,-13.447599437646568 l -15.527950310559008,-7.757769582008082e-15 l -7.7639751552795095,13.447599437646561 l 7.763975155279494,13.447599437646572 Z"/>
  </g>
  <defs>
  </defs>
  <g stroke-linejoin="miter" stroke-opacity="1.0" fill-opacity="1.0" stroke="rgb(128,0,128)" stroke-width="3.4914444309452795" fill="rgb(255,165,0)" stroke-linecap="butt" stroke-miterlimit="10.0">
    <path d="M 304.34782608695656,378.0855792851598 l 7.763975155279508,-13.447599437646563 l -7.763975155279498,-13.447599437646568 l -15.527950310559008,-7.757769582008082e-15 l -7.7639751552795095,13.447599437646561 l 7.763975155279494,13.447599437646572 Z"/>
  </g>
  <defs>
  </defs>
  <g stroke-linejoin="miter" stroke-opacity="1.0" fill-opacity="1.0" stroke="rgb(128,0,128)" stroke-width="3.4914444309452795" fill="rgb(255,165,0)" stroke-linecap="butt" stroke-miterlimit="10.0">
    <path d="M 319.87577639751555,351.19038040986663 l 7.763975155279508,-13.447599437646563 l -7.763975155279498,-13.447599437646568 l -15.527950310559008,-7.757769582008082e-15 l -7.7639751552795095,13.447599437646561 l 7.763975155279494,13.447599437646572 Z"/>
  </g>
  <defs>
  </defs>
  <g stroke-linejoin="miter" stroke-opacity="1.0" fill-opacity="1.0" stroke="rgb(128,0,128)" stroke-width="3.4914444309452795" fill="rgb(255,165,0)" stroke-linecap="butt" stroke-miterlimit="10.0">
    <path d="M 428.5714285714286,324.29518153457354 l 7.763975155279508,-13.447599437646563 l -7.763975155279498,-13.447599437646568 l -15.527950310559008,-7.757769582008082e-15 l -7.7639751552795095,13.447599437646561 l 7.763975155279494,13.447599437646572 Z"/>
  </g>
  <defs>
  </defs>
  <g stroke-linejoin="miter" stroke-opacity="1.0" fill-opacity="1.0" stroke="rgb(128,0,128)" stroke-width="3.4914444309452795" fill="rgb(255,165,0)" stroke-linecap="butt" stroke-miterlimit="10.0">
    <path d="M 397.5155279503106,324.29518153457354 l 7.763975155279508,-13.447599437646563 l -7.763975155279498,-13.447599437646568 l -15.527950310559008,-7.757769582008082e-15 l -7.7639751552795095,13.447599437646561 l 7.763975155279494,13.447599437646572 Z"/>
  </g>
  <defs>
  </defs>
  <g stroke-linejoin="miter" stroke-opacity="1.0" fill-opacity="1.0" stroke="rgb(128,0,128)" stroke-width="3.4914444309452795" fill="rgb(255,165,0)" stroke-linecap="butt" stroke-miterlimit="10.0">
    <path d="M 413.0434782608696,297.3999826592804 l 7.763975155279508,-13.447599437646563 l -7.763975155279498,-13.447599437646568 l -15.527950310559008,-7.757769582008082e-15 l -7.7639751552795095,13.447599437646561 l 7.763975155279494,13.447599437646572 Z"/>
  </g>
  <defs>
  </defs>
  <g stroke-linejoin="miter" stroke-opacity="1.0" fill-opacity="1.0" stroke="rgb(128,0,128)" stroke-width="3.4914444309452795" fill="rgb(255,165,0)" stroke-linecap="butt" stroke-miterlimit="10.0">
    <path d="M 366.4596273291926,324.29518153457354 l 7.763975155279508,-13.447599437646563 l -7.763975155279498,-13.447599437646568 l -15.527950310559008,-7.757769582008082e-15 l -7.7639751552795095,13.447599437646561 l 7.763975155279494,13.447599437646572 Z"/>
  </g>
  <defs>
  </defs>
  <g stroke-linejoin="miter" stroke-opacity="1.0" fill-opacity="1.0" stroke="rgb(128,0,128)" stroke-width="3.4914444309452795" fill="rgb(255,165,0)" stroke-linecap="butt" stroke-miterlimit="10.0">
    <path d="M 335.4037267080746,324.29518153457354 l 7.763975155279508,-13.447599437646563 l -7.763975155279498,-13.447599437646568 l -15.527950310559008,-7.757769582008082e-15 l -7.7639751552795095,13.447599437646561 l 7.763975155279494,13.447599437646572 Z"/>
  </g>
  <defs>
  </defs>
  <g stroke-linejoin="miter" stroke-opacity="1.0" fill-opacity="1.0" stroke="rgb(128,0,128)" stroke-width="3.4914444309452795" fill="rgb(255,165,0)" stroke-linecap="butt" stroke-miterlimit="10.0">
    <path d="M 350.9316770186336,297.3999826592804 l 7.763975155279508,-13.447599437646563 l -7.763975155279498,-13.447599437646568 l -15.527950310559008,-7.757769582008082e-15 l -7.7639751552795095,13.447599437646561 l 7.763975155279494,13.447599437646572 Z"/>
  </g>
  <defs>
  </defs>
  <g stroke-linejoin="miter" stroke-opacity="1.0" fill-opacity="1.0" stroke="rgb(128,0,128)" stroke-width="3.4914444309452795" fill="rgb(255,165,0)" stroke-linecap="butt" stroke-miterlimit="10.0">
    <path d="M 397.51552795031057,270.50478378398725 l 7.763975155279508,-13.447599437646563 l -7.763975155279498,-13.447599437646568 l -15.527950310559008,-7.757769582008082e-15 l -7.7639751552795095,13.447599437646561 l 7.763975155279494,13.447599437646572 Z"/>
  </g>
  <defs>
  </defs>
  <g stroke-linejoin="miter" stroke-opacity="1.0" fill-opacity="1.0" stroke="rgb(128,0,128)" stroke-width="3.4914444309452795" fill="rgb(255,165,0)" stroke-linecap="butt" stroke-miterlimit="10.0">
    <path d="M 366.4596273291926,270.50478378398725 l 7.763975155279508,-13.447599437646563 l -7.763975155279498,-13.447599437646568 l -15.527950310559008,-7.757769582008082e-15 l -7.7639751552795095,13.447599437646561 l 7.763975155279494,13.447599437646572 Z"/>
  </g>
  <defs>
  </defs>
  <g stroke-linejoin="miter" stroke-opacity="1.0" fill-opacity="1.0" stroke="rgb(128,0,128)" stroke-width="3.4914444309452795" fill="rgb(255,165,0)" stroke-linecap="butt" stroke-miterlimit="10.0">
    <path d="M 381.9875776397516,243.60958490869413 l 7.763975155279508,-13.447599437646563 l -7.763975155279498,-13.447599437646568 l -15.527950310559008,-7.757769582008082e-15 l -7.7639751552795095,13.447599437646561 l 7.763975155279494,13.447599437646572 Z"/>
  </g>
  <defs>
  </defs>
  <g stroke-linejoin="miter" stroke-opacity="1.0" fill-opacity="1.0" stroke="rgb(128,0,128)" stroke-width="3.4914444309452795" fill="rgb(255,165,0)" stroke-linecap="butt" stroke-miterlimit="10.0">
    <path d="M 242.2360248447205,431.8759770357461 l 7.763975155279508,-13.447599437646563 l -7.763975155279498,-13.447599437646568 l -15.527950310559008,-7.757769582008082e-15 l -7.7639751552795095,13.447599437646561 l 7.763975155279494,13.447599437646572 Z"/>
  </g>
  <defs>
  </defs>
  <g stroke-linejoin="miter" stroke-opacity="1.0" fill-opacity="1.0" stroke="rgb(128,0,128)" stroke-width="3.4914444309452795" fill="rgb(255,165,0)" stroke-linecap="butt" stroke-miterlimit="10.0">
    <path d="M 211.1801242236025,431.8759770357461 l 7.763975155279508,-13.447599437646563 l -7.763975155279498,-13.447599437646568 l -15.527950310559008,-7.757769582008082e-15 l -7.7639751552795095,13.447599437646561 l 7.763975155279494,13.447599437646572 Z"/>
  </g>
  <defs>
  </defs>
  <g stroke-linejoin="miter" stroke-opacity="1.0" fill-opacity="1.0" stroke="rgb(128,0,128)" stroke-width="3.4914444309452795" fill="rgb(255,165,0)" stroke-linecap="butt" stroke-miterlimit="10.0">
    <path d="M 226.7080745341615,404.9807781604529 l 7.763975155279508,-13.447599437646563 l -7.763975155279498,-13.447599437646568 l -15.527950310559008,-7.757769582008082e-15 l -7.7639751552795095,13.447599437646561 l 7.763975155279494,13.447599437646572 Z"/>
  </g>
  <defs>
  </defs>
  <g stroke-linejoin="miter" stroke-opacity="1.0" fill-opacity="1.0" stroke="rgb(128,0,128)" stroke-width="3.4914444309452795" fill="rgb(255,165,0)" stroke-linecap="butt" stroke-miterlimit="10.0">
    <path d="M 180.12422360248448,431.8759770357461 l 7.763975155279508,-13.447599437646563 l -7.763975155279498,-13.447599437646568 l -15.527950310559008,-7.757769582008082e-15 l -7.7639751552795095,13.447599437646561 l 7.763975155279494,13.447599437646572 Z"/>
  </g>
  <defs>
  </defs>
  <g stroke-linejoin="miter" stroke-opacity="1.0" fill-opacity="1.0" stroke="rgb(128,0,128)" stroke-width="3.4914444309452795" fill="rgb(255,165,0)" stroke-linecap="butt" stroke-miterlimit="10.0">
    <path d="M 149.06832298136646,431.8759770357461 l 7.763975155279508,-13.447599437646563 l -7.763975155279498,-13.447599437646568 l -15.527950310559008,-7.757769582008082e-15 l -7.7639751552795095,13.447599437646561 l 7.763975155279494,13.447599437646572 Z"/>
  </g>
  <defs>
  </defs>
  <g stroke-linejoin="miter" stroke-opacity="1.0" fill-opacity="1.0" stroke="rgb(128,0,128)" stroke-width="3.4914444309452795" fill="rgb(255,165,0)" stroke-linecap="butt" stroke-miterlimit="10.0">
    <path d="M 164.59627329192548,404.9807781604529 l 7.763975155279508,-13.447599437646563 l -7.763975155279498,-13.447599437646568 l -15.527950310559008,-7.757769582008082e-15 l -7.7639751552795095,13.447599437646561 l 7.763975155279494,13.447599437646572 Z"/>
  </g>
  <defs>
  </defs>
  <g stroke-linejoin="miter" stroke-opacity="1.0" fill-opacity="1.0" stroke="rgb(128,0,128)" stroke-width="3.4914444309452795" fill="rgb(255,165,0)" stroke-linecap="butt" stroke-miterlimit="10.0">
    <path d="M 211.1801242236025,378.0855792851598 l 7.763975155279508,-13.447599437646563 l -7.763975155279498,-13.447599437646568 l -15.527950310559008,-7.757769582008082e-15 l -7.7639751552795095,13.447599437646561 l 7.763975155279494,13.447599437646572 Z"/>
  </g>
  <defs>
  </defs>
  <g stroke-linejoin="miter" stroke-opacity="1.0" fill-opacity="1.0" stroke="rgb(128,0,128)" stroke-width="3.4914444309452795" fill="rgb(255,165,0)" stroke-linecap="butt" stroke-miterlimit="10.0">
    <path d="M 180.12422360248448,378.0855792851598 l 7.763975155279508,-13.447599437646563 l -7.763975155279498,-13.447599437646568 l -15.527950310559008,-7.757769582008082e-15 l -7.7639751552795095,13.447599437646561 l 7.763975155279494,13.447599437646572 Z"/>
  </g>
  <defs>
  </defs>
  <g stroke-linejoin="miter" stroke-opacity="1.0" fill-opacity="1.0" stroke="rgb(128,0,128)" stroke-width="3.4914444309452795" fill="rgb(255,165,0)" stroke-linecap="butt" stroke-miterlimit="10.0">
    <path d="M 195.6521739130435,351.19038040986663 l 7.763975155279508,-13.447599437646563 l -7.763975155279498,-13.447599437646568 l -15.527950310559008,-7.757769582008082e-15 l -7.7639751552795095,13.447599437646561 l 7.763975155279494,13.447599437646572 Z"/>
  </g>
  <defs>
  </defs>
  <g stroke-linejoin="miter" stroke-opacity="1.0" fill-opacity="1.0" stroke="rgb(128,0,128)" stroke-width="3.4914444309452795" fill="rgb(255,165,0)" stroke-linecap="butt" stroke-miterlimit="10.0">
    <path d="M 118.01242236024848,431.8759770357461 l 7.763975155279508,-13.447599437646563 l -7.763975155279498,-13.447599437646568 l -15.527950310559008,-7.757769582008082e-15 l -7.7639751552795095,13.447599437646561 l 7.763975155279494,13.447599437646572 Z"/>
  </g>
  <defs>
  </defs>
  <g stroke-linejoin="miter" stroke-opacity="1.0" fill-opacity="1.0" stroke="rgb(128,0,128)" stroke-width="3.4914444309452795" fill="rgb(255,165,0)" stroke-linecap="butt" stroke-miterlimit="10.0">
    <path d="M 86.95652173913047,431.8759770357461 l 7.763975155279508,-13.447599437646563 l -7.763975155279498,-13.447599437646568 l -15.527950310559008,-7.757769582008082e-15 l -7.7639751552795095,13.447599437646561 l 7.763975155279494,13.447599437646572 Z"/>
  </g>
  <defs>
  </defs>
  <g stroke-linejoin="miter" stroke-opacity="1.0" fill-opacity="1.0" stroke="rgb(128,0,128)" stroke-width="3.4914444309452795" fill="rgb(255,165,0)" stroke-linecap="butt" stroke-miterlimit="10.0">
    <path d="M 102.48447204968947,404.9807781604529 l 7.763975155279508,-13.447599437646563 l -7.763975155279498,-13.447599437646568 l -15.527950310559008,-7.757769582008082e-15 l -7.7639751552795095,13.447599437646561 l 7.763975155279494,13.447599437646572 Z"/>
  </g>
  <defs>
  </defs>
  <g stroke-linejoin="miter" stroke-opacity="1.0" fill-opacity="1.0" stroke="rgb(128,0,128)" stroke-width="3.4914444309452795" fill="rgb(255,165,0)" stroke-linecap="butt" stroke-miterlimit="10.0">
    <path d="M 55.90062111801246,431.8759770357461 l 7.763975155279508,-13.447599437646563 l -7.763975155279498,-13.447599437646568 l -15.527950310559008,-7.757769582008082e-15 l -7.7639751552795095,13.447599437646561 l 7.763975155279494,13.447599437646572 Z"/>
  </g>
  <defs>
  </defs>
  <g stroke-linejoin="miter" stroke-opacity="1.0" fill-opacity="1.0" stroke="rgb(128,0,128)" stroke-width="3.4914444309452795" fill="rgb(255,165,0)" stroke-linecap="butt" stroke-miterlimit="10.0">
    <path d="M 24.844720496894453,431.8759770357461 l 7.763975155279508,-13.447599437646563 l -7.763975155279498,-13.447599437646568 l -15.527950310559008,-7.757769582008082e-15 l -7.7639751552795095,13.447599437646561 l 7.763975155279494,13.447599437646572 Z"/>
  </g>
  <defs>
  </defs>
  <g stroke-linejoin="miter" stroke-opacity="1.0" fill-opacity="1.0" stroke="rgb(128,0,128)" stroke-width="3.4914444309452795" fill="rgb(255,165,0)" stroke-linecap="butt" stroke-miterlimit="10.0">
    <path d="M 40.37267080745346,404.9807781604529 l 7.763975155279508,-13.447599437646563 l -7.763975155279498,-13.447599437646568 l -15.527950310559008,-7.757769582008082e-15 l -7.7639751552795095,13.447599437646561 l 7.763975155279494,13.447599437646572 Z"/>
  </g>
  <defs>
  </defs>
  <g stroke-linejoin="miter" stroke-opacity="1.0" fill-opacity="1.0" stroke="rgb(128,0,128)" stroke-width="3.4914444309452795" fill="rgb(255,165,0)" stroke-linecap="butt" stroke-miterlimit="10.0">
    <path d="M 86.95652173913047,378.0855792851598 l 7.763975155279508,-13.447599437646563 l -7.763975155279498,-13.447599437646568 l -15.527950310559008,-7.757769582008082e-15 l -7.7639751552795095,13.447599437646561 l 7.763975155279494,13.447599437646572 Z"/>
  </g>
  <defs>
  </defs>
  <g stroke-linejoin="miter" stroke-opacity="1.0" fill-opacity="1.0" stroke="rgb(128,0,128)" stroke-width="3.4914444309452795" fill="rgb(255,165,0)" stroke-linecap="butt" stroke-miterlimit="10.0">
    <path d="M 55.90062111801246,378.0855792851598 l 7.763975155279508,-13.447599437646563 l -7.763975155279498,-13.447599437646568 l -15.527950310559008,-7.757769582008082e-15 l -7.7639751552795095,13.447599437646561 l 7.763975155279494,13.447599437646572 Z"/>
  </g>
  <defs>
  </defs>
  <g stroke-linejoin="miter" stroke-opacity="1.0" fill-opacity="1.0" stroke="rgb(128,0,128)" stroke-width="3.4914444309452795" fill="rgb(255,165,0)" stroke-linecap="butt" stroke-miterlimit="10.0">
    <path d="M 71.42857142857146,351.19038040986663 l 7.763975155279508,-13.447599437646563 l -7.763975155279498,-13.447599437646568 l -15.527950310559008,-7.757769582008082e-15 l -7.7639751552795095,13.447599437646561 l 7.763975155279494,13.447599437646572 Z"/>
  </g>
  <defs>
  </defs>
  <g stroke-linejoin="miter" stroke-opacity="1.0" fill-opacity="1.0" stroke="rgb(128,0,128)" stroke-width="3.4914444309452795" fill="rgb(255,165,0)" stroke-linecap="butt" stroke-miterlimit="10.0">
    <path d="M 180.12422360248448,324.29518153457354 l 7.763975155279508,-13.447599437646563 l -7.763975155279498,-13.447599437646568 l -15.527950310559008,-7.757769582008082e-15 l -7.7639751552795095,13.447599437646561 l 7.763975155279494,13.447599437646572 Z"/>
  </g>
  <defs>
  </defs>
  <g stroke-linejoin="miter" stroke-opacity="1.0" fill-opacity="1.0" stroke="rgb(128,0,128)" stroke-width="3.4914444309452795" fill="rgb(255,165,0)" stroke-linecap="butt" stroke-miterlimit="10.0">
    <path d="M 149.06832298136646,324.29518153457354 l 7.763975155279508,-13.447599437646563 l -7.763975155279498,-13.447599437646568 l -15.527950310559008,-7.757769582008082e-15 l -7.7639751552795095,13.447599437646561 l 7.763975155279494,13.447599437646572 Z"/>
  </g>
  <defs>
  </defs>
  <g stroke-linejoin="miter" stroke-opacity="1.0" fill-opacity="1.0" stroke="rgb(128,0,128)" stroke-width="3.4914444309452795" fill="rgb(255,165,0)" stroke-linecap="butt" stroke-miterlimit="10.0">
    <path d="M 164.59627329192548,297.3999826592804 l 7.763975155279508,-13.447599437646563 l -7.763975155279498,-13.447599437646568 l -15.527950310559008,-7.757769582008082e-15 l -7.7639751552795095,13.447599437646561 l 7.763975155279494,13.447599437646572 Z"/>
  </g>
  <defs>
  </defs>
  <g stroke-linejoin="miter" stroke-opacity="1.0" fill-opacity="1.0" stroke="rgb(128,0,128)" stroke-width="3.4914444309452795" fill="rgb(255,165,0)" stroke-linecap="butt" stroke-miterlimit="10.0">
    <path d="M 118.01242236024846,324.29518153457354 l 7.763975155279508,-13.447599437646563 l -7.763975155279498,-13.447599437646568 l -15.527950310559008,-7.757769582008082e-15 l -7.7639751552795095,13.447599437646561 l 7.763975155279494,13.447599437646572 Z"/>
  </g>
  <defs>
  </defs>
  <g stroke-linejoin="miter" stroke-opacity="1.0" fill-opacity="1.0" stroke="rgb(128,0,128)" stroke-width="3.4914444309452795" fill="rgb(255,165,0)" stroke-linecap="butt" stroke-miterlimit="10.0">
    <path d="M 86.95652173913045,324.29518153457354 l 7.763975155279508,-13.447599437646563 l -7.763975155279498,-13.447599437646568 l -15.527950310559008,-7.757769582008082e-15 l -7.7639751552795095,13.447599437646561 l 7.763975155279494,13.447599437646572 Z"/>
  </g>
  <defs>
  </defs>
  <g stroke-linejoin="miter" stroke-opacity="1.0" fill-opacity="1.0" stroke="rgb(128,0,128)" stroke-width="3.4914444309452795" fill="rgb(255,165,0)" stroke-linecap="butt" stroke-miterlimit="10.0">
    <path d="M 102.48447204968946,297.3999826592804 l 7.763975155279508,-13.447599437646563 l -7.763975155279498,-13.447599437646568 l -15.527950310559008,-7.757769582008082e-15 l -7.7639751552795095,13.447599437646561 l 7.763975155279494,13.447599437646572 Z"/>
  </g>
  <defs>
  </defs>
  <g stroke-linejoin="miter" stroke-opacity="1.0" fill-opacity="1.0" stroke="rgb(128,0,128)" stroke-width="3.4914444309452795" fill="rgb(255,165,0)" stroke-linecap="butt" stroke-miterlimit="10.0">
    <path d="M 149.06832298136646,270.50478378398725 l 7.763975155279508,-13.447599437646563 l -7.763975155279498,-13.447599437646568 l -15.527950310559008,-7.757769582008082e-15 l -7.7639751552795095,13.447599437646561 l 7.763975155279494,13.447599437646572 Z"/>
  </g>
  <defs>
  </defs>
  <g stroke-linejoin="miter" stroke-opacity="1.0" fill-opacity="1.0" stroke="rgb(128,0,128)" stroke-width="3.4914444309452795" fill="rgb(255,165,0)" stroke-linecap="butt" stroke-miterlimit="10.0">
    <path d="M 118.01242236024846,270.50478378398725 l 7.763975155279508,-13.447599437646563 l -7.763975155279498,-13.447599437646568 l -15.527950310559008,-7.757769582008082e-15 l -7.7639751552795095,13.447599437646561 l 7.763975155279494,13.447599437646572 Z"/>
  </g>
  <defs>
  </defs>
  <g stroke-linejoin="miter" stroke-opacity="1.0" fill-opacity="1.0" stroke="rgb(128,0,128)" stroke-width="3.4914444309452795" fill="rgb(255,165,0)" stroke-linecap="butt" stroke-miterlimit="10.0">
    <path d="M 133.54037267080747,243.60958490869413 l 7.763975155279508,-13.447599437646563 l -7.763975155279498,-13.447599437646568 l -15.527950310559008,-7.757769582008082e-15 l -7.7639751552795095,13.447599437646561 l 7.763975155279494,13.447599437646572 Z"/>
  </g>
  <defs>
  </defs>
  <g stroke-linejoin="miter" stroke-opacity="1.0" fill-opacity="1.0" stroke="rgb(128,0,128)" stroke-width="3.4914444309452795" fill="rgb(255,165,0)" stroke-linecap="butt" stroke-miterlimit="10.0">
    <path d="M 366.4596273291926,216.714386033401 l 7.763975155279508,-13.447599437646563 l -7.763975155279498,-13.447599437646568 l -15.527950310559008,-7.757769582008082e-15 l -7.7639751552795095,13.447599437646561 l 7.763975155279494,13.447599437646572 Z"/>
  </g>
  <defs>
  </defs>
  <g stroke-linejoin="miter" stroke-opacity="1.0" fill-opacity="1.0" stroke="rgb(128,0,128)" stroke-width="3.4914444309452795" fill="rgb(255,165,0)" stroke-linecap="butt" stroke-miterlimit="10.0">
    <path d="M 335.4037267080746,216.714386033401 l 7.763975155279508,-13.447599437646563 l -7.763975155279498,-13.447599437646568 l -15.527950310559008,-7.757769582008082e-15 l -7.7639751552795095,13.447599437646561 l 7.763975155279494,13.447599437646572 Z"/>
  </g>
  <defs>
  </defs>
  <g stroke-linejoin="miter" stroke-opacity="1.0" fill-opacity="1.0" stroke="rgb(128,0,128)" stroke-width="3.4914444309452795" fill="rgb(255,165,0)" stroke-linecap="butt" stroke-miterlimit="10.0">
    <path d="M 350.9316770186336,189.81918715810787 l 7.763975155279508,-13.447599437646563 l -7.763975155279498,-13.447599437646568 l -15.527950310559008,-7.757769582008082e-15 l -7.7639751552795095,13.447599437646561 l 7.763975155279494,13.447599437646572 Z"/>
  </g>
  <defs>
  </defs>
  <g stroke-linejoin="miter" stroke-opacity="1.0" fill-opacity="1.0" stroke="rgb(128,0,128)" stroke-width="3.4914444309452795" fill="rgb(255,165,0)" stroke-linecap="butt" stroke-miterlimit="10.0">
    <path d="M 304.34782608695656,216.714386033401 l 7.763975155279508,-13.447599437646563 l -7.763975155279498,-13.447599437646568 l -15.527950310559008,-7.757769582008082e-15 l -7.7639751552795095,13.447599437646561 l 7.763975155279494,13.447599437646572 Z"/>
  </g>
  <defs>
  </defs>
  <g stroke-linejoin="miter" stroke-opacity="1.0" fill-opacity="1.0" stroke="rgb(128,0,128)" stroke-width="3.4914444309452795" fill="rgb(255,165,0)" stroke-linecap="butt" stroke-miterlimit="10.0">
    <path d="M 273.2919254658386,216.714386033401 l 7.763975155279508,-13.447599437646563 l -7.763975155279498,-13.447599437646568 l -15.527950310559008,-7.757769582008082e-15 l -7.7639751552795095,13.447599437646561 l 7.763975155279494,13.447599437646572 Z"/>
  </g>
  <defs>
  </defs>
  <g stroke-linejoin="miter" stroke-opacity="1.0" fill-opacity="1.0" stroke="rgb(128,0,128)" stroke-width="3.4914444309452795" fill="rgb(255,165,0)" stroke-linecap="butt" stroke-miterlimit="10.0">
    <path d="M 288.81987577639757,189.81918715810787 l 7.763975155279508,-13.447599437646563 l -7.763975155279498,-13.447599437646568 l -15.527950310559008,-7.757769582008082e-15 l -7.7639751552795095,13.447599437646561 l 7.763975155279494,13.447599437646572 Z"/>
  </g>
  <defs>
  </defs>
  <g stroke-linejoin="miter" stroke-opacity="1.0" fill-opacity="1.0" stroke="rgb(128,0,128)" stroke-width="3.4914444309452795" fill="rgb(255,165,0)" stroke-linecap="butt" stroke-miterlimit="10.0">
    <path d="M 335.40372670807454,162.92398828281472 l 7.763975155279508,-13.447599437646563 l -7.763975155279498,-13.447599437646568 l -15.527950310559008,-7.757769582008082e-15 l -7.7639751552795095,13.447599437646561 l 7.763975155279494,13.447599437646572 Z"/>
  </g>
  <defs>
  </defs>
  <g stroke-linejoin="miter" stroke-opacity="1.0" fill-opacity="1.0" stroke="rgb(128,0,128)" stroke-width="3.4914444309452795" fill="rgb(255,165,0)" stroke-linecap="butt" stroke-miterlimit="10.0">
    <path d="M 304.34782608695656,162.92398828281472 l 7.763975155279508,-13.447599437646563 l -7.763975155279498,-13.447599437646568 l -15.527950310559008,-7.757769582008082e-15 l -7.7639751552795095,13.447599437646561 l 7.763975155279494,13.447599437646572 Z"/>
  </g>
  <defs>
  </defs>
  <g stroke-linejoin="miter" stroke-opacity="1.0" fill-opacity="1.0" stroke="rgb(128,0,128)" stroke-width="3.4914444309452795" fill="rgb(255,165,0)" stroke-linecap="butt" stroke-miterlimit="10.0">
    <path d="M 319.87577639751555,136.02878940752157 l 7.763975155279508,-13.447599437646563 l -7.763975155279498,-13.447599437646568 l -15.527950310559008,-7.757769582008082e-15 l -7.7639751552795095,13.447599437646561 l 7.763975155279494,13.447599437646572 Z"/>
  </g>
  <defs>
  </defs>
  <g stroke-linejoin="miter" stroke-opacity="1.0" fill-opacity="1.0" stroke="rgb(128,0,128)" stroke-width="3.4914444309452795" fill="rgb(255,165,0)" stroke-linecap="butt" stroke-miterlimit="10.0">
    <path d="M 242.23602484472048,216.714386033401 l 7.763975155279508,-13.447599437646563 l -7.763975155279498,-13.447599437646568 l -15.527950310559008,-7.757769582008082e-15 l -7.7639751552795095,13.447599437646561 l 7.763975155279494,13.447599437646572 Z"/>
  </g>
  <defs>
  </defs>
  <g stroke-linejoin="miter" stroke-opacity="1.0" fill-opacity="1.0" stroke="rgb(128,0,128)" stroke-width="3.4914444309452795" fill="rgb(255,165,0)" stroke-linecap="butt" stroke-miterlimit="10.0">
    <path d="M 211.18012422360246,216.714386033401 l 7.763975155279508,-13.447599437646563 l -7.763975155279498,-13.447599437646568 l -15.527950310559008,-7.757769582008082e-15 l -7.7639751552795095,13.447599437646561 l 7.763975155279494,13.447599437646572 Z"/>
  </g>
  <defs>
  </defs>
  <g stroke-linejoin="miter" stroke-opacity="1.0" fill-opacity="1.0" stroke="rgb(128,0,128)" stroke-width="3.4914444309452795" fill="rgb(255,165,0)" stroke-linecap="butt" stroke-miterlimit="10.0">
    <path d="M 226.70807453416148,189.81918715810787 l 7.763975155279508,-13.447599437646563 l -7.763975155279498,-13.447599437646568 l -15.527950310559008,-7.757769582008082e-15 l -7.7639751552795095,13.447599437646561 l 7.763975155279494,13.447599437646572 Z"/>
  </g>
  <defs>
  </defs>
  <g stroke-linejoin="miter" stroke-opacity="1.0" fill-opacity="1.0" stroke="rgb(128,0,128)" stroke-width="3.4914444309452795" fill="rgb(255,165,0)" stroke-linecap="butt" stroke-miterlimit="10.0">
    <path d="M 180.12422360248445,216.714386033401 l 7.763975155279508,-13.447599437646563 l -7.763975155279498,-13.447599437646568 l -15.527950310559008,-7.757769582008082e-15 l -7.7639751552795095,13.447599437646561 l 7.763975155279494,13.447599437646572 Z"/>
  </g>
  <defs>
  </defs>
  <g stroke-linejoin="miter" stroke-opacity="1.0" fill-opacity="1.0" stroke="rgb(128,0,128)" stroke-width="3.4914444309452795" fill="rgb(255,165,0)" stroke-linecap="butt" stroke-miterlimit="10.0">
    <path d="M 149.06832298136644,216.714386033401 l 7.763975155279508,-13.447599437646563 l -7.763975155279498,-13.447599437646568 l -15.527950310559008,-7.757769582008082e-15 l -7.7639751552795095,13.447599437646561 l 7.763975155279494,13.447599437646572 Z"/>
  </g>
  <defs>
  </defs>
  <g stroke-linejoin="miter" stroke-opacity="1.0" fill-opacity="1.0" stroke="rgb(128,0,128)" stroke-width="3.4914444309452795" fill="rgb(255,165,0)" stroke-linecap="butt" stroke-miterlimit="10.0">
    <path d="M 164.59627329192546,189.81918715810787 l 7.763975155279508,-13.447599437646563 l -7.763975155279498,-13.447599437646568 l -15.527950310559008,-7.757769582008082e-15 l -7.7639751552795095,13.447599437646561 l 7.763975155279494,13.447599437646572 Z"/>
  </g>
  <defs>
  </defs>
  <g stroke-linejoin="miter" stroke-opacity="1.0" fill-opacity="1.0" stroke="rgb(128,0,128)" stroke-width="3.4914444309452795" fill="rgb(255,165,0)" stroke-linecap="butt" stroke-miterlimit="10.0">
    <path d="M 211.18012422360246,162.92398828281472 l 7.763975155279508,-13.447599437646563 l -7.763975155279498,-13.447599437646568 l -15.527950310559008,-7.757769582008082e-15 l -7.7639751552795095,13.447599437646561 l 7.763975155279494,13.447599437646572 Z"/>
  </g>
  <defs>
  </defs>
  <g stroke-linejoin="miter" stroke-opacity="1.0" fill-opacity="1.0" stroke="rgb(128,0,128)" stroke-width="3.4914444309452795" fill="rgb(255,165,0)" stroke-linecap="butt" stroke-miterlimit="10.0">
    <path d="M 180.12422360248445,162.92398828281472 l 7.763975155279508,-13.447599437646563 l -7.763975155279498,-13.447599437646568 l -15.527950310559008,-7.757769582008082e-15 l -7.7639751552795095,13.447599437646561 l 7.763975155279494,13.447599437646572 Z"/>
  </g>
  <defs>
  </defs>
  <g stroke-linejoin="miter" stroke-opacity="1.0" fill-opacity="1.0" stroke="rgb(128,0,128)" stroke-width="3.4914444309452795" fill="rgb(255,165,0)" stroke-linecap="butt" stroke-miterlimit="10.0">
    <path d="M 195.65217391304347,136.02878940752157 l 7.763975155279508,-13.447599437646563 l -7.763975155279498,-13.447599437646568 l -15.527950310559008,-7.757769582008082e-15 l -7.7639751552795095,13.447599437646561 l 7.763975155279494,13.447599437646572 Z"/>
  </g>
  <defs>
  </defs>
  <g stroke-linejoin="miter" stroke-opacity="1.0" fill-opacity="1.0" stroke="rgb(128,0,128)" stroke-width="3.4914444309452795" fill="rgb(255,165,0)" stroke-linecap="butt" stroke-miterlimit="10.0">
    <path d="M 304.3478260869565,109.13359053222844 l 7.763975155279508,-13.447599437646563 l -7.763975155279498,-13.447599437646568 l -15.527950310559008,-7.757769582008082e-15 l -7.7639751552795095,13.447599437646561 l 7.763975155279494,13.447599437646572 Z"/>
  </g>
  <defs>
  </defs>
  <g stroke-linejoin="miter" stroke-opacity="1.0" fill-opacity="1.0" stroke="rgb(128,0,128)" stroke-width="3.4914444309452795" fill="rgb(255,165,0)" stroke-linecap="butt" stroke-miterlimit="10.0">
    <path d="M 273.2919254658385,109.13359053222844 l 7.763975155279508,-13.447599437646563 l -7.763975155279498,-13.447599437646568 l -15.527950310559008,-7.757769582008082e-15 l -7.7639751552795095,13.447599437646561 l 7.763975155279494,13.447599437646572 Z"/>
  </g>
  <defs>
  </defs>
  <g stroke-linejoin="miter" stroke-opacity="1.0" fill-opacity="1.0" stroke="rgb(128,0,128)" stroke-width="3.4914444309452795" fill="rgb(255,165,0)" stroke-linecap="butt" stroke-miterlimit="10.0">
    <path d="M 288.8198757763975,82.2383916569353 l 7.763975155279508,-13.447599437646563 l -7.763975155279498,-13.447599437646568 l -15.527950310559008,-7.757769582008082e-15 l -7.7639751552795095,13.447599437646561 l 7.763975155279494,13.447599437646572 Z"/>
  </g>
  <defs>
  </defs>
  <g stroke-linejoin="miter" stroke-opacity="1.0" fill-opacity="1.0" stroke="rgb(128,0,128)" stroke-width="3.4914444309452795" fill="rgb(255,165,0)" stroke-linecap="butt" stroke-miterlimit="10.0">
    <path d="M 242.23602484472048,109.13359053222844 l 7.763975155279508,-13.447599437646563 l -7.763975155279498,-13.447599437646568 l -15.527950310559008,-7.757769582008082e-15 l -7.7639751552795095,13.447599437646561 l 7.763975155279494,13.447599437646572 Z"/>
  </g>
  <defs>
  </defs>
  <g stroke-linejoin="miter" stroke-opacity="1.0" fill-opacity="1.0" stroke="rgb(128,0,128)" stroke-width="3.4914444309452795" fill="rgb(255,165,0)" stroke-linecap="butt" stroke-miterlimit="10.0">
    <path d="M 211.18012422360246,109.13359053222844 l 7.763975155279508,-13.447599437646563 l -7.763975155279498,-13.447599437646568 l -15.527950310559008,-7.757769582008082e-15 l -7.7639751552795095,13.447599437646561 l 7.763975155279494,13.447599437646572 Z"/>
  </g>
  <defs>
  </defs>
  <g stroke-linejoin="miter" stroke-opacity="1.0" fill-opacity="1.0" stroke="rgb(128,0,128)" stroke-width="3.4914444309452795" fill="rgb(255,165,0)" stroke-linecap="butt" stroke-miterlimit="10.0">
    <path d="M 226.70807453416148,82.2383916569353 l 7.763975155279508,-13.447599437646563 l -7.763975155279498,-13.447599437646568 l -15.527950310559008,-7.757769582008082e-15 l -7.7639751552795095,13.447599437646561 l 7.763975155279494,13.447599437646572 Z"/>
  </g>
  <defs>
  </defs>
  <g stroke-linejoin="miter" stroke-opacity="1.0" fill-opacity="1.0" stroke="rgb(128,0,128)" stroke-width="3.4914444309452795" fill="rgb(255,165,0)" stroke-linecap="butt" stroke-miterlimit="10.0">
    <path d="M 273.2919254658385,55.343192781642166 l 7.763975155279508,-13.447599437646563 l -7.763975155279498,-13.447599437646568 l -15.527950310559008,-7.757769582008082e-15 l -7.7639751552795095,13.447599437646561 l 7.763975155279494,13.447599437646572 Z"/>
  </g>
  <defs>
  </defs>
  <g stroke-linejoin="miter" stroke-opacity="1.0" fill-opacity="1.0" stroke="rgb(128,0,128)" stroke-width="3.4914444309452795" fill="rgb(255,165,0)" stroke-linecap="butt" stroke-miterlimit="10.0">
    <path d="M 242.23602484472048,55.343192781642166 l 7.763975155279508,-13.447599437646563 l -7.763975155279498,-13.447599437646568 l -15.527950310559008,-7.757769582008082e-15 l -7.7639751552795095,13.447599437646561 l 7.763975155279494,13.447599437646572 Z"/>
  </g>
  <defs>
  </defs>
  <g stroke-linejoin="miter" stroke-opacity="1.0" fill-opacity="1.0" stroke="rgb(128,0,128)" stroke-width="3.4914444309452795" fill="rgb(255,165,0)" stroke-linecap="butt" stroke-miterlimit="10.0">
    <path d="M 257.7639751552795,28.447993906349033 l 7.763975155279508,-13.447599437646563 l -7.763975155279498,-13.447599437646568 l -15.527950310559008,-7.757769582008082e-15 l -7.7639751552795095,13.447599437646561 l 7.763975155279494,13.447599437646572 Z"/>
  </g>
</svg>