<?xml version="1.0" encoding="UTF-8"?>
<!DOCTYPE svg PUBLIC "-//W3C//DTD SVG 1.1//EN"
    "http://www.w3.org/Graphics/SVG/1.1/DTD/svg11.dtd">
<svg xmlns="http://www.w3.org/2000/svg" height="495.1488669105074" stroke-opacity="1" viewBox="0 0 500 495" font-size="1" width="500.0" xmlns:xlink="http://www.w3.org/1999/xlink" stroke="rgb(0,0,0)" version="1.1">
  <defs>
  </defs>
  <defs>
  </defs>
  <g stroke-linejoin="miter" stroke-opacity="1.0" fill-opacity="1.0" stroke="rgb(0,0,0)" stroke-width="1.9902740854676422" fill="rgb(144,238,144)" stroke-linecap="butt" stroke-miterlimit="10.0">
    <path d="M 418.9189189189188,481.6353533969939 l 67.5675675675676,-117.03045997087006 l -67.56756756756751,-117.03045997087011 l -135.13513513513513,-6.751356230828655e-14 l -67.56756756756761,117.03045997087004 l 67.56756756756748,117.03045997087014 Z"/>
  </g>
  <defs>
  </defs>
  <g stroke-linejoin="miter" stroke-opacity="1.0" fill-opacity="1.0" stroke="rgb(0,0,0)" stroke-width="0.0" fill="rgb(255,0,0)" stroke-linecap="butt" stroke-miterlimit="10.0">
    <path d="M 294.5945945945946,247.57443345525368 c 0.0,-5.9706459441166855 -4.840164866694122,-10.810810810810809 -10.810810810810807 -10.810810810810809c -5.9706459441166855,-3.6559662221523125e-16 -10.810810810810809,4.8401648666941215 -10.810810810810809 10.810810810810805c -7.311932444304625e-16,5.9706459441166855 4.8401648666941215,10.810810810810809 10.810810810810803 10.810810810810809c 5.9706459441166855,1.0967898666456937e-15 10.810810810810809,-4.840164866694121 10.81081081081081 -10.810810810810805Z"/>
  </g>
  <defs>
  </defs>
  <g stroke-linejoin="miter" stroke-opacity="1.0" fill-opacity="1.0" stroke="rgb(0,0,0)" stroke-width="1.9902740854676422" fill="rgb(144,238,144)" stroke-linecap="butt" stroke-miterlimit="10.0">
    <path d="M 418.9189189189189,247.57443345525374 l 67.5675675675676,-117.03045997087006 l -67.56756756756751,-117.03045997087011 l -135.13513513513513,-6.751356230828655e-14 l -67.56756756756761,117.03045997087004 l 67.56756756756748,117.03045997087014 Z"/>
  </g>
  <defs>
  </defs>
  <g stroke-linejoin="miter" stroke-opacity="1.0" fill-opacity="1.0" stroke="rgb(0,0,0)" stroke-width="0.0" fill="rgb(255,0,0)" stroke-linecap="butt" stroke-miterlimit="10.0">
    <path d="M 294.5945945945946,247.57443345525368 c 0.0,-5.9706459441166855 -4.840164866694122,-10.810810810810809 -10.810810810810807 -10.810810810810809c -5.9706459441166855,-3.6559662221523125e-16 -10.810810810810809,4.8401648666941215 -10.810810810810809 10.810810810810805c -7.311932444304625e-16,5.9706459441166855 4.8401648666941215,10.810810810810809 10.810810810810803 10.810810810810809c 5.9706459441166855,1.0967898666456937e-15 10.810810810810809,-4.840164866694121 10.81081081081081 -10.810810810810805Z"/>
  </g>
  <defs>
  </defs>
  <g stroke-linejoin="miter" stroke-opacity="1.0" fill-opacity="1.0" stroke="rgb(0,0,0)" stroke-width="1.9902740854676422" fill="rgb(144,238,144)" stroke-linecap="butt" stroke-miterlimit="10.0">
    <path d="M 216.21621621621617,364.6048934261238 l 67.5675675675676,-117.03045997087006 l -67.56756756756751,-117.03045997087011 l -135.13513513513513,-6.751356230828655e-14 l -67.56756756756761,117.03045997087004 l 67.56756756756748,117.03045997087014 Z"/>
  </g>
  <defs>
  </defs>
  <g stroke-linejoin="miter" stroke-opacity="1.0" fill-opacity="1.0" stroke="rgb(0,0,0)" stroke-width="0.0" fill="rgb(255,0,0)" stroke-linecap="butt" stroke-miterlimit="10.0">
    <path d="M 294.5945945945946,247.57443345525368 c 0.0,-5.9706459441166855 -4.840164866694122,-10.810810810810809 -10.810810810810807 -10.810810810810809c -5.9706459441166855,-3.6559662221523125e-16 -10.810810810810809,4.8401648666941215 -10.810810810810809 10.810810810810805c -7.311932444304625e-16,5.9706459441166855 4.8401648666941215,10.810810810810809 10.810810810810803 10.810810810810809c 5.9706459441166855,1.0967898666456937e-15 10.810810810810809,-4.840164866694121 10.81081081081081 -10.810810810810805Z"/>
  </g>
</svg>