<?xml version="1.0" encoding="UTF-8"?>
<!DOCTYPE svg PUBLIC "-//W3C//DTD SVG 1.1//EN"
    "http://www.w3.org/Graphics/SVG/1.1/DTD/svg11.dtd">
<svg xmlns="http://www.w3.org/2000/svg" height="143.97367338543813" stroke-opacity="1" viewBox="0 0 500 144" font-size="1" width="500.0" xmlns:xlink="http://www.w3.org/1999/xlink" stroke="rgb(0,0,0)" version="1.1">
  <defs>
  </defs>
  <defs>
  </defs>
  <g stroke-linejoin="miter" stroke-opacity="1.0" fill-opacity="0.0" stroke="rgb(0,0,0)" stroke-width="1.0732145112154907" fill="rgb(0,0,0)" stroke-linecap="butt" stroke-miterlimit="10.0">
    <path d="M 366.31016042780755,133.68983957219254 h 123.40600575894695 v -123.40600575894695 h -82.27067050596463 v 41.135335252982316 h 41.135335252982316 v 41.135335252982316 h -82.27067050596463 v 41.135335252982316 "/>
  </g>
  <defs>
  </defs>
  <g stroke-linejoin="miter" stroke-opacity="1.0" fill-opacity="0.0" stroke="rgb(0,0,0)" stroke-width="1.0732145112154907" fill="rgb(0,0,0)" stroke-dashoffset="0.0" stroke-linecap="butt" stroke-miterlimit="10.0" stroke-dasharray="4.113533525298232,4.113533525298232">
    <path d="M 407.44549568078986,84.32743726861376 l 19.74496092143151,-32.908268202385855 "/>
  </g>
  <defs>
  </defs>
  <g stroke-linejoin="miter" stroke-opacity="1.0" fill-opacity="1.0" stroke="rgb(0,0,0)" stroke-width="0.0" fill="rgb(0,0,255)" stroke-linecap="butt" stroke-miterlimit="10.0">
    <path d="M 409.50226244343895,84.32743726861376 c 0.0,-1.1359209169699578 -0.9208458456791577,-2.056766762649116 -2.0567667626491155 -2.056766762649116c -1.1359209169699578,-6.955509575258926e-17 -2.056766762649116,0.9208458456791576 -2.056766762649116 2.0567667626491155c -1.3911019150517853e-16,1.1359209169699578 0.9208458456791576,2.056766762649116 2.056766762649115 2.056766762649116c 1.1359209169699578,2.0866528725776782e-16 2.056766762649116,-0.9208458456791574 2.056766762649117 -2.0567667626491155Z"/>
  </g>
  <defs>
  </defs>
  <g stroke-linejoin="miter" stroke-opacity="1.0" fill-opacity="0.0" stroke="rgb(0,128,0)" stroke-width="1.0732145112154907" fill="rgb(0,0,0)" stroke-linecap="butt" stroke-miterlimit="10.0">
    <path d="M 407.44549568078975,84.32743726861376 l 14.91352320295005,-24.855872004916723 "/>
  </g>
  <defs>
  </defs>
  <g stroke-linejoin="miter" stroke-opacity="1.0" fill-opacity="1.0" stroke="rgb(0,128,0)" stroke-width="0.0" fill="rgb(0,128,0)" stroke-linecap="butt" stroke-miterlimit="10.0">
  </g>
  <defs>
  </defs>
  <g stroke-linejoin="miter" stroke-opacity="1.0" fill-opacity="1.0" stroke="rgb(0,128,0)" stroke-width="0.0" fill="rgb(0,128,0)" stroke-linecap="butt" stroke-miterlimit="10.0">
  </g>
  <defs>
  </defs>
  <g stroke-linejoin="miter" stroke-opacity="1.0" fill-opacity="1.0" stroke="rgb(0,128,0)" stroke-width="0.0" fill="rgb(0,128,0)" stroke-linecap="butt" stroke-miterlimit="10.0">
    <path d="M 427.1904566022213,51.4191690662279 l -8.712315205249585,7.583181056508057 l 4.026022465332192,0.22730684335425577 l 2.095163668998313,3.445404837244051 Z"/>
  </g>
  <defs>
  </defs>
  <g stroke-linejoin="miter" stroke-opacity="1.0" fill-opacity="1.0" stroke="rgb(0,128,0)" stroke-width="0.0" fill="rgb(0,128,0)" stroke-linecap="butt" stroke-miterlimit="10.0">
    <path d="M 422.50416386230387,59.22965696609022 l -0.1451449785640912,0.2419082976068184 l -0.4601369255696645,-0.27608215534179903 l 0.6052819041337557,3.417385773498063e-2 l -0.1451449785640912,0.2419082976068184 l 0.4601369255696645,0.27608215534179903 Z"/>
  </g>
  <defs>
  </defs>
  <g stroke-linejoin="miter" stroke-opacity="1.0" fill-opacity="1.0" stroke="rgb(0,0,0)" stroke-width="0.0" fill="rgb(255,0,0)" stroke-linecap="butt" stroke-miterlimit="10.0">
    <path d="M 429.2472233648705,51.41916906622791 c 0.0,-1.1359209169699578 -0.9208458456791577,-2.056766762649116 -2.0567667626491155 -2.056766762649116c -1.1359209169699578,-6.955509575258926e-17 -2.056766762649116,0.9208458456791576 -2.056766762649116 2.0567667626491155c -1.3911019150517853e-16,1.1359209169699578 0.9208458456791576,2.056766762649116 2.056766762649115 2.056766762649116c 1.1359209169699578,2.0866528725776782e-16 2.056766762649116,-0.9208458456791574 2.056766762649117 -2.0567667626491155Z"/>
  </g>
  <defs>
  </defs>
  <g stroke-linejoin="miter" stroke-opacity="1.0" fill-opacity="0.0" stroke="rgb(0,0,0)" stroke-width="1.0732145112154907" fill="rgb(0,0,0)" stroke-linecap="butt" stroke-miterlimit="10.0">
    <path d="M 187.268613739202,133.68983957219254 h 123.40600575894695 v -123.40600575894695 h -82.27067050596463 v 41.135335252982316 h 41.135335252982316 v 41.135335252982316 h -82.27067050596463 v 41.135335252982316 "/>
  </g>
  <defs>
  </defs>
  <g stroke-linejoin="miter" stroke-opacity="1.0" fill-opacity="0.0" stroke="rgb(0,0,0)" stroke-width="1.0732145112154907" fill="rgb(0,0,0)" stroke-dashoffset="0.0" stroke-linecap="butt" stroke-miterlimit="10.0" stroke-dasharray="4.113533525298232,4.113533525298232">
    <path d="M 273.6528177704649,102.8383381324558 l 37.02180172768408,-61.70300287947347 "/>
  </g>
  <defs>
  </defs>
  <g stroke-linejoin="miter" stroke-opacity="1.0" fill-opacity="1.0" stroke="rgb(0,0,0)" stroke-width="0.0" fill="rgb(0,0,255)" stroke-linecap="butt" stroke-miterlimit="10.0">
    <path d="M 275.70958453311397,102.8383381324558 c 0.0,-1.1359209169699578 -0.9208458456791577,-2.056766762649116 -2.0567667626491155 -2.056766762649116c -1.1359209169699578,-6.955509575258926e-17 -2.056766762649116,0.9208458456791576 -2.056766762649116 2.0567667626491155c -1.3911019150517853e-16,1.1359209169699578 0.9208458456791576,2.056766762649116 2.056766762649115 2.056766762649116c 1.1359209169699578,2.0866528725776782e-16 2.056766762649116,-0.9208458456791574 2.056766762649117 -2.0567667626491155Z"/>
  </g>
  <defs>
  </defs>
  <g stroke-linejoin="miter" stroke-opacity="1.0" fill-opacity="0.0" stroke="rgb(0,128,0)" stroke-width="1.0732145112154907" fill="rgb(0,0,0)" stroke-linecap="butt" stroke-miterlimit="10.0">
    <path d="M 273.6528177704648,102.8383381324558 l 32.190364009202604,-53.65060668200433 "/>
  </g>
  <defs>
  </defs>
  <g stroke-linejoin="miter" stroke-opacity="1.0" fill-opacity="1.0" stroke="rgb(0,128,0)" stroke-width="0.0" fill="rgb(0,128,0)" stroke-linecap="butt" stroke-miterlimit="10.0">
  </g>
  <defs>
  </defs>
  <g stroke-linejoin="miter" stroke-opacity="1.0" fill-opacity="1.0" stroke="rgb(0,128,0)" stroke-width="0.0" fill="rgb(0,128,0)" stroke-linecap="butt" stroke-miterlimit="10.0">
  </g>
  <defs>
  </defs>
  <g stroke-linejoin="miter" stroke-opacity="1.0" fill-opacity="1.0" stroke="rgb(0,128,0)" stroke-width="0.0" fill="rgb(0,128,0)" stroke-linecap="butt" stroke-miterlimit="10.0">
    <path d="M 310.6746194981489,41.13533525298234 l -8.712315205249581,7.58318105650806 l 4.026022465332192,0.227306843354254 l 2.0951636689983144,3.44540483724405 Z"/>
  </g>
  <defs>
  </defs>
  <g stroke-linejoin="miter" stroke-opacity="1.0" fill-opacity="1.0" stroke="rgb(0,128,0)" stroke-width="0.0" fill="rgb(0,128,0)" stroke-linecap="butt" stroke-miterlimit="10.0">
    <path d="M 305.9883267582315,48.94582315284465 l -0.1451449785640911,0.24190829760681845 l -0.4601369255696646,-0.2760821553417988 l 0.6052819041337557,3.4173857734980356e-2 l -0.1451449785640911,0.24190829760681845 l 0.4601369255696646,0.2760821553417988 Z"/>
  </g>
  <defs>
  </defs>
  <g stroke-linejoin="miter" stroke-opacity="1.0" fill-opacity="1.0" stroke="rgb(0,0,0)" stroke-width="0.0" fill="rgb(255,0,0)" stroke-linecap="butt" stroke-miterlimit="10.0">
    <path d="M 312.73138626079805,41.13533525298233 c 0.0,-1.1359209169699578 -0.9208458456791577,-2.056766762649116 -2.0567667626491155 -2.056766762649116c -1.1359209169699578,-6.955509575258926e-17 -2.056766762649116,0.9208458456791576 -2.056766762649116 2.0567667626491155c -1.3911019150517853e-16,1.1359209169699578 0.9208458456791576,2.056766762649116 2.056766762649115 2.056766762649116c 1.1359209169699578,2.0866528725776782e-16 2.056766762649116,-0.9208458456791574 2.056766762649117 -2.0567667626491155Z"/>
  </g>
  <defs>
  </defs>
  <g stroke-linejoin="miter" stroke-opacity="1.0" fill-opacity="0.0" stroke="rgb(0,0,0)" stroke-width="1.0732145112154907" fill="rgb(0,0,0)" stroke-linecap="butt" stroke-miterlimit="10.0">
    <path d="M 10.283833813245565,133.68983957219254 h 123.40600575894695 v -123.40600575894695 h -82.27067050596463 v 41.135335252982316 h 41.135335252982316 v 41.135335252982316 h -82.27067050596463 v 41.135335252982316 "/>
  </g>
  <defs>
  </defs>
  <g stroke-linejoin="miter" stroke-opacity="1.0" fill-opacity="0.0" stroke="rgb(0,0,0)" stroke-width="1.0732145112154907" fill="rgb(0,0,0)" stroke-dashoffset="0.0" stroke-linecap="butt" stroke-miterlimit="10.0" stroke-dasharray="4.113533525298232,4.113533525298232">
    <path d="M 51.41916906622788,113.12217194570138 l 12.340600575894696,-20.567667626491158 "/>
  </g>
  <defs>
  </defs>
  <g stroke-linejoin="miter" stroke-opacity="1.0" fill-opacity="1.0" stroke="rgb(0,0,0)" stroke-width="0.0" fill="rgb(0,0,255)" stroke-linecap="butt" stroke-miterlimit="10.0">
    <path d="M 53.475935828877,113.12217194570138 c 0.0,-1.1359209169699578 -0.9208458456791577,-2.056766762649116 -2.0567667626491155 -2.056766762649116c -1.1359209169699578,-6.955509575258926e-17 -2.056766762649116,0.9208458456791576 -2.056766762649116 2.0567667626491155c -1.3911019150517853e-16,1.1359209169699578 0.9208458456791576,2.056766762649116 2.056766762649115 2.056766762649116c 1.1359209169699578,2.0866528725776782e-16 2.056766762649116,-0.9208458456791574 2.056766762649117 -2.0567667626491155Z"/>
  </g>
  <defs>
  </defs>
  <g stroke-linejoin="miter" stroke-opacity="1.0" fill-opacity="0.0" stroke="rgb(0,128,0)" stroke-width="1.0732145112154907" fill="rgb(0,0,0)" stroke-linecap="butt" stroke-miterlimit="10.0">
    <path d="M 51.41916906622788,113.12217194570138 l 7.509162857413212,-12.51527142902202 "/>
  </g>
  <defs>
  </defs>
  <g stroke-linejoin="miter" stroke-opacity="1.0" fill-opacity="1.0" stroke="rgb(0,128,0)" stroke-width="0.0" fill="rgb(0,128,0)" stroke-linecap="butt" stroke-miterlimit="10.0">
  </g>
  <defs>
  </defs>
  <g stroke-linejoin="miter" stroke-opacity="1.0" fill-opacity="1.0" stroke="rgb(0,128,0)" stroke-width="0.0" fill="rgb(0,128,0)" stroke-linecap="butt" stroke-miterlimit="10.0">
  </g>
  <defs>
  </defs>
  <g stroke-linejoin="miter" stroke-opacity="1.0" fill-opacity="1.0" stroke="rgb(0,128,0)" stroke-width="0.0" fill="rgb(0,128,0)" stroke-linecap="butt" stroke-miterlimit="10.0">
    <path d="M 63.75976964212258,92.55450431921024 l -8.712315205249581,7.58318105650806 l 4.026022465332192,0.227306843354254 l 2.0951636689983144,3.44540483724405 Z"/>
  </g>
  <defs>
  </defs>
  <g stroke-linejoin="miter" stroke-opacity="1.0" fill-opacity="1.0" stroke="rgb(0,128,0)" stroke-width="0.0" fill="rgb(0,128,0)" stroke-linecap="butt" stroke-miterlimit="10.0">
    <path d="M 59.073476902205186,100.36499221907255 l -0.1451449785640911,0.24190829760681845 l -0.4601369255696646,-0.2760821553417988 l 0.6052819041337557,3.4173857734980356e-2 l -0.1451449785640911,0.24190829760681845 l 0.4601369255696646,0.2760821553417988 Z"/>
  </g>
  <defs>
  </defs>
  <g stroke-linejoin="miter" stroke-opacity="1.0" fill-opacity="1.0" stroke="rgb(0,0,0)" stroke-width="0.0" fill="rgb(255,0,0)" stroke-linecap="butt" stroke-miterlimit="10.0">
    <path d="M 65.8165364047717,92.55450431921022 c 0.0,-1.1359209169699578 -0.9208458456791577,-2.056766762649116 -2.0567667626491155 -2.056766762649116c -1.1359209169699578,-6.955509575258926e-17 -2.056766762649116,0.9208458456791576 -2.056766762649116 2.0567667626491155c -1.3911019150517853e-16,1.1359209169699578 0.9208458456791576,2.056766762649116 2.056766762649115 2.056766762649116c 1.1359209169699578,2.0866528725776782e-16 2.056766762649116,-0.9208458456791574 2.056766762649117 -2.0567667626491155Z"/>
  </g>
</svg>