<?xml version="1.0" encoding="UTF-8"?>
<!DOCTYPE svg PUBLIC "-//W3C//DTD SVG 1.1//EN"
    "http://www.w3.org/Graphics/SVG/1.1/DTD/svg11.dtd">
<svg xmlns="http://www.w3.org/2000/svg" height="146.23611682435214" stroke-opacity="1" viewBox="0 0 500 146" font-size="1" width="500.0" xmlns:xlink="http://www.w3.org/1999/xlink" stroke="rgb(0,0,0)" version="1.1">
  <defs>
  </defs>
  <defs>
  </defs>
  <g stroke-linejoin="miter" stroke-opacity="1.0" fill-opacity="0.0" stroke="rgb(0,0,0)" stroke-width="1.0816140414190345" fill="rgb(0,0,0)" stroke-linecap="butt" stroke-miterlimit="10.0">
    <path d="M 366.31016042780755,135.8494446729741 h 123.40600575894695 v -123.40600575894695 h -82.27067050596463 v 41.135335252982316 h 41.135335252982316 v 41.135335252982316 h -82.27067050596463 v 41.135335252982316 "/>
  </g>
  <defs>
  </defs>
  <g stroke-linejoin="miter" stroke-opacity="1.0" fill-opacity="0.0" stroke="rgb(0,0,0)" stroke-width="1.0816140414190345" fill="rgb(0,0,0)" stroke-dashoffset="0.0" stroke-linecap="butt" stroke-miterlimit="10.0" stroke-dasharray="4.113533525298232,4.113533525298232">
    <path d="M 407.44549568078986,86.48704236939533 l 44.4261620732209,-74.04360345536817 "/>
  </g>
  <defs>
  </defs>
  <g stroke-linejoin="miter" stroke-opacity="1.0" fill-opacity="1.0" stroke="rgb(0,0,0)" stroke-width="0.0" fill="rgb(0,0,255)" stroke-linecap="butt" stroke-miterlimit="10.0">
    <path d="M 409.50226244343895,86.48704236939533 c 0.0,-1.1359209169699578 -0.9208458456791577,-2.056766762649116 -2.0567667626491155 -2.056766762649116c -1.1359209169699578,-6.955509575258926e-17 -2.056766762649116,0.9208458456791576 -2.056766762649116 2.0567667626491155c -1.3911019150517853e-16,1.1359209169699578 0.9208458456791576,2.056766762649116 2.056766762649115 2.056766762649116c 1.1359209169699578,2.0866528725776782e-16 2.056766762649116,-0.9208458456791574 2.056766762649117 -2.0567667626491155Z"/>
  </g>
  <defs>
  </defs>
  <g stroke-linejoin="miter" stroke-opacity="1.0" fill-opacity="0.0" stroke="rgb(0,0,255)" stroke-width="1.0816140414190345" fill="rgb(0,0,0)" stroke-linecap="butt" stroke-miterlimit="10.0">
    <path d="M 407.44549568078975,86.48704236939533 l 7.471349534336775,-12.452249223894606 "/>
  </g>
  <defs>
  </defs>
  <g stroke-linejoin="miter" stroke-opacity="1.0" fill-opacity="1.0" stroke="rgb(0,0,255)" stroke-width="0.0" fill="rgb(0,0,255)" stroke-linecap="butt" stroke-miterlimit="10.0">
  </g>
  <defs>
  </defs>
  <g stroke-linejoin="miter" stroke-opacity="1.0" fill-opacity="1.0" stroke="rgb(0,0,255)" stroke-width="0.0" fill="rgb(0,0,255)" stroke-linecap="butt" stroke-miterlimit="10.0">
  </g>
  <defs>
  </defs>
  <g stroke-linejoin="miter" stroke-opacity="1.0" fill-opacity="1.0" stroke="rgb(0,0,255)" stroke-width="0.0" fill="rgb(0,0,255)" stroke-linecap="butt" stroke-miterlimit="10.0">
    <path d="M 419.78609625668446,65.91937474290417 l -8.780502276841085,7.6425309419759095 l 4.057532193298322,0.22908586392868416 l 2.1115615003127504,3.472370352237965 Z"/>
  </g>
  <defs>
  </defs>
  <g stroke-linejoin="miter" stroke-opacity="1.0" fill-opacity="1.0" stroke="rgb(0,0,255)" stroke-width="0.0" fill="rgb(0,0,255)" stroke-linecap="butt" stroke-miterlimit="10.0">
    <path d="M 415.0631261731417,73.79099154880876 l -0.14628095801517138,0.24380159669195187 l -0.46373819443408826,-0.2782429166604534 l 0.6100191524492596,3.444131996850152e-2 l -0.14628095801517138,0.24380159669195187 l 0.46373819443408826,0.2782429166604534 Z"/>
  </g>
  <defs>
  </defs>
  <g stroke-linejoin="miter" stroke-opacity="1.0" fill-opacity="0.0" stroke="rgb(0,128,0)" stroke-width="1.0816140414190345" fill="rgb(0,0,0)" stroke-linecap="butt" stroke-miterlimit="10.0">
    <path d="M 407.44549568078975,86.48704236939533 l 39.55691103166297,-65.92818505277162 "/>
  </g>
  <defs>
  </defs>
  <g stroke-linejoin="miter" stroke-opacity="1.0" fill-opacity="1.0" stroke="rgb(0,128,0)" stroke-width="0.0" fill="rgb(0,128,0)" stroke-linecap="butt" stroke-miterlimit="10.0">
  </g>
  <defs>
  </defs>
  <g stroke-linejoin="miter" stroke-opacity="1.0" fill-opacity="1.0" stroke="rgb(0,128,0)" stroke-width="0.0" fill="rgb(0,128,0)" stroke-linecap="butt" stroke-miterlimit="10.0">
  </g>
  <defs>
  </defs>
  <g stroke-linejoin="miter" stroke-opacity="1.0" fill-opacity="1.0" stroke="rgb(0,128,0)" stroke-width="0.0" fill="rgb(0,128,0)" stroke-linecap="butt" stroke-miterlimit="10.0">
    <path d="M 451.87165775401064,12.443438914027151 l -8.78050227684108,7.642530941975916 l 4.057532193298322,0.22908586392868147 l 2.1115615003127526,3.472370352237964 Z"/>
  </g>
  <defs>
  </defs>
  <g stroke-linejoin="miter" stroke-opacity="1.0" fill-opacity="1.0" stroke="rgb(0,128,0)" stroke-width="0.0" fill="rgb(0,128,0)" stroke-linecap="butt" stroke-miterlimit="10.0">
    <path d="M 447.1486876704679,20.31505571993175 l -0.14628095801517121,0.24380159669195198 l -0.4637381944340884,-0.2782429166604531 l 0.6100191524492596,3.444131996850111e-2 l -0.14628095801517121,0.24380159669195198 l 0.4637381944340884,0.2782429166604531 Z"/>
  </g>
  <defs>
  </defs>
  <g stroke-linejoin="miter" stroke-opacity="1.0" fill-opacity="1.0" stroke="rgb(0,0,0)" stroke-width="0.0" fill="rgb(255,0,0)" stroke-linecap="butt" stroke-miterlimit="10.0">
    <path d="M 453.92842451665985,12.443438914027155 c 0.0,-1.1359209169699578 -0.9208458456791577,-2.056766762649116 -2.0567667626491155 -2.056766762649116c -1.1359209169699578,-6.955509575258926e-17 -2.056766762649116,0.9208458456791576 -2.056766762649116 2.0567667626491155c -1.3911019150517853e-16,1.1359209169699578 0.9208458456791576,2.056766762649116 2.056766762649115 2.056766762649116c 1.1359209169699578,2.0866528725776782e-16 2.056766762649116,-0.9208458456791574 2.056766762649117 -2.0567667626491155Z"/>
  </g>
  <defs>
  </defs>
  <g stroke-linejoin="miter" stroke-opacity="1.0" fill-opacity="0.0" stroke="rgb(0,0,0)" stroke-width="1.0816140414190345" fill="rgb(0,0,0)" stroke-linecap="butt" stroke-miterlimit="10.0">
    <path d="M 187.268613739202,134.82106129164953 h 123.40600575894695 v -123.40600575894695 h -82.27067050596463 v 41.135335252982316 h 41.135335252982316 v 41.135335252982316 h -82.27067050596463 v 41.135335252982316 "/>
  </g>
  <defs>
  </defs>
  <g stroke-linejoin="miter" stroke-opacity="1.0" fill-opacity="0.0" stroke="rgb(0,0,0)" stroke-width="1.0816140414190345" fill="rgb(0,0,0)" stroke-dashoffset="0.0" stroke-linecap="butt" stroke-miterlimit="10.0" stroke-dasharray="4.113533525298232,4.113533525298232">
    <path d="M 273.6528177704649,103.96955985191279 l 37.02180172768408,-61.70300287947347 "/>
  </g>
  <defs>
  </defs>
  <g stroke-linejoin="miter" stroke-opacity="1.0" fill-opacity="1.0" stroke="rgb(0,0,0)" stroke-width="0.0" fill="rgb(0,0,255)" stroke-linecap="butt" stroke-miterlimit="10.0">
    <path d="M 275.70958453311397,103.96955985191279 c 0.0,-1.1359209169699578 -0.9208458456791577,-2.056766762649116 -2.0567667626491155 -2.056766762649116c -1.1359209169699578,-6.955509575258926e-17 -2.056766762649116,0.9208458456791576 -2.056766762649116 2.0567667626491155c -1.3911019150517853e-16,1.1359209169699578 0.9208458456791576,2.056766762649116 2.056766762649115 2.056766762649116c 1.1359209169699578,2.0866528725776782e-16 2.056766762649116,-0.9208458456791574 2.056766762649117 -2.0567667626491155Z"/>
  </g>
  <defs>
  </defs>
  <g stroke-linejoin="miter" stroke-opacity="1.0" fill-opacity="0.0" stroke="rgb(0,0,255)" stroke-width="1.0816140414190345" fill="rgb(0,0,0)" stroke-linecap="butt" stroke-miterlimit="10.0">
    <path d="M 273.6528177704648,103.96955985191279 l 7.471349534336775,-12.452249223894606 "/>
  </g>
  <defs>
  </defs>
  <g stroke-linejoin="miter" stroke-opacity="1.0" fill-opacity="1.0" stroke="rgb(0,0,255)" stroke-width="0.0" fill="rgb(0,0,255)" stroke-linecap="butt" stroke-miterlimit="10.0">
  </g>
  <defs>
  </defs>
  <g stroke-linejoin="miter" stroke-opacity="1.0" fill-opacity="1.0" stroke="rgb(0,0,255)" stroke-width="0.0" fill="rgb(0,0,255)" stroke-linecap="butt" stroke-miterlimit="10.0">
  </g>
  <defs>
  </defs>
  <g stroke-linejoin="miter" stroke-opacity="1.0" fill-opacity="1.0" stroke="rgb(0,0,255)" stroke-width="0.0" fill="rgb(0,0,255)" stroke-linecap="butt" stroke-miterlimit="10.0">
    <path d="M 285.99341834635953,83.40189222542163 l -8.780502276841085,7.6425309419759095 l 4.057532193298322,0.22908586392868416 l 2.1115615003127504,3.472370352237965 Z"/>
  </g>
  <defs>
  </defs>
  <g stroke-linejoin="miter" stroke-opacity="1.0" fill-opacity="1.0" stroke="rgb(0,0,255)" stroke-width="0.0" fill="rgb(0,0,255)" stroke-linecap="butt" stroke-miterlimit="10.0">
    <path d="M 281.2704482628168,91.27350903132623 l -0.14628095801517138,0.24380159669195187 l -0.46373819443408826,-0.2782429166604534 l 0.6100191524492596,3.444131996850152e-2 l -0.14628095801517138,0.24380159669195187 l 0.46373819443408826,0.2782429166604534 Z"/>
  </g>
  <defs>
  </defs>
  <g stroke-linejoin="miter" stroke-opacity="1.0" fill-opacity="0.0" stroke="rgb(0,128,0)" stroke-width="1.0816140414190345" fill="rgb(0,0,0)" stroke-linecap="butt" stroke-miterlimit="10.0">
    <path d="M 273.6528177704648,103.96955985191279 l 32.15255068612615,-53.58758447687691 "/>
  </g>
  <defs>
  </defs>
  <g stroke-linejoin="miter" stroke-opacity="1.0" fill-opacity="1.0" stroke="rgb(0,128,0)" stroke-width="0.0" fill="rgb(0,128,0)" stroke-linecap="butt" stroke-miterlimit="10.0">
  </g>
  <defs>
  </defs>
  <g stroke-linejoin="miter" stroke-opacity="1.0" fill-opacity="1.0" stroke="rgb(0,128,0)" stroke-width="0.0" fill="rgb(0,128,0)" stroke-linecap="butt" stroke-miterlimit="10.0">
  </g>
  <defs>
  </defs>
  <g stroke-linejoin="miter" stroke-opacity="1.0" fill-opacity="1.0" stroke="rgb(0,128,0)" stroke-width="0.0" fill="rgb(0,128,0)" stroke-linecap="butt" stroke-miterlimit="10.0">
    <path d="M 310.6746194981489,42.26655697243933 l -8.78050227684108,7.642530941975916 l 4.057532193298322,0.22908586392868147 l 2.1115615003127526,3.472370352237964 Z"/>
  </g>
  <defs>
  </defs>
  <g stroke-linejoin="miter" stroke-opacity="1.0" fill-opacity="1.0" stroke="rgb(0,128,0)" stroke-width="0.0" fill="rgb(0,128,0)" stroke-linecap="butt" stroke-miterlimit="10.0">
    <path d="M 305.95164941460615,50.138173778343926 l -0.14628095801517121,0.24380159669195198 l -0.4637381944340884,-0.2782429166604531 l 0.6100191524492596,3.444131996850111e-2 l -0.14628095801517121,0.24380159669195198 l 0.4637381944340884,0.2782429166604531 Z"/>
  </g>
  <defs>
  </defs>
  <g stroke-linejoin="miter" stroke-opacity="1.0" fill-opacity="1.0" stroke="rgb(0,0,0)" stroke-width="0.0" fill="rgb(255,0,0)" stroke-linecap="butt" stroke-miterlimit="10.0">
    <path d="M 312.73138626079805,42.26655697243932 c 0.0,-1.1359209169699578 -0.9208458456791577,-2.056766762649116 -2.0567667626491155 -2.056766762649116c -1.1359209169699578,-6.955509575258926e-17 -2.056766762649116,0.9208458456791576 -2.056766762649116 2.0567667626491155c -1.3911019150517853e-16,1.1359209169699578 0.9208458456791576,2.056766762649116 2.056766762649115 2.056766762649116c 1.1359209169699578,2.0866528725776782e-16 2.056766762649116,-0.9208458456791574 2.056766762649117 -2.0567667626491155Z"/>
  </g>
  <defs>
  </defs>
  <g stroke-linejoin="miter" stroke-opacity="1.0" fill-opacity="0.0" stroke="rgb(0,0,0)" stroke-width="1.0816140414190345" fill="rgb(0,0,0)" stroke-linecap="butt" stroke-miterlimit="10.0">
    <path d="M 10.283833813245565,135.8494446729741 h 123.40600575894695 v -123.40600575894695 h -82.27067050596463 v 41.135335252982316 h 41.135335252982316 v 41.135335252982316 h -82.27067050596463 v 41.135335252982316 "/>
  </g>
  <defs>
  </defs>
  <g stroke-linejoin="miter" stroke-opacity="1.0" fill-opacity="0.0" stroke="rgb(0,0,0)" stroke-width="1.0816140414190345" fill="rgb(0,0,0)" stroke-dashoffset="0.0" stroke-linecap="butt" stroke-miterlimit="10.0" stroke-dasharray="4.113533525298232,4.113533525298232">
    <path d="M 51.41916906622788,115.28177704648294 l 61.70300287947347,-102.83833813245579 "/>
  </g>
  <defs>
  </defs>
  <g stroke-linejoin="miter" stroke-opacity="1.0" fill-opacity="1.0" stroke="rgb(0,0,0)" stroke-width="0.0" fill="rgb(0,0,255)" stroke-linecap="butt" stroke-miterlimit="10.0">
    <path d="M 53.475935828877,115.28177704648294 c 0.0,-1.1359209169699578 -0.9208458456791577,-2.056766762649116 -2.0567667626491155 -2.056766762649116c -1.1359209169699578,-6.955509575258926e-17 -2.056766762649116,0.9208458456791576 -2.056766762649116 2.0567667626491155c -1.3911019150517853e-16,1.1359209169699578 0.9208458456791576,2.056766762649116 2.056766762649115 2.056766762649116c 1.1359209169699578,2.0866528725776782e-16 2.056766762649116,-0.9208458456791574 2.056766762649117 -2.0567667626491155Z"/>
  </g>
  <defs>
  </defs>
  <g stroke-linejoin="miter" stroke-opacity="1.0" fill-opacity="0.0" stroke="rgb(0,0,255)" stroke-width="1.0816140414190345" fill="rgb(0,0,0)" stroke-linecap="butt" stroke-miterlimit="10.0">
    <path d="M 51.41916906622788,115.28177704648294 l 7.471349534336763,-12.452249223894606 "/>
  </g>
  <defs>
  </defs>
  <g stroke-linejoin="miter" stroke-opacity="1.0" fill-opacity="1.0" stroke="rgb(0,0,255)" stroke-width="0.0" fill="rgb(0,0,255)" stroke-linecap="butt" stroke-miterlimit="10.0">
  </g>
  <defs>
  </defs>
  <g stroke-linejoin="miter" stroke-opacity="1.0" fill-opacity="1.0" stroke="rgb(0,0,255)" stroke-width="0.0" fill="rgb(0,0,255)" stroke-linecap="butt" stroke-miterlimit="10.0">
  </g>
  <defs>
  </defs>
  <g stroke-linejoin="miter" stroke-opacity="1.0" fill-opacity="1.0" stroke="rgb(0,0,255)" stroke-width="0.0" fill="rgb(0,0,255)" stroke-linecap="butt" stroke-miterlimit="10.0">
    <path d="M 63.75976964212258,94.71410941999179 l -8.78050227684108,7.642530941975916 l 4.057532193298322,0.22908586392868147 l 2.1115615003127526,3.472370352237964 Z"/>
  </g>
  <defs>
  </defs>
  <g stroke-linejoin="miter" stroke-opacity="1.0" fill-opacity="1.0" stroke="rgb(0,0,255)" stroke-width="0.0" fill="rgb(0,0,255)" stroke-linecap="butt" stroke-miterlimit="10.0">
    <path d="M 59.036799558579816,102.58572622589638 l -0.14628095801517121,0.24380159669195198 l -0.4637381944340884,-0.2782429166604531 l 0.6100191524492596,3.444131996850111e-2 l -0.14628095801517121,0.24380159669195198 l 0.4637381944340884,0.2782429166604531 Z"/>
  </g>
  <defs>
  </defs>
  <g stroke-linejoin="miter" stroke-opacity="1.0" fill-opacity="0.0" stroke="rgb(0,128,0)" stroke-width="1.0816140414190345" fill="rgb(0,0,0)" stroke-linecap="butt" stroke-miterlimit="10.0">
    <path d="M 51.41916906622788,115.28177704648294 l 56.83375183791554,-94.72291972985923 "/>
  </g>
  <defs>
  </defs>
  <g stroke-linejoin="miter" stroke-opacity="1.0" fill-opacity="1.0" stroke="rgb(0,128,0)" stroke-width="0.0" fill="rgb(0,128,0)" stroke-linecap="butt" stroke-miterlimit="10.0">
  </g>
  <defs>
  </defs>
  <g stroke-linejoin="miter" stroke-opacity="1.0" fill-opacity="1.0" stroke="rgb(0,128,0)" stroke-width="0.0" fill="rgb(0,128,0)" stroke-linecap="butt" stroke-miterlimit="10.0">
  </g>
  <defs>
  </defs>
  <g stroke-linejoin="miter" stroke-opacity="1.0" fill-opacity="1.0" stroke="rgb(0,128,0)" stroke-width="0.0" fill="rgb(0,128,0)" stroke-linecap="butt" stroke-miterlimit="10.0">
    <path d="M 113.12217194570135,12.443438914027166 l -8.78050227684108,7.642530941975916 l 4.057532193298322,0.22908586392868147 l 2.1115615003127526,3.472370352237964 Z"/>
  </g>
  <defs>
  </defs>
  <g stroke-linejoin="miter" stroke-opacity="1.0" fill-opacity="1.0" stroke="rgb(0,128,0)" stroke-width="0.0" fill="rgb(0,128,0)" stroke-linecap="butt" stroke-miterlimit="10.0">
    <path d="M 108.39920186215859,20.315055719931763 l -0.14628095801517121,0.24380159669195198 l -0.4637381944340884,-0.2782429166604531 l 0.6100191524492596,3.444131996850111e-2 l -0.14628095801517121,0.24380159669195198 l 0.4637381944340884,0.2782429166604531 Z"/>
  </g>
  <defs>
  </defs>
  <g stroke-linejoin="miter" stroke-opacity="1.0" fill-opacity="1.0" stroke="rgb(0,0,0)" stroke-width="0.0" fill="rgb(255,0,0)" stroke-linecap="butt" stroke-miterlimit="10.0">
    <path d="M 115.17893870835047,12.443438914027155 c 0.0,-1.1359209169699578 -0.9208458456791577,-2.056766762649116 -2.0567667626491155 -2.056766762649116c -1.1359209169699578,-6.955509575258926e-17 -2.056766762649116,0.9208458456791576 -2.056766762649116 2.0567667626491155c -1.3911019150517853e-16,1.1359209169699578 0.9208458456791576,2.056766762649116 2.056766762649115 2.056766762649116c 1.1359209169699578,2.0866528725776782e-16 2.056766762649116,-0.9208458456791574 2.056766762649117 -2.0567667626491155Z"/>
  </g>
</svg>